/* XPM */
static char *result[] = {
/* columns rows colors chars-per-pixel */
"64 64 160 2 ",
"   c #352619",
".  c #37281C",
"X  c #3A2B1D",
"o  c #3D2D21",
"O  c #452E1D",
"+  c #4A2F1C",
"@  c #4E311D",
"#  c #55341E",
"$  c #60371F",
"%  c #433325",
"&  c #493523",
"*  c #4D3826",
"=  c #463628",
"-  c #483728",
";  c #47382A",
":  c #4C3A2A",
">  c #563720",
",  c #553D2B",
"<  c #583E2A",
"1  c #4E3F31",
"2  c #543F30",
"3  c #623D23",
"4  c #603F29",
"5  c #703F23",
"6  c #5E422B",
"7  c #554434",
"8  c #5A4533",
"9  c #5A4837",
"0  c #574738",
"q  c #5D4D3D",
"w  c #61432D",
"e  c #6C472D",
"r  c #6B492E",
"t  c #734123",
"y  c #7F4625",
"u  c #734927",
"i  c #7D472B",
"p  c #744D2C",
"a  c #7B4C2C",
"s  c #7F522A",
"d  c #6D4A33",
"f  c #624D3B",
"g  c #6D4E39",
"h  c #744E33",
"j  c #7E4D30",
"k  c #6F5036",
"l  c #61503F",
"z  c #6D523D",
"x  c #75533D",
"c  c #7A553B",
"v  c #635342",
"b  c #6D5B4A",
"n  c #775944",
"m  c #725C4A",
"M  c #6F604F",
"N  c #7C634E",
"B  c #6E6253",
"V  c #746554",
"C  c #796652",
"Z  c #7B6C5B",
"A  c #7F7160",
"S  c #814525",
"D  c #8C4E2C",
"F  c #904B26",
"G  c #984F27",
"H  c #82532E",
"J  c #8E562D",
"K  c #9F5229",
"L  c #915C2E",
"P  c #824E31",
"I  c #815433",
"U  c #8D5333",
"Y  c #8C5C37",
"T  c #82593F",
"R  c #9B5631",
"E  c #A2532A",
"W  c #B1592C",
"Q  c #B85B2D",
"!  c #A65D35",
"~  c #B65E30",
"^  c #996130",
"/  c #A16732",
"(  c #A36936",
")  c #AD6C34",
"_  c #B47336",
"`  c #BB7638",
"'  c #C5612F",
"]  c #D0642F",
"[  c #C36232",
"{  c #CD6936",
"}  c #DC6A32",
"|  c #C97F3C",
" . c #E97035",
".. c #F57537",
"X. c #805F44",
"o. c #89674B",
"O. c #846B56",
"+. c #816E5B",
"@. c #84715D",
"#. c #957259",
"$. c #847664",
"%. c #887763",
"&. c #8B7965",
"*. c #877D6E",
"=. c #8B7D6A",
"-. c #927F6A",
";. c #D2833D",
":. c #94816D",
">. c #8B8171",
",. c #978773",
"<. c #938C7B",
"1. c #998E7C",
"2. c #97907F",
"3. c #A48F77",
"4. c #A3907A",
"5. c #DF8C41",
"6. c #E08C41",
"7. c #EC9344",
"8. c #F89B47",
"9. c #9C9381",
"0. c #9F9885",
"q. c #A29683",
"w. c #AF9880",
"e. c #A59A89",
"r. c #A99D8B",
"t. c #B09980",
"y. c #A9A18E",
"u. c #BAA288",
"i. c #ADA695",
"p. c #AFA897",
"a. c #AFA999",
"s. c #B2A996",
"d. c #B3AD9B",
"f. c #B9AF9D",
"g. c #B6B09E",
"h. c #BBB19F",
"j. c #B7B2A0",
"k. c #BCB3A1",
"l. c #BEB9A6",
"z. c #BFBAA8",
"x. c #C4AC90",
"c. c #CBB397",
"v. c #CDB499",
"b. c #C1B6A3",
"n. c #C3B9A6",
"m. c #C8BBA7",
"M. c #C4BCA9",
"N. c #CABEAB",
"B. c #D7BEA0",
"V. c #C6C0AD",
"C. c #CCC1AE",
"Z. c #D1C3AF",
"A. c #CEC4B1",
"S. c #CFC8B5",
"D. c #D2C6B2",
"F. c #D4C9B5",
"G. c #D8CAB5",
"H. c #E3C9AB",
"J. c #F0D5B5",
"K. c #FDE1C0",
/* pixels */
"d.j.j.z.V.V.V.z.z.z.j.j.a.a.j.a.j.j.j.j.j.z.z.V.V.z.j.j.g.g.g.g.g.g.j.l.z.V.S.S.V.z.z.k.k.k.k.k.k.z.M.N.A.F.F.S.N.N.N.M.n.n.b.n.",
"g.g.j.j.j.z.V.V.z.z.z.j.j.j.a.j.d.j.j.j.j.j.z.V.V.V.z.z.j.g.d.g.g.g.j.j.l.z.V.S.A.V.M.l.k.k.j.k.k.k.k.n.N.A.F.S.S.A.M.M.M.n.z.n.",
"j.j.g.j.j.z.V.z.V.z.z.z.j.j.a.a.d.j.d.j.j.j.j.j.V.V.z.z.j.j.g.d.d.d.g.g.g.h.l.V.S.A.V.V.z.k.k.j.j.k.k.k.k.M.N.A.F.S.S.N.N.n.b.b.",
"a.a.a.j.j.j.z.z.V.V.z.z.z.z.j.a.a.a.a.d.d.j.j.j.l.z.V.z.l.l.j.d.d.d.d.j.g.g.g.l.V.V.C.C.M.l.l.j.j.k.j.k.k.b.b.M.N.S.F.S.N.N.n.n.",
"d.d.a.j.j.j.j.j.z.V.V.z.z.j.j.a.a.d.d.j.d.j.d.j.j.j.z.V.z.z.l.g.g.a.d.d.g.j.j.g.l.n.C.V.V.V.z.h.k.h.k.j.k.k.k.b.M.N.S.F.N.N.N.N.",
"a.a.a.j.j.a.j.j.z.z.V.z.z.z.z.j.j.a.d.a.d.d.d.d.d.d.g.l.V.V.l.l.j.g.d.d.g.j.d.d.g.g.V.V.V.V.V.l.k.j.d.j.j.j.j.k.z.n.N.N.F.S.S.N.",
"d.a.a.d.a.a.j.j.j.j.z.V.z.z.z.j.j.d.j.a.a.d.d.d.j.g.g.j.l.V.z.l.j.g.j.d.d.d.d.d.g.g.h.l.V.A.V.V.z.k.k.j.d.j.h.h.f.k.b.n.N.S.S.S.",
"d.j.d.a.a.j.a.j.j.j.j.z.V.z.z.z.j.j.d.d.a.a.a.d.d.d.d.d.j.j.V.z.z.z.g.d.d.a.d.d.d.g.g.h.l.V.V.V.M.k.k.k.h.j.j.f.f.k.k.z.n.N.S.F.",
"j.a.d.a.d.a.a.j.j.j.g.j.l.V.V.z.z.l.g.a.a.d.a.d.d.g.d.<.<.2.2.y.z.z.l.g.a.a.d.d.d.d.d.d.g.h.V.V.V.M.M.k.h.j.j.j.j.j.k.k.k.n.N.N.",
"j.d.d.a.a.d.a.a.a.d.j.g.j.z.V.z.z.z.j.g.j.a.a.9.b h U Q ' ' ' R ; Z z.j.g.g.d.a.a.d.d.d.g.g.g.M.V.N.M.z.k.j.f.d.d.d.f.f.k.k.n.N.",
"j.a.d.a.a.j.a.j.d.d.d.d.g.l.l.z.M.z.k.k.g.A z !  ...............6 3.s o.k.j.d.d.a.d.a.d.d.d.g.g.z.V.V.M.z.k.j.g.f.f.d.d.f.f.k.z.",
"j.j.j.a.d.a.a.a.a.d.d.j.g.g.g.l.M.M.M.d.v b D ..................7 3.K ..} #.g.d.a.d.a.a.d.a.g.g.j.z.N.M.M.z.z.j.j.d.j.d.f.d.j.k.",
"z.j.j.j.a.g.a.g.a.d.g.g.g.g.g.g.k.M.q.h , u.8 ' ................@ 1.F ......L g.j.a.s.a.d.a.a.d.d.j.k.M.N.z.z.z.k.j.j.d.d.d.j.f.",
"z.j.j.j.d.d.a.a.g.d.a.a.d.g.g.g.h.=.U ....* v.- ................w @.3 ........[ V d.a.a.d.a.a.a.d.d.j.k.z.N.M.z.k.f.d.d.d.f.d.d.",
"M.z.z.j.g.d.a.a.a.a.s.g.d.g.g.g.&.( ......} % 3.6 ..............K 3.6 ..........{ M g.a.a.d.a.a.a.d.d.g.j.z.M.M.z.z.j.j.j.d.d.d.",
"V.V.z.j.j.j.g.a.d.g.d.s.d.d.g.1.! ..........W 7 l W ....E E S H t b 6 ............p 7 s.d.a.a.a.a.d.a.d.f.j.z.M.M.M.z.k.d.d.d.d.",
"S.M.M.z.k.k.j.d.d.d.d.d.d.d.f.P ..............D M X # # s / ^ ^ / . . y ..........: l V g.a.a.a.a.a.a.a.p.d.g.h.V.V.V.l.g.g.g.d.",
"S.S.V.M.z.k.j.j.d.a.d.d.d.d.x ................Q . ; w 8.8.8.8.8.8.7 * / @ J ....W Z : r g.g.d.a.a.a.a.a.d.s.d.g.l.l.V.l.k.g.g.d.",
"N.S.N.N.M.n.j.j.j.f.d.d.d.1.] ..............S $ 8.6 l L 8.8.;.;.7.f o 8.8.L # } 6 :.a ] C g.g.d.a.a.a.a.a.d.p.d.g.g.l.V.M.l.g.g.",
"M.S.S.M.M.M.b.k.f.j.d.d.j.X...............# P 8.8.8.% - ) p o.,.n X 6 8.8.8._ O 7 % ....U i.h.g.s.s.a.d.a.p.p.p.d.d.g.l.V.l.l.g.",
"N.N.S.S.A.N.M.z.k.j.f.f.0 4 } ..........# ) 8.8.8.8.6.% C g.g.d.s.s.:.u 7.8.8.6 X J .... .7 l.j.g.d.a.a.a.a.a.d.p.d.d.g.k.V.l.l.",
"b.N.N.S.S.N.M.M.n.k.j.f.l v.2 4 } ....5 ! 8.8.8.8.8._ :.l.l.g.g.d.d.p.y.k ;.8.7 - O ....s   0.j.j.g.g.a.a.a.p.a.p.p.d.d.g.k.l.l.",
"z.b.N.S.F.N.N.S.M.k.k.X.4 2 9.v.: j W 3 8.8.8.8.8.;.o.V.V.l.l.g.g.d.d.p.a.x r o ;._ $ R l 7 C V.z.h.g.g.a.p.p.p.p.p.p.s.d.g.k.l.",
"b.b.M.N.F.S.A.M.N.M.b.P ....P = +.4.o P 8.8.8.8.8.s s.n.V.V.b.l.h.g.d.d.a.i.0 6 8.8.# - o W r l.V.l.h.g.d.a.a.a.p.p.p.p.s.s.g.k.",
"z.b.b.n.N.F.F.A.N.N.>.{ ........E o 1 -.: ( 8.8.7.c k.k.V.V.V.b.l.g.d.d.s.s.i.r ;.7.o   } ..R 0.l.V.l.l.g.g.s.s.d.p.p.p.p.d.d.g.",
"f.z.b.b.N.N.F.D.N.N.X...........} > | < 7 l : _ ` 9.k.k.b.V.V.V.V.l.h.g.d.d.s.>.# & 7 u K ..} A g.l.l.l.g.g.g.s.p.p.p.p.p.p.p.p.",
"k.k.k.b.b.N.D.F.D.n.P ..........S _ 8.8.5.I : o % k.k.k.b.n.M.V.V.V.h.h.g.d.s.s.; o ;.8.# ....x g.g.l.l.l.l.k.g.d.p.p.p.p.p.p.p.",
"j.f.b.k.b.n.N.D.F.q.Q ..........@ 8.8.8.8.8.8.( , d.k.h.h.h.b.V.V.V.V.l.g.g.d.d.2./ 8.8.# } ..T p.x.g.l.l.l.l.k.g.s.p.p.p.p.p.p.",
"k.k.k.b.k.b.b.N.F.O. .........] u 8.8.8.8.8.8.8.Y f.h.h.h.k.b.b.m.V.V.V.l.h.g.g.d.p 8.s t S 7.c p.p.g.g.l.l.l.l.l.g.g.s.p.p.p.p.",
"f.f.k.b.k.b.b.n.N.n ..........S _ 8.8.8.8.8.8.8.Y f.k.h.h.h.h.k.n.m.V.V.V.l.k.h.g.,.^ . 5 + 7.k p.g.g.p.g.g.l.l.l.g.g.g.d.p.p.p.",
"j.f.k.k.k.b.b.n.N.4 ..........# 8.8.8.8.8.8.8.8.j d.h.h.h.h.h.k.b.n.m.V.V.V.V.k.g.g.# @ ..W + <.p.s.s.p.s.g.l.l.l.l.g.g.g.p.p.p.",
"k.f.j.k.b.k.b.b.b.o 0 f 2 i Q # 8.8.8.8.8.8.8.8.H h.d.h.h.h.h.h.h.h.n.m.V.V.V.V.v.h.u @ W .._ O.p.s.s.g.g.s.g.g.l.l.l.l.g.d.p.i.",
"f.j.k.f.k.k.b.n.r.% 3.m.K.3.m   8 < P _ 8.8.8.8.U e.f.f.f.f.f.f.h.h.n.n.V.V.C.V.M.9.K F E ....U <.s.d.s.d.s.d.d.h.l.V.h.h.g.g.s.",
"j.k.f.f.f.k.k.b.9.3 F 4 4 * 1 . 9 v 8 1 o 2 < P U 1.f.f.f.f.f.f.h.h.g.c.n.m.V.A.V.m ] W $ ......h s.d.a.a.s.p.d.s.g.h.V.z.l.g.g.",
"k.k.f.f.f.k.k.k.9.E ........K / 8.8./ / d w < % o B f.f.f.f.f.f.h.h.h.h.l.v.m.A.C.d } } + ......~ $.d.a.d.p.p.d.d.d.g.h.V.l.l.g.",
"k.f.k.f.k.f.f.k.9.Q ........K / 8.8.8.8.8.8.8.8.{ O.f.f.f.f.f.f.h.h.h.h.g.h.l.m.b.P } } # } ......d d.d.s.p.d.s.d.s.d.h.h.l.l.l.",
"k.j.k.k.k.k.f.k.e.U ........K / 8.8.8.8.8.8.[ < 0 . 1.f.f.a.f.f.h.h.h.h.b.h.c.l.9.W } } G D ......! 9.d.d.d.s.p.s.g.g.s.g.g.n.l.",
"b.k.f.f.f.k.f.k.h.i ........K / 8.8.5.L 2 2 +.G.K.f.. f.f.f.f.f.h.d.h.h.g.h.h.n.*.W } } W 8  ..... .N d.d.a.d.a.s.s.s.s.g.d.g.b.",
"b.b.k.f.f.f.k.k.M q = 2 P E > & < 7 0 3.K.K.K.K.K.K.= f.f.f.f.f.d.h.h.h.g.h.g.c.Z W } } P s.h ......x f.f.d.s.d.s.d.s.g.s.g.s.g.",
"b.k.k.f.f.k.f.*.t.K.K.K.3.3.3.K.K.K.K.K.K.K.K.K.K.N.@.f.f.f.f.f.d.h.g.h.h.g.h.h.,.W } } e C.i.x } ..n g.g.g.d.s.s.d.g.s.s.s.s.g.",
"n.b.b.k.j.j.f.*.c.K.K.K.K.K.K.K.K.K.K.K.K.K.K.K.N.Z f.f.b.f.f.f.d.s.h.h.f.f.f.f.q.R } } g m.C.n.%.z y.b.k.g.f.f.d.d.s.s.s.s.d.d.",
"M.M.b.k.k.k.f.k.A H.K.K.K.K.K.K.K.K.K.K.K.K.K.3.Z N.b.b.b.f.f.f.h.h.f.d.f.f.f.f.h.h } ' +.b.m.N.C.C.V.V.b.h.g.g.d.s.s.s.g.s.d.s.",
"N.M.b.b.f.f.f.k.k.r.$.H.K.K.K.K.K.K.K.K.J.4.V r.N.N.N.b.b.b.f.f.h.f.d.f.f.f.f.f.h.+.E d s.b.b.b.V.Z.C.C.M.n.l.h.g.g.g.s.g.s.g.s.",
"N.N.M.b.b.k.f.j.k.h.f.e.Z +.w.v.c.-.-.+.+.s.G.Z.Z.Z.N.N.b.b.b.b.h.h.f.h.f.d.f.f.f.f.=.q.k.k.c.b.m.V.D.C.V.M.z.l.g.g.s.g.s.g.s.g.",
"D.N.M.n.b.b.f.f.k.f.k.k.k.h.1.1.1.q.b.m.N.N.D.G.G.D.Z.Z.N.b.b.b.h.c.h.h.h.f.h.d.f.f.h.h.h.c.k.k.c.b.M.C.D.C.V.c.l.j.g.g.g.s.g.g.",
"D.D.N.N.n.b.b.j.h.h.f.f.h.f.b.k.b.b.b.b.m.N.N.G.G.D.D.Z.N.m.m.b.z.z.h.h.f.f.f.f.f.f.f.f.j.k.k.c.g.b.b.m.C.A.C.M.V.v.h.h.s.g.g.s.",
"Z.D.N.M.n.n.k.k.h.f.f.f.h.h.k.b.h.b.k.b.b.N.B.C.D.D.G.D.Z.N.N.N.n.n.b.b.c.k.k.f.f.f.f.f.f.f.k.f.h.k.b.b.V.V.C.C.V.b.h.h.h.g.g.g.",
"N.D.Z.N.M.n.b.b.h.h.f.h.f.f.f.b.f.f.c.b.b.b.M.m.Z.D.D.D.D.Z.N.N.V.n.M.M.k.k.k.h.h.f.d.f.d.f.f.f.h.g.k.c.c.n.C.D.V.V.V.c.h.h.s.g.",
"N.D.D.N.N.N.m.b.b.f.f.f.f.f.f.f.f.b.b.b.b.b.N.b.N.N.Z.D.Z.Z.N.N.N.z.N.N.N.b.b.f.k.f.f.f.f.f.f.f.h.h.h.c.b.b.b.N.D.N.N.M.m.k.h.d.",
"N.N.G.N.N.N.m.m.b.b.k.k.k.f.f.f.f.f.b.f.b.b.b.N.N.N.Z.D.Z.Z.Z.N.N.N.N.N.N.N.N.b.f.k.f.f.f.f.f.f.h.h.f.g.h.h.b.b.N.D.C.N.N.n.k.h.",
"m.m.N.G.Z.N.m.m.b.b.f.f.k.f.f.k.f.b.f.b.b.b.b.N.m.N.N.Z.Z.Z.Z.Z.N.z.N.N.C.C.C.z.b.k.k.f.k.f.f.f.f.h.f.h.h.b.k.c.b.N.D.Z.N.M.m.k.",
"b.N.N.N.D.N.m.m.b.b.b.f.k.f.f.f.f.f.f.b.f.b.b.b.m.m.N.N.N.Z.Z.N.N.n.b.n.N.C.D.D.N.b.b.b.k.k.k.f.f.f.f.f.f.h.f.b.b.b.N.Z.Z.N.M.M.",
"b.b.m.N.G.N.N.N.N.b.b.f.f.f.f.k.f.f.f.f.f.b.b.b.b.m.N.N.N.Z.Z.Z.N.n.n.b.z.N.A.F.Z.N.b.b.b.k.f.f.f.f.f.f.f.f.h.f.h.k.m.N.D.C.C.V.",
"f.b.b.N.N.G.G.N.N.b.b.k.b.f.b.f.f.f.f.f.f.b.f.b.b.b.m.N.m.N.Z.Z.C.N.N.n.b.b.N.N.D.Z.N.n.b.k.f.k.h.h.f.f.h.c.f.h.h.k.c.n.m.D.Z.C.",
"b.b.b.v.N.G.D.Z.N.N.N.b.f.b.b.f.f.f.f.f.f.f.b.b.b.b.m.m.m.N.Z.Z.C.N.N.b.b.b.b.M.N.F.D.N.N.b.b.f.k.k.f.f.j.f.f.k.h.h.k.h.b.N.Z.C.",
"b.b.b.b.N.D.D.Z.N.N.z.b.b.f.b.f.f.f.f.f.f.f.f.f.f.b.b.b.m.N.N.Z.A.N.N.b.b.b.b.b.M.N.A.D.N.N.n.b.k.f.f.f.f.f.f.h.h.h.f.k.c.b.V.D.",
"f.b.b.b.b.N.Z.G.Z.N.N.b.b.f.f.b.k.f.f.f.f.k.k.f.f.b.b.b.m.m.N.N.Z.N.N.N.b.b.b.f.k.b.N.D.D.N.N.m.b.k.f.f.k.f.f.f.h.h.h.h.h.b.b.m.",
"b.b.f.b.b.m.Z.Z.D.N.N.N.N.f.b.f.f.f.f.f.f.f.f.f.v.f.f.b.b.m.N.N.N.Z.Z.N.N.b.b.b.k.b.m.N.D.D.D.N.n.b.b.b.f.f.f.f.h.h.h.h.h.h.b.b.",
"f.b.f.b.b.b.N.Z.F.D.Z.N.m.b.b.f.f.f.f.f.f.f.f.f.f.f.b.b.b.b.m.N.N.Z.N.N.N.b.b.f.f.b.b.b.N.D.Z.N.N.M.b.f.k.f.f.d.f.h.h.k.x.f.f.b.",
"b.b.b.b.b.b.b.N.D.F.D.Z.N.N.N.f.z.f.f.k.f.f.f.f.f.f.f.b.f.b.b.m.N.N.N.N.N.N.b.b.b.b.b.b.b.N.D.D.D.N.M.b.f.b.k.f.f.f.h.f.k.f.b.f.",
"b.f.b.b.f.b.b.b.N.D.G.Z.N.N.N.b.f.b.f.f.f.f.f.f.f.f.f.f.f.b.b.m.N.N.Z.N.N.N.b.b.b.f.b.f.b.b.N.Z.D.D.N.b.n.z.f.f.j.f.j.f.f.f.k.f.",
"f.b.k.k.f.b.b.b.N.N.D.Z.Z.N.N.b.b.b.f.k.f.f.f.f.f.f.f.f.f.b.b.b.b.N.N.D.N.N.N.b.k.b.f.b.f.k.b.N.N.F.D.N.N.M.k.k.f.f.f.f.k.f.f.k.",
"f.k.f.b.b.b.b.b.b.b.N.F.F.Z.N.N.b.b.b.f.f.f.f.f.f.f.f.f.f.b.b.b.b.b.N.N.C.C.N.N.b.b.f.b.b.f.b.b.N.D.D.D.N.N.b.k.k.f.k.j.f.f.f.f.",
"k.k.f.f.f.f.b.b.b.b.N.Z.F.D.Z.Z.N.b.b.b.f.f.f.b.f.f.f.f.f.f.f.f.b.b.b.N.C.C.N.N.b.b.b.f.b.k.f.k.k.M.D.F.N.N.n.n.b.k.f.f.f.f.f.f."
};
