/* XPM */
static char *result[] = {
/* columns rows colors chars-per-pixel */
"64 64 162 2 ",
"   c #35261A",
".  c #37291C",
"X  c #3B2B1D",
"o  c #3D2F22",
"O  c #3F3124",
"+  c #432C1C",
"@  c #4B2F1C",
"#  c #4D321D",
"$  c #56341F",
"%  c #5C361F",
"&  c #422F21",
"*  c #433224",
"=  c #4B3523",
"-  c #4E3927",
";  c #453628",
":  c #4C3B2B",
">  c #553620",
",  c #563823",
"<  c #5B3E27",
"1  c #553E2B",
"2  c #4D3E30",
"3  c #623D22",
"4  c #603F2A",
"5  c #57402D",
"6  c #5F412D",
"7  c #554435",
"8  c #5F4937",
"9  c #5E4E3E",
"0  c #6F4127",
"q  c #62432B",
"w  c #6D472E",
"e  c #6A482E",
"r  c #744225",
"t  c #7F4625",
"y  c #714827",
"u  c #754E2E",
"i  c #7C4A2B",
"p  c #7F522A",
"a  c #684733",
"s  c #6C4A34",
"d  c #6B4F3A",
"f  c #734D32",
"g  c #7D4D33",
"h  c #63503E",
"j  c #6C513D",
"k  c #7F5835",
"l  c #7A553B",
"z  c #7C583E",
"x  c #5F5042",
"c  c #645442",
"v  c #6D5C4B",
"b  c #745743",
"n  c #745A45",
"m  c #735D4A",
"M  c #7B5C48",
"N  c #77624D",
"B  c #7D624D",
"V  c #6F6352",
"C  c #736452",
"Z  c #786653",
"A  c #7E6B56",
"S  c #736A5B",
"D  c #7C6D5C",
"F  c #7E705F",
"G  c #787060",
"H  c #824524",
"J  c #8C4926",
"K  c #834B2D",
"L  c #954F2A",
"P  c #984F28",
"I  c #82552C",
"U  c #8E502E",
"Y  c #9F5229",
"T  c #925C2F",
"R  c #815631",
"E  c #8C5333",
"W  c #8A5B3F",
"Q  c #9C5631",
"!  c #915D31",
"~  c #985834",
"^  c #A15229",
"/  c #AA572B",
"(  c #A9592F",
")  c #B25A2C",
"_  c #A65D35",
"`  c #B65E31",
"'  c #A16732",
"]  c #A16937",
"[  c #AC6D35",
"{  c #B06035",
"}  c #B47336",
"|  c #C5612F",
" . c #D0642F",
".. c #C66231",
"X. c #D06631",
"o. c #DC6A32",
"O. c #C57B3B",
"+. c #C97F3C",
"@. c #E97035",
"#. c #F57537",
"$. c #825D43",
"%. c #816045",
"&. c #876D55",
"*. c #806D58",
"=. c #85735F",
"-. c #857664",
";. c #877867",
":. c #897966",
">. c #8B7A68",
",. c #927D67",
"<. c #9A7B62",
"1. c #917F6D",
"2. c #D3853E",
"3. c #8F806D",
"4. c #95826D",
"5. c #8C8472",
"6. c #978C7B",
"7. c #9B8F7D",
"8. c #A38E76",
"9. c #DF8C41",
"0. c #E08C41",
"q. c #F89B47",
"w. c #9C9483",
"e. c #A29584",
"r. c #AF9980",
"t. c #A39B8A",
"y. c #B49F84",
"u. c #ADA28F",
"i. c #B8A186",
"p. c #BDA68B",
"a. c #ACA594",
"s. c #AEA897",
"d. c #AFA998",
"f. c #B0A794",
"g. c #B2A997",
"h. c #B3AD9B",
"j. c #B9AF9D",
"k. c #B6B09E",
"l. c #BBB19F",
"z. c #B7B2A0",
"x. c #BCB3A1",
"c. c #BEB9A6",
"v. c #BFBAA8",
"b. c #CAB296",
"n. c #CDB499",
"m. c #C1B6A3",
"M. c #C3B9A6",
"N. c #C8BBA7",
"B. c #C4BCAA",
"V. c #CABEAB",
"C. c #D9BFA1",
"Z. c #C6C0AD",
"A. c #CCC1AE",
"S. c #D1C3AF",
"D. c #CEC4B1",
"F. c #CFC8B5",
"G. c #D2C6B2",
"H. c #D5C9B4",
"J. c #D8CBB6",
"K. c #E4CAAB",
"L. c #F0D5B5",
"P. c #FDE1C0",
/* pixels */
"h.z.z.v.v.Z.Z.v.v.v.z.z.d.d.z.z.z.z.z.z.z.v.Z.Z.v.v.c.z.z.h.k.z.h.z.z.c.v.Z.F.F.Z.v.v.x.z.x.z.c.c.x.M.V.G.H.H.D.V.B.B.B.M.M.m.M.",
"k.k.z.z.v.v.Z.Z.v.v.v.z.z.z.d.d.z.z.z.h.z.z.v.Z.Z.Z.v.z.z.h.h.h.h.z.z.z.c.v.Z.F.D.Z.B.c.x.x.x.z.x.x.c.M.B.D.H.H.F.F.V.B.B.M.m.M.",
"h.z.k.z.z.v.v.Z.Z.v.v.v.z.z.z.d.z.d.z.h.z.z.z.z.Z.Z.B.v.c.k.h.k.k.h.z.k.k.c.v.Z.F.D.Z.Z.v.x.x.z.x.x.x.x.x.M.V.G.H.F.F.V.V.B.M.v.",
"h.h.d.z.z.z.v.v.Z.Z.v.v.z.z.z.d.d.d.d.z.h.z.z.z.z.v.Z.B.c.c.k.k.h.h.h.z.k.k.k.c.Z.A.D.Z.B.c.c.z.z.j.z.x.x.c.M.M.V.F.F.F.V.V.M.m.",
"d.h.z.z.d.z.z.z.v.Z.v.Z.v.v.z.z.d.h.h.d.d.z.k.h.k.z.B.Z.v.v.c.k.h.h.k.s.k.k.k.k.x.Z.A.D.Z.B.B.z.x.z.z.j.x.x.x.c.B.V.V.H.V.V.V.V.",
"h.d.d.z.d.z.z.z.z.v.Z.v.v.v.z.z.z.h.d.z.h.h.d.z.h.k.k.v.Z.Z.c.z.k.k.s.k.k.h.h.k.k.k.v.Z.A.Z.B.c.x.j.j.z.z.x.x.x.M.B.V.V.H.F.F.V.",
"h.d.d.d.z.z.z.z.z.v.v.Z.Z.v.v.z.z.h.z.d.d.h.z.d.z.k.h.k.c.v.Z.c.c.z.k.s.h.k.h.h.k.k.l.v.Z.A.Z.Z.v.x.x.z.h.z.j.j.z.v.m.B.V.J.F.F.",
"h.h.z.d.d.d.d.d.z.z.z.v.Z.v.v.v.z.z.h.d.h.d.d.d.h.h.h.h.k.c.v.Z.v.c.k.k.s.s.h.h.h.k.k.l.v.Z.Z.Z.M.v.x.z.z.z.j.z.z.z.x.v.B.V.V.F.",
"z.d.d.d.d.h.h.d.h.z.k.k.v.Z.Z.v.v.x.z.k.d.d.h.z.d.k.h.k.k.k.c.v.s.w.w.7.a.g.k.d.h.h.h.z.k.x.Z.Z.Z.B.v.x.x.j.z.z.j.j.z.x.x.m.V.V.",
"z.d.z.d.d.d.h.z.d.h.z.k.k.v.B.B.v.c.z.k.h.h.d.g.h.h.d.g.4.z E E ! | ` ( E q c V w.h.h.h.h.k.z.B.Z.Z.B.v.x.j.h.z.h.j.j.z.x.m.M.V.",
"z.d.d.d.z.d.d.d.h.h.h.h.k.k.v.B.B.v.c.z.k.h.d.g.6.; ; Y #.#.#.#.#.#.#.#.#.Y 8.: Q d 5.d.k.k.k.k.B.Z.D.B.v.x.z.z.z.z.j.h.j.j.x.v.",
"z.z.z.d.z.d.z.d.d.h.h.z.k.k.k.c.B.Z.v.x.z.a.v u o.5 K., #.#.#.#.#.#.#.#.#.0 8.5 #.#.{ d w.k.g.k.z.v.Z.B.B.v.x.z.j.h.h.h.z.j.j.z.",
"v.z.z.z.h.d.h.h.h.h.h.h.k.k.k.k.c.Z.B.h.Z E @.#.#.6 b.: #.#.#.#.#.#.#.#.#.q P.6 #.#.#.@.K -.g.k.h.h.c.B.B.B.v.c.z.z.j.d.h.d.j.j.",
"v.v.z.z.h.h.d.d.d.h.h.h.k.k.k.k.z.M.4.u o.#.#.#.#...9 v | #.#.#.#.#.#.#.#.5 8.i #.#.#.#.#._ A d.h.h.l.z.B.B.v.v.x.z.j.z.h.z.h.h.",
"v.v.v.z.z.h.d.d.h.h.d.h.h.k.k.k.f.j ` #.#.#.#.#.#.#.5 i.p #.#.#.#.#.#.#.#.- A ) #.#.#.#.#.#.( =.d.h.g.k.z.B.B.B.v.v.z.j.j.j.z.d.",
"F.v.v.z.z.z.h.h.h.h.h.h.h.k.k.S X K #.#.#.#.#.#.#.#.i 8.5 o.Y Y / Y ^ ..#.8 7 #.#.#.#.#.#.#.#.U 7.d.h.h.k.z.v.B.B.B.v.z.z.d.h.h.",
"F.B.v.v.z.z.z.h.h.h.h.h.h.d.1.o P.; o.#.#.#.#.#.#.o.t X . 3 I ' ' ' ' y $ X + #.#.#.#.#.#.#.#.) O d.d.d.h.h.k.l.Z.Z.c.l.l.k.k.h.",
"F.V.F.B.v.v.z.z.h.d.h.h.h.;.E ( 2 n.4 #.#.#.#...% < ' 5 =.' q.q.q.q.q.q.q.h o # ^ #.#.#.#.#.o.: n.5.d.g.d.g.h.h.k.Z.Z.Z.c.k.k.h.",
"F.V.V.B.B.m.z.x.j.z.h.j.;._ #.#.U *.m Q #.o.$ 4 2.q.q.} Z 5 q.q.q.q.q.q.q.7 q q.y 3 #.#.#.#.- n.: $.d.d.s.d.d.k.k.k.Z.Z.Z.c.k.h.",
"B.F.F.V.V.M.v.x.j.t.-.;.K #.#.#.#.1 y.: H $ +.q.q.q.q.q.5 5 q.q.q.q.q.q.' 7 ' q.q.} $ #.#.q 8.- | { g.d.d.d.d.g.h.h.k.l.Z.v.v.k.",
"B.V.J.V.V.V.B.B.u.D K.C 3 #.#.#.#.#.& 2 & q.q.q.q.q.q.q.k 7 2.q.q.q.q.2.I O 2.q.q.q.} $ Q v 7 ) #.#.h.d.d.d.d.d.s.h.h.k.c.v.c.c.",
"B.B.F.H.F.V.B.B.6.L.P.P.: #.#.#.#.o.@ * C ] q.q.q.q.q.q.2.: e q.O.p z -.5.G B u 2.q.q.I O 7 [ #.#.#.<.g.d.d.s.d.h.h.g.h.h.x.c.Z.",
"v.m.B.F.F.V.V.V.d.L.P.P.8.4 #.#.) X 0.} x 1 0.q.q.q.q.q.q.6 ; u :.h.d.d.d.s.s.s.l 2.q.@ X t #.#.#.#.W g.d.d.s.d.s.s.s.g.g.k.k.c.",
"m.x.B.V.J.F.F.V.V.r.P.P.P.&.K o.@ 0.q.q.K x 4 q.q.q.q.q.q.p V c.k.k.k.h.d.s.s.d.d.u q 9 5 t #.#.#.#.E k.k.d.g.d.s.s.g.s.g.g.k.x.",
"v.m.m.M.V.J.H.F.V.;.P.P.P.P.Z X 9.q.q.q.q.6 : } q.q.q.q.T 4.Z.n.l.l.k.k.h.a.a.d.s.v o k q.$ #.#.#.#.} c.k.g.g.g.s.s.s.s.s.h.h.h.",
"x.x.m.m.V.V.H.V.V.t.K.P.P.P.P.8.- 0.q.q.q.q.- ; q.q.q.[ 3.Z.Z.Z.Z.c.k.k.h.h.s.h.s.s.# q.q., #.#.#.0.| s.c.c.k.k.s.s.s.s.s.s.s.h.",
"x.x.v.x.M.V.H.J.V.V.Z P.P.P.P.P.K.: ! q.q.q.2.O q q.2.n M.M.Z.Z.Z.Z.l.z.h.h.h.d.s.s.k q.q.p ) #.#.#.T 8.c.c.k.k.h.s.s.s.s.s.s.s.",
"j.x.m.x.m.M.V.V.J.H.e.r.P.P.P.P.P.P.,.- 2.q.q.} . [ e l.l.l.l.Z.Z.Z.Z.n.l.h.h.h.g.s.$.q.q.' Y #.#.^ + 5.c.c.k.c.k.h.s.s.s.s.s.s.",
"x.x.x.x.x.m.m.V.J.J.V.F N.P.P.P.P.P.P.K.c 1 2.q.p o f.l.l.l.m.M.Z.Z.Z.Z.c.k.k.k.h.d.M q.q.' % q 3 A 9 k.c.c.c.c.c.k.k.g.s.a.s.s.",
"j.j.x.v.x.m.m.m.V.H.H.H.D b.P.P.P.P.P.P.L.K.h q I 7.l.l.l.l.l.m.c.n.Z.Z.Z.c.l.k.k.k.%.0.p - * =.6 - + g.k.k.c.c.c.k.k.k.h.s.a.s.",
"x.z.x.x.x.m.m.m.V.V.J.H.V.;.e.P.P.P.P.P.P.P.P.a O k.l.l.l.l.l.l.l.M.Z.Z.Z.Z.Z.c.l.k.C O 7 o X J o.#.N s.k.k.c.c.c.c.k.k.k.s.s.s.",
"z.j.x.x.m.x.m.m.B.B.V.J.J.V.e.Z p.P.P.P.P.P.P.S.. k.h.k.l.l.l.l.l.l.n.Z.A.Z.Z.Z.v.c.j p 2.' Y #.#.X.=.g.g.g.k.k.c.c.c.c.k.h.h.s.",
"j.x.j.j.j.m.m.v.m.N.V.S.J.S.G.S.6.=.=.f.N.P.L.2 G j.j.j.j.j.j.j.l.b.b.B.Z.Z.A.Z.M.M.q q.q.p ) #.#.Q t.g.h.h.h.g.k.c.Z.n.c.h.h.s.",
"j.j.x.j.j.j.m.m.m.m.m.V.G.H.G.S.S.V.j.w.-.*.-.t.j.j.j.j.j.m.j.j.l.k.l.c.v.Z.A.A.Z.B., q.9.+ ^ ^ r 1 g.d.g.g.d.k.k.k.k.Z.c.c.k.k.",
"x.x.x.j.j.x.x.v.m.m.m.M.S.G.J.H.S.V.V.m.j.j.x.j.j.j.j.j.j.j.j.j.l.l.l.l.x.v.Z.A.D.C o * ;   c c 7 x g.g.d.g.d.k.g.h.k.k.Z.v.c.k.",
"x.j.x.j.x.j.j.x.m.m.m.m.M.S.G.G.G.G.G.V.m.m.x.m.j.j.j.j.j.j.j.d.l.l.l.l.l.b.l.N.V.f ' ' I = ^ ^ , t.d.k.g.d.d.g.h.g.h.k.l.c.v.c.",
"x.j.j.x.x.x.j.x.j.m.m.m.m.V.S.H.G.G.G.V.V.v.v.x.j.j.j.j.j.j.j.j.l.l.l.l.l.l.M.N.g.' q.q., ..#.o.N k.h.h.h.g.g.d.g.k.g.k.k.l.c.c.",
"v.x.j.j.j.j.x.j.j.m.j.m.m.m.M.S.J.J.G.G.V.V.V.x.x.j.j.j.j.d.j.j.l.j.j.l.l.l.b.l.&.9.O.q.> #.#.g g.l.k.h.k.g.g.g.g.g.g.g.h.h.k.c.",
"m.v.x.j.j.j.j.j.m.m.m.m.m.m.m.V.G.J.G.G.G.V.V.m.v.j.j.j.j.j.j.j.j.j.l.j.j.k.k.a.+ +   y ^ #...-.B.z.l.k.k.g.g.d.g.k.h.h.h.h.h.k.",
"m.x.m.j.j.x.x.j.j.j.j.m.m.m.m.M.V.G.J.G.G.G.V.V.v.v.x.j.j.j.j.j.h.j.j.j.k.6.j I H $ J @ #.@.s A.B.B.c.l.l.k.g.k.g.g.h.g.g.g.g.k.",
"v.v.v.j.j.j.j.j.j.m.m.v.j.m.m.m.V.V.G.J.H.G.S.V.V.V.m.j.m.j.j.j.j.j.j.u.d U o.| @ #.P P @.g m.D.A.Z.Z.l.l.l.k.h.g.k.g.g.g.g.g.k.",
"V.m.v.j.j.v.j.m.j.m.j.j.m.m.j.m.m.V.V.G.J.G.G.S.V.V.m.x.m.j.j.j.j.h.4.w  .o.o.+ o.#./ a b g.N.V.D.A.A.Z.N.l.k.k.g.g.g.g.k.g.g.g.",
"V.v.m.m.m.j.j.m.j.j.j.j.j.j.m.m.m.m.V.V.G.H.H.G.V.V.V.m.m.m.j.j.k.;.U o.o.o.3 J #.#.| 7.j.m.j.m.A.A.D.A.Z.c.c.k.k.k.g.h.h.h.k.g.",
"V.V.V.m.x.j.j.j.m.j.m.m.m.j.m.m.m.m.m.V.V.G.J.G.S.G.V.V.m.m.m.m.4.~ o.o.o.o.$ #.#.#.U f.m.m.l.b.n.Z.D.A.A.N.c.c.x.k.k.h.h.h.h.k.",
"D.V.V.m.v.m.j.j.m.j.j.j.m.j.j.m.m.m.m.N.V.V.G.J.G.H.G.V.V.m.m.j.s o.o.o.o.3 L #.#.#.R x.x.m.m.m.c.v.Z.A.D.A.Z.b.c.k.k.k.g.g.k.p.",
"G.D.V.V.v.v.j.j.j.j.j.j.j.j.m.m.j.m.m.m.N.N.S.G.J.G.G.S.V.V.V.M | o.o.X.a d #.#.#.#.b j.j.j.j.m.l.b.m.M.A.D.A.N.c.b.l.l.k.k.k.k.",
"G.G.V.V.V.v.v.m.j.m.j.j.j.j.j.m.m.j.n.m.N.N.V.S.G.G.G.G.S.V.V.a o.o.Y d g.l #.#.#.` 1.j.j.j.j.m.z.b.b.c.Z.Z.D.A.A.Z.c.l.l.l.k.k.",
"S.G.G.V.m.m.m.m.j.j.j.j.j.j.m.j.m.j.j.m.m.m.N.N.S.G.J.G.G.S.V.b f b e.M.m.< #.#.#.f j.j.j.j.j.j.z.x.l.l.b.N.Z.D.A.N.N.m.l.l.h.k.",
"V.S.G.V.V.N.m.m.m.j.j.j.j.j.j.j.j.m.x.m.m.V.V.N.V.V.S.G.G.S.V.V.V.V.V.V.V.$.#.#...>.j.j.j.j.j.j.l.l.l.b.b.x.M.V.G.D.V.B.M.x.l.j.",
"V.V.G.S.S.V.V.m.m.m.m.j.m.j.j.j.j.m.m.j.m.m.m.V.N.V.S.S.S.S.S.V.V.V.v.V.V.M @.@.j x.j.j.j.j.j.j.z.l.l.z.j.m.m.m.V.D.A.V.Z.M.l.l.",
"m.V.S.S.S.V.N.m.m.j.j.j.j.x.j.j.j.j.j.j.j.m.m.V.N.N.S.S.S.S.S.S.V.v.V.V.V.M.M j j.j.x.x.x.j.j.j.j.l.h.l.m.j.j.b.m.V.G.S.A.V.M.x.",
"m.m.V.S.S.S.N.N.V.m.m.j.x.j.j.x.j.j.m.m.j.m.m.m.N.N.V.V.V.S.S.V.V.M.M.M.V.D.F.G.V.m.m.x.x.x.x.j.j.l.j.j.j.j.j.m.m.m.V.G.A.V.B.M.",
"m.m.N.V.G.G.S.V.m.m.m.j.x.j.j.j.j.j.j.j.j.m.m.m.m.N.N.V.S.S.S.S.V.V.m.m.M.V.A.G.S.V.m.m.m.j.j.j.j.j.l.j.j.j.m.j.j.x.M.A.S.G.Z.Z.",
"m.m.N.V.S.G.S.C.V.V.m.m.x.x.x.x.j.j.j.j.j.x.x.x.m.m.N.V.N.N.V.S.V.V.V.v.m.M.V.V.G.G.V.M.m.m.j.x.j.x.j.j.m.j.j.j.j.x.b.M.V.S.S.A.",
"j.m.m.m.S.G.G.S.V.V.m.m.j.x.x.x.j.j.j.x.j.j.m.x.m.m.N.N.N.S.S.S.A.V.V.m.x.M.M.M.V.F.G.V.V.m.m.j.x.l.j.j.j.j.j.m.x.x.l.l.m.V.S.S.",
"m.m.m.m.N.S.G.S.V.V.V.m.m.x.x.j.j.j.j.j.j.x.j.m.j.m.m.m.N.N.V.S.V.V.V.m.m.M.m.m.M.V.G.G.V.V.M.m.x.l.j.j.j.j.j.j.l.j.k.x.b.M.A.A.",
"m.m.m.m.m.V.G.G.S.V.V.m.m.j.m.j.j.j.j.j.j.x.j.j.j.m.n.m.N.N.V.S.G.V.S.V.m.m.m.m.m.m.V.H.G.V.V.N.m.j.x.j.z.j.j.j.l.l.j.x.j.m.m.N.",
"j.m.j.m.m.N.S.S.G.V.V.V.V.j.m.j.j.j.j.j.j.j.j.j.j.j.j.m.m.N.V.V.V.G.V.V.m.m.m.j.j.m.m.V.G.H.S.V.M.m.m.m.j.j.j.j.j.l.x.x.m.j.m.M.",
"m.m.m.m.m.m.V.S.G.G.S.V.V.m.m.j.j.j.j.j.j.j.j.j.j.j.m.m.m.m.N.N.V.S.S.V.V.m.m.m.x.m.m.m.V.G.G.V.V.B.m.j.x.m.j.j.j.l.j.j.j.j.j.m.",
"j.m.m.j.m.m.m.V.G.J.G.S.V.V.m.m.x.m.j.m.j.j.j.j.j.j.j.m.j.m.m.N.V.V.V.V.V.m.m.m.m.x.m.m.m.V.G.G.V.V.M.m.x.j.j.j.j.j.x.j.l.j.b.j.",
"m.m.j.m.m.m.m.m.V.G.H.G.V.V.V.m.j.j.j.j.j.j.j.j.j.j.j.j.j.m.m.N.V.V.V.A.V.V.m.m.m.x.x.x.m.m.V.V.J.V.V.V.m.x.x.j.j.j.j.j.l.l.l.l.",
"m.j.j.m.j.m.m.m.V.S.G.G.G.V.V.m.m.m.v.j.j.j.j.j.j.j.j.j.j.m.m.m.m.V.V.A.A.V.V.M.x.x.x.j.m.m.M.V.V.J.G.V.B.M.x.x.j.j.z.j.j.j.j.l.",
"j.v.j.m.j.m.m.m.m.m.V.G.G.G.V.V.m.m.m.j.j.j.j.j.j.j.j.j.j.m.m.m.m.m.V.V.D.V.V.V.m.m.x.x.j.j.m.m.V.V.H.V.V.V.m.x.x.x.j.x.j.j.j.l.",
"j.j.j.j.j.m.j.m.m.m.V.G.G.G.G.V.V.m.m.m.j.j.j.m.m.j.j.j.j.j.j.j.m.m.V.V.A.V.V.V.m.m.m.m.j.m.j.m.m.V.F.J.F.V.B.B.x.x.j.j.j.j.j.j."
};
