/* XPM */
static char *result[] = {
/* columns rows colors chars-per-pixel */
"64 64 162 2 ",
"   c #35261A",
".  c #37281B",
"X  c #392A1D",
"o  c #3D2E21",
"O  c #422C1B",
"+  c #4C2E1D",
"@  c #4E321D",
"#  c #55341E",
"$  c #5C351E",
"%  c #433324",
"&  c #4B3525",
"*  c #4E3A27",
"=  c #463628",
"-  c #473829",
";  c #4C3A2B",
":  c #563721",
">  c #543821",
",  c #5C3C24",
"<  c #553D2B",
"1  c #5E3F2B",
"2  c #623B21",
"3  c #693B21",
"4  c #603F29",
"5  c #703F23",
"6  c #57422F",
"7  c #5F422E",
"8  c #554434",
"9  c #5C4C3C",
"0  c #62432C",
"q  c #6A4628",
"w  c #6F452B",
"e  c #7F4424",
"r  c #724926",
"t  c #77472C",
"y  c #754A2E",
"u  c #7C4B2C",
"i  c #7F522A",
"p  c #654733",
"a  c #614E3B",
"s  c #6E4E38",
"d  c #744E33",
"f  c #7C4E33",
"g  c #744F38",
"h  c #6E513C",
"j  c #745135",
"k  c #74533D",
"l  c #7E553A",
"z  c #7B593E",
"x  c #645342",
"c  c #6B5644",
"v  c #6C5945",
"b  c #675B4C",
"n  c #6B5D4C",
"m  c #725742",
"M  c #765945",
"N  c #7D5B45",
"B  c #705E4C",
"V  c #7B5E4A",
"C  c #75624F",
"Z  c #79604C",
"A  c #756554",
"S  c #7B6451",
"D  c #736A5A",
"F  c #7C6C5A",
"G  c #7F7463",
"H  c #824524",
"J  c #8F4B26",
"K  c #894E2E",
"L  c #9A4F27",
"P  c #80552D",
"I  c #8E502E",
"U  c #9F5229",
"Y  c #905C2D",
"T  c #8F5434",
"R  c #815439",
"E  c #8C5C39",
"W  c #925433",
"Q  c #9B5733",
"!  c #925D31",
"~  c #A15127",
"^  c #A1532A",
"/  c #A7582E",
"(  c #AB5A2F",
")  c #B1592C",
"_  c #BB5C2C",
"`  c #AB5D34",
"'  c #A75F38",
"]  c #B65E30",
"[  c #A16632",
"{  c #A26935",
"}  c #AD6E35",
"|  c #B47336",
" . c #C6612E",
".. c #C76130",
"X. c #D06631",
"o. c #DC6A32",
"O. c #C97F3C",
"+. c #E97035",
"@. c #F57537",
"#. c #826149",
"$. c #9D694B",
"%. c #826954",
"&. c #886C56",
"*. c #806D59",
"=. c #87715E",
"-. c #897059",
";. c #847462",
":. c #857B69",
">. c #937B65",
",. c #927F6A",
"<. c #D3853E",
"1. c #94816C",
"2. c #8C8272",
"3. c #9A8470",
"4. c #948B7B",
"5. c #9B8F7D",
"6. c #A28D76",
"7. c #A69077",
"8. c #A4917D",
"9. c #E08C41",
"0. c #EC9344",
"q. c #F89B47",
"w. c #9D9483",
"e. c #A29585",
"r. c #A59C8C",
"t. c #A7A08F",
"y. c #ABA28F",
"u. c #B8A186",
"i. c #BBA38A",
"p. c #ADA593",
"a. c #AFA997",
"s. c #AFA999",
"d. c #B0A694",
"f. c #B3A996",
"g. c #B8AB97",
"h. c #B3AD9B",
"j. c #B9AF9D",
"k. c #B6B09E",
"l. c #BAB19F",
"z. c #B7B2A0",
"x. c #BCB3A1",
"c. c #BEB9A6",
"v. c #BFBAA8",
"b. c #C7AF95",
"n. c #C7B095",
"m. c #CAB296",
"M. c #CDB499",
"N. c #C1B6A3",
"B. c #C3B9A6",
"V. c #C8BBA7",
"C. c #C4BDAA",
"Z. c #CABEAA",
"A. c #D8BEA1",
"S. c #C6C0AD",
"D. c #CCC1AE",
"F. c #D1C3AF",
"G. c #CEC4B1",
"H. c #CFC8B5",
"J. c #D2C6B2",
"K. c #D4C9B5",
"L. c #F0D5B5",
"P. c #FDE1C0",
/* pixels */
"h.z.z.v.S.S.S.v.v.v.z.z.z.z.s.z.z.z.z.z.z.c.v.S.S.c.z.z.z.k.k.h.z.z.z.c.S.S.H.H.S.C.c.c.k.k.c.c.l.c.S.S.D.K.K.H.S.C.C.C.B.B.B.B.",
"k.k.z.z.v.v.S.v.v.v.v.z.z.s.s.s.z.z.z.z.z.z.v.S.S.S.v.c.z.k.k.a.h.z.z.z.c.c.S.H.G.S.C.c.c.k.k.l.l.l.l.N.D.D.K.K.H.G.C.C.C.B.N.c.",
"z.z.k.k.z.v.v.S.S.v.v.z.z.z.s.z.s.z.z.z.k.k.z.z.v.S.v.v.z.z.k.h.k.h.k.k.z.z.c.S.H.G.S.S.B.c.l.l.l.l.l.c.N.C.D.D.K.K.G.Z.C.C.B.N.",
"s.s.s.z.z.z.v.v.S.S.S.v.v.z.z.s.s.s.s.s.k.k.k.z.c.S.S.v.c.c.z.h.k.a.h.k.z.k.z.c.S.S.H.S.C.c.c.k.l.l.l.l.x.x.N.C.G.K.K.G.Z.Z.C.N.",
"h.h.z.z.z.s.z.z.v.S.S.v.v.z.z.z.s.s.z.z.h.k.k.h.k.z.c.S.S.c.c.k.h.h.k.a.k.k.k.k.c.C.S.S.S.S.c.c.c.k.l.k.c.l.x.C.C.Z.H.K.J.Z.Z.C.",
"h.s.s.s.s.z.z.z.v.v.S.v.v.v.z.z.z.s.s.s.s.h.h.h.h.k.z.c.S.S.c.c.z.k.a.k.k.h.h.k.k.k.C.S.S.S.c.c.c.k.k.k.k.k.l.x.x.C.Z.Z.J.J.H.Z.",
"h.s.s.z.z.z.z.z.z.z.v.S.S.v.v.v.z.z.z.s.s.s.h.k.k.k.h.z.c.v.S.v.c.z.h.h.h.h.h.h.k.k.k.c.S.S.S.S.c.l.l.k.k.k.z.k.x.x.B.C.Z.J.K.H.",
"h.h.h.s.s.s.s.s.z.z.z.v.S.v.v.z.z.z.s.s.z.s.s.h.h.h.h.h.h.c.v.v.c.c.k.h.h.a.h.h.h.k.k.c.c.S.S.S.S.l.c.k.k.l.x.k.j.z.x.x.B.Z.H.H.",
"z.s.s.s.s.s.h.h.h.z.z.z.c.S.C.v.c.c.k.h.a.h.s.k.s.h.h.h.h.k.c.S.S.c.c.z.h.a.a.a.a.k.a.k.k.c.c.S.S.C.v.x.z.z.j.z.j.j.z.c.x.N.Z.G.",
"s.z.z.s.s.s.h.h.h.h.z.z.z.v.C.C.c.c.k.k.h.a.s.s.s.h.h.s.s.s.k.k.c.v.c.c.z.h.h.k.k.a.a.k.h.k.c.c.G.C.C.v.x.j.z.h.h.j.j.z.z.N.N.C.",
"z.h.s.s.h.h.s.h.h.h.h.h.k.c.v.C.C.c.c.k.k.h.s.a.s.s.h.h.h.h.h.k.z.c.S.c.z.z.h.h.a.k.s.k.k.h.k.z.v.S.G.C.B.c.z.z.j.z.h.j.j.j.x.c.",
"z.z.z.s.z.s.s.h.h.s.h.h.k.k.z.c.C.S.c.c.z.k.k.h.h.s.s.s.h.s.h.h.k.c.c.c.c.c.k.h.s.s.s.a.a.k.s.z.z.v.S.C.B.v.c.z.z.h.h.h.h.j.j.x.",
"v.v.z.h.s.h.h.h.k.s.s.k.k.k.k.k.c.S.c.c.c.z.k.s.s.s.s.s.s.h.h.h.k.k.c.c.c.c.z.k.k.s.s.s.h.a.s.h.h.l.x.C.S.C.v.x.z.z.h.h.h.h.j.z.",
"v.z.z.z.k.s.s.s.s.s.k.k.s.k.k.k.k.c.S.C.c.c.z.k.k.s.s.s.h.a.a.a.a.a.a.c.c.S.c.c.k.k.s.s.h.s.s.s.h.h.k.x.C.C.v.v.c.z.z.j.h.j.h.h.",
"S.v.v.z.k.k.s.s.k.h.s.s.h.k.k.k.k.c.c.S.S.c.c.k.k.s.s.s.s.h.a.h.a.k.k.z.z.c.c.c.c.k.h.a.s.a.a.a.s.h.h.k.z.B.C.C.B.x.z.j.h.h.h.h.",
"S.v.v.z.z.z.h.s.h.h.a.h.h.k.k.k.k.k.x.z.C.C.c.c.z.h.h.h.a.h.a.a.a.a.a.a.h.z.c.S.c.c.k.k.a.4.G :.4.s.h.s.z.z.v.C.C.C.v.z.z.h.h.h.",
"H.C.v.v.z.z.z.h.s.z.s.s.s.h.z.s.j.z.j.z.v.C.C.v.l.l.k.h.h.a.h.a.a.a.a.a.h.h.l.c.C.c.2.C F u.m.L.M.m.1.;.t.f.k.l.S.S.c.l.k.k.k.h.",
"H.H.H.C.v.x.z.z.z.s.s.j.j.h.s.z.h.j.j.j.z.v.C.N.c.c.k.k.h.a.a.a.s.a.s.a.a.h.k.k.2.A m.P.P.P.P.P.P.P.P.P.8.2.h.k.l.c.S.S.c.k.k.h.",
"Z.H.Z.C.C.N.z.x.z.j.h.s.j.z.z.j.z.z.j.j.j.x.B.C.S.x.c.l.k.h.a.a.h.a.h.a.h.a.t.n m.P.P.P.P.P.P.P.P.P.P.P.P.F s.k.k.l.c.S.c.c.k.h.",
"C.H.H.Z.Z.B.v.x.j.j.h.z.z.s.s.j.h.h.h.j.z.x.v.C.S.S.c.l.k.k.h.a.a.a.a.a.a.5.b L.P.P.P.P.P.P.P.P.P.P.P.P.u.:.s.f.k.h.k.c.S.S.c.k.",
"C.Z.K.Z.Z.Z.Z.v.z.j.j.j.j.h.h.h.h.j.h.j.j.j.x.x.S.S.C.x.x.k.k.h.h.a.s.s.t.x L.P.P.P.P.P.P.P.1.6 6 6 7 + ; s.s.d.a.h.g.k.c.C.c.c.",
"B.C.H.K.H.Z.Z.C.v.v.j.j.j.j.h.z.z.h.j.z.z.z.x.z.l.C.S.C.v.c.k.h.h.h.a.s.b L.P.P.P.P.P.P.F 6 O o.@.@.@.@.Q w.s.s.a.h.h.g.k.l.c.c.",
"v.N.Z.H.H.Z.Z.C.C.N.x.z.z.h.h.h.h.z.j.z.j.z.z.j.l.x.C.S.S.c.x.x.k.g.h.2.i.P.P.P.P.P.1.* [ q.Y I @.@.@.@.o.F s.s.a.s.a.a.h.k.c.c.",
"N.N.B.Z.H.H.H.H.Z.v.N.z.j.j.j.h.h.j.e.r.j.j.j.z.k.l.x.C.S.Z.c.c.k.k.a.D P.P.P.P.u.* Y q.q.q.q.# @.@.@.@.@.m h.s.a.a.a.a.a.h.k.k.",
"v.N.N.B.Z.K.K.H.Z.Z.B.N.x.x.j.j.h.t.5 g e.l.j.z.x.l.l.N.Z.S.Z.c.c.k.g.- P.P.P.x 6 q.q.q.q.q.q.# @.@.@.@.@.j h.a.a.a.a.a.a.h.a.k.",
"x.x.N.N.Z.Z.K.Z.H.Z.C.B.B.x.x.j.z.*._ o.4 p.j.l.l.x.l.x.c.Z.S.S.c.c.l.D   o 6 | q.q.q.q.q.q.q.$ L q 7 6 6 o :.h.a.a.a.a.s.a.a.a.",
"x.x.v.x.N.Z.Z.K.G.G.Z.Z.B.x.N.j.j.V o.o...V j.j.j.x.x.x.x.B.C.Z.S.S.c.l.k.z q.q.q.<.{ q * a 8 - v u.P.P.u.x n k.h.a.a.a.a.a.a.a.",
"x.x.N.x.N.Z.Z.J.K.H.H.Z.Z.N.N.N.z.V o.o.o.m j.j.j.j.x.l.x.x.c.Z.D.S.C.c.k.F o X     - 8 % 6 a * X > 7 7 7 e h l.k.h.a.a.a.a.a.a.",
"j.x.v.N.x.N.N.Z.K.K.J.Z.%.5 h =.x.A ..o.o.I r.j.j.j.j.x.l.x.x.N.C.D.S.S.C.y., [ [ 9.q.q.q.q.q.[ 2 @.@.@.@.@.#.l.c.k.h.a.a.a.a.a.",
"j.j.z.x.j.N.N.B.J.K.K.K.R @.@.X.4 :.) o.o.) 4.j.j.j.z.j.l.l.x.x.c.V.S.S.C.c.z 0.q.q.q.q.q.q.q.q.2 @.@.@.@.@.E S.c.z.k.k.h.a.p.a.",
"x.z.j.x.N.N.N.N.Z.Z.K.K.#.@.@.@.@.m 5 o.o...A h.j.j.j.z.l.l.l.N.N.N.V.D.S.S.f.[ q.q.q.q.q.q.q.q.2 @.@.@.@.@.j c.c.c.k.k.k.a.a.a.",
"j.x.x.x.x.N.N.N.N.Z.Z.K.8.( @.@.@.@.+ o.o.o.V j.j.h.j.j.l.l.l.l.l.l.N.S.S.D.S.q q.q.q.q.q.q.q.[ $ @.@.@.@.9.j k.c.c.c.c.k.k.a.a.",
"j.x.j.j.l.x.N.N.N.V.Z.Z.K.M +.@.@.@.~ 3 o.o.Z h.j.j.j.l.l.l.l.x.l.l.N.B.V.G.S.1.<.q.q.q.q.q.q.[ e @.@.@.@.@.p h.k.x.S.l.l.k.h.a.",
"x.z.x.j.j.x.N.N.N.V.V.V.K.Z.g @.@.@.@.#  .o.Z j.h.h.h.j.j.l.l.l.n.l.l.B.B.V.F.g.[ q.q.q.q.q.q.[ U @.@.@.@.@.V d.k.l.l.S.C.c.k.k.",
"l.z.x.j.j.x.N.x.N.N.N.N.Z.K.g.R @.@.@. .$ ) ;.z.j.j.l.j.h.j.l.l.l.l.l.l.N.c.V.S.* * 0 Y | q.q.0 o.@.@.@.@.+.%.h.h.h.k.l.c.S.c.k.",
"x.x.z.j.x.j.j.x.N.N.N.V.V.Z.J.b.1 +.@.@.+ ~ 5.x.j.j.h.l.j.j.h.j.k.l.l.l.l.m.c.S.7 6 8 9 9 x ; X < 0 ~  .@. .5.h.f.h.h.k.l.c.c.c.",
"x.x.j.j.x.x.j.x.N.j.N.N.N.V.Z.K.Z.#./ @.J X q g.j.j.j.j.j.j.j.h.l.l.l.l.l.n.c.B.E q.q.| d * 8 o u.M.7.n 8 % a.d.h.g.h.h.k.l.c.c.",
"N.j.j.x.j.x.z.x.j.N.N.N.N.N.V.Z.K.8.3 O J   <.l x.j.j.j.h.d.j.l.l.g.l.l.l.l.l.N.y q.q.q.q.q.P H e & 8 x 7.9 h.h.h.a.a.h.k.g.k.c.",
"N.N.x.j.j.j.j.l.l.j.j.N.N.N.N.V.G.&.@.~ # q q.<.V j.j.g.h.j.j.j.k.k.l.g.l.g.l.N.Y q.q.q.q.q.@ @.@.@.@.o.J * h.d.a.h.h.h.g.g.g.k.",
"N.N.x.j.z.j.l.x.l.j.N.N.N.N.N.N.Z.3.X.@.$ O.q.9.X 9 x.x.j.j.j.j.k.k.l.k.l.k.k.5.} q.q.q.q.O.5 @.@.@.@.@.@.6.h.h.a.h.h.a.h.a.g.k.",
"B.N.N.x.z.x.z.j.x.N.x.N.x.N.N.N.C.g.T @.o.+ q.0 % : S z.x.j.j.j.g.g.k.k.l.l.j.z 0.q.q.q.q.@ o.@.@.@.@.@.] l.k.g.h.a.h.a.h.a.h.h.",
"C.B.N.j.j.x.j.x.j.x.l.l.x.N.N.N.N.Z.N +.@.) @ = R q.' c N.x.l.j.k.k.g.k.g.k.w.0 q.q.q.q.Y J @.@.@.@.@.@.i l.k.k.g.g.a.a.h.g.g.a.",
"Z.C.N.N.j.j.z.x.x.l.x.j.l.N.N.N.N.N.g.T @.@.% . q.q.] o w 6.z.l.l.l.k.g.j.l.% - 7 <.q.9.@ @.@.@.@.@.@.+.1.c.N.l.k.k.g.h.g.h.h.h.",
"Z.Z.C.B.N.x.j.j.x.j.l.x.l.l.l.N.N.N.V.%.X.u x : & 9.g ; q.} f &.f.l.l.l.w.j <.i 8 < ! @ o.@.@.@.@.@.@.Y B.S.c.N.k.k.k.g.h.h.h.g.",
"F.Z.C.B.B.x.j.j.x.j.z.x.N.l.j.N.N.N.N.B.s * 8 o...+ = a q.q.q.o.@ o E i { q.q.q.{ 6 . < @.@.@.@.@.@.+.Z G.D.Z.B.N.l.k.l.h.k.k.h.",
"K.G.Z.Z.B.N.x.x.j.x.j.j.l.l.l.N.x.N.N.B.e.- 4 @.@.@.X . O.q.q.q.| 8 i q.q.q.q.q.r # * 7.* ) @.@.@.@.P k.D.G.D.V.B.N.l.k.g.g.g.h.",
"J.J.Z.Z.B.B.N.x.l.j.j.j.j.j.l.N.l.N.b.B.N.A W @.@.^ V < 1 < Q q.q.8 6 q.q.<.q @ L @.o.* 7.a r @.@.] -.n.V.Z.G.G.S.V.c.l.k.k.k.k.",
"J.Z.F.Z.B.B.B.N.l.l.j.j.j.j.l.N.j.j.N.N.N.V.>.` @.1 ,.J @.@.J + 2 .   @ # r  .@.@.@.@.@.1 F 6.& ..M x.x.N.V.S.G.D.V.V.B.k.k.g.k.",
"Z.J.J.Z.Z.Z.V.N.N.j.j.j.x.j.x.j.j.N.j.N.N.N.Z.,.' < =.L @.@.@.@.@.) B < @.@.@.@.@.@.@.@.@.f x A.= d.l.N.N.N.N.Z.Z.J.Z.Z.B.c.j.g.",
"Z.Z.K.Z.F.Z.V.N.N.N.x.j.j.j.j.j.N.j.N.j.N.N.N.Z.,.o 9 @.@.@.@.@.@.@.8 8 o.@.@.@.@.@.@.@.@.@.` ; d.l.l.l.N.l.N.N.Z.Z.D.Z.C.B.x.z.",
"N.Z.Z.K.Z.Z.V.V.N.N.j.j.j.x.j.j.j.N.j.N.N.N.N.N.Z.3.. o.@.@.@.@.@.@.< i.t @.@.@.@.@.@.@.@...h d.g.l.g.l.l.N.x.b.V.Z.J.F.Z.C.B.x.",
"N.Z.Z.Z.J.Z.V.V.B.N.N.j.x.j.j.x.j.j.j.j.N.N.N.N.N.Z.N.%.K +.@.@.@.@.) =.; @.@.@.@.@.@.+.W %.j.j.l.l.j.j.l.l.j.N.N.N.Z.F.F.Z.Z.C.",
"N.N.V.Z.K.F.F.A.Z.N.x.j.x.j.j.j.j.j.j.j.j.N.N.N.N.Z.Z.Z.Z.,.W X.@.@.@.8 ,.K @.@.@.o.Q k p.j.j.N.j.j.j.b.j.j.l.j.x.N.V.Z.J.J.S.Z.",
"N.M.N.V.F.J.J.Z.Z.N.N.N.x.x.x.x.j.j.j.j.j.N.j.N.N.N.V.Z.Z.F.Z.F.Z.$.` + i.& ( W R A f.B.B.x.j.j.x.z.j.j.l.j.l.l.j.z.n.B.Z.D.F.D.",
"N.N.N.N.Z.K.J.F.Z.Z.Z.N.j.x.x.x.j.j.j.N.j.j.j.N.N.N.Z.V.V.Z.F.F.D.Z.Z.N.p.4.e.B.D.K.J.Z.B.B.x.x.x.x.j.j.j.j.j.N.x.l.x.l.N.Z.F.F.",
"N.N.N.N.Z.F.J.F.Z.Z.N.N.N.x.x.x.j.j.j.j.j.j.N.j.N.j.N.N.V.Z.F.F.D.Z.Z.B.N.N.N.N.B.Z.F.J.Z.Z.Z.N.x.j.j.j.j.j.l.j.l.j.z.x.n.N.D.G.",
"N.N.N.N.N.Z.F.K.F.Z.Z.N.N.j.j.j.j.j.j.x.j.j.j.j.j.N.N.N.V.Z.Z.Z.F.Z.Z.Z.B.N.N.j.x.N.Z.J.J.F.Z.B.N.j.N.j.x.j.j.j.N.j.l.l.N.N.N.Z.",
"j.N.j.N.N.Z.F.F.F.F.Z.Z.Z.N.N.j.j.j.j.j.j.j.j.N.j.j.N.M.N.V.Z.Z.Z.F.F.Z.Z.N.N.N.x.N.B.Z.J.J.D.Z.B.N.x.x.j.j.j.j.j.j.l.x.j.j.b.N.",
"N.N.N.N.N.N.Z.Z.J.F.F.Z.Z.N.N.j.j.j.j.j.j.j.j.j.j.j.j.N.N.N.Z.Z.Z.F.Z.Z.Z.N.N.j.j.N.N.N.Z.J.J.Z.Z.Z.N.x.x.x.j.j.j.j.j.l.N.j.j.x.",
"j.N.N.j.N.N.N.Z.J.K.J.F.Z.Z.N.N.N.j.j.x.j.j.j.j.j.j.N.j.j.N.N.V.Z.Z.Z.Z.Z.Z.N.N.N.x.N.N.N.Z.J.J.Z.Z.B.N.j.x.j.j.j.j.x.j.j.l.l.N.",
"N.N.N.N.j.N.N.N.Z.J.K.J.Z.Z.Z.N.x.x.j.j.j.j.j.j.j.j.j.j.N.N.N.V.Z.Z.Z.F.Z.Z.N.N.N.j.j.N.j.N.Z.J.K.K.Z.B.N.x.x.j.j.j.j.j.j.l.l.l.",
"N.j.j.j.N.N.N.N.N.F.J.J.F.Z.Z.N.N.x.x.x.j.j.j.j.j.j.j.j.j.N.j.N.N.Z.Z.Z.Z.Z.Z.B.N.N.N.j.N.N.N.Z.Z.K.Z.Z.Z.C.N.x.z.j.j.j.l.j.j.l.",
"j.x.N.j.j.N.N.N.N.Z.Z.J.K.F.Z.Z.N.N.j.j.j.j.j.j.j.j.j.j.j.N.N.N.N.N.Z.Z.F.Z.Z.B.N.N.j.N.j.N.N.N.Z.Z.K.J.Z.Z.N.x.x.x.j.z.j.j.j.l.",
"x.x.j.j.j.j.N.N.N.N.Z.F.K.J.G.G.Z.Z.N.N.j.j.N.j.N.j.j.j.j.j.j.j.N.N.Z.Z.Z.G.Z.Z.N.N.N.j.N.j.j.N.N.Z.J.K.Z.Z.C.N.N.x.x.j.j.j.j.j."
};
