/* XPM */
static char *result[] = {
/* columns rows colors chars-per-pixel */
"64 64 155 2 ",
"   c #35261A",
".  c #37281B",
"X  c #3C2B1D",
"o  c #3D2E21",
"O  c #452E1C",
"+  c #4A2E1B",
"@  c #4D321D",
"#  c #55341E",
"$  c #59361F",
"%  c #443324",
"&  c #4B3525",
"*  c #4E3A27",
"=  c #463729",
"-  c #4D3B2B",
";  c #553621",
":  c #5C3C22",
">  c #563C2A",
",  c #4F3F30",
"<  c #623B22",
"1  c #703F23",
"2  c #57402E",
"3  c #4D4233",
"4  c #554334",
"5  c #5B4433",
"6  c #5C4C3C",
"7  c #62432C",
"8  c #6D452D",
"9  c #6B482C",
"0  c #734125",
"q  c #7F4525",
"w  c #724927",
"e  c #774529",
"r  c #724D2C",
"t  c #7C4A2B",
"y  c #78502B",
"u  c #6D4A33",
"i  c #624E3C",
"p  c #6D4E39",
"a  c #724C32",
"s  c #7E4D31",
"d  c #724F39",
"f  c #7D5136",
"g  c #71523C",
"h  c #7C533B",
"j  c #7E5A3E",
"k  c #5C4E40",
"l  c #695543",
"z  c #6C5D4C",
"x  c #755741",
"c  c #725945",
"v  c #7D5C44",
"b  c #725D4B",
"n  c #795F4C",
"m  c #74614D",
"M  c #6F6353",
"N  c #756554",
"B  c #7D6754",
"V  c #776855",
"C  c #7F6C57",
"Z  c #7B6E5D",
"A  c #8E4A26",
"S  c #894D2E",
"D  c #81542C",
"F  c #9F5229",
"G  c #935C2F",
"H  c #814F31",
"J  c #8E5333",
"K  c #905432",
"L  c #9E5732",
"P  c #915E31",
"I  c #A25329",
"U  c #A8562B",
"Y  c #AA5A2F",
"T  c #B25A2C",
"R  c #BB5C2C",
"E  c #A75C34",
"W  c #A16533",
"Q  c #A26935",
"!  c #AD6838",
"~  c #B47336",
"^  c #B4753B",
"/  c #BB7638",
"(  c #BF7839",
")  c #C5612F",
"_  c #D0642F",
"`  c #C56231",
"'  c #CD6935",
"]  c #DC6A32",
"[  c #C97F3C",
"{  c #E97035",
"}  c #F57537",
"|  c #835A40",
" . c #885F44",
".. c #81644F",
"X. c #836651",
"o. c #856D57",
"O. c #816E5A",
"+. c #87715F",
"@. c #837665",
"#. c #897662",
"$. c #867A68",
"%. c #8B7D6C",
"&. c #927C66",
"*. c #927D69",
"=. c #D4853E",
"-. c #93816B",
";. c #8A8171",
":. c #928776",
">. c #958B7B",
",. c #9A8E7C",
"<. c #A48E76",
"1. c #A7927C",
"2. c #AA957E",
"3. c #E08C41",
"4. c #EC9344",
"5. c #F89B47",
"6. c #9D9483",
"7. c #9F9887",
"8. c #A19685",
"9. c #A69B8B",
"0. c #A99D8C",
"q. c #B8A186",
"w. c #BBA38A",
"e. c #ADA594",
"r. c #AFA997",
"t. c #AFA998",
"y. c #B0A593",
"u. c #B2AA97",
"i. c #B3AD9B",
"p. c #B9AF9D",
"a. c #B6B09E",
"s. c #BAB19F",
"d. c #B7B2A0",
"f. c #BCB3A1",
"g. c #BEB9A6",
"h. c #BFBAA8",
"j. c #CAB296",
"k. c #CDB499",
"l. c #C1B6A3",
"z. c #C3B9A6",
"x. c #C8BBA7",
"c. c #C4BCAA",
"v. c #CABEAB",
"b. c #D7BEA0",
"n. c #D9BFA1",
"m. c #C6C0AD",
"M. c #CBC1AE",
"N. c #D1C3AF",
"B. c #CEC4B1",
"V. c #CFC8B5",
"C. c #D2C6B2",
"Z. c #D4C9B5",
"A. c #E4CAAB",
"S. c #F0D5B5",
"D. c #FDE1C0",
/* pixels */
"i.d.d.h.m.m.m.h.h.h.d.d.i.t.d.i.d.d.d.d.d.h.h.m.h.h.g.d.d.i.a.a.a.d.d.h.h.m.V.V.m.c.g.g.a.f.f.g.g.g.x.m.B.Z.Z.V.B.c.c.c.z.z.z.z.",
"a.a.d.d.h.h.m.m.h.h.h.d.d.d.t.t.t.d.d.d.d.d.h.m.m.m.h.g.d.i.i.a.a.a.d.d.g.h.m.V.B.m.c.g.f.f.a.f.a.s.s.z.v.M.Z.Z.V.B.c.z.c.z.z.l.",
"d.d.a.d.d.d.m.h.m.h.h.h.d.d.d.t.d.d.d.t.d.d.d.d.m.m.h.h.g.i.i.a.i.i.a.a.a.f.h.m.V.B.m.m.g.f.f.a.s.s.s.g.l.z.m.N.Z.V.B.v.v.c.l.z.",
"t.t.t.d.d.d.h.h.m.m.h.h.h.d.d.t.t.t.t.d.i.d.d.d.g.h.m.h.g.g.a.a.i.i.i.a.a.d.d.h.m.m.B.m.c.g.g.a.s.s.s.s.s.l.z.c.B.V.Z.B.v.v.c.l.",
"i.i.d.d.t.d.i.d.h.m.m.h.h.d.d.d.t.d.t.d.i.d.i.i.a.a.h.m.h.h.g.a.a.i.i.a.a.a.a.a.g.g.m.B.m.m.g.g.g.a.a.g.a.g.f.g.c.v.V.Z.C.v.v.v.",
"t.t.t.t.t.d.d.d.h.h.h.m.h.h.d.d.d.t.t.t.i.i.i.i.i.a.d.g.m.m.g.d.d.i.i.i.a.i.i.a.a.d.c.m.m.m.g.g.g.a.s.a.a.a.f.f.l.c.v.v.V.V.v.v.",
"d.i.t.d.d.d.d.d.d.g.h.h.h.h.h.h.d.t.d.t.t.i.i.d.a.i.i.d.g.h.m.g.g.d.i.r.i.i.i.i.a.a.d.g.m.m.m.m.g.s.a.a.a.a.s.s.d.f.l.c.v.V.Z.V.",
"i.i.t.t.t.t.t.d.d.d.h.h.m.h.h.d.d.d.d.t.i.t.t.t.i.a.i.i.a.g.h.m.h.g.a.a.i.i.r.i.i.a.a.g.g.m.m.m.c.g.s.s.a.a.d.a.s.f.f.f.z.v.V.Z.",
"d.t.d.t.t.t.i.i.t.d.a.d.g.m.m.h.h.f.a.a.i.t.i.d.a.t.i.i.i.a.g.h.g.h.g.d.a.u.r.i.r.i.i.a.d.g.g.m.B.c.c.d.d.p.a.a.p.p.d.f.f.l.v.C.",
"t.d.t.t.t.t.i.t.t.i.d.a.d.h.h.m.h.f.d.a.i.i.t.t.t.a.t.t.t.i.a.g.h.h.g.g.d.i.i.i.i.r.i.i.i.d.g.g.v.c.c.h.f.d.a.i.p.i.p.d.d.l.l.c.",
"d.i.i.t.d.t.i.i.i.d.t.i.a.g.g.c.m.g.g.a.d.i.t.t.t.t.t.a.i.t.i.a.d.g.h.h.d.d.i.i.r.i.r.i.i.i.d.d.h.m.B.c.z.g.d.a.d.d.i.p.p.p.d.z.",
"d.d.d.t.i.t.i.i.t.i.i.d.a.a.a.g.m.m.g.s.a.d.i.t.t.i.t.i.u.i.t.i.a.g.m.h.g.g.a.u.i.i.r.r.i.t.i.d.d.h.c.c.c.h.g.d.i.p.i.i.a.p.p.d.",
"h.h.d.i.t.a.t.i.t.a.a.a.a.a.a.a.g.m.m.g.g.d.a.a.t.t.i.t.i.t.i.i.i.a.d.g.m.g.g.a.a.r.t.t.t.t.t.a.a.a.d.v.c.c.h.g.d.a.i.i.a.i.p.a.",
"h.d.d.d.a.i.t.t.i.t.t.t.i.a.a.a.s.g.m.g.g.f.a.a.i.t.t.t.t.r.t.i.r.r.r.g.g.g.g.d.a.a.i.r.i.t.t.t.i.i.d.d.c.c.c.h.g.d.d.p.i.i.i.p.",
"m.h.h.d.d.i.t.t.i.t.t.a.t.a.a.a.a.f.g.m.m.g.g.a.a.t.t.t.r.i.r.r.i.i.i.a.d.g.c.g.g.a.i.r.i.t.t.t.r.i.i.i.d.c.c.c.z.f.d.p.i.i.i.i.",
"m.h.h.d.d.d.i.t.i.a.t.a.u.a.a.a.a.a.s.f.#.7.g.g.d.a.t.t.i.r.i.i.r.r.i.i.a.d.g.m.g.g.d.a.t.i.t.t.t.i.i.i.a.d.h.c.c.c.h.d.d.i.i.i.",
"V.m.c.c.d.d.p.i.p.i.i.t.i.t.i.d.p.d.p..._ 1 0.l.f.f.a.@.%.u.i.e.r.r.r.a.r.a.g.g.m.g.g.d.a.r.i.r.r.t.t.i.r.i.a.s.m.m.g.s.a.a.a.i.",
"V.m.m.c.h.h.d.p.i.t.t.p.i.p.i.i.d.t.y.f } } l v.z.i.i T a e.r.r.r.r.r.r.r.r.a.a.g.g.m.g.a.a.i.r.t.t.r.r.i.i.u.a.a.m.m.m.g.a.a.i.",
"B.V.v.v.c.l.d.d.d.p.t.p.p.i.d.d.i.d.;.` } } | l.d.u _ ] H i.u.r.r.r.r.r.r.u.a.r.a.g.g.g.g.a.a.u.r.r.t.r.t.r.t.i.a.a.m.m.g.g.a.i.",
"c.V.B.m.v.c.l.f.d.i.p.p.i.p.i.p.i.i.N } } } ` ,.u _ ] ] d p.i.r.r.i.r.r.r.r.r.r.a.a.g.g.g.g.a.a.i.t.i.t.t.t.r.u.u.a.a.s.m.m.g.a.",
"c.v.Z.B.B.c.c.h.p.p.p.p.i.p.i.i.p.i.d } } } ) p R ] ] _ c s.a.i.a.r.r.r.r.r.r.i.r.a.a.g.m.g.g.a.a.i.t.t.t.t.t.t.r.i.i.a.g.g.g.g.",
"z.v.v.Z.B.B.v.c.h.h.p.p.p.i.p.p.i.p.| } } } Y 1 ] ] ] D e.g.d.i.r.a.a.r.r.r.r.r.r.u.u.u.d.g.g.g.f.a.a.t.t.t.r.t.r.r.i.i.a.s.g.m.",
"l.l.v.B.Z.B.m.v.h.l.f.d.i.p.i.i.p.p.| } } } < ` ] ] ) B c.z.f.d.a.a.r.a.i.r.r.r.r.a.a.r.a.d.g.g.g.f.a.a.t.r.r.t.r.r.u.u.u.a.a.m.",
"z.l.c.v.V.V.B.m.v.h.h.d.d.p.p.p.i.i.| } } } # ] ] _ u s.m.m.h.g.a.a.a.r.r.r.r.r.r.r.u.r.i.a.d.g.c.h.d.a.a.t.t.t.r.r.r.r.u.u.a.a.",
"h.l.l.c.v.Z.Z.B.v.v.c.l.f.f.d.p.p.p.z } } ] # ] ] u 7.l.c.B.v.h.g.a.a.u.u.u.r.r.r.r.r.r.i.r.i.d.g.m.g.g.a.a.i.r.r.r.i.r.r.r.i.a.",
"d.f.l.l.l.C.Z.Z.v.v.c.z.l.l.d.d.p.9.4 ` } q I _ 1 9.p.f.g.v.m.c.g.g.a.u.a.u.r.u.r.r.r.i.r.i.r.a.a.g.g.g.d.a.a.r.r.r.r.r.r.r.r.r.",
"f.f.f.l.l.v.C.C.B.B.M.v.l.l.l.p.0.s U 1 } + ` p 0.s.f.f.f.z.c.v.m.m.g.g.a.a.u.u.r.r.r.r.r.r.r.r.i.a.g.g.g.g.a.a.i.r.r.r.r.r.r.r.",
"d.f.l.f.l.l.v.Z.Z.V.B.M.v.l.l.p.d { ` X q # , t.s.s.s.f.f.f.l.c.m.m.g.g.a.a.u.a.a.,.;.V Z Z $.:.i.i.d.g.g.g.g.g.a.i.r.r.r.r.r.r.",
"f.f.l.l.f.l.l.v.Z.Z.C.C.M.v.v.9.E } 1 < . > %.p.s.p.d.d.f.f.l.l.m.m.m.m.g.a.a.2.m -.j.A.D.D.b.2.C V >.a.g.g.g.g.g.a.a.u.r.r.r.r.",
"p.p.p.h.l.f.l.l.C.Z.Z.C.C.v.l.n { } # 5.=.' 6.p.p.p.p.s.s.s.s.l.g.g.m.m.m.g.g.o b.D.D.D.D.D.D.D.D.S.2.z 2.d.g.g.g.d.a.a.i.r.r.r.",
"d.p.d.f.f.l.l.l.v.v.Z.Z.C.M.M.| } } # 5.5./ 6.i.i.p.s.p.f.f.s.f.g.j.c.b.m.m.g.  D.D.D.D.D.D.D.D.D.D.D.S.O.$.f.g.g.g.d.a.i.u.r.r.",
"f.p.f.f.l.f.l.l.l.v.v.Z.Z.M.l.| } } # 5.! = e.i.p.i.p.p.p.p.s.s.a.g.g.m.m.m.m.3 % j.D.D.D.D.D.D.D.D.D.D.D.2.m a.g.g.g.g.a.i.r.r.",
"p.f.p.s.f.f.l.l.l.x.v.v.Z.v.9.U A > . % X   i.p.p.p.p.p.p.p.s.s.a.j.d.g.m.M.M.j ( a * 4 m q.D.D.D.D.D.D.D.D.2.,.s.g.m.g.s.a.a.i.",
"p.f.p.s.p.f.f.l.l.l.x.v.Z.Z.l > N - . D 3.X p.s.i.i.p.d.p.s.f.s.g.a.j.g.g.m.q.. ~ 5.5.5.=.y * 4 <.D.D.D.D.D.D.&.u.a.s.z.h.s.a.a.",
"f.f.p.p.s.s.s.l.l.l.l.x.v.Z.k % t ] O 5.5.w f.s.p.p.p.p.p.p.p.p.a.a.a.f.g.g.j y   r 5.5.5.5.5.5.D % m D.D.D.D.D.@.i.a.g.m.g.s.s.",
"f.p.s.s.s.s.f.f.l.l.l.v.v.v.x } } } < 5.[ % u.l.p.p.p.i.p.p.p.i.a.a.j.a.j.a.D 5.^ o * 3.5.5.5.5.5.@ F * <.D.D.D.w.u.u.s.s.g.c.g.",
"f.f.d.d.f.f.p.f.l.l.l.l.l.x., } } } @ 9 - % >.f.p.p.p.p.p.p.p.p.p.s.s.s.a.-.=.5.5.~ % = ^ 5.5.5.Q q } } 9 +.D.D.j.;.u.a.a.s.g.g.",
"f.f.p.s.f.d.s.s.p.l.p.l.l.l.l } } s   4 7 4.v s.f.s.p.p.u.p.p.p.a.p.s.a.a.y 5.5.5.5.3.- 6 7 5.5.@ } } } } & -.D.m e.u.u.a.u.a.g.",
"l.l.p.p.p.p.s.s.p.l.l.l.l.l...L - &.o > 5.5.8 z.l.p.p.p.i.p.p.p.p.p.a.a.m =.5.5.5.5.5.3.* V * : T } } } } } * Z ,.i.a.u.a.u.a.a.",
"l.f.l.p.p.p.p.s.s.p.p.l.l.l., n &.* ] $ 5.5.! 1.z.l.f.p.p.p.p.p.p.p.a.:.w 5.5.5.5.5.5.5.3.2 z X L } } } } ) @.u.i.i.u.u.u.u.u.a.",
"c.l.l.f.p.f.p.d.p.f.f.l.f.l., k 8 } } < =.5.5.u v.l.l.f.s.s.p.p.u.a.1.X % =.5.5.5.5.5.5.5./ . &.b 7 } } } a a.a.u.i.u.u.u.u.u.a.",
"c.c.l.f.d.f.p.f.s.f.f.f.f.l.M A } } } ] # 5.5.= k x.l.l.l.s.p.p.s.1.2 =.& 3 5.5.5.5.5.5.=.O } r O.q.* ` Y ,.a.a.a.u.u.u.a.u.u.u.",
"v.c.l.l.p.p.p.f.f.f.f.s.f.p.p.J } } } } < ~ Q = ; 8.v.l.l.l.s.s.o.G 5.5.P i 7 5.5.5.5./ # ] } } t b A.- - z.f.f.a.i.i.u.i.i.a.u.",
"v.v.c.l.l.f.p.d.p.s.s.s.f.p.l.h } } } } } @ % - 5.W v 9.6.%.x H =.5.5.5.5.O 6 ~ 5.5.~ $ ] } } } } A 4 % a.c.g.f.a.a.a.i.i.i.i.a.",
"B.v.v.l.l.l.f.p.s.s.s.s.s.s.s.*.{ } } } } 0 . 9 5.5.4.'  .o 1 5.5.5.5.5.5.=.i 3 =.y < } } } } } } } 8 $.N.B.m.k.s.s.s.a.u.u.a.i.",
"Z.B.v.v.l.l.f.p.p.f.s.p.s.s.l.s.K } } } } * 3 O [ 5.5.5.5.5 > 5.5.5.5.5.5.4.7 g   I } } } } } } } Y &.c.M.B.M.x.m.m.s.a.a.p.u.p.",
"C.N.v.v.l.c.l.f.s.p.p.p.s.s.s.l.<.} } } t &.> ] < < 3.5.5.p i 5.5.5.5.5.5.y @ X &.y } } } } } } ' b l.l.c.M.B.B.m.k.s.s.s.s.a.a.",
"v.C.M.v.v.l.l.l.s.s.p.p.p.s.l.s.p.! } } - C T } } ` # # s % 4 5.5.~ w $ $ A 3.U C i T } } } } ' b d.j.s.g.k.m.B.M.m.m.s.j.s.u.s.",
"v.Z.v.v.v.v.l.l.l.p.p.p.p.p.p.p.p.l.{ s 1.& } } } } } } F X o # < q U } } } } } & A.- } } } Y l p.p.f.j.l.l.l.v.v.C.v.c.z.f.p.p.",
"v.v.Z.Z.C.v.v.l.l.l.p.l.l.p.p.f.f.f.| , 1.e } } } } } } } 8 *.F } } } } } } } } ` k w.> } J *.p.f.p.p.a.p.l.l.j.v.v.B.v.v.c.l.p.",
"k.v.v.Z.v.v.x.x.l.p.l.p.p.f.p.p.f.p.f.z 4 } } } } } } } } > *.8 } } } } } } } } } < w.c % y.p.p.p.s.p.d.l.p.s.p.x.v.C.v.v.x.l.f.",
"l.v.v.v.C.v.v.v.x.l.p.p.h.p.p.p.p.p.p.0.& { } } } } } } } A 1.> } } } } } } } } } } o b p.p.f.p.p.p.p.p.s.s.s.j.l.z.v.C.C.v.c.c.",
"l.l.v.v.N.N.v.v.l.l.l.p.p.p.p.p.p.p.p.p.0.d _ } } } } } } F <.> } } } } } } } } ` ..l.l.l.f.p.f.p.p.s.s.p.p.p.l.p.l.z.B.C.N.M.v.",
"p.l.l.v.v.A.C.n.v.l.h.l.p.h.l.p.p.p.p.p.p.f...h _ } } } } F +., } } } } } { L ..Z.C.v.l.l.f.p.p.s.s.p.p.l.p.p.p.p.s.f.f.c.N.B.M.",
"l.l.l.l.v.Z.Z.N.v.v.l.l.l.f.l.p.f.p.p.f.f.p.l.y.+.d S ` { ] i k ] ] ` J | n p.l.v.Z.v.v.v.l.l.p.s.f.s.p.p.p.p.l.l.p.f.j.l.v.N.B.",
"l.l.l.l.v.v.Z.N.v.v.v.l.p.p.l.p.p.p.p.p.p.f.p.p.p.l.p.:.....5 4 ..X.8.p.l.l.l.l.v.v.C.Z.v.v.x.l.f.s.s.p.p.p.p.p.p.l.p.d.j.z.M.M.",
"p.l.l.l.x.v.N.C.C.v.v.l.l.p.l.p.p.p.p.p.p.p.f.p.p.l.l.l.x.x.v.v.v.v.v.v.v.l.l.l.l.l.v.Z.C.v.v.v.l.s.l.s.s.p.p.f.p.p.p.l.p.l.l.x.",
"l.l.l.l.l.x.N.N.C.N.v.v.l.l.l.p.p.p.f.p.p.f.p.p.p.p.p.l.x.x.v.x.v.v.Z.v.x.l.l.l.p.l.l.v.v.Z.v.v.z.l.s.f.f.p.p.p.p.p.p.f.l.p.l.l.",
"l.l.p.l.l.l.x.N.C.C.C.v.v.l.l.p.p.p.p.p.p.p.p.p.p.l.l.l.l.l.x.x.v.v.v.v.x.x.l.p.l.l.l.l.v.v.Z.v.v.x.l.p.p.f.p.u.p.f.p.s.l.p.p.l.",
"p.l.l.l.p.l.l.x.C.Z.C.N.v.l.l.l.h.p.p.l.f.p.p.p.p.p.p.l.p.k.l.x.v.v.v.v.v.l.l.l.p.l.l.l.x.v.Z.Z.v.v.x.l.p.f.f.p.p.p.f.p.p.p.l.p.",
"l.p.l.l.l.l.l.l.v.N.Z.C.v.v.v.l.f.f.p.p.p.p.p.p.p.p.p.p.p.l.l.l.v.v.v.v.v.v.x.l.l.p.l.l.l.l.v.v.Z.v.v.v.l.f.s.s.p.p.p.p.p.p.l.p.",
"p.l.f.p.p.l.l.l.x.N.C.C.C.v.v.l.l.l.f.p.p.p.p.p.p.p.p.p.l.p.l.l.l.v.v.N.v.v.x.l.l.l.p.p.p.l.l.x.v.Z.v.v.c.z.f.f.s.p.p.p.p.p.p.p.",
"p.f.f.f.p.l.l.l.l.x.v.C.Z.C.v.v.l.l.p.p.p.p.p.p.p.p.p.p.l.l.l.l.l.l.v.v.N.M.v.x.l.l.l.p.l.p.l.l.v.v.Z.Z.v.v.l.f.f.s.p.s.p.p.p.p.",
"p.f.p.p.l.p.p.l.l.l.v.C.Z.Z.v.N.x.l.x.l.p.p.p.l.p.p.p.p.p.p.p.p.l.l.x.v.v.N.v.x.z.l.p.l.p.l.l.l.l.v.Z.Z.Z.v.c.l.l.f.p.p.p.p.p.p."
};
