/* XPM */
static char *result[] = {
/* columns rows colors chars-per-pixel */
"64 64 163 2 ",
"   c #352519",
".  c #37281B",
"X  c #3B2B1D",
"o  c #3D2E20",
"O  c #3F3123",
"+  c #432D1C",
"@  c #4E321D",
"#  c #55341F",
"$  c #5D361E",
"%  c #402F20",
"&  c #443224",
"*  c #4B3626",
"=  c #4E3A27",
"-  c #453628",
";  c #4B3728",
":  c #4C3B2C",
">  c #573720",
",  c #573821",
"<  c #5B3E27",
"1  c #553D2B",
"2  c #4E3E30",
"3  c #503F30",
"4  c #623B20",
"5  c #703F23",
"6  c #554333",
"7  c #5C4432",
"8  c #574738",
"9  c #5A493A",
"0  c #634225",
"q  c #62442B",
"w  c #6E442A",
"e  c #754325",
"r  c #714827",
"t  c #70462B",
"y  c #744C2D",
"u  c #7D4B2B",
"i  c #7F522A",
"p  c #604A37",
"a  c #6A4931",
"s  c #624E3C",
"d  c #6B4F3A",
"f  c #744D32",
"g  c #7E4D32",
"h  c #63513E",
"j  c #6E513C",
"k  c #7D5137",
"l  c #7E543C",
"z  c #7D593D",
"x  c #635241",
"c  c #6D5542",
"v  c #6A5846",
"b  c #6C5B4A",
"n  c #745743",
"m  c #745A45",
"M  c #7E5A44",
"N  c #735E4B",
"B  c #74614E",
"V  c #7A624D",
"C  c #726353",
"Z  c #7A6350",
"A  c #766A5A",
"S  c #7B6C5A",
"D  c #814524",
"F  c #8E4B26",
"G  c #834A2A",
"H  c #8E4E2D",
"J  c #984D26",
"K  c #81532D",
"L  c #8F502D",
"P  c #8C5B2D",
"I  c #9E522A",
"U  c #915C2D",
"Y  c #8D5332",
"T  c #885936",
"R  c #9D5732",
"E  c #925D31",
"W  c #965B3A",
"Q  c #A2532A",
"!  c #A9592F",
"~  c #B2592C",
"^  c #A85B34",
"/  c #A16732",
"(  c #A26833",
")  c #AD6C35",
"_  c #B06035",
"`  c #B47336",
"'  c #C5612E",
"]  c #D0642F",
"[  c #C76130",
"{  c #D06631",
"}  c #DC6A32",
"|  c #C67D3B",
" . c #C97F3C",
".. c #E97035",
"X. c #F57537",
"o. c #895E44",
"O. c #80644F",
"+. c #886C56",
"@. c #806E59",
"#. c #85715E",
"$. c #89735E",
"%. c #94755D",
"&. c #847664",
"*. c #897762",
"=. c #817769",
"-. c #8B7F6E",
";. c #907662",
":. c #927C66",
">. c #D2833D",
",. c #97836C",
"<. c #928473",
"1. c #9C8771",
"2. c #968A79",
"3. c #998F7E",
"4. c #9F917E",
"5. c #A68269",
"6. c #A48F77",
"7. c #A78F79",
"8. c #A6917C",
"9. c #DF8C41",
"0. c #E08C41",
"q. c #EC9344",
"w. c #F89B47",
"e. c #9D9584",
"r. c #A19786",
"t. c #A39A8A",
"y. c #AB9F8E",
"u. c #A7A08D",
"i. c #ACA08E",
"p. c #B8A186",
"a. c #BEA68B",
"s. c #ADA694",
"d. c #AFA897",
"f. c #AFA999",
"g. c #B1A695",
"h. c #B0A997",
"j. c #B3AD9B",
"k. c #B9AF9D",
"l. c #B6B09E",
"z. c #BAB19F",
"x. c #B7B2A0",
"c. c #BCB3A1",
"v. c #BEB9A6",
"b. c #BFBAA8",
"n. c #CAB296",
"m. c #CDB499",
"M. c #D4BB9F",
"N. c #C1B6A3",
"B. c #C3B9A6",
"V. c #C8BBA7",
"C. c #C4BCA9",
"Z. c #CABEAB",
"A. c #D7BEA0",
"S. c #C6C0AD",
"D. c #CBC1AE",
"F. c #D1C3AF",
"G. c #CEC4B1",
"H. c #CFC8B5",
"J. c #D2C6B2",
"K. c #D4C9B5",
"L. c #E4CAAB",
"P. c #F0D5B5",
"I. c #FDE1C0",
/* pixels */
"j.x.x.b.b.S.S.b.b.b.x.x.j.f.x.f.f.x.x.x.x.b.b.S.S.v.x.x.l.l.l.x.x.x.x.v.v.S.H.H.S.S.z.C.l.l.z.v.v.v.B.S.G.K.K.G.Z.Z.C.B.C.N.B.B.",
"l.l.x.x.b.b.S.S.b.b.b.x.x.x.x.f.x.x.x.x.x.x.v.S.S.S.b.v.x.l.f.j.j.l.x.x.b.v.S.H.G.S.S.z.v.z.v.l.l.z.c.B.Z.G.K.K.H.G.Z.C.C.B.N.N.",
"x.x.l.x.x.b.b.S.S.b.b.b.x.x.f.f.f.x.x.x.x.x.x.x.S.S.b.b.v.x.l.l.l.j.x.l.x.x.v.G.H.G.S.S.C.v.l.z.z.c.c.c.N.C.Z.G.H.H.G.Z.Z.C.N.N.",
"f.f.f.x.x.x.b.b.S.S.b.b.b.x.x.f.f.f.f.x.x.x.x.x.v.b.S.b.v.x.x.x.j.j.j.l.l.l.x.v.S.S.G.S.S.z.v.l.x.c.z.z.c.c.N.Z.G.K.H.H.Z.Z.C.B.",
"j.j.f.x.x.x.x.x.b.S.S.b.b.x.x.x.x.f.f.f.f.j.x.f.l.x.v.S.v.v.x.x.j.j.j.j.l.l.l.l.v.C.D.D.S.S.v.v.c.l.c.j.c.c.c.N.Z.Z.H.K.Z.Z.Z.Z.",
"f.f.f.x.x.f.j.x.v.b.S.b.b.b.b.x.j.f.x.f.j.x.f.x.j.l.x.b.S.S.v.v.x.x.j.j.l.l.h.l.l.l.C.S.S.S.v.v.c.c.l.l.l.c.z.c.c.B.Z.Z.K.K.H.Z.",
"x.f.f.x.f.f.x.x.x.x.b.S.b.b.b.x.x.x.x.j.f.j.x.j.j.j.l.x.v.v.S.v.v.x.j.j.j.l.l.h.l.l.v.v.S.G.S.S.b.c.l.l.j.l.l.x.x.c.B.C.Z.Z.H.H.",
"f.x.f.f.f.x.f.x.x.x.x.b.S.b.b.b.x.x.f.f.j.f.f.f.j.l.j.j.x.v.S.v.b.v.x.j.j.h.h.j.l.h.l.l.v.S.S.S.C.v.c.c.x.c.x.l.x.c.c.N.Z.Z.H.H.",
"x.f.x.f.f.j.f.x.l.l.x.x.v.S.S.b.b.l.l.l.j.f.f.x.f.l.j.j.l.l.v.b.b.b.b.x.j.j.j.f.j.f.j.x.x.x.S.S.S.C.b.c.x.x.x.x.k.k.x.c.c.N.Z.Z.",
"f.f.x.f.f.f.f.f.f.j.l.l.x.b.b.S.C.z.c.l.j.j.f.j.f.j.j.f.f.f.l.v.b.b.v.v.l.j.j.j.f.j.f.j.j.x.x.S.S.C.Z.b.c.x.k.x.j.k.k.x.c.N.N.Z.",
"x.x.f.f.x.f.j.j.j.j.j.l.l.l.v.b.b.C.b.z.x.j.f.f.f.f.h.j.h.j.j.l.x.b.S.v.c.l.j.j.f.j.f.x.j.j.x.x.C.S.S.C.B.c.x.x.k.j.j.j.k.k.c.b.",
"x.x.x.f.f.x.f.j.j.j.j.j.l.l.c.v.S.S.b.z.x.l.j.f.l.f.f.f.l.f.j.f.l.v.v.v.v.v.l.l.j.f.f.f.j.f.j.l.x.b.Z.Z.C.b.c.x.x.x.x.j.j.x.x.c.",
"x.x.x.x.j.j.j.j.f.l.l.l.l.l.l.l.v.S.B.v.v.v.l.f.f.f.l.d.h.j.j.j.u.v k j C.b.l.l.j.f.j.f.f.f.f.j.l.l.c.b.C.C.b.c.x.x.k.k.k.j.x.k.",
"b.b.x.x.j.j.f.f.j.f.f.f.l.l.l.l.l.S.S.v.v.v.l.l.f.f.f.f.h.d.f.Z P ..X./ 3.S.b.z.x.j.f.f.j.f.f.j.j.l.x.c.b.Z.C.b.c.x.j.j.j.j.j.j.",
"C.b.b.x.l.j.f.f.j.f.f.l.j.l.l.l.l.z.v.S.b.b.v.l.l.f.f.f.h.s.j ] X.X.X.i l.b.S.z.v.l.l.f.f.f.f.f.f.j.j.j.x.C.C.C.C.c.x.x.j.j.j.j.",
"S.b.b.x.x.x.l.f.j.l.j.j.f.l.l.l.l.z.z.z.b.S.b.v.z.l.f.f.s.a ..X.X.X...c l.l.v.S.b.v.l.j.l.f.f.f.f.f.j.j.x.x.b.C.C.C.b.x.x.k.j.j.",
"H.Z.C.b.b.x.x.j.j.j.j.j.j.f.k.k.j.x.x.x.b.B.C.b.v.l.l.h.d ..X.X.X.X.i e.j.l.l.C.v.v.v.l.l.h.h.h.f.f.f.j.f.j.l.z.S.S.v.v.l.l.l.j.",
"G.H.S.C.b.c.k.k.k.f.j.j.j.j.f.k.j.k.k.k.k.b.C.f.$.c #.N { X.X.X.X.u C &.C B $.u.v.S.v.v.l.l.l.h.f.f.f.f.j.h.h.l.z.S.S.v.z.z.l.j.",
"G.H.Z.C.B.b.c.x.x.j.j.k.x.j.x.x.k.k.k.k.k.r.c R } X.F e X.X.X.' @ w Q ~ ] ] ~ G <.v.S.v.x.x.l.h.d.d.f.f.d.j.f.j.j.z.C.S.b.v.l.l.",
"C.H.G.Z.Z.C.b.c.x.k.j.j.j.x.x.f.j.j.j.f.Z Y X.X.X.Q X X.X.' 4 $ ' } } } } } } U ,.l.v.v.v.v.l.l.j.j.f.f.f.f.f.h.j.l.l.v.S.C.v.l.",
"C.Z.K.Z.Z.Z.C.b.b.k.k.j.j.k.k.f.j.k.-.1 } X.X.} @ , 4 F # $ ~ } } } } }  .] i $.h.j.l.x.v.S.v.l.l.j.f.f.f.f.f.h.h.h.l.l.v.C.v.v.",
"N.Z.H.H.H.G.Z.B.N.c.x.k.k.j.k.k.k.C X x 1 } ~ # >.P   X J ~ ' } } } ! J y v 4.h.h.h.j.l.l.v.v.v.c.l.l.f.f.s.f.f.h.h.h.h.l.x.v.C.",
"N.B.Z.H.H.Z.Z.Z.C.N.c.x.j.k.f.k.Z ! Q ; x % % w.w.w.q.f 3.2.V V B B &.4.h.d.d.d.h.h.j.j.x.v.v.v.v.v.l.l.h.f.f.f.h.j.h.h.h.l.x.v.",
"b.N.C.Z.K.H.H.S.C.C.N.x.k.k.k.$.! X.X.X.5 . 3 & >.>.a z.S.C.B.c.z.l.l.f.h.d.d.h.h.j.h.h.h.l.x.v.b.b.l.l.j.h.h.f.d.d.h.h.h.h.l.v.",
"c.N.N.C.Z.K.K.K.Z.Z.Z.b.N.c.v ! X.X.X.[ > w./ & X m z.c.C.S.S.B.c.z.l.j.h.f.s.f.d.d.d.h.h.h.h.x.v.V.v.v.l.j.h.h.d.d.d.f.f.j.h.l.",
"c.c.N.N.Z.Z.K.Z.Z.Z.C.B.N.A 8 2 2 5 ~ * 0.w.w.# v c.z.c.B.C.S.S.B.v.z.l.l.f.f.h.d.d.d.h.j.h.h.l.l.v.v.v.v.l.l.h.d.d.d.f.d.h.d.d.",
"c.c.c.N.N.Z.Z.K.H.G.Z.Z.k.o p 9 N #.o : 1 K K *.z.z.c.z.N.B.C.S.S.S.v.z.l.j.h.h.d.d.h.h.f.d.d.h.l.l.v.v.v.v.l.l.j.h.d.d.d.d.d.d.",
"c.c.N.c.N.Z.Z.J.K.K.H.Z.M ..X.X.[ D % 1 s o b j.z.z.c.z.c.c.N.C.D.S.B.v.z.j.l.l.h.h.h.h.d.d.d.h.h.h.l.v.v.v.v.v.l.h.h.d.d.d.d.d.",
"k.c.c.N.c.N.N.Z.K.K.Z.Z.^ X.X.X.X.# 0.w.w.f k.k.z.l.z.z.z.z.v.v.S.S.S.S.v.z.z.l.j.h.h.h.h.h.h.h.h.h.l.l.v.v.v.v.v.l.l.h.f.d.s.d.",
"k.k.x.b.k.N.N.B.G.K.K.%.X.X.X.X.} > w.w.) 2.k.j.l.z.z.z.z.z.c.c.m.B.S.S.S.z.z.z.l.h.h.h.h.h.h.h.h.l.h.h.j.v.v.v.v.l.l.l.j.d.d.d.",
"c.k.c.c.N.N.N.N.Z.Z.K.o.X.X.X.X.G ^ w.w.f k.k.k.j.k.z.z.z.z.z.c.v.v.S.S.S.C.S.v.v.l.l.h.h.h.h.h.h.h.h.h.j.j.x.v.v.v.v.l.x.h.d.s.",
"c.k.x.c.N.c.N.N.N.Z.Z...X.X.X.X.# w.w.| ;.k.k.k.k.j.j.k.z.z.z.n.z.z.m.S.D.S.S.S.v.x.l.h.h.h.l.h.h.h.h.l.j.j.l.l.v.v.v.x.x.j.f.f.",
"k.c.x.k.k.c.N.N.N.V.5.X.X.X.X.X.4 9.K * c.k.k.k.k.k.j.k.k.k.k.z.l.z.N.B.Z.S.D.S.S.z.z.l.l.j.j.h.h.h.h.j.j.h.l.l.l.z.C.v.z.l.h.l.",
"x.k.c.k.c.c.c.N.N.V.o.X.X.X.[ t . 6 6 & c.k.k.k.j.j.z.k.k.k.c.k.n.z.z.N.B.C.F.D.S.S.S.z.z.l.j.j.j.h.h.h.h.h.h.h.l.z.v.V.v.v.l.l.",
"c.k.c.k.k.c.N.N.N.N.[ ~ < 3 N #.. 1  .T N.z.c.k.k.k.k.k.k.k.k.x.l.z.z.z.m.B.C.D.G.S.S.C.z.z.z.j.j.h.j.h.h.j.h.j.j.j.l.z.V.v.v.l.",
"c.c.k.k.c.k.k.c.c.n.; @.m.B ; G + w.w.T N.N.c.N.k.k.z.k.k.k.k.k.l.z.z.z.c.z.C : C h.S.S.S.z.z.z.j.j.h.l.h.h.h.h.j.h.j.l.v.v.v.v.",
"c.k.k.c.c.c.k.c.N.2.,.3 1 [ X.X.> w.w./ i.C.N.c.k.k.k.k.j.k.j.k.z.z.z.z.z.c.. I.I.,.S S.S.B.S.z.l.l.j.j.j.j.h.h.h.l.l.h.h.z.v.v.",
"N.c.k.k.k.x.c.k.x.A w ..X.X.X.X.4 0.w.w.a c.C.N.c.z.k.k.k.j.k.k.z.l.l.h.S q & I.I.I.A.b B.S.S.z.z.z.l.l.j.j.j.h.h.h.h.h.l.l.l.n.",
"N.N.c.k.k.k.k.z.k.e.[ X.X.X.X.X.~ i w.w.q.& t.C.N.k.k.k.k.k.k.l.k.r.z + = w.: I.I.I.I.A.B J.D.S.S.z.z.z.j.j.h.j.h.h.j.l.j.j.l.l.",
"N.c.N.k.z.x.z.x.x.y.Y X.X.X.X.X.X.@ w.w.1 : u z 5.j.c.k.k.k.e.+.y ) q./ o w.E :.I.I.I.I.M.$.J.D.S.v.z.z.z.l.j.h.h.l.j.h.h.h.j.j.",
"B.N.N.k.c.c.x.c.z.c.k X.X.X.X.X.X.Q r q b y w.w.| W u f - * ) 9.w.w.w./ o w.w.- K.I.I.I.I.,.j.D.D.S.C.B.c.l.z.j.l.h.h.h.h.h.j.j.",
"C.C.N.c.k.c.k.k.k.N.m ..X.X.X.X.X.X.+ x = w.w.w.w.w.w.w.1 q w.w.w.w.w./ o w.w.>.d I.I.I.I.P.B S.J.D.Z.C.v.c.c.j.l.h.h.h.j.j.h.h.",
"Z.C.N.N.c.k.k.c.z.z.r.^ X.X.X.X.X.^ 6 X >.w.w.w.w.w.w. .2 P w.w.w.w.w./ & >.w.w.q m.I.I.I.I.1.s.S.F.D.D.C.N.v.c.l.a.l.h.l.l.l.h.",
"Z.Z.C.N.N.c.k.k.z.z.z.j ..X.X.X.[ 6 b L @ 0.w.w.w.w.w.Y 8 ` w.w.w.w.w./ - ( w.w.0.6 I.I.I.I.P.A V.S.J.G.Z.C.b.n.z.l.l.l.a.h.l.l.",
"Z.Z.Z.N.N.b.k.k.z.x.z.r.L X.X.} : 6.q X.} @ P w.w.w.w.1 8 w.w.w.w.w.w.w.6 y w.w.w.0 m.I.I.I.I.B n.N.C.D.F.D.S.B.v.x.l.l.j.j.j.l.",
"K.G.Z.Z.N.N.c.x.z.c.z.k.Z { X.* m.& X.X.X.X.F @ | w.w.3 8 w.w.w.w.w.w.w.h q w.w.w.0.7 I.I.I.I.,.c.c.N.C.D.F.D.V.B.m.l.l.j.j.l.l.",
"K.Z.Z.Z.C.N.N.c.k.x.k.k.z.j 1 p.6 [ X.X.X.X.X.} 5 @ g C 3 w.w.w.w.w.w.w.x 6 w.w.w.` X L.I.I.I.8.e.c.m.v.B.D.D.D.S.B.v.z.l.l.l.a.",
"Z.K.Z.Z.Z.B.N.N.z.z.k.k.k.g.x $.H X.X.X.X.X.X.X.X.X.@ : o 4 ^ ^ w.w.w.w.: O 0 # # D D S I.I.I.n.r.n.z.z.N.V.D.J.D.C.S.m.z.z.l.l.",
"Z.K.K.Z.Z.Z.Z.N.k.N.k.k.k.k.g.; } X.X.X.X.X.X.X.X.X.2 7.H [ I 5 4 4 4 4   2 [ X.X.X.X.2 I.I.I.a.s.k.c.n.n.z.N.Z.J.Z.Z.C.B.c.z.k.",
"Z.Z.K.Z.Z.Z.V.V.N.N.k.k.N.k.k.f.M ^ X.X.X.X.X.X.X.X.2 #.I X.X.X.X.X.X.X.p N ~ X.X.X.X.9 I.I.I.;.k.k.x.l.k.N.N.N.Z.J.D.Z.Z.B.c.z.",
"N.Z.Z.K.F.Z.V.V.N.N.k.k.N.k.k.k.k.#.g ..X.X.X.X.X.[ N x X.X.X.X.X.X.X.X.p 7.^ X.X.X.X.9 I.I.I.=.k.k.k.k.N.N.N.k.N.Z.J.F.S.Z.B.z.",
"N.V.A.F.F.Z.Z.V.V.N.k.N.k.k.k.k.k.k.g.M Y } X.X.X.g p.; X.X.X.X.X.X.X.X.9 m.< X.X.X.X.- I.I.I.4.k.k.k.k.k.k.k.k.N.N.Z.J.F.Z.V.C.",
"N.N.V.Z.K.F.Z.Z.B.N.N.k.k.k.k.k.k.k.k.k.k.<.l _ X.1 I.; X.X.X.X.X.X.X.X.3 I.1 X.X.} ^ 2 P.I.2.k.z.k.z.k.k.N.k.n.c.n.V.Z.J.J.S.Z.",
"N.N.N.Z.F.F.F.F.Z.b.N.N.N.N.N.k.k.k.k.k.k.k.k.N.7.; 6 # ] X.X.X.X.X.X.X.o -.& 5 o.;.y.k.S S <.k.z.z.k.k.k.k.k.N.x.k.N.N.V.F.F.D.",
"N.N.N.N.Z.K.K.F.Z.Z.N.N.k.N.c.k.k.k.k.N.k.k.k.N.N.N.V.V.8.+.n 7 o.o.1 O.9 x A V.Z.K.Z.Z.C.N.N.k.z.z.k.k.k.k.k.N.c.z.c.z.N.Z.D.J.",
"k.N.N.m.Z.F.F.F.Z.Z.Z.N.N.k.N.k.k.k.k.k.k.k.N.k.N.k.N.N.V.Z.Z.F.Z.Z.Z.Z.N.N.N.N.Z.Z.J.K.D.Z.B.N.N.x.k.k.k.k.k.k.k.k.k.c.n.B.D.D.",
"N.N.N.N.N.Z.J.J.F.Z.Z.N.N.k.k.k.N.k.k.k.k.c.k.k.k.k.m.N.V.Z.Z.Z.Z.Z.Z.Z.Z.N.N.N.N.N.Z.J.J.F.Z.V.N.k.k.k.k.k.k.k.c.k.z.N.k.N.N.V.",
"k.N.k.N.N.V.F.F.F.F.Z.Z.V.N.k.N.k.k.k.k.k.k.k.k.N.k.N.N.m.V.Z.Z.Z.Z.K.Z.V.N.N.k.k.N.V.Z.J.J.F.Z.Z.N.N.N.c.c.k.k.k.z.z.z.N.k.N.N.",
"N.N.N.N.N.N.V.F.K.F.F.Z.Z.N.N.N.k.k.k.k.k.k.k.k.k.k.k.N.N.N.V.Z.Z.Z.Z.Z.V.N.N.N.k.N.N.N.Z.G.F.Z.Z.N.N.k.c.k.k.j.k.z.z.z.z.k.k.N.",
"k.N.N.k.N.N.N.Z.J.K.J.F.Z.Z.N.k.c.k.c.c.k.k.k.k.k.k.N.k.N.k.N.V.Z.Z.Z.Z.Z.Z.N.k.N.N.N.N.N.Z.J.J.Z.Z.C.N.k.N.c.k.k.k.z.x.k.k.k.n.",
"N.k.N.N.k.N.N.N.Z.J.K.F.Z.Z.N.N.c.c.k.k.k.k.g.k.k.k.k.k.k.N.N.V.Z.Z.Z.F.Z.Z.V.N.N.N.k.k.N.N.Z.Z.K.K.Z.Z.c.c.c.k.k.x.k.k.z.z.z.z.",
"N.k.N.k.k.N.N.V.V.F.J.F.F.F.Z.N.N.N.c.c.k.k.k.k.k.k.k.k.k.N.N.N.N.V.Z.F.Z.Z.Z.N.k.N.k.N.N.N.N.Z.K.Z.Z.Z.Z.Z.c.c.k.k.k.k.z.k.k.z.",
"k.N.k.N.k.N.N.N.N.V.Z.K.K.G.F.Z.N.N.k.N.k.k.k.k.k.k.k.k.k.N.N.N.N.N.Z.Z.F.Z.Z.V.N.N.k.N.k.N.N.N.Z.Z.K.J.Z.Z.N.N.c.c.k.x.k.k.k.k.",
"k.k.k.k.N.k.k.N.N.N.Z.F.K.K.G.Z.Z.N.N.k.k.N.k.N.N.k.k.k.k.k.k.k.N.N.V.Z.Z.F.Z.V.N.N.N.N.k.k.k.N.N.Z.J.K.Z.Z.B.N.N.c.c.k.k.k.k.k."
};
