/* XPM */
static char *result[] = {
/* columns rows colors chars-per-pixel */
"64 64 168 2 ",
"   c #35261A",
".  c #37281C",
"X  c #3B2A1C",
"o  c #3D2F21",
"O  c #3F3023",
"+  c #462E1D",
"@  c #482D1B",
"#  c #4D321D",
"$  c #55331F",
"%  c #5B351F",
"&  c #60371F",
"*  c #412F20",
"=  c #433224",
"-  c #4B3524",
";  c #4E3926",
":  c #463629",
">  c #493728",
",  c #47382A",
"<  c #4D3B2A",
"1  c #553721",
"2  c #553823",
"3  c #5C3D24",
"4  c #553D2B",
"5  c #543F30",
"6  c #613D25",
"7  c #623F29",
"8  c #703F23",
"9  c #554334",
"0  c #5C4633",
"q  c #574738",
"w  c #644023",
"e  c #61432C",
"r  c #6D452B",
"t  c #7F4525",
"y  c #744D2B",
"u  c #7B4C2B",
"i  c #7F522A",
"p  c #6C4A34",
"a  c #614C39",
"s  c #6D4E38",
"d  c #7E4E32",
"f  c #734F38",
"g  c #62503F",
"h  c #6D523E",
"j  c #755033",
"k  c #75533C",
"l  c #7D553A",
"z  c #5F5040",
"x  c #645341",
"c  c #6F5644",
"v  c #67594A",
"b  c #745641",
"n  c #7C5C45",
"m  c #745F4D",
"M  c #6E604E",
"N  c #7B634D",
"B  c #736352",
"V  c #7C6653",
"C  c #786857",
"Z  c #766A5B",
"A  c #7C6C5B",
"S  c #824626",
"D  c #8E4B27",
"F  c #8A4E2D",
"G  c #924C27",
"H  c #984F27",
"J  c #82542E",
"K  c #8D5B2D",
"L  c #9F5229",
"P  c #915C2D",
"I  c #814E31",
"U  c #805732",
"Y  c #8E5332",
"T  c #8E5F39",
"R  c #905737",
"E  c #9B5631",
"W  c #915D31",
"Q  c #9F5D39",
"!  c #A15329",
"~  c #B1592C",
"^  c #B85B2D",
"/  c #A55D37",
"(  c #A95C35",
")  c #9B6231",
"_  c #A16732",
"`  c #A26833",
"'  c #B16135",
"]  c #B96031",
"[  c #B47336",
"{  c #C5612F",
"}  c #D0642F",
"|  c #C56232",
" . c #CE6936",
".. c #D06631",
"X. c #DC6A32",
"o. c #E97035",
"O. c #F57537",
"+. c #8A5F45",
"@. c #866448",
"#. c #976749",
"$. c #886B56",
"%. c #826E5B",
"&. c #88725F",
"*. c #9C775E",
"=. c #837562",
"-. c #8E7661",
";. c #807867",
":. c #8A7967",
">. c #867C6C",
",. c #8E7C68",
"<. c #917C66",
"1. c #8C7F70",
"2. c #D2833D",
"3. c #91806E",
"4. c #8F8877",
"5. c #948573",
"6. c #9B8B77",
"7. c #958C7B",
"8. c #A48F77",
"9. c #A59078",
"0. c #A8937B",
"q. c #DF8C41",
"w. c #E08C41",
"e. c #EC9344",
"r. c #F89B47",
"t. c #9A8F80",
"y. c #9D9483",
"u. c #A29585",
"i. c #A29887",
"p. c #AD9984",
"a. c #A49B89",
"s. c #A89A88",
"d. c #AAA18F",
"f. c #B9A187",
"g. c #BEA68B",
"h. c #AEA694",
"j. c #AFA997",
"k. c #AFA998",
"l. c #B1A593",
"z. c #B2AA97",
"x. c #B3AD9B",
"c. c #B9AF9D",
"v. c #B6B09E",
"b. c #BAB19F",
"n. c #B7B2A0",
"m. c #BCB3A1",
"M. c #BEB9A6",
"N. c #BFBAA8",
"B. c #C4AC90",
"V. c #CAB296",
"C. c #CDB499",
"Z. c #D3BB9E",
"A. c #C1B6A3",
"S. c #C3B9A6",
"D. c #C8BBA7",
"F. c #C4BDAA",
"G. c #CABEAA",
"H. c #D7BEA0",
"J. c #C6C0AD",
"K. c #CCC1AE",
"L. c #D1C3AF",
"P. c #CEC4B1",
"I. c #CFC8B5",
"U. c #D2C6B2",
"Y. c #D4C9B5",
"T. c #E4CAAB",
"R. c #F0D5B5",
"E. c #FDE1C0",
/* pixels */
"x.n.n.N.J.J.J.N.N.N.n.n.k.k.n.k.n.n.n.n.n.N.J.J.N.N.n.M.v.v.v.v.v.n.n.M.N.J.I.I.J.F.M.M.v.m.M.m.M.S.D.J.P.Y.Y.I.P.F.G.F.F.S.A.F.",
"v.v.n.n.n.N.J.J.N.N.N.n.n.n.k.n.n.n.n.n.n.n.N.J.J.J.M.M.v.v.k.v.v.v.n.n.M.N.J.I.P.J.F.M.m.m.v.v.v.v.b.S.F.P.Y.I.I.P.G.F.F.A.A.M.",
"n.n.v.n.n.N.J.N.J.N.N.N.n.n.k.k.n.k.x.n.n.n.n.n.J.J.N.M.M.v.v.v.k.v.v.v.n.n.N.J.I.P.J.J.M.m.m.m.b.b.M.b.N.F.J.U.Y.Y.P.G.G.F.A.A.",
"k.k.k.n.n.n.N.N.J.J.N.N.n.N.n.k.k.k.k.x.k.n.n.n.M.N.J.N.M.n.v.v.k.v.k.n.n.v.M.M.J.J.I.J.F.M.M.v.v.b.b.b.n.V.S.S.G.I.Y.P.G.F.F.S.",
"x.x.k.n.n.n.n.n.N.J.J.N.N.N.n.k.k.x.x.n.x.x.n.x.v.n.M.J.N.N.M.v.n.k.x.x.v.v.v.n.M.F.J.J.J.J.M.M.M.v.v.b.b.M.M.A.F.G.Y.Y.G.G.G.G.",
"k.k.k.n.n.k.n.n.n.N.J.N.N.N.N.n.n.k.x.k.k.x.x.x.v.v.n.M.J.J.M.M.v.n.x.x.v.j.v.v.v.v.F.J.J.J.J.M.M.b.v.v.v.v.v.M.m.F.G.G.Y.Y.I.G.",
"x.k.k.x.k.k.n.n.n.N.N.J.N.N.N.n.n.n.n.k.k.k.x.n.k.k.v.n.M.J.J.M.M.n.x.x.x.v.j.v.v.v.M.M.J.J.J.J.M.b.b.v.v.v.b.v.n.m.N.S.G.G.I.I.",
"x.n.x.k.k.n.k.n.n.n.n.N.J.N.N.N.n.n.k.k.n.k.k.x.v.v.k.v.v.n.M.N.M.M.v.x.x.j.j.x.x.x.v.v.M.J.J.J.M.M.M.b.v.v.n.v.n.n.m.S.F.G.Y.I.",
"n.k.x.k.k.k.k.x.n.n.v.n.N.J.J.N.M.v.v.v.x.k.x.x.x.x.x.x.x.v.M.J.N.N.M.n.x.j.x.v.j.j.v.v.n.M.N.J.J.G.F.n.n.c.n.n.c.c.c.m.m.A.G.I.",
"n.k.n.k.k.k.n.x.k.x.x.v.n.N.F.F.M.M.b.v.x.x.k.k.k.x.x.x.j.j.v.b.N.N.M.M.v.j.x.j.v.j.v.j.x.n.n.N.J.F.F.F.m.c.c.n.c.n.n.n.m.m.A.F.",
"n.k.x.k.x.x.x.x.x.n.x.n.v.M.M.F.J.M.M.v.x.x.x.j.x.k.x.j.x.x.x.v.M.M.J.M.M.v.x.x.j.v.j.v.v.x.x.M.F.J.J.F.S.M.n.n.c.c.x.c.c.n.m.A.",
"n.n.n.k.x.k.k.x.k.k.x.x.v.v.v.M.J.J.M.b.n.v.x.x.k.j.j.x.j.x.z.x.x.M.M.N.M.M.v.x.j.j.j.j.k.k.x.n.n.N.F.F.F.N.n.n.x.n.x.x.c.c.c.n.",
"N.n.n.n.k.v.k.x.k.x.v.x.x.v.v.v.M.J.J.M.M.M.v.x.k.j.k.k.k.x.k.x.x.v.n.M.J.M.v.v.v.j.j.j.j.k.k.x.x.n.m.F.F.F.N.M.n.x.n.x.x.x.c.n.",
"N.n.n.n.n.k.k.k.x.x.k.v.x.v.v.v.v.M.J.M.M.M.v.x.x.x.k.k.x.k.k.x.j.j.x.n.M.J.M.M.n.v.x.x.x.k.k.x.x.x.n.m.F.F.F.N.M.n.c.c.c.x.x.x.",
"N.N.N.n.v.x.k.k.x.x.v.k.x.v.v.v.v.M.N.F.N.N.M.v.v.x.k.k.x.k.j.x.x.x.x.v.v.M.M.M.M.v.x.j.k.k.k.k.k.x.x.x.n.S.F.F.N.M.n.n.c.x.x.x.",
"J.J.N.n.v.n.v.k.x.x.k.x.k.v.v.v.v.v.v.M.F.N.N.M.v.x.x.k.k.x.k.k.j.j.j.v.x.v.M.J.M.M.n.x.x.k.k.k.k.k.x.x.c.n.N.F.F.F.N.n.x.x.x.x.",
"I.J.F.N.n.n.n.x.x.x.k.k.k.k.n.x.x.n.n.n.m.F.G.N.M.v.v.z.k.k.k.k.j.k.j.x.k.v.n.M.M.M.M.v.v.j.x.j.k.k.k.x.k.v.v.b.J.J.M.b.v.v.v.k.",
"P.I.I.F.N.m.c.c.n.x.x.n.n.c.x.c.c.x.n.c.n.A.F.N.M.M.v.v.x.k.j.j.j.j.j.j.j.x.v.v.M.J.J.M.v.v.x.j.k.k.k.k.x.z.z.v.b.M.J.J.M.v.v.v.",
"P.I.G.F.F.N.m.n.n.x.x.x.k.n.x.c.c.c.c.n.x.m.F.F.S.M.M.v.v.x.k.j.k.k.j.j.j.x.k.x.v.M.M.M.M.v.v.j.j.j.k.k.k.k.k.v.v.b.M.J.N.M.v.v.",
"F.I.P.F.G.F.N.m.c.c.c.x.c.c.n.k.x.x.x.c.n.m.N.F.J.J.b.M.b.v.x.j.j.x.j.j.j.j.j.x.v.v.M.M.M.M.d.7.7.y.k.k.j.j.j.k.v.x.v.M.J.F.M.v.",
"G.G.I.I.G.G.G.N.N.c.x.x.c.c.c.k.x.c.c.c.y.=.A.N.S.J.J.M.m.v.v.x.x.j.j.j.j.j.j.x.x.j.0.Z V %.3.0.V.,.B M y.k.k.z.z.x.x.v.b.F.M.M.",
"F.G.G.Y.I.G.G.F.A.m.c.c.c.k.c.c.c.x.x.k.7 ] C c.m.S.J.S.S.M.v.x.z.v.x.j.j.j.j.j.4.M 0.R.E.E.E.E.E.E.E.E.H.=.i.k.j.z.z.x.v.M.M.M.",
"m.F.G.G.I.I.F.F.F.A.N.n.x.c.c.c.x.n.c.A { X.b c.v.A.S.J.J.M.m.m.v.v.j.v.k.j.j.A 6.E.E.E.E.E.E.E.E.E.E.E.E.E.H.A j.j.j.j.x.v.v.J.",
"A.A.F.G.Y.I.G.I.F.F.A.n.c.t.b B h.c.c.p X.X.E t.c.v.M.J.J.F.F.m.v.v.v.j.x.j.B Z.E.E.E.E.E.E.E.E.E.E.E.E.E.E.E.g.;.j.j.j.j.x.v.v.",
"m.F.m.F.G.Y.Y.G.P.G.F.A.c.c O.X.p y.n.7 X.X.~ 1.n.c.m.m.F.J.F.F.M.v.v.z.z.A H.E.E.E.E.E.E.E.E.E.E.C.9.V.E.E.E.V.;.j.j.j.j.j.x.v.",
"m.m.A.A.G.G.Y.U.G.G.F.F.A.h O.O.O.d t.I X.X.~ B m.m.m.m.S.J.J.J.M.M.v.v.v.= E.E.E.E.E.E.9.g 9 9 # - 6 e 9 , %.M d.j.j.j.j.j.j.j.",
"m.m.m.A.S.G.U.U.U.P.G.G.S.%.o.O.O.o.a ~ X.X.~ >.c.m.m.m.m.S.F.G.J.F.M.m.v.X B.E.T.A 0 # W 2.r.r.` L O.O.O.X.e v.x.j.j.j.j.j.j.j.",
"m.m.A.m.A.S.G.U.Y.I.P.K.G.s.( O.O.O.F H X.X.~ t.c.c.c.m.m.m.A.F.J.J.F.M.v.4.  0 e [ r.r.r.r.r.r.` L O.O.O.O.U y.v.x.j.j.j.j.j.j.",
"c.m.m.A.m.A.A.G.Y.Y.U.P.K.G.f O.O.O.X.$ X.X.I x.c.c.b.b.b.m.A.A.J.J.J.J.M.m.N 2.r.r.r.r.r.r.r.r.` L O.O.O.O.' y.M.v.v.z.j.j.j.j.",
"c.c.m.N.m.A.A.S.P.Y.Y.Y.Y.G.1.| O.O.O.$ X.X.7 x.c.c.n.c.b.b.b.m.M.D.J.J.F.M.Z o X 9 e J _ [ r.r.) ! O.O.O.O.G 0.M.v.v.v.x.j.h.j.",
"n.c.n.m.A.A.A.A.G.G.Y.Y.U.K.K.h O.O.O.& ~ } c c.c.c.c.n.b.b.b.A.V.M.D.K.J.F.0.K l e 0 O q 9 x 9 + > - e y P w 0.M.M.v.v.x.x.j.j.",
"m.c.m.m.m.m.A.A.A.G.G.Y.Y.K.K.u.Y O.O.L D H u.c.c.c.x.c.m.b.b.b.m.m.M.J.J.J.v.K r.r.r.r.) y ; 9 . %.C.E.8.8.o v.M.M.M.M.v.x.j.j.",
"n.c.c.c.m.m.A.A.A.D.G.G.Y.Y.Y.G.&.| O.^ 1 p c.c.c.c.x.b.b.b.b.b.b.b.M.D.J.K.K.K r.r.r.r.r.r.r.r.w L r 9 4 g O x.v.M.J.M.b.v.x.x.",
"c.m.n.c.c.m.m.A.A.D.D.D.Y.Y.Y.G.0.@ ~ O.@ 2 c.c.x.x.c.c.x.c.b.b.b.b.v.V.M.D.K.y r.r.r.r.r.r.r.r.# O.O.O.O.O.4 x.z.v.M.S.M.M.v.v.",
"m.m.m.c.c.m.m.A.A.A.A.D.G.Y.Y.Y.N O.X 8   E 7.m.c.c.b.c.c.c.b.b.b.b.b.b.b.S.J.K r.r.r.r.r.r.r.[ t O.O.O.O.O.s x.z.v.v.b.J.J.b.v.",
"m.c.m.c.m.n.m.m.A.A.A.D.G.G.Y.Y.@.O.8 y u r.j m.c.c.x.b.c.c.c.c.b.b.b.b.b.b.M.T r.r.r.r.r.r.r.$ X.O.O.O.O.o.N z.x.z.z.v.v.b.J.M.",
"m.c.c.m.m.m.c.m.A.c.A.A.A.D.G.T.j O.X.3 r.r.) a.c.c.c.c.c.c.x.c.c.b.b.b.V.b.J.9 _ r.r.r.r.r.r.# O.O.O.O.O.^ 4.z.z.v.z.z.x.b.S.D.",
"A.m.m.c.c.c.m.c.c.A.A.A.A.A.D.G.k O.O.# r.w.X : m.c.c.c.x.c.c.c.v.c.b.b.v.b.z.X = - i r.r.r._ i O.O.O.O.O.u x.z.j.j.z.v.x.x.v.M.",
"A.A.m.c.c.c.c.c.m.c.A.c.A.A.A.A.-.X.O.! 3 > + 3 7.c.c.c.c.x.c.x.c.c.b.b.v.v.3.2._ 9 g 9 e w.$ O.O.O.O.O.O.k x.x.j.v.v.z.v.z.z.v.",
"A.m.m.c.c.c.m.m.c.c.A.A.A.A.A.A.d.( O.~   : q.w.e A.m.b.c.c.c.c.c.c.b.v.v.v.j r.r.r.P 9 &.= X ~ O.O.O.O...,.x.z.x.j.z.z.z.z.z.v.",
"S.A.m.m.c.m.n.m.m.m.m.A.m.A.A.A.D.f ~ 9 = 1 r.r.4 q M.m.v.b.c.c.z.c.c.c.b.d.P r.r.r.r.r.i X f.A < t O.O.U b.v.x.x.x.z.z.z.z.z.x.",
"F.F.A.m.c.m.c.c.c.m.m.m.m.A.A.A.A.%.q x ' 6 [ [ = r n m.A.b.c.x.b.c.c.z.v.@.2.r.r.r.r.r.w ! w q C.<.< r $.b.b.v.x.z.z.z.x.x.x.z.",
"G.S.A.A.m.m.c.m.m.c.m.c.c.c.A.A.A.u.o t O.O.# ; 4 r.2.k c.V.m.m.b.c.c.z.&.[ r.r.r.r.r.P S O.O.X.e x T.q F.S.M.v.v.x.x.z.v.z.z.x.",
"G.G.G.S.m.m.c.n.m.c.m.m.A.c.A.A.V.m.c o.O.O.S o 3 r.r.e.u 3.m.m.b.b.b.B - 2.r.r.r.r.` % O.O.O.O.O.{ 4 v G.D.S.A.v.v.v.v.z.z.v.v.",
"U.G.S.G.A.A.c.n.m.c.c.m.m.m.b.A.A.A.l.Y O.O.< 9 - ' r.r.r.5 : +.3.@.y _ 9 ; r.r.r.J $ O.O.O.O.O.O.O.R G.L.K.J.A.m.m.v.v.v.z.v.v.",
"U.K.G.G.A.A.m.m.m.m.c.c.c.b.m.m.b.A.A.@.X.7 <.4 X.$ P r.r.a < e.2.2.r.r.i v w r.w t O.O.O.O.O.O.O...s.D.K.L.K.D.S.C.b.v.z.v.v.g.",
"U.U.G.G.F.A.A.m.c.c.c.c.c.c.m.m.b.A.A.c.p q x { O.O.G * / : 5 r.r.r.r.r.r.9 = X ~ O.O.O.O.O.O.O.o.+.S.A.S.K.K.K.J.F.M.v.v.c.v.v.",
"G.U.K.G.S.S.A.A.m.b.c.c.b.c.m.n.V.c.c.A.v x 4 O.O.O.O.O.S   . ( ` ` ` y $ # o g ' O.O.O.O.O.O.O.d c.m.V.A.D.K.L.K.J.S.M.V.v.c.v.",
"G.U.U.G.G.G.G.A.A.c.c.c.c.c.c.c.c.A.A.A.A.: S O.O.O.O.O.O.7 z S S S ! ^ O.O.E c 5 | O.O.O.O.O.E t.c.m.b.V.m.A.G.U.G.G.F.F.m.c.c.",
"G.G.Y.G.G.G.D.D.A.A.A.c.A.c.c.c.c.m.A.c.A.A.m  .O.O.O.O.O.7 t.! O.O.O.O.O.O.O.7 9.5 X.O.O.O./ :.c.c.c.c.A.c.m.A.G.U.G.G.G.S.m.m.",
"A.D.G.Y.L.G.D.D.A.A.m.c.c.A.c.c.c.A.c.m.A.A.A.$. .O.O.O.O.7 t.d O.O.O.O.O.O.O.O.> C.- O.O.Y 1.c.c.c.c.V.A.A.A.c.S.G.U.L.J.D.A.m.",
"A.D.G.U.L.G.D.D.A.A.m.c.A.c.c.c.c.c.c.c.c.A.A.A.s.Q O.O.O.7 f.7 O.O.O.O.O.O.O.O.^ q p.- f u.c.c.c.c.c.n.c.c.c.V.A.A.G.U.U.G.D.F.",
"A.A.D.G.Y.L.G.G.A.A.A.c.c.c.c.c.c.c.c.c.c.A.A.A.A.G.*.X.O.S 8.$ O.O.O.O.O.O.O.O.O.8 %.q c.c.c.c.c.c.b.c.c.c.c.c.c.A.D.G.U.P.G.G.",
"A.A.A.G.L.L.L.L.G.G.A.m.m.m.m.A.c.c.m.c.c.c.A.A.A.A.G.G.#.G t.p O.O.O.O.O.O.O.o.( b 5.S.A.m.c.A.n.c.c.c.c.A.c.A.c.c.A.A.D.U.U.K.",
"A.A.A.D.G.Y.Y.L.G.G.A.A.m.A.m.c.c.c.c.m.c.c.A.c.A.A.A.D.A.G.&.  E | { { ^ +.b m l.U.U.G.G.m.m.c.m.m.c.c.c.c.c.A.A.c.m.m.A.G.K.U.",
"c.A.A.C.G.L.L.L.G.G.G.A.m.c.m.m.c.c.c.c.A.c.c.c.A.A.A.A.D.D.G.L.l.s.u.t.t.A.A.A.S.K.U.U.G.G.G.A.m.b.c.c.c.c.c.c.c.V.x.m.V.S.G.P.",
"A.A.A.A.D.G.U.Y.L.G.G.A.A.c.c.c.m.m.c.c.c.c.c.c.c.c.A.A.D.G.G.G.G.G.G.G.G.A.A.A.c.A.G.U.U.G.G.G.A.c.c.c.m.c.c.c.m.c.b.b.b.A.A.D.",
"c.c.A.A.A.D.L.L.U.G.G.G.G.c.c.A.c.c.c.c.c.c.c.c.C.c.A.A.A.D.G.G.G.G.Y.G.G.A.A.A.A.A.S.G.U.Y.G.G.S.A.A.A.c.c.m.x.c.c.b.m.A.c.A.A.",
"A.A.A.A.c.A.G.L.Y.L.L.G.G.A.A.A.c.c.c.c.c.c.c.c.c.c.A.A.A.A.D.D.G.G.G.G.G.A.A.c.c.A.A.A.G.U.U.L.G.S.A.c.m.m.c.c.n.c.c.m.b.c.c.A.",
"c.A.A.c.A.A.A.D.Y.Y.U.L.G.G.G.c.m.c.m.m.m.c.c.c.c.c.c.A.c.C.A.D.G.G.G.G.G.A.A.A.m.A.A.A.A.G.U.U.U.G.F.A.c.m.m.c.c.c.n.c.b.c.V.c.",
"A.c.A.m.A.c.A.A.G.U.U.U.G.G.G.A.m.m.m.c.c.c.c.c.c.c.c.c.c.A.A.A.G.G.G.G.G.G.A.A.A.A.c.A.A.A.G.G.Y.U.G.S.A.m.m.c.c.c.c.c.c.n.m.b.",
"A.A.A.c.c.A.A.D.A.L.U.U.L.G.G.A.A.A.m.m.c.c.c.c.c.c.c.c.A.A.A.A.D.G.G.L.G.G.G.G.A.c.A.c.c.A.A.G.G.Y.U.G.G.G.m.m.n.c.c.c.m.c.c.c.",
"c.A.c.A.c.A.A.A.A.G.L.U.U.U.G.G.A.A.m.c.c.c.c.c.c.c.c.c.c.A.A.A.A.A.G.G.G.L.G.A.S.A.A.A.c.A.A.A.G.G.U.U.G.G.A.m.m.m.c.c.c.c.c.c.",
"c.c.c.c.A.c.c.A.A.A.G.U.U.U.L.K.G.A.A.c.A.c.c.A.c.c.c.c.c.c.c.c.A.A.A.G.L.L.G.G.S.A.c.c.A.c.A.c.A.G.U.Y.G.G.S.S.A.n.m.m.c.c.c.c."
};
