/* XPM */
static char *result[] = {
/* columns rows colors chars-per-pixel */
"64 64 167 2 ",
"   c #36271A",
".  c #37281B",
"X  c #3C2B1D",
"o  c #3D2E21",
"O  c #462E1C",
"+  c #492E1C",
"@  c #46311F",
"#  c #4E321D",
"$  c #53341E",
"%  c #5E361E",
"&  c #60371F",
"*  c #443425",
"=  c #4B3524",
"-  c #4E3A27",
";  c #453528",
":  c #4C3B2B",
">  c #573620",
",  c #553922",
"<  c #553D2A",
"1  c #583C2A",
"2  c #4B3E31",
"3  c #503F30",
"4  c #633B21",
"5  c #683C21",
"6  c #603F2A",
"7  c #703F22",
"8  c #57412E",
"9  c #5E412A",
"0  c #544333",
"q  c #5F4937",
"w  c #5B4B3B",
"e  c #684425",
"r  c #62422C",
"t  c #6D452C",
"y  c #724927",
"u  c #754A2E",
"i  c #7D4B2D",
"p  c #7F522A",
"a  c #604733",
"s  c #624B36",
"d  c #6C4A33",
"f  c #614F3E",
"g  c #6E4F39",
"h  c #724C32",
"j  c #7F4F35",
"k  c #61503F",
"l  c #6C513D",
"z  c #755032",
"x  c #7E5236",
"c  c #72513C",
"v  c #7A563E",
"b  c #655545",
"n  c #6D5441",
"m  c #6D5B49",
"M  c #725643",
"N  c #725944",
"B  c #795943",
"V  c #735E4C",
"C  c #795F4B",
"Z  c #7B614C",
"A  c #6A6051",
"S  c #756654",
"D  c #786250",
"F  c #7E6954",
"G  c #766A59",
"H  c #7C6C5B",
"J  c #8F4C27",
"K  c #82542D",
"L  c #8F502E",
"P  c #8E5C2E",
"I  c #9E532B",
"U  c #925C2E",
"Y  c #824F32",
"T  c #8D5231",
"R  c #905433",
"E  c #9B5631",
"W  c #A0532A",
"Q  c #B25A2C",
"!  c #BA5C2D",
"~  c #A65E37",
"^  c #A85C34",
"/  c #B55E31",
"(  c #996130",
")  c #A16633",
"_  c #A16937",
"`  c #AD6D35",
"'  c #B06035",
"]  c #B47336",
"[  c #BB7638",
"{  c #C4612F",
"}  c #D0642F",
"|  c #C56231",
" . c #D06631",
".. c #DC6A32",
"X. c #C67D3B",
"o. c #E97035",
"O. c #F57537",
"+. c #835F44",
"@. c #83644A",
"#. c #8A6B53",
"$. c #816D5A",
"%. c #85725E",
"&. c #867562",
"*. c #897662",
"=. c #8C7A66",
"-. c #877D6C",
";. c #8C7C69",
":. c #917761",
">. c #937D67",
",. c #917F6A",
"<. c #D2833D",
"1. c #9A856F",
"2. c #898172",
"3. c #928574",
"4. c #9C8972",
"5. c #968D7C",
"6. c #9E8E7B",
"7. c #9C917F",
"8. c #A48F77",
"9. c #A69077",
"0. c #A69079",
"q. c #AB987F",
"w. c #E08C41",
"e. c #EC9344",
"r. c #F89B47",
"t. c #979080",
"y. c #9D9584",
"u. c #9E9886",
"i. c #A19684",
"p. c #A59887",
"a. c #A59C8B",
"s. c #A99E8E",
"d. c #A8A28F",
"f. c #B8A186",
"g. c #BEA78C",
"h. c #A7A190",
"j. c #ACA594",
"k. c #AFA897",
"l. c #AFA999",
"z. c #B1A694",
"x. c #B1A997",
"c. c #B3AD9B",
"v. c #B9AF9D",
"b. c #B6B09E",
"n. c #BBB19F",
"m. c #B7B2A0",
"M. c #BCB3A1",
"N. c #BEB9A6",
"B. c #BFBAA8",
"V. c #CAB296",
"C. c #CDB499",
"Z. c #C1B6A3",
"A. c #C3B9A6",
"S. c #C8BBA7",
"D. c #C4BCA9",
"F. c #CABEAB",
"G. c #C6C0AD",
"H. c #CCC1AE",
"J. c #D1C3AF",
"K. c #CEC4B1",
"L. c #CFC8B5",
"P. c #D2C6B2",
"I. c #D4C9B4",
"U. c #D8CAB5",
"Y. c #E4CAAB",
"T. c #F0D5B5",
"R. c #FDE1C0",
/* pixels */
"c.m.m.B.G.G.G.B.B.m.m.m.l.l.m.l.m.m.m.m.m.B.G.G.G.N.m.m.b.c.b.m.m.m.b.B.B.G.L.L.G.B.B.M.M.m.M.Z.N.Z.A.F.K.I.L.L.F.F.F.D.A.A.Z.A.",
"b.b.m.m.B.B.G.G.G.B.B.B.m.m.l.m.m.m.m.c.m.m.B.G.G.G.N.N.m.b.c.c.c.m.m.m.N.B.G.L.K.G.D.B.M.M.m.M.m.M.N.A.D.K.I.I.L.K.D.D.D.A.Z.A.",
"c.m.b.m.m.B.B.B.G.B.B.m.m.m.l.m.m.l.m.l.m.m.m.m.G.G.G.N.N.m.b.b.c.c.c.m.b.b.B.K.L.K.G.G.B.N.m.m.m.M.m.M.A.A.F.P.L.L.L.F.F.D.A.B.",
"c.c.l.m.m.m.B.B.G.G.B.B.m.m.m.l.l.l.l.m.c.m.m.m.m.B.G.B.N.m.m.b.c.m.c.m.b.b.b.N.G.H.H.G.D.B.M.m.m.n.n.M.M.M.Z.D.F.I.I.L.F.F.A.Z.",
"l.c.l.m.m.m.m.m.B.G.G.B.B.B.m.m.l.l.m.m.l.m.m.c.b.m.B.G.D.B.N.b.c.c.l.b.b.b.b.b.N.G.G.H.G.D.N.n.M.n.m.v.m.M.M.N.F.F.F.I.F.F.F.F.",
"c.l.l.m.m.l.m.m.m.B.G.B.B.B.m.m.m.l.l.l.l.c.l.b.b.b.b.B.G.D.B.b.m.b.c.c.b.b.c.b.b.n.D.G.H.G.G.N.N.m.v.m.m.m.m.M.B.D.F.F.I.L.L.F.",
"c.l.c.m.l.l.m.m.m.m.G.G.B.B.B.m.c.m.c.l.c.c.c.c.b.b.c.b.N.G.D.N.N.m.b.l.c.c.c.c.b.b.M.N.G.K.G.G.N.M.v.v.v.v.m.M.M.M.B.D.F.I.L.L.",
"c.c.l.l.l.m.l.m.m.m.m.B.G.B.B.B.m.m.m.c.c.l.l.c.c.c.c.c.b.b.G.D.B.N.b.c.c.c.l.c.l.b.b.b.N.G.K.G.A.A.M.M.m.m.m.v.m.m.M.A.D.F.F.L.",
"m.l.l.l.l.c.l.c.m.m.b.m.N.G.G.B.N.m.m.c.l.l.c.c.c.c.j.-.Z s v @.v k F u.c.c.c.l.c.l.c.b.b.n.G.G.G.D.B.N.m.m.m.v.v.m.m.M.Z.A.F.F.",
"m.l.m.l.c.l.l.c.l.c.c.m.m.B.D.D.D.B.m.m.b.c.c.c.2.a w <  .O.O.O.O.O...) x Z y.l.l.c.l.c.c.b.n.B.K.D.D.B.M.m.b.v.c.v.v.m.v.M.A.F.",
"m.l.l.l.c.c.c.c.c.c.c.m.b.b.N.G.D.B.N.m.b.c.&.h / O.: f.i O.O.O.O.O.O.O.O.{ * -.c.l.c.l.c.b.b.M.B.G.K.D.N.M.M.m.v.c.c.c.v.v.M.B.",
"m.m.m.l.m.l.l.c.c.l.c.m.b.b.b.N.D.D.A.N.h.l ' O.O.O.t C.: O.O.O.O.O.O.O.O.I >.: #.b.l.l.l.c.c.b.M.N.D.D.D.B.m.m.v.m.m.c.v.v.v.m.",
"B.m.m.m.c.c.c.c.l.l.b.b.b.b.b.b.N.D.D.t.T O.O.O.O.O...0 m | O.O.O.O.O.O.O.p 8.< o.#.x.x.l.l.l.c.c.v.M.D.D.D.B.N.m.m.m.c.c.c.v.m.",
"B.B.m.m.c.c.l.l.b.b.l.l.b.b.b.b.m.N.1.| O.O.O.O.O.O.O.9 0.t O.O.O.O.O.O.O.r Y.r O.O.#.l.c.l.l.l.c.c.m.m.D.D.D.B.B.m.c.c.c.c.c.c.",
"D.B.B.m.b.c.l.l.l.c.l.c.l.b.b.b.v.:. .O.O.O.O.O.O.O.O.| k - O.O.O.O.O.O.O.= >.I O.O.o.#.c.l.l.l.l.c.c.m.M.B.D.D.B.M.M.v.c.c.v.c.",
"G.B.B.m.m.m.c.c.l.b.b.l.c.b.b.b.b ..O.O.O.O.O.O.O.O.O.O.* * $ 4 & 5 J O.O.q f ..O.O.O. .=.c.l.l.l.l.c.l.m.m.B.D.D.D.B.m.m.c.c.c.",
"L.G.D.B.m.m.m.c.c.c.c.c.c.c.v.b &.X ..O.O.O.O.O.o...4 # e : 8 r.r.<.P $ # * 0 O.O.O.O.O.E y.l.l.l.l.l.l.b.x.b.n.G.G.G.n.b.b.b.c.",
"L.G.F.D.B.B.v.v.c.c.c.c.c.c.,.; $.C.= ..O.O.O...e $ <.r.r.8 0 r.r.r.r.r.r.o X ..O.O.O.O.O.l c.l.l.c.l.l.l.l.c.b.n.N.G.N.N.b.b.c.",
"L.L.F.D.D.B.m.m.m.c.c.c.c.p.E O.i f Y.= ..O./ + <.r.r.r.r.( 0 U r.r.r.r.<.: e # | O.O.O.O.u b c.l.l.l.l.x.l.x.c.b.b.N.G.G.N.b.b.",
"D.L.F.L.F.D.A.M.m.v.c.c.l.g O.O.O.Q : C.1 7 1 r.r.r.r.r.r.r.- ; z Z v x P 0 ] w.+ ..O.O...: : c.x.c.l.c.l.l.l.x.b.b.b.N.D.B.N.b.",
"D.F.L.L.F.F.D.D.B.v.v.v.C ..O.O.O.O...= ; o X.r.r.r.r.r.r.U N b.c.x.x.d.8 . r.r.w.# O.O.: 9.  d.b.l.l.l.l.l.l.l.x.x.c.b.N.N.N.N.",
"D.F.F.I.L.F.D.D.Z.M.v.a.L O.O.O.O.O.O.7 O D * ] r.r.r.r.K q.b.b.c.c.l.l.l.F ` r.r.] 4 < %.X ! >.M.b.b.l.l.k.k.l.x.x.x.c.c.N.N.D.",
"B.Z.F.F.L.L.F.F.D.M.Z.n o.O.O.O.O.O.J Y r.Y w 3 ] r.r.) 4.D.n.b.b.b.b.x.l.l.N <.r.r.* < X ..O.B N.n.b.b.l.k.k.k.x.x.k.x.c.b.b.D.",
"Z.Z.A.F.L.L.K.K.F.A.p.^ O.O.O.O.O...# r.r.r.] 2 8 [ <.@.G.G.D.M.b.b.b.l.x.l.l.h e._ b   ..O.O.j G.N.m.b.c.l.c.x.k.x.k.k.x.c.b.b.",
"B.Z.Z.A.F.I.P.I.F.F.M o.O.O.O.O.O.# w.r.r.r.r.<.< * r c.D.G.G.D.n.b.b.b.x.x.k.5.y 0 8 e / e.O.t 7.D.N.N.b.x.x.x.k.k.k.k.k.c.c.b.",
"v.B.Z.Z.F.F.I.F.F.t.  1 | O.O.O.W K r.r.r.r.r.r.r.9 G n.N.G.G.G.G.N.n.b.b.x.k.c.w @ <.<.+ O.e * S N.N.N.N.N.b.x.k.k.k.k.k.k.k.k.",
"B.v.v.Z.A.F.P.I.F.2 ,.Y.w 1 | O.# r.r.r.r.r.r.r.r.P x.n.N.N.G.G.G.G.n.n.b.c.c.k.7.( r.r.# - A = m b.N.N.N.N.b.b.c.k.k.k.k.k.k.k.",
"v.v.B.Z.A.A.F.F.U.n 7 2 $.Y.b O K r.r.r.r.r.r.r.r.z n.n.M.V.n.G.G.G.G.n.b.b.c.c.k.- r.e O O p O.Z x.b.N.N.N.N.N.b.c.k.k.k.k.k.k.",
"v.B.M.Z.Z.Z.A.F.F.+.O.O.I 1 0 ; b 1 X.r.r.r.r.r.r.@.n.n.n.n.Z.A.G.G.G.G.N.b.b.b.x., o - % % O.O.Z x.b.b.b.N.N.N.N.b.b.x.k.k.d.k.",
"v.v.v.B.Z.v.Z.A.,.| O.O.O.O./ + : D w < X.r.r.r.<.*.n.n.n.n.n.n.n.G.G.G.G.N.n.b.b.A 8 <.r.% O.O.Z x.x.x.b.N.N.N.N.m.b.b.c.k.k.k.",
"v.v.B.B.Z.Z.Z.Z.@.O.O.O.O.O.& w.r.] 1 0 ; < <.r.[ 5.b.b.n.n.n.Z.C.N.D.G.G.G.G.V.n.5.[ r.r.% O.O.Z x.x.x.x.b.b.N.N.N.m.b.b.x.k.k.",
"v.v.v.m.v.Z.Z.z.d ..O.O.O.O.= r.r.r.r.w.K =   - y a.v.b.n.n.n.n.n.n.C.G.G.G.G.G.N.f.U w.P % e.w.Z x.x.b.x.b.b.b.N.N.N.N.b.c.c.k.",
"m.m.v.v.v.M.i.&.p.o / O.O...4 r.r.r.r.r.r.r. .1   v.v.v.v.v.v.M.n.n.N.G.G.H.K.G.D.A.h X X $ O.! -.k.c.c.l.c.c.c.b.N.G.n.n.b.b.c.",
"M.M.M.v.v.M.H R.R.R.V = d 7 R r.r.r.r.r.r.r.r.r.M v.v.v.v.M.v.v.n.n.m.C.n.G.H.H.F.D.< + ..O ..d c.c.x.x.x.x.x.c.c.b.n.G.G.n.b.b.",
"v.M.M.v.v.M.$.R.R.R.R.R.C.%.b : 3 l q q k 2 ; 2   v.v.v.v.v.v.v.n.n.n.n.n.N.G.H.P.6.I O O.{ = y.c.k.c.x.l.x.x.c.c.c.v.n.G.N.N.b.",
"M.m.v.M.v.m.v.*.R.R.R.R.R.R.R.R.R.R.R.R.R.R.R.R.0 ; v.v.v.v.l.v.n.n.n.n.n.V.n.S.A.6 ..% O.O.Y z.c.c.c.c.c.x.l.x.x.c.x.n.n.N.N.N.",
"Z.v.v.M.M.M.v.M.&.T.R.R.R.R.R.R.R.R.R.R.R.R.R.R.U.; v.v.v.v.v.v.n.n.n.n.n.C.N.G.n } ..O O.O.| $.v.v.c.c.c.c.l.x.c.x.b.x.b.n.N.N.",
"Z.v.v.v.v.m.M.m.n.S V.R.R.R.R.R.R.R.R.R.R.R.R.T.$.s.v.v.l.v.v.v.n.v.v.n.n.n.n.7.J ....% O.O.O.B M.v.v.v.c.x.c.x.x.x.x.b.x.b.b.N.",
"Z.Z.M.v.v.v.v.v.m.M.;.$.g.R.R.R.R.R.R.R.R.U.3.$.z.v.v.v.v.v.v.v.v.v.n.v.b.b.n.c ......> O.O.O.u A.n.b.b.b.v.x.c.c.c.b.x.n.x.x.b.",
"Z.Z.M.v.v.M.m.M.M.M.Z.M.3.G D $.;.,.;.&.$.;.v.H.Z.Z.v.v.v.v.v.v.v.v.v.n.b.b.d.K ......+ O.O.O.E i.D.N.b.b.b.x.x.x.c.x.x.x.x.x.n.",
"D.Z.A.v.v.M.v.M.M.M.M.Z.Z.Z.Z.Z.S.p.F.U.U.F.I.F.F.F.v.M.v.v.v.v.v.c.v.v.v.v.*.! ....Q 6 O.O.O.{ p.G.D.Z.n.n.b.b.x.c.x.x.x.x.c.c.",
"D.D.Z.M.m.M.m.v.v.M.M.v.Z.M.Z.Z.Z.S.F.F.U.U.U.F.F.F.F.v.Z.M.v.v.c.v.c.v.v.v.g ......t *. .O.O.{ #.J.G.G.D.n.b.b.x.x.x.c.c.c.c.x.",
"F.A.A.M.M.v.M.M.v.M.M.M.v.v.Z.Z.Z.Z.S.F.I.U.U.I.F.F.F.Z.Z.Z.Z.v.n.b.v.c.v.v.B .... .N x.h O.O.{ -.H.K.G.D.Z.N.n.b.b.c.c.b.x.x.x.",
"F.F.A.A.M.M.v.v.M.M.v.v.M.v.Z.Z.Z.Z.S.S.F.U.U.F.J.J.F.F.Z.Z.Z.v.n.n.v.v.v.v.c ....Y s.n.;.~ O.^ 7.H.K.H.H.D.N.M.V.b.c.c.x.b.x.b.",
"K.F.F.A.Z.M.M.v.v.v.M.M.Z.v.v.Z.Z.Z.Z.Z.F.F.F.U.U.I.J.J.F.Z.Z.Z.C.M.n.v.v.v.M ..Q $.v.n.M.=.x n Z.N.G.H.J.H.H.V.n.n.n.b.b.x.x.n.",
"I.H.F.F.A.Z.M.v.v.M.v.v.v.v.Z.Z.v.Z.C.Z.S.F.F.U.U.P.J.J.F.F.Z.Z.B.A.Z.v.v.v.i.1 C v.v.v.n.n.M.V.n.V.Z.D.H.H.H.G.G.V.n.b.n.n.b.x.",
"P.P.F.F.D.Z.Z.M.M.v.v.v.v.v.Z.v.M.Z.Z.Z.S.F.F.F.P.P.I.P.J.F.F.F.A.Z.Z.Z.Z.v.v.v.v.v.v.v.v.v.v.v.m.C.V.B.G.G.H.H.G.G.N.n.n.b.b.n.",
"F.F.J.F.A.D.Z.Z.v.v.v.v.M.v.v.v.Z.v.Z.Z.C.F.F.F.J.P.P.I.P.J.F.F.D.D.D.D.Z.Z.n.v.n.v.v.v.v.v.v.v.b.n.n.n.N.C.H.J.H.G.N.N.V.b.x.n.",
"F.F.U.F.F.F.S.Z.Z.v.v.v.v.v.M.v.v.Z.v.Z.Z.F.F.Z.F.F.J.P.U.J.F.F.F.F.F.F.F.Z.Z.M.v.M.v.M.v.v.v.v.b.n.n.V.V.Z.A.F.P.K.D.D.A.N.v.v.",
"F.P.U.F.F.F.S.S.Z.Z.Z.v.v.v.v.v.v.Z.Z.v.Z.Z.Z.F.F.F.J.P.J.J.J.F.F.F.B.F.F.F.D.M.v.v.v.v.v.v.v.v.M.n.v.m.v.Z.M.Z.F.P.K.F.F.A.M.v.",
"Z.F.F.U.F.F.S.S.Z.Z.v.v.M.M.v.v.v.v.Z.v.v.Z.Z.Z.S.F.J.J.J.J.J.F.F.B.F.F.F.K.K.D.Z.Z.M.v.v.v.v.v.v.v.v.b.Z.v.v.V.Z.F.K.K.F.F.Z.M.",
"Z.F.F.F.U.F.S.S.S.Z.Z.v.M.v.v.v.v.v.v.Z.v.Z.Z.F.S.Z.F.F.F.J.J.J.F.A.A.A.F.H.P.P.F.Z.Z.Z.M.M.v.Z.v.v.v.v.v.n.v.Z.V.N.F.P.K.F.D.D.",
"Z.Z.S.F.F.U.F.F.Z.Z.Z.v.M.v.v.v.v.v.v.v.v.Z.Z.Z.Z.S.F.F.F.J.J.F.F.A.A.Z.Z.F.K.P.K.F.Z.Z.Z.v.v.v.v.v.v.v.v.v.v.v.n.Z.A.H.P.J.H.F.",
"Z.Z.S.F.F.U.U.F.F.Z.Z.Z.M.M.M.M.v.v.v.v.v.v.v.Z.Z.Z.F.F.F.F.J.F.F.F.F.B.Z.Z.F.F.K.P.F.D.Z.Z.v.v.M.M.v.v.v.Z.Z.v.n.m.V.Z.S.P.H.H.",
"Z.Z.Z.C.F.U.U.F.F.F.A.Z.M.M.M.M.v.v.v.Z.v.Z.Z.v.Z.Z.Z.Z.S.F.J.J.J.F.F.Z.Z.Z.Z.F.H.L.K.F.F.Z.Z.M.v.n.v.v.v.v.v.Z.M.n.M.n.Z.F.K.P.",
"v.Z.Z.Z.F.J.F.U.F.F.A.Z.Z.M.M.v.v.v.v.v.v.v.Z.v.Z.Z.C.Z.S.S.J.J.H.F.F.Z.Z.Z.Z.Z.A.F.P.L.F.F.A.Z.Z.n.v.v.v.v.v.v.v.v.v.m.C.A.F.H.",
"v.Z.Z.Z.Z.F.P.P.P.F.F.Z.Z.v.v.v.M.v.v.v.v.M.M.v.v.v.Z.Z.S.S.F.J.H.H.F.F.Z.Z.Z.Z.M.Z.F.P.P.J.F.A.A.v.Z.v.v.v.v.v.Z.v.n.n.Z.Z.Z.S.",
"Z.Z.Z.Z.Z.S.J.J.P.J.F.F.S.Z.v.Z.v.v.v.v.v.v.v.v.C.v.Z.Z.Z.S.S.F.F.J.F.F.Z.Z.Z.Z.M.Z.A.F.P.P.H.F.F.Z.v.Z.M.v.v.v.v.n.n.m.n.v.Z.Z.",
"Z.Z.v.Z.Z.Z.F.J.P.J.P.F.F.Z.Z.v.v.v.M.v.v.v.v.v.v.v.Z.Z.Z.Z.S.F.F.J.J.F.F.Z.Z.M.Z.M.Z.Z.F.P.P.F.F.A.Z.v.v.Z.v.c.v.n.n.n.Z.v.v.Z.",
"v.Z.Z.Z.v.Z.Z.F.P.U.J.J.F.F.Z.Z.M.v.M.M.v.v.v.v.v.v.v.Z.v.Z.Z.S.F.F.F.F.F.F.Z.M.v.Z.Z.Z.Z.F.P.P.F.F.A.Z.M.v.M.v.v.v.n.v.v.v.v.Z.",
"v.v.Z.Z.v.Z.Z.Z.F.P.P.P.F.F.F.Z.Z.v.v.v.v.v.v.v.v.v.v.v.v.Z.Z.S.F.F.F.J.F.F.Z.Z.Z.v.v.Z.Z.Z.F.F.U.P.F.D.Z.M.v.v.v.v.v.v.v.v.Z.v.",
"Z.Z.M.M.v.Z.Z.S.S.J.P.P.J.F.F.Z.Z.Z.M.v.v.v.v.v.v.v.v.v.Z.Z.v.Z.Z.F.F.J.F.F.F.A.Z.Z.Z.v.v.Z.A.F.F.I.F.F.D.A.Z.M.n.n.v.n.v.v.v.v.",
"M.M.v.M.Z.Z.Z.Z.Z.S.J.P.P.P.F.F.A.Z.Z.v.v.v.v.v.v.v.v.v.v.Z.Z.Z.Z.Z.F.F.F.J.F.A.Z.Z.Z.v.Z.v.Z.A.F.F.I.P.F.F.A.M.n.n.n.n.v.v.v.v.",
"v.v.v.M.v.v.v.Z.Z.Z.A.P.I.P.J.J.A.Z.Z.Z.v.v.v.Z.v.v.v.v.v.v.v.v.Z.Z.A.F.F.J.F.F.Z.Z.M.Z.v.Z.v.M.Z.F.P.U.L.F.D.Z.Z.m.n.v.v.v.v.v."
};
