/* XPM */
static char *result[] = {
/* columns rows colors chars-per-pixel */
"64 64 169 2 ",
"   c #36271A",
".  c #37281B",
"X  c #3C2B1C",
"o  c #3D2E21",
"O  c #472D1B",
"+  c #4D321D",
"@  c #56341F",
"#  c #5C351E",
"$  c #443325",
"%  c #4A3524",
"&  c #4E3926",
"*  c #483728",
"=  c #4D3A29",
"-  c #563720",
";  c #573821",
":  c #563D2B",
">  c #5B3C28",
",  c #4E3E30",
"<  c #623A21",
"1  c #763F23",
"2  c #5E4127",
"3  c #5F412C",
"4  c #554435",
"5  c #5C4433",
"6  c #5E4836",
"7  c #564738",
"8  c #56493A",
"9  c #5B4B3B",
"0  c #624023",
"q  c #6F4127",
"w  c #62442B",
"e  c #6F462D",
"r  c #7E4524",
"t  c #714827",
"y  c #75462A",
"u  c #794729",
"i  c #714B2C",
"p  c #7B4A2B",
"a  c #7C512B",
"s  c #6D4B34",
"d  c #624C39",
"f  c #6D4E38",
"g  c #724D35",
"h  c #704F39",
"j  c #62503F",
"k  c #7D5334",
"l  c #72523B",
"z  c #7B533A",
"x  c #7C583D",
"c  c #655443",
"v  c #6B5340",
"b  c #675847",
"n  c #6C5B4A",
"m  c #755540",
"M  c #725945",
"N  c #7C5B42",
"B  c #735E4A",
"V  c #71604E",
"C  c #7B614D",
"Z  c #746452",
"A  c #7E6B56",
"S  c #766B5B",
"D  c #7B6C5B",
"F  c #7D715F",
"G  c #7F7260",
"H  c #804525",
"J  c #8F4C27",
"K  c #8D4E2C",
"L  c #82542E",
"P  c #8F502D",
"I  c #9F5229",
"U  c #905B2C",
"Y  c #814E32",
"T  c #835332",
"R  c #8D5231",
"E  c #925D31",
"W  c #A15229",
"Q  c #A8562B",
"!  c #A9592F",
"~  c #B25A2C",
"^  c #B85C2D",
"/  c #AA5C35",
"(  c #A15E38",
")  c #B55E31",
"_  c #A16633",
"`  c #A16937",
"'  c #AD6E35",
"]  c #B06035",
"[  c #B47336",
"{  c #B4753B",
"}  c #BB7638",
"|  c #BF7939",
" . c #C5612F",
".. c #D0642F",
"X. c #C56231",
"o. c #CC6936",
"O. c #D16631",
"+. c #DC6A32",
"@. c #C67C3B",
"#. c #C97F3C",
"$. c #E97035",
"%. c #F57537",
"&. c #825E44",
"*. c #895E44",
"=. c #876148",
"-. c #846A54",
";. c #826E59",
":. c #87715F",
">. c #8E765D",
",. c #837663",
"<. c #8E7863",
"1. c #827769",
"2. c #857A69",
"3. c #8F7C68",
"4. c #927C66",
"5. c #937F69",
"6. c #D3853E",
"7. c #8A816F",
"8. c #95816B",
"9. c #8A8070",
"0. c #938675",
"q. c #9E8A74",
"w. c #938B7B",
"e. c #998E7E",
"r. c #9C917F",
"t. c #A28D76",
"y. c #A59078",
"u. c #E08C41",
"i. c #EC9344",
"p. c #F89B47",
"a. c #9C9482",
"s. c #A39786",
"d. c #A49887",
"f. c #A39B8A",
"g. c #ABA18E",
"h. c #B8A186",
"j. c #BDA58B",
"k. c #ACA593",
"l. c #AFA897",
"z. c #AFA999",
"x. c #B0A594",
"c. c #B2A997",
"v. c #B4AD9C",
"b. c #B9AF9D",
"n. c #B6B09E",
"m. c #BAB19F",
"M. c #B7B2A0",
"N. c #BCB3A1",
"B. c #BEB9A6",
"V. c #BFBAA8",
"C. c #CCB398",
"Z. c #D3BB9F",
"A. c #C1B6A3",
"S. c #C3B9A6",
"D. c #C8BBA7",
"F. c #C4BCAA",
"G. c #CABEAA",
"H. c #D7BEA0",
"J. c #D9BFA1",
"K. c #C6C0AD",
"L. c #CCC1AE",
"P. c #D1C3AF",
"I. c #CEC4B1",
"U. c #CFC8B5",
"Y. c #D2C6B2",
"T. c #D4C9B5",
"R. c #E4CAAB",
"E. c #F0D5B5",
"W. c #FDE1C0",
/* pixels */
"v.M.M.V.K.K.K.V.V.M.M.M.M.z.M.z.M.M.M.M.M.V.K.K.V.B.B.M.n.n.n.n.n.M.M.B.V.K.U.U.K.V.V.N.N.N.N.N.B.B.D.G.U.U.U.U.G.G.F.F.S.A.A.F.",
"n.n.M.M.V.V.K.K.K.V.V.M.M.M.M.z.z.M.M.M.M.M.B.K.K.K.V.M.M.n.n.l.n.n.M.M.B.B.K.U.I.K.F.B.N.N.M.N.M.N.N.B.G.G.T.T.U.I.G.F.F.F.A.A.",
"M.M.n.n.M.V.V.V.K.V.V.M.M.M.z.M.z.M.z.M.M.M.M.M.K.K.V.V.B.n.n.n.n.z.n.n.n.B.B.K.U.I.K.K.V.N.N.M.M.N.N.N.S.S.G.I.T.U.U.G.G.F.S.A.",
"z.z.z.M.M.M.V.V.K.K.V.V.M.M.M.z.z.z.M.M.M.M.M.M.B.V.K.V.B.M.n.n.l.n.n.n.n.M.M.B.F.I.I.K.F.B.B.M.N.M.M.N.N.N.A.G.G.U.T.U.G.G.F.A.",
"v.v.z.M.M.M.M.M.V.K.K.V.V.V.M.z.M.z.z.z.v.M.v.M.n.M.B.K.V.B.B.n.n.l.v.v.n.n.n.n.B.S.K.I.K.F.B.N.N.N.M.b.M.N.A.A.F.G.U.T.G.G.G.G.",
"z.z.z.M.M.z.M.M.B.V.K.V.V.V.V.M.M.z.M.z.z.v.v.v.v.n.M.B.K.K.B.B.M.n.v.l.v.n.v.v.n.M.F.K.I.K.F.B.M.N.b.M.M.M.M.M.N.F.G.G.T.U.U.G.",
"v.M.z.v.z.z.M.M.M.B.V.K.V.V.V.M.M.z.M.z.z.z.v.v.n.n.v.n.B.V.V.B.B.M.n.k.2.l.v.v.n.n.N.B.K.I.K.K.B.N.M.N.b.M.N.M.N.N.A.F.G.U.U.U.",
"M.z.z.z.z.M.z.M.M.M.M.V.K.V.V.V.B.M.z.z.z.v.z.v.v.v.v.n.n.B.K.V.B.B.2.h.H.Z r.v.n.z.n.m.B.K.K.K.S.S.N.M.M.b.b.b.M.M.N.A.S.G.U.U.",
"M.z.v.z.z.z.v.v.z.n.n.M.V.K.K.V.B.B.n.v.v.l.z.v.v.z.v.v.v.n.B.V.r.r.W.W.W.E.D z.z.z.v.n.M.B.F.K.K.F.V.B.M.M.b.M.b.b.M.M.A.A.G.G.",
"z.M.v.z.z.M.z.z.z.v.n.n.n.V.V.K.V.B.n.n.v.v.z.n.z.v.v.z.c.z.n.S Z.W.W.W.W.n % >.z.n.z.z.v.M.N.S.K.G.F.V.N.M.b.v.b.M.b.M.M.A.S.G.",
"M.z.z.z.z.z.v.v.v.M.z.n.n.m.B.K.V.V.B.n.n.n.l.z.z.z.c.v.c.c.S Z.W.W.W.W.-.2 %. .g 0.n.v.v.v.M.N.V.K.K.F.S.N.M.M.b.b.v.b.b.M.N.N.",
"M.M.M.v.z.M.v.z.v.z.z.n.n.n.n.B.K.K.B.B.n.n.z.z.n.z.z.z.v.a.8.W.W.W.W.7.a %.%.%.%._ * a.z.v.c.v.N.V.F.G.F.B.B.M.v.M.v.v.b.b.M.N.",
"V.M.M.M.z.M.z.v.z.n.n.n.n.n.n.n.B.K.V.m.B.n.n.v.z.z.v.z.n.V W.W.W.W.R.& u.%.%.%.%.~ 7 $ S z.z.v.n.M.N.F.F.F.V.B.M.b.v.v.v.v.b.b.",
"V.V.M.M.v.z.z.z.n.z.z.z.n.n.n.n.n.K.K.K.V.B.n.n.z.z.z.z.w.y.W.W.W.W.8  .%.%.%.%.%.= R.4 y ,.z.c.z.n.M.M.F.F.V.V.V.M.M.b.v.v.v.v.",
"F.V.V.M.n.n.z.z.z.v.z.n.v.n.n.n.n.m.B.K.K.B.B.n.n.z.z.z.n W.W.W.W.W.O + H %.%.%.w h.4 ) %.) n l.z.v.v.v.M.F.F.F.V.N.M.b.v.v.v.v.",
"K.V.V.M.M.M.n.z.v.v.c.c.v.v.n.n.n.n.m.n.K.V.V.B.n.M.v.z.C W.W.W.W.8.U p._ @ ~ J D A p %.%.%.o.n z.z.v.v.n.M.V.F.F.F.V.M.M.v.v.v.",
"U.F.F.V.V.M.M.v.v.v.v.v.v.v.v.b.M.b.M.M.N.F.F.V.B.n.n.w.j.W.W.W.W.4 p.p.p.p.; X :.k %.%.%.%.%.o.n z.z.c.v.v.n.m.K.K.B.m.n.n.n.v.",
"U.U.F.F.V.N.M.M.b.z.z.v.v.v.v.v.v.v.M.b.M.S.F.F.B.B.n.G P.W.W.W.W.2 p.p.p.p.$ b . %.%.%.%.%.%.%.! <.z.z.z.c.z.n.m.S.K.K.B.n.n.v.",
"G.U.G.G.F.A.M.M.M.v.v.v.v.M.v.b.b.M.b.M.b.N.V.F.F.B.B.F W.W.W.W.t.a p.p.p.w >.4 [ X +.%.%.%.%.%.%.R f.z.z.v.l.v.n.n.B.K.K.n.n.n.",
"F.U.U.G.G.F.A.N.M.b.v.v.v.v.M.v.v.v.v.b.b.N.N.F.K.S.B.,.W.W.W.W.c u.p.p.` b $ p.p.6.+ +.%.%.%.%.%.%.% v.l.z.z.z.n.v.n.B.K.K.B.n.",
"G.G.T.G.G.G.F.V.N.M.b.b.v.b.b.z.b.v.v.b.M.N.N.N.F.K.F.,.E.W.W.W.4 p.p.u.& & u.p.p.p.} # %.%.%.%.+.: ;.n z.z.z.c.l.v.v.n.m.V.B.B.",
"F.G.G.T.U.U.G.F.A.N.M.b.v.v.b.b.v.v.b.M.b.M.N.M.N.F.F.9.C.W.W.W.2 p.p.& * 6.p.p.p.p.p.[ @ %.%.~ $ C.q.o z.z.l.l.l.l.v.v.n.B.V.V.",
"V.S.G.U.U.G.G.F.F.A.V.M.b.v.b.v.M.M.b.M.b.M.M.b.m.N.F.v.q.W.W.h.i p.3 o [ p.p.p.p.p.p.p.t I t j R.= e %.=.c.z.z.l.l.l.c.c.n.m.K.",
"V.V.F.G.U.U.U.G.G.F.N.M.b.b.v.v.v.b.b.b.M.b.M.b.b.M.N.F.Z H.W.o | {   { p.p.p.p.p.p.p.p.u.. q.V : +.%.%.] v.v.z.l.l.l.l.c.c.n.n.",
"N.A.A.S.G.T.U.U.G.G.G.F.N.N.M.b.b.M.b.b.M.b.v.M.N.b.N.N.g.o   8 x . a p.p.p.p.p.p.p.p.` $ b X I %.%.%.%.%.x c.c.l.v.l.l.v.l.n.v.",
"N.N.A.A.G.G.T.G.G.G.S.F.S.N.M.M.v.M.v.b.b.b.b.M.N.b.M.N.S.F.I.F.S.f.x L 6.p.p.p.p.p.w b 8 i + %.%.%.%.%.%.E k.c.l.l.l.l.l.l.l.l.",
"N.N.N.A.S.G.T.G.G.U.G.G.S.A.A.b.b.b.b.v.b.M.N.b.b.N.N.N.N.S.F.G.K.K.B.z.>.a 6.i.6.= j & 6.p.U J %.%.%.%.%.$.C n.v.l.l.l.l.l.l.l.",
"M.N.A.N.A.D.G.T.T.U.U.G.F.S.A.N.M.b.v.b.b.b.b.b.M.b.b.N.N.N.B.D.K.K.S.S.n.n.;.i o * ` p.p.p.p.+ %.%.%.%.%.%.k m.n.l.l.l.l.l.l.l.",
"N.N.N.N.A.A.A.G.T.T.T.G.G.G.F.A.N.b.b.v.v.b.b.b.b.b.b.N.b.N.A.A.K.K.K.K.B.m.m.e.% i.p.p.p.p.p.@ %.%.%.%.%.%.J c.n.n.v.c.l.k.k.l.",
"b.b.N.N.A.N.A.S.T.T.T.T.U.I.F.F.N.b.N.b.v.b.v.b.b.b.M.b.N.b.N.N.C.S.K.L.F.B.B.n.z.a p.p.p.p.p.t ~ %.%.%.%.%. .r.B.B.n.n.n.l.l.l.",
"M.b.N.N.N.A.A.A.G.G.T.T.T.U.G.G.A.N.N.N.b.v.v.v.b.b.b.b.N.N.N.N.B.B.F.L.K.S.B.B.m.a.U p.p.p.p.[ r %.%.%.%.%.+.A B.B.n.n.n.l.l.l.",
"N.N.M.N.A.N.A.A.A.G.G.T.Y.G.G.G.F.A.N.N.b.b.b.b.b.b.b.b.b.b.b.N.m.m.S.L.K.L.K.F.V.m.A 6.p.p.p.p.0 %.%.%.%.i. .B B.B.B.B.M.n.l.l.",
"b.N.b.b.N.N.A.A.A.A.G.G.T.G.T.G.G.F.A.A.N.b.v.b.v.b.v.b.b.b.N.b.m.m.m.S.L.L.L.K.S.S.N.T p.p.p.p.@ W 0 4 6 4 B 4 n.N.K.B.m.n.v.v.",
"b.N.M.b.b.N.A.A.A.D.D.G.T.T.T.G.G.G.F.A.N.b.b.b.b.b.b.b.b.N.b.N.m.m.n.B.S.F.L.L.L.K.S.M w & d 7 o y.8.t.5.j c 4 v.n.m.K.B.B.n.v.",
"N.b.N.b.b.M.N.N.A.A.A.D.G.T.R.T.G.G.G.A.A.N.N.b.b.b.b.b.b.b.b.b.m.m.m.C.B.m.K.K.Y.K.F.7.o d d o X 2 q I W  .%.B v.v.n.m.K.K.m.m.",
"N.N.N.b.b.N.N.N.A.A.D.G.G.G.T.T.s.m Y s v x.A.N.v.b.b.b.b.b.b.b.m.m.m.m.m.B.C.D.K.Y.K.d._ p.p.a W %.%.%.%.%.$.C c.v.c.n.n.V.V.B.",
"N.b.b.N.N.N.b.N.A.A.A.A.A.D.G.T.5.~ +.+...Y &.v.b.b.b.b.b.c.b.b.m.m.m.m.m.C.B.S.D.K.P.r.} p.p.- %.%.%.%.%.%. .7.c.v.n.c.v.m.B.B.",
"A.N.N.b.b.b.M.N.b.A.b.A.A.A.D.G.T.z ..+.+.+.X.s s.b.b.b.b.c.b.b.m.b.b.m.m.m.m.m.A.S.L.x i.p.u.- %.%.%.%.%.%.k g.c.c.c.n.c.n.m.B.",
"A.A.N.b.b.b.b.b.b.A.A.A.A.A.A.D.T.G.1 o.+.+.+...s s.b.v.b.b.b.b.b.b.m.b.n.n.m.C.A.A.5._ p.p.0 X.%.%.%.%.%.%.f z.c.v.n.c.n.c.c.m.",
"A.N.N.b.b.b.N.N.N.b.b.A.A.A.A.A.G.G.G.v  .O.+.+.+.s s.N.c.b.b.b.v.b.b.m.n.n.n.B.A.8 % p.p.#.< %.%.%.%.%.%. .>.v.l.v.c.c.c.c.c.n.",
"A.A.S.M.M.N.N.M.N.N.N.A.A.A.A.A.G.G.G.d.B 1 X.+.+...e z.N.b.b.b.b.b.b.b.M.m.m.q.i $ 4 4 2 + +.%.%.%.%.%.%.k n.n.c.n.c.c.c.c.c.v.",
"F.F.A.N.b.N.b.b.b.A.b.N.N.N.A.A.d.&.Y ^ X.Q < @ @ W ..5 e.e.a.x.b.v.n.g.1.N T ' p.p.` = . = : I %.%.%.%.o.A n.n.v.c.c.c.v.v.v.c.",
"G.F.A.A.N.b.b.N.N.b.b.N.N.A.A.s.u %.%.%.%.%.%.%.+.H O # > @.{ =   O t % o p.p.p.p.p.[ + K = 4.;.$ p +.$.l S.m.m.n.n.c.n.c.n.c.n.",
"G.G.F.A.A.b.b.N.N.b.N.b.N.b.b.:.O.%.%.%.%.%.%.%.%.%.%.H   o.p.(   6.p.6.= w p.p.6.@ < %.%.%.K = y.h.7 % m.K.B.B.n.n.n.c.n.c.n.c.",
"Y.G.G.S.A.N.M.b.b.b.b.N.N.b.b.A.&.Y  .%.%.%.%.%.%.O.1 o > p.p.%.$ k p.p.w 4 ; ; # +.%.%.%.%.%.%.p & n m.P.I.K.C.m.m.n.m.c.n.c.n.",
"Y.I.G.G.S.A.N.N.N.N.N.b.b.b.A.A.A.A.5.m m *.*.*.m s W X.H @ 5 >     + < + X $ +.%.%.%.%.%.%.%.%.+.&.S.D.L.L.L.S.K.S.n.m.n.c.c.n.",
"Y.Y.G.S.F.A.A.N.b.b.b.b.N.b.b.A.N.A.A.A.A.D.G.G.T.A.h $.%.%.%.%.3 7  .%.%.p 4.% %.%.%.%.%.%.%.( M.C.C.N.K.K.P.L.L.S.m.m.m.n.n.n.",
"G.Y.Y.G.S.S.A.A.b.N.b.b.b.b.N.N.b.b.A.A.A.D.D.G.G.G.A.m / $.%.%.I V t %.%.%.= t.s %.%.%.+.P b.m.m.m.N.N.C.S.L.P.L.K.K.m.C.n.n.n.",
"G.Y.Y.G.G.G.D.A.A.b.b.b.b.b.b.b.b.A.A.A.A.A.D.D.G.G.P.Y.x.C z Y ) , * %.%.%./ c 7 H Y h 3.b.b.b.m.m.m.C.b.A.A.G.Y.L.G.F.S.N.m.v.",
"G.G.T.G.G.G.D.D.A.A.A.b.A.b.b.b.b.b.A.b.A.G.A.G.D.G.P.Y.P.P.G.G.s.c 9 -.5 5 9 , 7 S x.b.N.b.b.b.M.b.v.M.b.C.A.A.G.P.L.L.G.S.N.m.",
"A.D.G.T.P.G.G.G.A.A.b.b.b.N.b.b.b.A.b.A.b.A.A.G.G.G.P.P.P.P.P.P.G.G.G.G.G.P.L.S.A.N.N.b.b.N.b.b.b.b.N.b.b.A.A.b.A.G.P.P.L.F.S.m.",
"A.D.G.Y.P.G.G.G.A.A.A.b.N.b.b.b.b.b.b.A.b.A.A.A.A.A.G.G.G.P.P.G.G.A.A.A.G.P.Y.Y.G.A.A.N.N.N.N.b.b.b.b.b.b.A.b.A.A.A.L.P.L.G.G.F.",
"A.A.D.G.Y.Y.G.G.G.A.A.b.N.b.b.b.b.b.b.b.b.A.A.A.A.D.G.G.G.P.P.G.G.A.A.A.S.G.I.Y.Y.G.A.A.A.N.b.b.b.b.b.b.b.b.v.b.N.N.D.L.P.Y.L.L.",
"A.A.A.G.P.Y.Y.G.S.S.A.N.N.N.N.N.b.b.b.b.b.b.b.A.A.A.D.G.G.G.P.P.P.G.G.S.A.S.G.G.Y.Y.G.A.A.A.N.b.b.N.b.b.b.A.C.b.m.M.C.A.D.Y.L.L.",
"A.A.A.D.G.T.Y.J.G.G.S.A.A.N.N.N.b.b.b.b.b.A.A.A.A.D.C.D.D.G.P.G.P.L.G.A.A.A.A.S.L.Y.Y.L.S.A.A.b.N.N.b.b.b.b.b.A.N.m.m.m.C.L.L.P.",
"b.A.C.A.G.P.Y.P.G.G.S.A.A.b.N.N.b.b.b.b.b.b.b.b.A.b.A.D.D.D.P.P.L.G.G.A.S.A.A.A.S.G.Y.I.L.G.S.A.N.N.b.b.b.b.b.b.m.b.m.m.N.A.L.I.",
"A.b.A.A.D.G.Y.Y.P.G.G.A.A.b.b.b.b.b.b.b.N.b.A.b.b.A.A.C.A.G.G.P.P.G.G.G.S.A.N.N.A.A.G.Y.Y.L.G.S.A.N.b.b.b.b.b.b.m.m.b.m.C.N.A.G.",
"A.A.A.A.A.D.P.P.P.P.G.G.G.A.A.b.b.b.b.b.b.b.b.b.b.b.A.A.A.A.G.G.G.P.P.G.G.A.A.A.b.A.S.G.Y.Y.Y.G.A.A.A.A.N.N.b.b.b.m.b.N.M.N.N.A.",
"b.A.b.A.A.A.G.P.Y.Y.P.G.G.A.A.b.b.b.b.b.b.b.b.b.b.b.A.b.A.A.D.G.G.P.G.G.G.A.N.N.b.A.A.A.G.Y.Y.G.G.G.A.b.N.b.b.v.b.m.b.N.b.C.b.A.",
"A.A.A.A.b.A.A.G.Y.T.Y.P.G.G.A.A.N.A.b.A.b.b.b.b.b.b.b.A.A.A.A.D.G.G.G.G.G.A.A.A.A.A.A.A.A.G.Y.Y.G.G.S.A.b.A.N.b.b.b.N.b.b.b.b.A.",
"b.b.A.A.A.A.A.A.G.Y.Y.P.G.G.A.A.b.N.b.b.b.b.b.b.b.b.b.b.b.A.A.D.G.G.P.G.G.G.A.A.A.b.A.A.A.A.G.G.T.G.G.G.A.A.b.b.b.b.b.b.N.b.N.b.",
"A.N.N.N.b.A.A.A.G.P.Y.P.P.P.G.A.A.N.N.b.b.b.b.b.b.b.b.b.b.A.A.A.A.G.G.P.P.G.G.A.N.A.b.b.b.A.S.G.G.T.Y.G.F.S.N.N.b.b.b.N.N.v.b.b.",
"b.A.b.N.b.A.A.A.A.A.P.Y.T.Y.G.G.A.A.A.b.b.b.b.b.b.b.b.b.b.A.A.A.A.A.G.G.G.L.G.G.A.A.b.A.A.b.A.A.G.G.T.Y.G.G.A.N.M.N.b.M.N.b.b.b.",
"b.b.b.N.A.b.b.A.A.A.G.P.T.T.G.Y.G.A.A.A.b.A.b.A.b.b.b.b.b.b.b.b.A.A.G.G.G.L.G.G.A.A.A.N.A.b.b.A.A.G.Y.T.U.G.F.A.A.N.b.b.b.b.b.b."
};
