/* XPM */
static char *result[] = {
/* columns rows colors chars-per-pixel */
"64 64 155 2 ",
"   c #36271B",
".  c #37281B",
"X  c #3B2B1D",
"o  c #3D2E21",
"O  c #3F3123",
"+  c #432C1B",
"@  c #4C2F1D",
"#  c #45301F",
"$  c #4E321D",
"%  c #55341F",
"&  c #59351F",
"*  c #60381F",
"=  c #433224",
"-  c #4C3525",
";  c #4E3A27",
":  c #463729",
">  c #483728",
",  c #4B3A2B",
"<  c #563720",
"1  c #573A23",
"2  c #593921",
"3  c #543C2A",
"4  c #5D3E2A",
"5  c #623E22",
"6  c #603F29",
"7  c #57412F",
"8  c #5E412A",
"9  c #554435",
"0  c #594535",
"q  c #574839",
"w  c #5B4A3A",
"e  c #624023",
"r  c #694526",
"t  c #63452D",
"y  c #6C452B",
"u  c #69482E",
"i  c #744122",
"p  c #7F4525",
"a  c #714927",
"s  c #744D2F",
"d  c #7C4A2B",
"f  c #7F522A",
"g  c #6B4C35",
"h  c #614F3E",
"j  c #6D4F39",
"k  c #724C34",
"l  c #7D4D32",
"z  c #6C523D",
"x  c #755033",
"c  c #7E5336",
"v  c #635241",
"b  c #695543",
"n  c #6A5947",
"m  c #6A5A49",
"M  c #735742",
"N  c #795640",
"B  c #745B46",
"V  c #7A5A42",
"C  c #725E4C",
"Z  c #73604E",
"A  c #7C614B",
"S  c #756553",
"D  c #7A6552",
"F  c #7E6955",
"G  c #7B6C5B",
"H  c #884725",
"J  c #81492A",
"K  c #8D4F2C",
"L  c #80552D",
"P  c #9F5229",
"I  c #925C2E",
"U  c #814E32",
"Y  c #815531",
"T  c #8D5332",
"R  c #9C5631",
"E  c #915E31",
"W  c #A2532B",
"Q  c #AB592F",
"!  c #B25A2C",
"~  c #BB5D2D",
"^  c #A75C34",
"/  c #B55E31",
"(  c #A16632",
")  c #A26834",
"_  c #AC6C35",
"`  c #B96032",
"'  c #B47336",
"]  c #C6612E",
"[  c #D0642F",
"{  c #C66130",
"}  c #D06631",
"|  c #DC6A32",
" . c #C97F3C",
".. c #E97035",
"X. c #F57537",
"o. c #875E44",
"O. c #836146",
"+. c #826E5A",
"@. c #916C52",
"#. c #83715E",
"$. c #8A725F",
"%. c #A1795E",
"&. c #857664",
"*. c #867968",
"=. c #8D7E6D",
"-. c #927C66",
";. c #A47D61",
":. c #D3853E",
">. c #9D836C",
",. c #938471",
"<. c #9C8975",
"1. c #938B7A",
"2. c #9A8F7D",
"3. c #A38E76",
"4. c #A69077",
"5. c #A59078",
"6. c #E08C41",
"7. c #EC9344",
"8. c #F89B47",
"9. c #9B9382",
"0. c #A19987",
"q. c #A49B8A",
"w. c #B09880",
"e. c #A7A08D",
"r. c #B8A186",
"t. c #ADA593",
"y. c #AFA897",
"u. c #AFA999",
"i. c #B0A694",
"p. c #B1A997",
"a. c #B3AD9B",
"s. c #B9AF9D",
"d. c #B6B09E",
"f. c #BBB19F",
"g. c #B7B2A0",
"h. c #BCB3A1",
"j. c #BEB9A6",
"k. c #BFBAA8",
"l. c #CAB296",
"z. c #CDB499",
"x. c #C1B6A3",
"c. c #C3B9A6",
"v. c #C8BBA7",
"b. c #C4BCA9",
"n. c #CABEAB",
"m. c #C6C0AD",
"M. c #CCC1AE",
"N. c #D1C3AF",
"B. c #CEC4B1",
"V. c #CFC8B5",
"C. c #D2C5B2",
"Z. c #D4C9B5",
"A. c #E3C9AB",
"S. c #F0D5B5",
"D. c #FDE1C0",
/* pixels */
"a.g.g.k.m.m.m.k.k.k.g.g.u.u.g.u.u.g.g.g.g.k.k.m.m.k.g.g.g.a.d.d.d.d.g.j.k.m.V.V.m.m.j.f.f.f.j.f.j.k.c.m.B.Z.Z.V.n.b.n.b.b.c.x.c.",
"d.d.g.g.k.k.m.m.k.k.k.g.g.g.u.g.g.g.g.g.g.g.k.m.m.m.k.k.g.a.a.d.d.d.g.g.j.k.m.V.B.m.j.j.j.j.h.f.d.h.j.c.v.B.Z.Z.V.B.b.b.b.c.c.c.",
"g.g.d.g.g.g.m.k.m.k.k.k.g.g.u.u.u.g.g.g.g.g.g.g.m.m.k.k.j.a.d.d.a.a.d.d.d.j.k.m.V.B.m.m.j.j.f.d.d.h.f.f.c.c.n.B.Z.V.n.n.n.c.x.k.",
"u.u.u.g.g.g.k.k.m.m.k.k.k.k.g.u.u.u.u.g.a.g.g.g.j.k.m.k.j.j.d.d.a.a.a.g.d.d.g.k.m.m.M.m.m.f.j.d.h.h.f.f.h.h.c.v.B.Z.Z.V.n.n.c.x.",
"a.a.u.g.g.g.g.g.k.m.m.k.k.k.g.u.u.g.u.u.u.g.g.a.d.g.k.m.m.j.g.d.d.a.a.a.d.d.d.d.j.b.M.B.m.b.j.j.h.d.g.f.h.h.h.c.b.n.Z.Z.n.n.n.n.",
"u.u.u.g.g.u.g.g.k.k.m.k.k.g.k.g.a.u.u.g.a.a.u.a.a.d.g.k.k.m.j.j.g.a.a.a.a.a.a.d.d.d.b.m.m.m.b.j.h.g.d.d.d.h.g.h.h.b.n.n.Z.Z.V.n.",
"a.u.u.a.u.u.g.g.g.g.k.m.k.k.k.g.a.g.g.u.u.u.a.g.a.g.a.g.j.m.k.j.g.g.a.a.a.a.a.a.d.d.j.j.m.B.m.m.k.h.d.d.d.d.g.g.h.h.c.c.n.n.V.Z.",
"a.g.a.u.u.g.u.g.g.g.g.k.m.k.k.k.g.g.g.a.a.u.u.a.a.a.a.a.d.j.m.k.k.j.d.d.a.a.y.a.a.a.a.d.j.m.m.m.m.j.h.f.d.d.g.s.g.g.h.c.b.b.V.Z.",
"g.u.g.u.u.u.u.g.g.g.d.d.j.m.m.k.k.g.d.a.a.u.u.a.a.a.a.a.u.d.g.m.m.j.j.g.a.a.a.a.u.a.a.a.g.j.k.m.m.b.b.h.g.f.a.g.g.g.g.h.x.c.n.n.",
"a.g.u.u.u.u.a.a.u.a.g.d.g.k.b.b.c.j.h.d.a.a.a.a.a.a.p.a.u.d.d.h.k.k.j.j.d.d.u.a.a.u.u.a.a.g.j.j.m.b.b.k.h.g.g.g.a.s.g.g.s.h.c.n.",
"g.a.u.u.a.a.a.a.a.a.a.a.d.d.k.b.k.k.j.f.d.a.u.u.u.u.p.a.a.a.d.d.g.j.m.j.d.d.a.a.a.a.a.a.g.a.g.g.b.m.B.b.c.h.g.g.s.a.a.a.s.s.h.k.",
"g.g.g.a.u.a.u.u.u.a.a.g.d.d.d.j.m.m.c.h.t.1.m @.V o.o.@.D $.1.a.d.j.k.j.j.j.d.d.u.a.u.u.u.u.u.g.g.k.b.b.b.k.h.g.s.g.s.a.g.s.s.g.",
"k.g.g.g.u.d.u.a.u.d.u.d.d.d.d.d.j.b.y.C s 9 r.8 X.X.X.X.X.../ s O S d.j.m.j.d.d.a.a.u.u.a.u.u.a.a.g.h.b.b.b.k.j.s.a.s.a.a.a.g.s.",
"k.g.g.g.d.a.u.u.u.u.d.u.d.d.d.d.h.F T ..X.d F h ] X.X.X.X.X.X.X.7 v $ <.j.j.b.f.g.a.u.u.a.u.u.a.d.a.d.h.b.b.b.k.k.g.g.a.a.a.a.a.",
"k.k.k.g.g.a.u.u.d.u.u.d.d.d.d.e.k } X.X.X.X.1 5.; X.X.X.X.X.X.X.7 3.I Q z e.j.f.j.d.a.u.u.u.u.u.u.a.a.d.h.k.b.b.b.h.g.g.g.a.a.a.",
"m.m.k.g.g.g.a.u.a.d.d.y.y.d.9.8 ..X.X.X.X.X.X.> >.y X.X.X.X.X.X.7 3.P X.X.f q m.j.j.g.a.a.a.u.u.u.u.a.u.a.g.k.b.b.b.k.g.s.a.s.a.",
"V.m.b.k.g.g.g.a.u.u.s.u.u.q.k ..X.X.X.X.X.X.X.{ , h ] ] P W | X.d m P X.X.P v , d.m.k.d.a.a.y.u.u.u.u.a.y.a.d.f.m.m.m.f.d.d.d.a.",
"V.B.m.b.k.k.g.s.s.u.u.g.s.b ..X.X.X.X.X.X.X.X.| % X   e I a r & $ X i X.X.y S p x f.k.j.d.d.a.u.u.u.u.u.a.y.a.d.f.j.m.j.j.d.d.a.",
"B.V.n.n.b.x.g.g.g.a.s.s.v ` X.X.X.X.X.X.X.X.6 * ' t m E 8.8.8.8.( 9 & $ J - , X...8 e.k.g.d.d.a.y.y.u.u.u.y.u.d.d.f.j.m.j.j.d.a.",
"b.V.B.n.n.b.x.h.g.s.a.q.D 9 4 { X.X.X.X.| @ ^ 8.8.8.= > :.8.8.8.8.: ( 8.( . = X.X...u d.k.j.f.d.a.a.u.u.u.y.u.a.a.d.f.j.m.m.j.d.",
"n.n.Z.n.B.n.b.k.h.g.s.w - =.z.h 3 { X.| % 6.8.8.8.) t : z u E L _ O ) 8.8.= < % | X...z c.c.j.g.a.a.u.u.y.u.y.y.a.p.a.d.j.b.j.k.",
"x.x.V.Z.V.n.n.b.x.x.u.U X.T 3 9 3.v 3 + 6.8.8.7.x e.m.b.k.j.g.d.2.v r _ ' =  . .$ ! X.( 0.c.k.h.h.d.d.y.u.y.u.y.y.a.p.a.d.d.j.j.",
"x.c.n.V.V.V.n.n.x.x.#.| X.X.X.| l - : v , ) 8.l i.l.c.m.m.j.f.f.d.a.a.w X o 8.8.6.2 ! ..D g.k.c.j.h.d.a.y.y.y.u.y.y.y.p.p.d.j.j.",
"x.x.x.n.V.V.V.m.n.v.j X.X.X.X.X.X.P 6 3 3 : = <.d.d.j.m.m.b.m.f.d.d.d.a.1.1 :.8.. 2 + @ b t.g.j.b.k.h.d.d.y.a.y.y.y.p.p.p.a.d.d.",
"k.x.k.x.n.Z.Z.Z.n.x.U X.X.X.X.X.X.@ 8.8.8.E > f.g.s.f.h.m.m.m.x.j.d.d.a.a.y.A I + 2 X.X.} l A a.j.b.j.d.d.d.p.p.y.y.y.y.y.y.d.a.",
"h.h.x.x.n.n.Z.n.V.i.{ X.X.X.X.X.| 6 8.8.8.8.k f.h.h.h.h.j.m.m.m.c.j.f.d.a.p.p.2.+ 5 H X.X.X.| k ,.j.b.j.d.d.d.p.y.y.y.y.y.a.y.y.",
"h.h.k.x.x.n.Z.Z.Z.=...X.X.X.X.X.J ' 8.8.8.8.O.f.f.h.h.f.x.c.b.m.m.m.f.f.d.a.a.u.Z [ % ] X.X.X.X.' M j.j.j.j.d.d.d.y.y.y.y.y.y.y.",
"h.s.x.h.x.x.n.Z.Z.$.X.X.X.X.X.X.< 8.8.8.8.8.V f.f.f.f.f.f.f.x.m.m.m.m.x.f.d.a.a.,.! ] @ | X.X.X.6.[ V j.b.j.j.j.d.p.y.y.y.y.y.y.",
"s.h.h.x.h.x.x.n.Z.;.X.X.X.X.X.X.@ 8.8.8.8.8.Y a.f.s.f.f.f.f.x.x.m.m.m.m.j.f.f.d.q.U | ] + ! X.X.X.X.[ O.j.j.j.j.d.d.d.p.y.t.t.y.",
"s.s.h.x.h.x.x.x.n.;.X.X.X.X.X.X.5 8.8.8.8.8.Y s.d.d.f.f.f.f.f.x.l.m.m.m.m.f.f.f.d.k | | ] - Q X.X.X.X.f d.d.j.j.b.d.d.d.d.y.y.y.",
"h.g.g.h.x.x.x.x.n.%.X.X.X.X.X.W L 8.8.6.) ) r 2.s.s.f.d.f.f.f.h.f.j.m.m.m.m.m.f.f.M [ | | Q Z g Y / ! g d.d.d.j.b.j.d.d.d.y.y.y.",
"s.h.g.h.h.h.x.x.n.4 o = v h h : , v v , > X X m s.p.s.s.g.f.f.f.f.f.z.m.m.M.m.m.x.0.I | | | g a.e.1.2.p.p.d.d.d.j.j.j.j.d.d.y.y.",
"s.s.s.s.h.h.x.x.c.n w.5.+.v q = , ; t s ( ( 8.Y i.a.a.s.h.s.s.h.f.f.j.c.m.m.M.m.b.v.g | | | K 0.u.y.a.a.a.a.a.a.d.f.m.j.j.d.p.a.",
"h.h.g.s.s.h.h.x.x.0 k P P X.X.P ( 8.8.8.8.8.8.6.B s.s.g.s.s.h.s.f.f.f.j.c.m.M.M.m.m.9.T | | ~ &.a.a.y.y.a.i.y.p.d.f.f.c.j.j.d.d.",
"s.h.h.s.s.h.h.x.x.-.X.X.X.X.X./ e 8.8.8.8.8.8.8.^ <.s.s.s.s.s.s.f.f.f.l.f.c.v.m.B.m.m.Z ` | | Z i.a.a.a.a.p.i.a.a.a.d.f.v.j.j.d.",
"h.g.h.s.g.h.f.h.c.-.| X.X.X.X.X.< 8.8.8.8.8.8.8.8.k i.s.g.s.s.g.f.f.f.f.f.f.z.m.M.M.M.m.Z W | z d.p.a.a.i.a.a.p.p.a.a.f.h.j.j.j.",
"x.s.s.h.f.h.f.h.x.q./ X.X.X.X.X.< 8.8.8.8.8.8.8.8.7.u s.a.s.a.s.f.f.f.f.f.l.j.c.b.m.M.M.n.=.z 0.d.a.a.a.a.a.p.p.p.d.d.p.d.h.j.j.",
"x.h.h.s.f.g.f.f.h.x.U X.X.X.X.X.& 8.8.8.8.8.8.8.6.U = v s.s.s.s.f.s.s.f.f.f.f.j.x.b.M.M.M.m.b.c.z.d.d.d.a.a.a.p.p.p.p.p.a.a.d.x.",
"x.x.s.s.s.s.f.f.f.f.N X.X.X.X.X.p I 8.8.8.6.c 3   # U I q.s.s.s.s.s.f.f.d.d.f.l.x.c.v.m.M.Z.M.b.k.f.d.d.a.a.a.a.a.a.p.d.p.d.a.d.",
"x.h.h.s.f.g.s.f.f.x.+.| X.X.X.X.| < 6.Y 9 , , 3 ' 8.8.4     9 s.s.s.d.d.f.f.d.h.f.h.z.x.m.M.C.M.m.k.j.f.d.a.a.p.a.p.d.p.p.p.p.d.",
"x.x.x.h.s.h.s.g.h.h.0.R X.X.X.| l X q &.0 t :.8.8.8.4 w.D.D.w s.s.s.s.s.s.s.s.s.x.l.s.x.x.c.M.N.m.m.k.z.f.f.d.d.p.p.p.p.p.p.p.d.",
"n.b.x.h.g.h.h.s.s.x.h.k | l 3 q r.9 X L 6.8.8.8.7.U #.D.D.D.#.s.a.a.a.a.s.s.s.s.s.s.x.s.h.c.c.M.C.B.m.m.m.f.d.d.p.d.p.p.d.p.a.a.",
"n.b.x.h.h.s.s.h.h.s.h.n , w.A.Z , W - 8.8.8.8.8.U +.D.D.D.D.G s.d.s.s.s.a.s.s.s.s.l.s.x.l.h.h.v.m.M.B.M.m.f.f.f.f.d.p.d.p.a.a.a.",
"n.n.b.b.x.h.s.s.h.s.h.q.= 9 4 { X.X.J ( 8.8.8.c #.D.D.D.D.A.*.s.f.f.s.s.s.s.s.s.a.s.s.s.x.f.h.l.v.m.B.N.m.m.m.f.l.d.d.p.d.d.p.a.",
"N.n.n.x.x.h.h.s.h.s.s.h.9 ] X.X.X.X.X.$ 8.8.s G D.D.D.D.D.$.s.x.x.l.h.f.s.s.f.s.s.s.s.h.x.s.x.s.l.v.m.M.N.B.m.z.j.d.d.d.p.d.p.f.",
"Z.M.M.n.x.x.h.s.g.f.h.s.y.c X.X.X.X.X.! & 7 4.D.D.D.D.D.s.=.x.x.k.c.h.f.h.s.s.s.s.s.s.s.f.f.h.g.f.f.z.v.M.M.M.c.m.l.f.d.f.p.f.p.",
"C.N.n.n.b.x.x.h.f.s.s.s.d.#.] X.X.X.X.R X l.D.D.D.D.D.S.b n.n.n.c.c.c.h.h.s.f.s.s.s.a.s.s.s.f.l.f.z.h.j.m.m.M.M.m.c.j.f.f.f.f.d.",
"N.N.M.n.c.b.x.x.f.f.s.d.f.d.j X.| K 7 Z D.D.D.D.D.D.S.h n.N.n.n.b.v.c.v.x.h.h.s.s.f.s.s.s.s.s.s.d.f.f.f.l.v.M.N.M.m.c.j.l.f.f.p.",
"n.C.C.n.n.n.n.x.x.x.s.s.s.s.9.: , =.D.D.D.D.D.D.D.S.+.x.Z.N.n.n.n.b.n.n.n.x.x.s.h.s.s.h.s.s.s.s.f.f.f.f.x.x.x.v.n.N.n.v.c.j.a.s.",
"n.n.Z.n.n.n.n.x.x.x.h.s.h.s.#.S.D.D.D.D.D.D.D.D.s.b x.N.N.N.N.n.n.n.b.n.n.n.n.s.s.h.s.s.s.s.s.s.f.f.d.f.s.x.x.x.n.N.M.n.n.c.h.f.",
"x.n.n.Z.n.n.v.v.x.x.s.s.s.s.#.Z.D.D.D.D.D.D.x.+.,.n.n.N.N.N.N.n.n.b.n.n.n.V.M.n.x.x.s.s.s.s.s.s.s.f.f.f.s.x.s.l.v.n.B.B.M.b.c.h.",
"x.n.n.n.C.n.v.n.x.x.s.x.h.s.i.C w.z.x.2.S C =.x.v.n.n.n.N.N.N.N.n.b.x.b.n.n.C.B.n.x.x.x.h.x.h.s.s.s.s.s.s.h.s.x.l.c.n.B.B.n.v.v.",
"x.x.v.n.C.N.N.z.x.x.x.s.h.s.s.s.s.s.s.s.s.x.x.x.v.v.n.n.n.n.N.n.n.k.x.x.x.n.B.C.M.n.x.x.x.s.s.h.s.s.f.f.s.s.s.x.x.x.c.n.C.B.M.n.",
"x.z.x.n.N.Z.N.N.n.n.x.s.x.s.s.x.s.s.s.s.s.s.s.x.x.x.n.n.n.n.N.N.n.n.n.k.x.x.n.M.C.C.n.c.x.x.s.s.f.f.s.f.h.s.s.f.s.s.x.c.v.B.C.n.",
"x.x.x.v.n.Z.N.N.n.n.n.x.x.h.x.s.s.s.s.s.s.s.x.x.x.x.x.x.v.n.N.n.N.n.n.x.x.x.x.n.M.C.C.n.n.x.x.s.f.h.a.s.s.s.s.h.s.x.l.g.x.v.B.B.",
"x.x.s.x.n.N.Z.N.n.n.x.x.x.s.h.h.s.s.s.s.s.x.s.s.s.x.z.v.n.v.n.N.n.n.n.x.x.x.x.x.c.M.B.B.n.n.c.x.l.h.f.s.s.s.s.f.s.s.s.s.x.c.n.C.",
"x.x.s.x.x.n.C.N.N.n.n.x.x.s.s.s.x.s.s.s.s.s.s.s.s.x.x.x.v.n.n.N.N.N.n.n.x.x.x.s.x.x.n.C.C.n.n.n.x.h.x.s.h.s.s.s.s.x.s.x.s.h.x.n.",
"s.x.x.x.x.n.N.N.N.N.n.n.n.x.s.x.s.s.s.s.s.s.s.x.s.s.x.z.x.x.n.n.n.n.N.n.n.x.x.x.s.x.c.n.C.Z.C.n.c.x.s.x.s.s.s.s.s.s.f.f.l.f.h.c.",
"x.x.x.x.x.x.n.N.Z.N.N.n.n.x.x.x.s.s.s.s.s.s.s.s.s.x.x.s.x.x.n.n.N.n.N.n.n.x.x.s.s.x.x.x.n.n.C.n.n.n.x.s.h.s.s.a.s.s.s.h.s.x.s.h.",
"s.x.x.s.x.x.x.v.Z.Z.N.N.n.n.x.s.x.s.s.x.s.s.s.s.s.s.s.x.s.x.x.x.n.n.n.n.n.n.x.x.x.x.x.x.c.n.C.C.n.n.b.x.s.x.f.s.s.s.s.s.s.s.s.x.",
"x.s.x.x.x.x.x.x.n.N.C.C.n.n.n.x.s.x.s.s.s.s.s.s.s.s.s.s.x.x.x.x.n.n.n.N.n.n.x.x.x.s.x.s.x.x.n.n.Z.n.n.n.x.h.f.s.s.s.s.s.s.x.s.s.",
"s.x.s.x.s.x.x.x.v.N.Z.C.N.n.n.x.x.x.s.s.s.s.s.s.s.s.s.s.s.x.x.x.x.n.n.n.n.n.n.x.x.s.s.x.s.x.x.v.n.Z.n.n.b.c.x.h.s.s.s.s.s.s.s.x.",
"h.h.s.x.s.x.x.x.x.v.n.C.Z.C.n.n.x.x.x.s.s.s.s.s.s.s.s.s.s.x.x.x.x.x.n.n.N.M.n.n.x.x.x.s.x.s.x.x.n.n.Z.Z.n.n.x.h.f.h.s.h.s.s.s.s.",
"s.s.s.s.s.x.s.x.x.x.n.N.Z.Z.n.N.n.x.x.x.s.s.s.x.s.s.s.s.s.s.s.s.x.x.n.n.n.n.n.n.x.x.x.x.s.x.x.x.x.n.Z.Z.V.n.b.x.x.f.h.s.s.s.a.s."
};
