/* XPM */
static char *result[] = {
/* columns rows colors chars-per-pixel */
"64 64 163 2 ",
"   c #36271B",
".  c #36281C",
"X  c #3B2B1D",
"o  c #3D2D20",
"O  c #3E3023",
"+  c #432C1B",
"@  c #4B2F1C",
"#  c #4E321D",
"$  c #55331E",
"%  c #5A361F",
"&  c #433224",
"*  c #4B3523",
"=  c #4E3A27",
"-  c #463729",
";  c #483729",
":  c #453829",
">  c #4B3A2B",
",  c #573922",
"<  c #583B23",
"1  c #543D2C",
"2  c #5C3E29",
"3  c #4F3E30",
"4  c #503F30",
"5  c #623D22",
"6  c #703F23",
"7  c #57412E",
"8  c #5C4028",
"9  c #554435",
"0  c #594737",
"q  c #5A4A3B",
"w  c #644023",
"e  c #62432C",
"r  c #69482E",
"t  c #774122",
"y  c #7F4625",
"u  c #714927",
"i  c #754D2D",
"p  c #7C4A2A",
"a  c #634835",
"s  c #6B4B35",
"d  c #604D3C",
"f  c #6C4E39",
"g  c #744D33",
"h  c #7D4D31",
"j  c #62503F",
"k  c #6F533B",
"l  c #765133",
"z  c #7F5834",
"x  c #73523B",
"c  c #7A543D",
"v  c #645442",
"b  c #6A5543",
"n  c #6A5947",
"m  c #665849",
"M  c #6D5C4B",
"N  c #725641",
"B  c #7B5B44",
"V  c #765C49",
"C  c #705F4C",
"Z  c #6F604E",
"A  c #76614F",
"S  c #7B6451",
"D  c #7B6957",
"F  c #756A59",
"G  c #7D6D5B",
"H  c #7F7463",
"J  c #884725",
"K  c #8F4B27",
"L  c #8E4F2D",
"P  c #81542D",
"I  c #9F5229",
"U  c #925C2F",
"Y  c #804E31",
"T  c #815532",
"R  c #8E5333",
"E  c #825938",
"W  c #9A5631",
"Q  c #A2532A",
"!  c #AB5A2F",
"~  c #B25A2C",
"^  c #BB5C2C",
"/  c #AA5B31",
"(  c #B55E31",
")  c #A16632",
"_  c #A26834",
"`  c #AC6D35",
"'  c #B96032",
"]  c #B47336",
"[  c #C6612E",
"{  c #D0642F",
"}  c #C66131",
"|  c #D06631",
" . c #DC6A32",
".. c #C97F3C",
"X. c #E97035",
"o. c #F57537",
"O. c #82664D",
"+. c #8E6349",
"@. c #806754",
"#. c #836C56",
"$. c #8F6A51",
"%. c #816D5A",
"&. c #84715E",
"*. c #957056",
"=. c #997157",
"-. c #927158",
";. c #9E765B",
":. c #857764",
">. c #8E7B67",
",. c #927C66",
"<. c #947E68",
"1. c #D3853E",
"2. c #8E8371",
"3. c #9D8A75",
"4. c #958B7B",
"5. c #9C8F7E",
"6. c #A48F77",
"7. c #A69077",
"8. c #DF8C41",
"9. c #E08C41",
"0. c #EC9344",
"q. c #F89B47",
"w. c #9C9383",
"e. c #A09785",
"r. c #AA9683",
"t. c #A39A89",
"y. c #A99E8C",
"u. c #ACA18E",
"i. c #B8A186",
"p. c #A7A090",
"a. c #ACA594",
"s. c #AFA997",
"d. c #AFA999",
"f. c #B1A593",
"g. c #B2A997",
"h. c #B3AD9B",
"j. c #B9AF9D",
"k. c #B6B09E",
"l. c #BAB19F",
"z. c #B7B2A0",
"x. c #BCB3A1",
"c. c #BEB9A6",
"v. c #BFBAA8",
"b. c #C7B095",
"n. c #CAB296",
"m. c #C1B39F",
"M. c #CDB499",
"N. c #C1B6A3",
"B. c #C3B9A6",
"V. c #C8BBA7",
"C. c #C4BDAA",
"Z. c #CABEAA",
"A. c #D7BEA0",
"S. c #C6C0AD",
"D. c #CCC1AE",
"F. c #D1C3AF",
"G. c #CEC4B1",
"H. c #CFC8B5",
"J. c #D2C6B2",
"K. c #D4C9B5",
"L. c #E3C9AB",
"P. c #F0D5B5",
"I. c #FDE1C0",
/* pixels */
"h.z.z.v.S.S.S.v.v.v.z.z.z.z.d.z.z.z.z.z.z.v.v.S.S.c.z.z.z.k.k.k.k.z.z.c.v.S.H.H.S.C.c.c.k.x.x.c.c.B.B.S.F.K.K.H.S.C.C.C.B.N.N.C.",
"k.k.z.z.z.v.S.S.v.v.v.z.z.d.d.d.z.z.z.z.z.z.c.S.S.S.v.c.z.k.k.h.k.k.z.z.c.c.S.H.G.S.C.c.x.x.k.x.k.k.c.B.S.D.K.K.K.G.C.B.C.B.N.N.",
"z.z.k.k.z.v.S.S.S.v.v.v.z.z.z.d.z.d.z.d.z.z.z.z.S.S.v.v.z.z.k.k.k.k.k.k.z.z.c.S.K.G.S.S.c.c.k.k.k.c.l.l.N.C.S.D.K.K.G.Z.Z.C.C.N.",
"d.d.d.z.h.z.v.v.S.S.v.v.v.z.z.d.d.d.d.z.z.z.z.z.c.v.S.v.c.z.k.k.s.s.k.k.k.k.c.c.S.S.J.S.C.c.x.x.l.l.l.l.l.m.B.C.G.H.K.G.Z.Z.C.N.",
"h.h.z.z.h.z.z.z.v.S.S.v.v.z.z.z.d.d.z.z.h.h.h.z.k.z.c.S.c.c.c.k.s.h.s.h.k.k.k.k.c.C.S.S.S.S.c.c.l.l.l.k.c.l.c.c.C.Z.H.H.H.Z.Z.Z.",
"h.d.d.d.z.d.h.z.z.v.S.S.v.v.z.z.z.d.d.d.h.h.h.h.h.k.z.c.S.S.c.c.z.k.h.h.h.h.h.k.k.k.C.S.S.S.c.c.c.l.k.k.k.k.l.c.x.N.Z.J.H.H.H.Z.",
"h.d.d.z.d.d.z.z.z.v.v.v.S.v.v.z.z.d.z.d.d.h.h.h.k.h.h.z.c.v.S.v.c.z.k.h.h.h.h.h.k.k.c.c.S.G.S.S.C.k.k.k.k.k.x.k.x.x.N.C.Z.J.H.H.",
"h.h.h.d.d.z.h.h.z.z.z.v.S.v.v.v.v.z.d.d.d.d.d.h.h.h.h.k.k.c.v.v.v.c.k.h.h.h.s.h.h.g.k.k.c.S.G.S.C.c.l.l.k.l.k.k.z.x.x.x.N.Z.J.H.",
"z.d.h.d.d.d.d.h.h.z.z.z.v.S.S.v.c.c.h.h.h.h.d.z.h.h.h.h.h.k.c.S.v.c.c.z.d.d.d.k.s.k.k.k.k.z.S.S.C.Z.c.c.x.z.z.z.j.j.z.x.N.B.Z.J.",
"z.d.h.d.d.h.h.h.d.h.h.z.z.v.v.S.c.c.z.k.h.d.d.h.h.h.g.h.d.d.k.l.S.v.c.c.k.k.k.d.s.d.s.s.k.k.k.c.S.C.C.c.x.z.h.h.h.h.j.z.x.x.N.B.",
"z.d.d.d.z.d.h.d.z.h.h.h.k.k.v.S.C.c.c.k.k.h.d.d.s.d.d.h.d.h.h.k.c.v.S.c.z.z.k.d.k.d.k.s.k.k.k.c.C.S.G.C.B.c.z.k.z.j.h.j.z.j.x.c.",
"z.z.z.z.d.d.h.h.d.d.d.z.k.k.k.c.C.S.C.k.z.k.h.d.d.d.d.d.k.d.g.h.k.z.c.c.c.c.z.d.s.k.d.s.s.s.k.z.z.c.S.C.B.c.x.z.z.h.h.h.h.z.j.j.",
"v.z.z.z.d.d.z.d.h.d.h.k.k.k.k.k.c.S.C.c.c.k.k.h.d.d.h.s.d.h.h.h.k.k.z.v.S.c.c.k.a.2.Z H 3.b.n.7.Z d.c.B.S.v.v.c.j.z.h.h.h.h.j.j.",
"v.v.z.z.z.d.d.d.h.h.h.k.k.k.k.k.k.c.S.C.c.c.k.k.h.h.d.s.d.s.d.d.s.s.k.z.c.c.c.2.Z b.I.I.I.I.I.I.L.H z.z.C.S.C.c.c.z.j.z.h.h.h.z.",
"v.v.v.z.k.h.d.d.d.h.d.d.d.k.k.k.k.c.c.C.S.c.c.k.k.d.d.d.d.h.d.s.h.h.h.k.z.k.Z n.I.I.I.I.I.I.I.I.P.F h.h.z.C.Z.C.B.c.z.j.z.h.h.h.",
"H.v.v.z.k.z.k.d.h.h.k.h.d.k.k.k.k.k.k.c.C.v.c.c.k.k.h.s.h.d.h.h.s.s.s.d.5.Z P.I.I.I.I.I.I.I.2.= > 4.h.h.h.z.v.C.C.v.c.z.h.h.h.h.",
"H.C.v.v.z.z.z.h.h.h.h.h.d.h.h.j.h.z.j.j.v.C.C.v.c.k.k.d.g.d.d.s.g.d.d.p.j P.I.I.I.I.I.I.Z 7 K  .X.k h.d.s.h.k.x.C.S.v.c.k.k.k.k.",
"Z.H.H.C.v.v.z.z.h.d.d.j.h.h.h.h.h.j.z.j.j.B.C.B.v.c.k.k.h.d.s.s.s.g.d.Z P.I.I.I.I.I.M.O I o.o.o.o.' G d.h.h.g.k.c.B.S.B.l.k.k.h.",
"H.Z.Z.Z.C.N.z.z.z.j.h.h.h.z.h.j.z.z.h.j.j.x.v.C.B.v.c.k.k.h.d.s.d.d.F A.I.I.I.I.I.2.< % ~ o.o.o.o.o.h p.d.s.s.h.k.k.B.S.v.c.k.k.",
"C.H.H.Z.Z.C.N.x.z.h.j.h.z.h.z.h.j.h.h.h.j.z.v.C.S.B.c.x.k.k.h.d.d.p.G I.I.I.I.I.#.u q.q.# o.o.o.o.o.} 3 d.s.s.s.d.k.k.c.S.v.c.k.",
"Z.Z.H.H.Z.Z.C.v.x.z.j.j.h.h.h.h.h.h.h.z.z.z.x.x.C.S.B.c.x.k.h.h.h.H L.I.I.I.I.#.P q.q.q.) y o.o.} 1 0 & w.d.s.h.h.h.h.k.c.C.v.c.",
"C.Z.Z.K.H.Z.C.Z.v.x.z.j.z.h.z.j.j.z.h.z.j.z.x.z.x.B.S.S.B.c.z.h.h.Z I.I.I.I.%.P q.q.q.q.q.# L = C L.i.> m d.s.d.s.g.s.h.k.l.c.C.",
"v.N.Z.Z.H.H.Z.Z.C.N.x.z.h.h.h.h.z.h.j.j.j.j.z.x.k.N.C.S.C.c.c.z.g.2.I.I.I.&.z q.q.q.q.1.T o j i.0 4 h  .f s.s.s.s.s.s.g.d.k.k.C.",
"v.v.C.Z.H.H.Z.H.Z.C.N.x.j.j.j.h.h.j.z.z.j.j.j.j.j.k.B.C.S.C.v.c.k.q I.I.7.8 q.q.q.1.r 0 &.0 X l  .o.o.o.W t.h.s.s.s.s.s.d.h.k.k.",
"x.N.N.B.Z.K.K.K.Z.Z.C.B.x.x.j.j.j.j.z.h.j.j.h.j.x.j.x.v.C.G.C.C.l.9 X . 8 q.q.) 7 7 7 7 z 1.< o.o.o.o.o. .G h.d.s.s.s.d.s.h.g.k.",
"x.x.N.N.Z.Z.K.Z.Z.Z.C.B.N.x.x.j.z.j.j.j.j.z.z.j.j.x.j.j.v.Z.S.C.C.c.c.5.U P + . 7 z 1.q.q.q.U K o.o.o.o.o.z k.d.s.s.s.s.s.s.s.s.",
"x.x.x.N.B.Z.Z.K.Z.H.Z.Z.B.N.x.x.j.j.j.h.j.j.j.j.j.x.v.j.x.B.C.Z.S.S.c.k.j + z 9.q.q.q.q.q.q.q.% o.o.o.o.o.z l.k.h.s.s.s.s.s.s.s.",
"x.x.N.x.B.Z.Z.Z.K.H.H.Z.C.C.N.x.w.v :.j.z.j.j.j.j.j.j.l.x.x.N.C.S.S.c.c.c.r 0.q.q.q.q.q.q.q.q.w o.o.o.o.o.! u.l.k.h.s.s.s.s.s.s.",
"j.x.x.N.x.N.B.Z.K.K.K.Z.Z.Z.B.N.b  .Q M j.j.j.j.x.j.l.l.l.x.m.N.S.S.S.S.v.h.i q.q.q.q.q.q.q.q.% o.o.o.o.o.| 3.c.c.k.k.g.s.s.s.s.",
"j.j.x.N.x.N.N.B.K.K.K.K.K.Z.C.C.A  . .^ A j.j.h.j.j.z.l.l.l.x.x.N.B.S.D.S.l.6.) q.q.q.q.q.q.q.w [ o.o.o.o.o.2.l.c.k.k.k.h.s.a.s.",
"x.z.z.x.N.N.N.B.Z.Z.K.K.K.Z.Z.C.>.^  . .L 4.j.j.j.j.j.z.x.l.x.m.l.V.V.D.S.S.c.O.8.q.q.q.q.q.q.) I o. .Q ) u 0 c.c.c.k.k.k.s.s.s.",
"j.x.z.x.x.x.N.N.B.V.Z.K.K.J.G.Z.f.R  . . .a j.j.h.j.h.j.l.l.j.x.l.l.c.V.S.D.S.l.U 1._ _ e e & = o 7 d G 7.7.n k.c.c.c.c.k.k.s.s.",
"j.z.j.j.j.x.N.B.N.V.Z.Z.K.y.y.N.C.a  . . .W e.j.j.h.h.z.j.j.j.x.l.b.N.B.S.D.G.S.Z   X & 7 j j 7 : j j 7 O o 0 k.k.c.S.l.l.k.k.h.",
"z.x.x.j.j.z.N.N.N.N.V.Z.N / ( R x S ~  . .| N j.j.j.j.j.j.j.x.j.l.k.l.N.N.V.D.D.u.u ) ) q.q.q.u ! o.o.X.o.o.*.g.h.k.l.S.S.l.k.k.",
"x.j.x.j.x.j.N.x.N.N.N.V.h o.o.o.o.! * [  . .s j.h.j.j.j.j.j.j.x.k.l.l.m.m.c.V.G.G.T q.q.q.q.q.8 o.o.o.o.o.o.*.g.g.h.k.l.C.c.c.k.",
"x.x.j.j.x.x.j.x.N.N.N.N.@.| o.o.o.o.~ + [  .Y g.j.j.j.j.j.j.j.h.l.l.l.l.x.m.c.V.D.E q.q.q.q.q.# o.o.o.o.o.o.-.d.h.g.h.k.m.c.c.c.",
"x.j.j.x.x.x.j.x.m.m.N.N.N.B { o.o.o.o. .@ [ ~ 5.j.j.j.j.j.h.j.j.l.l.l.l.l.l.n.C.C.x q.q.q.q.q.$ o.o.o.o.o.o.#.g.g.g.k.g.h.x.c.c.",
"N.x.x.j.z.j.x.j.x.x.m.x.N.N.A ( o.o.o.o.~ $ [ A x.j.j.j.j.h.j.j.k.l.l.l.l.l.l.c.N.B q.q.q.q.] y o.o.o.o.o. .>.d.g.g.g.g.h.k.k.m.",
"N.N.j.j.j.j.j.j.j.x.N.x.N.N.N.3.g  .o.o.o.J 5 @ t.x.j.j.h.j.j.j.l.l.l.k.k.l.l.m.N.l q.q.q.q.,  .o.o.o.o.o.[ w.g.h.h.k.k.k.g.k.k.",
"N.x.N.j.x.z.j.x.x.x.x.m.N.N.N.N.m.@.E { o.o.$ X W O.m.j.j.j.j.j.l.g.k.k.l.l.l.l.x.= U q.q.q.$ o.o.o.o.o.o.h a.h.s.h.g.g.g.g.g.k.",
"B.B.N.z.z.x.z.j.x.x.x.N.x.N.N.N.V.Z.K.A $ + % X q.1.2 w.j.j.j.h.l.g.l.l.k.k.j.l.3.+ : 0 < , ~ o.o.o.o.o.o.z l.k.g.g.g.g.g.g.h.h.",
"C.B.N.j.x.x.x.j.j.x.x.x.x.N.m.m.B.V.Z.#.X.~ % 9.q.q.o X v j.j.j.g.l.l.g.j.k.j.f.p q._ = m O = h  .o.o.o. .&.l.l.h.h.g.g.k.g.g.g.",
"Z.C.N.N.j.j.j.x.x.j.x.j.x.j.N.m.N.B.V.u./ o.~ @ ....o ` ` 5 v t.k.k.l.g.k.k.4.l 0.q.q.9.+ 1 j 7.0 7 L o.z k.l.l.k.k.g.g.k.g.k.g.",
"Z.Z.C.B.N.x.j.j.x.j.x.x.x.j.m.N.N.N.V.V.N X.o. .$ & - q.q./ O ` T U r l : i ` q.q.q.9.#  .o.[ 1 j n.,.: j B.S.l.k.k.k.k.g.k.g.k.",
"D.Z.Z.N.N.N.j.z.j.j.j.x.x.x.l.N.N.N.N.B.m.6 X.o.o.&   / q./ ; q.q.q.q.1.7 # q.q.q.) #  .o.o.o.o.[ e 0 D l.F.S.m.m.l.k.k.k.k.k.g.",
"K.G.Z.Z.v.B.N.j.j.x.x.j.j.l.m.x.m.N.N.B.V.u.2 X.o.9 ; J ; $ 3 / q.q.q.q.U Z 8 ] , t o.o.o.o.o.o.o.o.' b D.F.D.V.S.m.l.k.k.g.g.k.",
"J.F.D.Z.Z.v.N.j.j.j.j.j.j.l.l.N.l.m.m.m.B.V.N.x p b 6 o.o.6 o @ # w u P 8 . X %  .o.o.o.o.o.o.o.o.X.x x.B.D.F.D.S.B.c.l.k.k.k.k.",
"F.F.F.Z.N.v.N.N.x.l.j.j.j.j.l.l.m.l.m.N.N.B.V.m.3 b W o.o.Q m J o.o.I I [ [ j = } o.o.o.o.o.o.o.X.5 g.x.m.V.S.F.D.S.V.c.b.k.k.k.",
"Z.F.F.Z.Z.Z.V.N.N.j.j.j.j.j.j.j.j.N.j.N.N.Z.Z.V.Z.9 W o.o.Q >.2 o.o.o.o.o.o.6 <.; o.o.o.o.o.o.X.g e.x.j.N.m.V.Z.J.D.D.B.B.x.k.j.",
"Z.F.K.F.Z.Z.V.V.N.N.N.j.j.j.j.N.N.j.N.j.N.N.N.Z.V.Z.f.c / Q 3.a o.o.o.o.o.o.o.; r.2 o.o.o.o.{ f g.j.j.j.j.x.N.m.Z.F.D.D.S.B.l.l.",
"N.Z.F.F.F.Z.V.V.N.N.j.j.x.j.j.j.j.N.j.N.j.N.N.Z.V.Z.Z.Z.r.; j 1 o.o.o.o.o.o.o.~ d @.y o.X.R @.j.j.j.j.m.m.m.m.m.N.Z.J.F.D.C.B.m.",
"N.N.Z.F.F.Z.V.V.N.N.N.j.x.j.j.j.j.j.j.j.j.N.N.N.N.Z.Z.Z.F.F.@.& c ( X.o.o.o.o.o.2 i.3 g V p.j.j.j.j.j.j.j.j.j.m.N.N.Z.F.D.Z.V.C.",
"N.N.V.Z.J.J.F.V.Z.N.N.j.x.j.j.x.j.j.j.j.j.N.N.N.N.Z.V.Z.Z.F.F.Z.Z.p.>.@.=.+.+.$.;.A 5.f.N.x.j.j.j.j.j.j.j.j.j.j.l.m.B.D.J.J.S.D.",
"m.m.N.Z.F.J.F.F.Z.N.N.N.j.x.x.x.j.j.j.j.j.j.x.N.N.N.Z.Z.V.Z.F.F.F.Z.V.V.N.B.Z.Z.K.J.Z.B.B.j.j.x.x.l.j.j.j.m.m.j.l.l.m.B.V.F.F.D.",
"N.N.N.V.Z.K.F.F.Z.Z.N.N.N.x.x.j.j.j.j.N.j.j.N.x.N.N.N.V.V.Z.F.Z.F.Z.Z.N.N.N.N.Z.Z.K.F.Z.Z.N.N.j.j.N.j.j.j.j.j.N.m.l.l.m.N.V.D.F.",
"j.N.N.N.Z.F.K.F.Z.Z.Z.N.x.j.x.N.j.j.j.j.j.x.j.j.m.m.N.V.V.Z.F.F.Z.Z.V.V.B.B.j.N.B.Z.J.J.Z.Z.Z.N.N.j.j.j.j.j.j.j.l.j.l.m.l.V.D.D.",
"j.N.N.N.N.Z.J.J.Z.Z.Z.N.N.j.N.j.x.x.j.j.j.j.j.j.j.j.m.N.V.V.Z.Z.F.Z.F.Z.N.N.N.N.m.N.Z.K.K.Z.Z.B.N.x.j.x.j.j.j.j.l.l.j.m.l.m.N.Z.",
"N.N.N.N.N.V.F.J.J.F.Z.Z.Z.j.N.j.j.j.j.j.j.j.j.x.m.j.N.N.N.V.Z.Z.Z.F.Z.Z.B.N.N.x.x.N.N.Z.F.K.F.Z.B.N.x.m.x.x.j.j.j.l.l.x.l.m.l.N.",
"j.N.j.N.N.N.Z.Z.J.J.F.Z.Z.N.N.j.j.j.x.j.j.j.j.j.j.m.m.N.N.N.V.Z.Z.F.F.Z.Z.N.N.j.x.x.N.B.Z.F.J.Z.Z.B.N.x.x.x.j.h.j.l.j.k.j.j.j.N.",
"N.N.N.m.m.N.N.Z.J.K.J.F.Z.Z.N.N.x.x.z.x.j.j.j.j.j.j.j.N.m.m.N.V.Z.Z.Z.Z.Z.Z.N.N.N.x.N.N.N.Z.J.J.Z.Z.B.m.j.x.l.j.j.j.x.j.j.m.j.m.",
"x.N.x.x.N.N.N.N.Z.J.J.J.Z.Z.Z.N.j.x.j.j.j.j.j.j.j.j.j.j.j.N.N.V.Z.Z.Z.F.Z.Z.N.N.N.j.N.j.N.N.Z.Z.K.K.Z.V.N.x.l.j.j.j.j.x.x.j.x.j.",
"x.x.x.x.j.N.N.N.V.F.J.J.F.Z.Z.N.N.N.x.j.j.j.j.j.j.j.j.j.j.N.m.N.N.Z.Z.Z.Z.Z.Z.N.N.j.j.N.N.N.N.Z.Z.K.Z.Z.C.C.N.x.j.j.j.j.x.j.j.m.",
"j.x.x.x.m.N.N.N.N.V.Z.J.K.J.Z.Z.N.N.j.j.j.j.j.j.j.j.j.j.m.N.N.N.N.N.Z.Z.Z.G.Z.Z.N.N.j.N.j.N.N.N.Z.Z.K.J.Z.Z.N.x.x.j.j.z.j.j.j.j.",
"j.j.j.j.j.m.j.m.N.N.Z.F.K.K.D.D.Z.Z.N.N.j.j.N.j.j.j.j.j.j.j.j.j.N.N.Z.Z.D.Z.Z.Z.B.N.N.j.N.j.j.N.N.Z.K.K.H.Z.C.N.N.x.j.j.j.j.j.j."
};
