/* XPM */
static char *result[] = {
/* columns rows colors chars-per-pixel */
"64 64 155 2 ",
"   c #35271A",
".  c #37281B",
"X  c #3B2B1D",
"o  c #3D2E21",
"O  c #3E3022",
"+  c #442D1C",
"@  c #482D1B",
"#  c #46321F",
"$  c #4D321D",
"%  c #54341E",
"&  c #5E361E",
"*  c #60371F",
"=  c #443425",
"-  c #4B3524",
";  c #4E3927",
":  c #453628",
">  c #4C3B2B",
",  c #563923",
"<  c #553D2A",
"1  c #593F2E",
"2  c #623B20",
"3  c #6C3D22",
"4  c #57402D",
"5  c #5E412B",
"6  c #554333",
"7  c #5D4633",
"8  c #5C4C3C",
"9  c #6D4625",
"0  c #60412B",
"q  c #6E482E",
"w  c #724927",
"e  c #7F4825",
"r  c #7D4728",
"t  c #77492F",
"y  c #7E482A",
"u  c #7F522A",
"i  c #664833",
"p  c #624C36",
"a  c #624F3D",
"s  c #734C33",
"d  c #7F4D31",
"f  c #62503F",
"g  c #6D513C",
"h  c #765134",
"j  c #74513A",
"k  c #7B563F",
"l  c #7E5A3D",
"z  c #634F40",
"x  c #635342",
"c  c #6D5E4F",
"v  c #715541",
"b  c #725946",
"n  c #795943",
"m  c #715E4C",
"M  c #7A5E48",
"N  c #74604D",
"B  c #7E634C",
"V  c #746554",
"C  c #7A6652",
"Z  c #766957",
"A  c #7A6B59",
"S  c #7B6B5A",
"D  c #7F7060",
"F  c #8F4B27",
"G  c #824B2C",
"H  c #83542E",
"J  c #8E5C2E",
"K  c #9F5229",
"L  c #915C2E",
"P  c #8E5332",
"I  c #9B5631",
"U  c #925D31",
"Y  c #A0532A",
"T  c #AB592F",
"R  c #B25A2C",
"E  c #BA5C2D",
"W  c #A55E37",
"Q  c #AF5C30",
"!  c #B65E31",
"~  c #9A6131",
"^  c #A16732",
"/  c #AD6D35",
"(  c #B47336",
")  c #BB7638",
"_  c #C5612F",
"`  c #D0642F",
"'  c #C76130",
"]  c #D06631",
"[  c #DC6A32",
"{  c #C97F3C",
"}  c #E97035",
"|  c #F57537",
" . c #895E44",
".. c #91674C",
"X. c #806754",
"o. c #836954",
"O. c #8B6B53",
"+. c #816E59",
"@. c #83705D",
"#. c #8A735C",
"$. c #867562",
"%. c #877866",
"&. c #887967",
"*. c #8C7B67",
"=. c #8E7E6B",
"-. c #937C66",
";. c #937E6A",
":. c #D3843E",
">. c #91816F",
",. c #8B8271",
"<. c #978773",
"1. c #908877",
"2. c #968C7C",
"3. c #9A8D7C",
"4. c #A48F77",
"5. c #A28E7B",
"6. c #A69079",
"7. c #AE987F",
"8. c #E08C41",
"9. c #EC9344",
"0. c #F89B47",
"q. c #9E9584",
"w. c #A49B8A",
"e. c #A99E8D",
"r. c #BEA68B",
"t. c #ADA593",
"y. c #AFA997",
"u. c #AFA998",
"i. c #B2A694",
"p. c #B1A997",
"a. c #B3AD9B",
"s. c #B9AF9D",
"d. c #B6B09E",
"f. c #BAB19F",
"g. c #B7B2A0",
"h. c #BCB3A1",
"j. c #BEB9A6",
"k. c #BFBAA8",
"l. c #CAB296",
"z. c #CDB499",
"x. c #C1B6A3",
"c. c #C3B9A6",
"v. c #C8BBA7",
"b. c #C4BDAA",
"n. c #CABEAA",
"m. c #C6C0AD",
"M. c #CCC1AE",
"N. c #D1C3AF",
"B. c #CEC4B1",
"V. c #CFC8B5",
"C. c #D2C6B2",
"Z. c #D4C9B5",
"A. c #E4CAAB",
"S. c #F0D5B5",
"D. c #FDE1C0",
/* pixels */
"a.g.g.k.k.m.m.k.k.k.g.g.u.u.g.g.g.g.g.g.g.k.k.m.m.k.j.g.d.d.d.d.d.g.g.j.k.m.V.V.m.b.j.j.d.d.j.f.c.m.m.m.C.Z.Z.B.B.n.n.c.c.c.c.c.",
"d.d.g.g.k.k.m.m.k.k.k.g.g.g.u.u.a.g.g.g.g.g.k.m.m.k.j.j.g.d.a.a.a.g.g.g.j.j.m.V.B.m.b.j.d.j.d.f.d.f.h.l.b.B.Z.V.B.B.b.b.b.c.c.c.",
"g.g.d.g.g.k.k.m.m.k.k.k.g.g.a.u.a.a.a.g.g.g.g.g.m.m.k.k.j.d.a.d.d.a.d.d.d.j.k.m.V.B.m.m.b.j.d.d.h.h.h.h.c.c.n.N.V.V.C.n.n.c.c.x.",
"u.u.u.g.g.g.k.k.m.m.k.k.k.g.g.u.u.u.a.a.g.g.g.g.j.k.m.k.j.g.g.d.u.d.a.d.d.g.g.k.m.m.B.M.m.f.j.d.d.h.d.d.h.h.x.b.B.V.V.C.n.c.c.c.",
"a.a.g.g.a.g.g.g.k.m.m.k.k.g.g.g.u.u.g.g.a.g.g.g.d.g.j.m.k.k.j.d.a.a.y.d.d.d.d.d.j.b.m.m.m.m.j.j.h.d.d.d.h.h.h.c.b.n.Z.Z.Z.n.n.b.",
"u.u.u.u.g.u.g.g.k.k.m.k.k.k.k.g.g.u.u.u.u.u.u.u.a.d.g.j.m.m.j.j.g.d.a.d.a.d.d.a.d.d.b.m.m.m.j.j.h.h.d.d.g.g.h.h.k.c.n.n.Z.V.n.n.",
"g.a.u.g.u.g.u.g.g.g.k.m.k.k.k.g.g.g.g.a.u.a.a.g.d.a.d.g.j.k.m.j.j.d.d.y.d.y.y.d.d.d.j.j.m.B.m.m.k.h.d.d.d.d.g.g.g.h.x.b.n.Z.Z.V.",
"a.a.u.u.a.a.g.u.g.g.g.k.m.k.k.k.g.g.u.u.a.u.u.a.a.a.a.a.d.j.k.k.j.j.d.a.a.d.y.y.d.p.d.d.j.m.m.m.b.k.h.h.d.f.g.d.g.s.g.k.c.n.V.Z.",
"g.u.g.u.u.a.u.g.a.g.g.g.k.m.m.k.j.f.d.d.a.a.u.g.u.a.a.a.a.d.h.m.k.j.j.g.d.y.y.a.y.y.d.d.g.j.j.m.m.b.c.j.h.d.g.d.s.s.g.h.x.c.c.V.",
"g.g.u.u.a.u.u.u.a.a.a.g.g.k.k.m.j.j.d.d.a.a.u.a.a.a.a.y.y.a.d.h.k.m.j.g.g.y.d.a.a.a.a.y.u.d.j.j.m.b.b.k.g.h.d.g.a.s.s.g.h.h.c.v.",
"g.u.u.u.u.g.a.g.a.a.a.a.d.j.k.k.m.j.j.d.d.a.u.u.u.u.a.a.a.a.a.d.j.j.m.j.g.g.d.a.y.a.a.a.d.d.g.g.b.n.B.b.k.h.g.g.s.g.a.a.s.h.h.h.",
"g.g.g.u.u.u.u.a.a.a.a.a.d.d.d.j.m.m.k.f.g.d.a.u.a.u.y.y.a.a.a.y.d.j.k.k.j.j.d.y.u.a.y.y.y.d.y.d.g.k.b.b.b.k.h.g.s.g.a.a.a.s.s.f.",
"k.g.g.g.u.a.a.a.u.a.a.d.d.d.d.d.j.m.m.j.j.j.d.a.u.u.y.u.u.u.d.d.y.d.g.k.m.j.j.d.d.u.u.u.u.d.u.d.d.d.g.n.b.b.k.h.g.s.a.a.g.a.s.s.",
"k.g.g.g.g.u.u.u.a.a.a.y.a.d.d.d.f.j.m.j.j.j.d.a.a.a.u.u.a.u.y.u.a.y.a.g.j.j.j.g.g.u.y.y.u.y.u.u.a.a.g.g.b.b.b.k.k.g.s.g.a.a.a.a.",
"m.k.k.g.d.a.u.u.a.a.p.d.a.d.d.d.d.f.j.m.k.k.j.d.d.u.u.u.y.u.u.y.y.y.d.d.g.j.b.j.j.g.d.y.u.u.u.u.u.a.a.d.g.b.b.b.k.h.g.a.g.a.a.s.",
"m.k.k.g.g.g.g.u.a.a.a.a.y.d.d.d.d.d.f.j.k.k.k.j.g.d.a.y.d.u.a.a.a.y.y.d.d.g.j.m.k.j.g.d.d.u.u.u.u.a.u.a.d.g.k.b.b.b.k.s.g.a.a.a.",
"V.b.b.k.g.g.g.a.a.a.a.a.u.a.g.u.g.g.s.s.h.b.b.k.j.d.d.p.y.y.p.u.y.y.y.d.y.d.h.j.b.k.j.d.d.y.p.p.u.u.u.u.y.a.d.f.m.m.j.f.d.d.d.a.",
"B.V.m.b.k.k.s.s.a.a.a.a.s.a.u.s.a.g.s.a.h.c.b.c.k.j.d.d.d.u.y.y.y.y.y.y.p.p.d.d.j.b.b.j.d.d.d.a.u.u.u.a.a.a.a.d.f.j.m.m.j.d.d.a.",
"B.V.n.n.b.k.h.g.g.a.a.a.s.s.g.g.g.s.s.s.s.h.k.S 0 w.j.d.d.d.y.y.y.y.y.y.y.y.y.d.g.j.j.j.j.d.d.p.y.y.u.u.y.y.y.a.d.d.j.m.m.j.d.d.",
"b.V.B.n.n.b.c.g.g.s.a.s.s.u.s.u.z k %.s.s.h.C T [ N j.h.d.d.y.y.y.a.p.y.y.p.y.d.d.d.j.j.j.j.d.d.a.a.u.u.a.y.y.y.a.d.d.j.k.k.j.d.",
"n.n.Z.n.n.n.b.k.h.s.s.g.s.a.s.2.! | W ;.s.e.3 [ [ g b.c.h.f.a.a.a.y.y.y.y.y.a.y.y.a.d.j.m.j.d.d.a.a.u.u.y.u.u.a.y.a.a.d.j.j.j.j.",
"c.n.n.V.V.B.n.c.c.h.s.s.s.s.a.@.' | | v u.b ] [ [ j b.b.c.j.g.a.d.y.d.y.y.y.y.y.y.a.y.a.d.m.m.d.h.d.d.y.y.y.y.y.y.y.a.a.d.j.j.m.",
"k.c.n.V.V.n.n.n.k.c.k.g.s.u.s.c ] | | ] &.3 [ [ [ b b.m.b.j.j.g.d.p.y.p.y.y.y.y.y.d.y.d.d.d.j.m.j.h.d.a.a.y.y.y.y.a.y.p.p.d.d.b.",
"k.x.b.n.V.V.V.B.n.k.h.g.g.s.s.,.' | | | 7 ' [ [ E *.h.m.m.b.k.j.g.d.d.d.y.y.y.y.y.y.y.y.p.t.2.f.b.k.h.d.a.a.y.y.y.y.p.p.p.p.d.d.",
"h.x.x.b.n.Z.Z.n.n.n.b.x.h.h.g.2.T | | | - [ [ [ 3 e.s.x.b.B.n.k.j.g.d.p.p.p.y.y.t.q.V Z D >.#.,.>.Z A <.d.y.a.y.y.y.y.y.y.a.a.a.",
"h.h.x.x.n.n.Z.V.V.n.b.c.x.h.h.g.3 | | | @ [ [ [ n x.h.s.j.n.m.b.j.j.d.d.d.p.y.7.V >.S.D.D.D.D.D.D.D.D.r.A ,.d.p.y.y.y.a.y.y.y.y.",
"h.h.h.x.x.n.n.Z.Z.n.n.n.x.x.h.h.M | | | * [ [ G q.h.h.h.h.c.b.n.m.m.j.h.d.a.w.Z S.D.D.D.D.D.D.D.D.D.D.D.D.l.N a.a.y.y.y.y.y.y.y.",
"h.h.x.h.x.n.n.C.Z.V.V.n.n.c.c.h.$.' | | @ [ ` c s.s.h.s.h.h.c.b.m.m.b.j.g.d.: S.D.D.D.D.D.D.D.D.D.D.D.D.D.D.S.,.d.y.y.y.y.y.y.y.",
"h.h.h.x.h.x.x.n.Z.Z.Z.n.n.n.c.h.i.G | | * [ 3 u.s.s.h.h.h.h.x.x.v.m.m.m.j.d.4 6 D.D.D.D.D.D.D.D.D.D.D.D.D.D.D.D.>.d.d.y.y.y.y.y.",
"s.s.h.k.s.x.x.c.C.Z.Z.Z.C.B.n.c.w.: ' | @ K =.s.s.s.s.g.s.s.h.f.j.v.m.m.m.j.g.. 4 O 6 p p p p p 4 p V l.D.D.D.D.A.Z d.d.a.y.t.y.",
"s.s.g.h.x.x.x.x.n.n.V.Z.C.n.n.n.v [ @ [ @ 1 s.a.s.s.s.s.h.f.f.x.l.j.v.M.m.b.j.l 0.0.0.0.0.0.0.0.0.J 9 9 # N D.D.D.A d.d.d.y.y.y.",
"g.h.g.h.x.h.x.x.x.n.n.Z.Z.C.B.3.E | $   X G s.s.s.a.s.s.s.s.f.f.f.j.j.m.m.m.m.. 4 :.0.0.0.0.0.0.0.% | | | / O 7.Z 7.j.j.d.a.y.y.",
"s.h.g.s.s.c.x.c.x.v.n.n.Z.C.n.X.| | 2 J 8.U t.s.s.s.a.a.f.f.f.s.f.f.x.j.v.M.f.w ; . = H :.0.0.0.0.# | | | | [ 5 e.k.m.j.f.d.d.a.",
"h.g.h.s.s.f.f.x.x.v.v.v.Z.Z.Z.b | | 2 0.0.) 2.s.s.s.g.f.s.s.f.h.f.f.f.j.j.v.7.:.9.:.4 = 4 5 / 0.:.3 | | | | | b d.d.f.m.j.f.d.d.",
"h.s.h.s.s.h.f.j.x.x.x.v.n.Z.Z.i | | $ 0.8.- Z g.a.s.s.s.s.s.s.s.f.d.f.l.h.j.#.:.0.0.0.:.4 8 N 4 # R | | | | _ ,.p.p.d.f.m.j.f.d.",
"h.g.g.s.s.h.s.h.x.x.x.v.n.n.C.C | | 3 , o - < h.s.s.s.s.s.s.a.s.d.f.f.f.f.h.B 0.0.0.0.0.0.:.4 f = 6 4 K | | G e.p.d.d.a.d.j.m.j.",
"x.s.s.h.h.h.s.h.s.x.x.x.x.v.n.O.| d = X s 0.- x.s.s.s.s.s.a.s.s.f.f.f.f.h.h.u 0.0.0.0.0.0.0.0.9 O f A.+.; q p a.p.d.d.p.d.d.b.b.",
"x.s.s.s.d.f.h.s.s.x.s.x.x.x.v.M > N > + 0.0.~ w.h.s.s.s.s.p.s.s.f.f.f.f.d.r.J 0.0.0.0.0.0.0.0.$ | _ , f A.>.> a.p.p.p.p.p.d.d.f.",
"x.x.h.s.s.f.f.s.s.x.x.x.x.x.x.m : 0 | % 8.8.- z x.s.s.s.s.s.a.s.p.d.f.f.d.Z 4 0.0.0.0.0.0.0.H K | | | _ , . 3.y.p.p.p.d.p.d.d.d.",
"x.h.x.s.f.h.f.f.s.s.s.x.x.x.x.<.y | | R w > < w i.x.h.s.s.s.s.s.a.f.d.d.p.5 : ; 8.0.0.0.0.8.$ | | | | | } g d.a.p.a.d.p.p.p.p.d.",
"c.c.x.g.s.g.h.g.f.h.j.c.f.c.x.x.s | | [ . 8 ~ 9.s c.x.s.s.s.s.s.f.p.f.f.B 8.( 4 > ( 0.0.0.$ [ | | | | | I e.d.d.a.p.p.p.p.p.p.d.",
"b.c.x.h.h.h.h.s.f.h.f.f.f.x.x.x.n | [ , x - 0.0.:.M c.x.h.x.s.s.p.f.p.>.^ 0.0.( 6 f H 0.w F | | | | | } j f.f.d.p.d.p.p.p.d.p.p.",
"n.b.c.x.s.s.s.h.h.f.h.s.f.s.x.x.-.E - 6.< 2 ( 0.0./ @.c.x.x.s.s.d.a.4.J 0.0.0.0.( o Z # e | | | | | | P p.b.f.f.d.d.p.p.d.p.p.d.",
"n.n.c.c.x.h.s.s.f.h.f.s.f.h.x.x.i.  4.- | | $ 8.0.0.X a s.x.x.x.f.l L 0.0.0.0.0.0.:.o : ; [ | | | | [ o.M.b.b.f.f.d.d.f.p.d.p.d.",
"N.n.c.c.x.h.h.s.h.f.f.f.h.f.s.x.h.> = [ | | [ # 8.( 1 P G n  . .- ; 0.0.0.0.0.0.0.2 9 ; z.4 R | | | h b.N.M.m.c.j.h.d.d.d.p.d.f.",
"Z.C.n.n.c.x.x.g.s.h.f.s.h.f.f.x.h.x r | | | | ' $ 1 > { 0.0.0.0.J 4 ~ 0.0.0.0.:.$ Q | [ % Z.f e | P r.b.M.M.M.v.k.z.f.d.f.p.f.p.",
"C.N.n.n.c.c.x.h.f.s.s.s.s.s.s.x.h.x.j | | | | | [ o o 0.0.0.0.0.0.6 4 0.0.:.% 0 [ | | | [ ; z.+.- 6.h.x.b.M.B.M.m.b.l.d.f.p.f.p.",
"n.C.N.n.c.c.x.h.f.f.s.s.s.s.x.f.f.s.w.I | | | | | 1 : & , P { 0.0.4 > 9 , * [ | | | | | | [ X +.c h.l.f.j.z.M.B.M.m.m.c.f.f.f.f.",
"n.Z.n.n.n.n.v.x.x.s.s.s.h.s.h.s.s.s.x.;.' | | | [ z 1 | | Y * * * - : - | | | | | | | | | | ] z f.f.f.f.x.x.x.n.N.N.m.n.c.h.f.s.",
"n.n.Z.Z.N.n.n.x.x.x.h.s.s.s.s.h.x.x.x.x.O.} | | K 5.1 | | | | | | | 1 7 [ | | | | | | | | ` ;.s.g.s.s.f.s.x.x.x.n.N.m.n.n.c.h.f.",
"z.n.n.Z.n.n.v.v.x.x.s.s.h.s.s.s.s.s.s.x.x...| | 1 z.1 | | | | | | | 1 5.i | | | | | | | ! ;.s.s.s.s.f.f.x.s.s.l.x.m.C.M.m.n.c.h.",
"x.n.n.n.N.n.n.v.v.x.x.s.h.s.s.s.s.s.s.s.s.x...} % 5.F | | | | | | | ' c 1 [ | | | | | P 5.x.x.s.s.s.s.s.s.s.s.x.l.c.n.C.N.n.v.c.",
"x.x.v.n.N.N.N.n.c.h.x.s.s.s.s.s.s.s.s.s.s.x.x.O.1 ;.Y | | | | | | | | > z.3 | | | ! j i.x.s.s.s.s.s.s.s.s.s.s.x.s.x.c.n.C.C.m.n.",
"x.x.x.n.N.Z.Z.n.n.n.x.h.h.h.s.x.s.s.s.s.s.s.x.x.;.o ' | | | | | | | | d e.> | T j 5.n.c.x.x.s.s.l.f.s.s.x.s.s.s.s.s.x.j.n.M.N.M.",
"s.x.x.v.n.Z.N.n.n.n.x.x.s.h.x.s.s.s.s.s.s.x.s.x.x.e.X.t T [ | | | | | ` > z 1 q.n.Z.C.n.n.x.x.h.g.h.s.s.s.s.s.x.x.s.h.l.x.v.N.M.",
"x.x.x.x.n.N.A.n.n.n.n.x.x.s.x.x.s.s.s.s.s.s.x.s.s.x.x.x.e.X.v j  . .v X.1.s.x.x.n.n.B.C.n.n.c.x.h.f.s.s.s.s.s.s.l.s.g.g.l.c.M.C.",
"x.s.x.x.x.n.N.N.N.n.n.x.x.x.s.s.x.s.s.s.s.s.s.s.s.x.s.v.v.v.n.n.n.n.n.n.n.x.x.s.s.v.n.C.C.N.n.c.x.s.h.s.s.s.s.s.g.g.s.s.f.s.x.n.",
"s.x.x.x.x.n.N.N.C.n.n.n.x.x.s.x.s.s.s.s.s.s.s.s.s.s.x.x.x.v.n.n.n.n.C.n.n.x.x.x.h.x.x.n.N.C.M.n.c.x.x.x.h.s.s.s.f.f.h.h.f.x.x.x.",
"x.x.s.x.x.x.n.N.Z.N.N.n.n.x.x.x.s.s.s.s.s.s.s.s.s.x.x.x.x.x.v.v.n.n.n.n.n.x.x.s.h.h.x.x.n.C.C.N.n.n.x.s.h.s.s.a.s.f.d.s.s.s.s.x.",
"s.x.x.x.x.x.x.n.Z.Z.N.N.n.n.x.s.h.h.s.h.h.s.s.s.s.s.s.s.l.x.x.v.n.n.n.n.n.n.x.x.x.x.x.x.x.n.N.C.n.n.b.x.s.x.h.s.s.f.h.s.s.x.s.x.",
"x.s.x.x.x.s.x.x.n.N.Z.C.n.n.n.x.s.h.s.h.s.s.s.s.s.s.s.s.s.x.x.v.n.n.n.n.n.n.x.x.x.s.h.s.x.x.n.n.Z.n.n.n.x.h.s.s.s.s.s.s.s.s.s.x.",
"x.s.s.x.s.x.v.x.v.N.C.C.C.n.n.x.x.x.h.s.s.s.s.s.s.s.s.s.s.x.x.x.x.n.n.N.n.n.v.v.x.h.s.x.s.x.n.n.n.Z.C.n.b.c.x.h.f.s.f.s.x.s.s.s.",
"h.h.x.s.s.x.x.x.x.v.n.C.C.C.n.n.c.x.s.x.s.s.s.s.s.s.s.s.x.x.s.x.x.v.n.n.N.M.n.v.x.x.h.x.s.x.x.x.n.n.Z.n.n.n.c.h.h.f.s.s.s.s.s.s.",
"s.s.h.s.x.s.s.x.x.x.n.N.Z.C.B.B.v.v.x.s.s.x.s.s.s.s.s.s.s.s.s.x.s.x.v.n.n.M.n.n.x.x.x.s.x.s.s.x.x.n.Z.Z.Z.n.c.c.f.h.s.s.s.s.s.s."
};
