/* XPM */
static char *result[] = {
/* columns rows colors chars-per-pixel */
"64 64 166 2 ",
"   c #36271A",
".  c #3A2A1C",
"X  c #3E2E21",
"o  c #3F3023",
"O  c #452E1C",
"+  c #4B2E1C",
"@  c #4E321D",
"#  c #55331E",
"$  c #58351F",
"%  c #412F21",
"&  c #443223",
"*  c #4A3625",
"=  c #4E3927",
"-  c #463628",
";  c #483728",
":  c #463829",
">  c #4C3B2A",
",  c #573720",
"<  c #5C3C22",
"1  c #563D2A",
"2  c #5F3E2B",
"3  c #4F3F31",
"4  c #623B22",
"5  c #683B22",
"6  c #703F23",
"7  c #56412F",
"8  c #5F412E",
"9  c #554434",
"0  c #5E4634",
"q  c #574738",
"w  c #5B4B3B",
"e  c #624124",
"r  c #6D4426",
"t  c #62432D",
"y  c #6C452D",
"u  c #7F4425",
"i  c #714827",
"p  c #774428",
"a  c #754D2E",
"s  c #7B4A2B",
"d  c #7B512B",
"f  c #644834",
"g  c #6A4A34",
"h  c #614B38",
"j  c #6D4E38",
"k  c #724D34",
"l  c #7E4E32",
"z  c #61503F",
"x  c #6F533F",
"c  c #7D5136",
"v  c #75533A",
"b  c #7B523A",
"n  c #7B583D",
"m  c #635241",
"M  c #695948",
"N  c #6C5D4C",
"B  c #715946",
"V  c #725D4B",
"C  c #7A5D48",
"Z  c #78624E",
"A  c #7D6651",
"S  c #776A5B",
"D  c #7B6C5B",
"F  c #804525",
"G  c #8F4B27",
"H  c #8E4E2C",
"J  c #924C28",
"K  c #81542E",
"L  c #925C2E",
"P  c #824F31",
"I  c #815631",
"U  c #8D5232",
"Y  c #9E5732",
"T  c #915E31",
"R  c #9A5835",
"E  c #A15229",
"W  c #A9562A",
"Q  c #AC5A2F",
"!  c #B25A2C",
"~  c #BA5C2D",
"^  c #A75D35",
"/  c #A95C33",
"(  c #B65E31",
")  c #A26833",
"_  c #AE6E35",
"`  c #B47336",
"'  c #B4753B",
"]  c #BB7638",
"[  c #BF7839",
"{  c #C5612F",
"}  c #D0642F",
"|  c #C66231",
" . c #CD6935",
".. c #D06631",
"X. c #DC6A32",
"o. c #C77E3C",
"O. c #C97F3C",
"+. c #E97035",
"@. c #F57537",
"#. c #845C42",
"$. c #83654C",
"%. c #876C56",
"&. c #8C6851",
"*. c #816E5A",
"=. c #84725E",
"-. c #8B745E",
";. c #8C7562",
":. c #867867",
">. c #8A7D6C",
",. c #927C66",
"<. c #917E69",
"1. c #9A7F68",
"2. c #D4853E",
"3. c #93806B",
"4. c #8F8372",
"5. c #8F8877",
"6. c #938674",
"7. c #978876",
"8. c #9A8977",
"9. c #948B7B",
"0. c #9B8E7C",
"q. c #98917F",
"w. c #A38D76",
"e. c #A69179",
"r. c #AE977F",
"t. c #DF8C41",
"y. c #E08C41",
"u. c #EC9344",
"i. c #F89B47",
"p. c #9C9483",
"a. c #A19584",
"s. c #A79A86",
"d. c #A39B8A",
"f. c #B8A186",
"g. c #BEA68B",
"h. c #ACA492",
"j. c #AFA997",
"k. c #AFA999",
"l. c #B1A593",
"z. c #B1AA97",
"x. c #B3AD9B",
"c. c #B9AF9D",
"v. c #B6B09E",
"b. c #BAB19F",
"n. c #B7B2A0",
"m. c #BCB3A1",
"M. c #BEB9A6",
"N. c #BFBAA8",
"B. c #CAB296",
"V. c #CDB499",
"C. c #C1B6A3",
"Z. c #C3B9A6",
"A. c #C8BBA7",
"S. c #C4BCAA",
"D. c #CABEAB",
"F. c #D9BFA1",
"G. c #C6C0AD",
"H. c #CBC1AE",
"J. c #D1C3AF",
"K. c #CEC4B1",
"L. c #CFC8B5",
"P. c #D2C5B2",
"I. c #D4C9B5",
"U. c #E4CAAB",
"Y. c #F0D5B5",
"T. c #FDE1C0",
/* pixels */
"x.n.n.N.G.G.G.N.N.n.n.n.k.k.n.k.n.n.n.n.n.N.N.G.G.M.n.n.v.v.v.v.v.v.n.M.N.G.L.L.G.M.M.b.b.b.b.M.M.M.G.G.K.I.I.L.D.D.S.S.S.Z.C.Z.",
"v.v.n.n.N.N.G.G.G.N.N.N.n.n.n.k.k.n.n.n.n.n.N.G.G.G.N.M.n.v.k.v.v.v.n.n.M.N.G.L.K.G.G.M.b.M.v.M.v.b.b.Z.A.K.I.I.L.K.S.S.S.Z.C.Z.",
"n.n.v.n.n.N.N.N.G.N.N.n.n.n.k.x.k.n.k.n.n.n.n.n.G.G.N.N.M.v.v.v.x.v.v.v.n.n.N.G.L.K.G.G.M.b.M.v.b.b.b.M.C.Z.D.K.I.I.D.D.D.S.Z.C.",
"k.k.k.n.n.n.N.N.G.G.N.N.n.n.n.x.k.k.n.n.n.n.n.n.n.S.G.N.M.n.v.v.k.x.x.n.v.v.n.N.G.H.K.G.G.M.v.b.n.b.b.b.m.M.C.A.K.L.I.L.D.D.Z.Z.",
"x.x.n.n.k.n.n.n.N.G.G.N.N.N.n.x.k.n.k.k.x.x.n.x.n.v.N.G.N.N.M.v.v.k.x.x.v.v.v.v.M.S.G.H.G.G.M.M.m.b.v.b.m.m.M.C.S.D.L.I.D.D.D.D.",
"k.k.k.x.k.n.n.n.n.N.G.N.N.N.N.n.n.k.k.n.k.n.k.x.v.n.n.M.G.G.M.n.n.v.x.x.v.v.z.v.v.m.S.G.G.G.M.M.M.n.v.v.n.n.m.m.m.S.D.D.I.L.L.D.",
"n.k.k.n.x.k.n.n.n.N.N.N.G.N.N.n.n.k.n.k.x.k.x.n.v.v.x.n.M.N.S.M.n.n.x.x.x.x.z.v.v.v.M.M.G.K.G.G.M.b.v.v.v.v.n.n.m.m.N.Z.D.I.I.L.",
"k.n.k.k.k.n.k.n.n.n.n.N.G.G.N.n.n.n.n.k.k.k.k.x.x.x.x.x.v.M.S.G.N.M.n.v.x.z.x.x.x.x.x.n.M.G.G.G.G.M.m.m.v.b.n.x.c.m.m.N.S.D.D.I.",
"n.k.k.k.k.k.k.x.n.v.n.n.N.G.G.N.M.m.v.v.x.k.x.x.v.k.v.z.v.v.m.G.G.N.M.n.z.z.v.x.x.j.v.v.v.M.M.G.G.S.N.M.m.v.v.v.c.c.n.m.m.C.D.L.",
"n.k.n.k.x.x.k.x.k.x.x.v.n.N.N.G.N.m.n.v.v.k.k.k.k.v.k.k.k.z.v.b.N.N.M.M.v.v.x.x.j.x.j.j.v.v.M.M.G.D.S.N.n.v.c.v.c.x.c.n.m.m.C.S.",
"n.k.k.k.x.x.x.x.x.x.x.v.v.v.M.G.G.M.M.n.v.x.k.k.k.k.z.v.z.x.v.v.M.N.G.M.n.n.z.z.k.x.v.k.x.x.v.n.N.G.G.S.N.m.n.v.n.n.x.c.c.n.m.C.",
"n.n.n.k.n.k.k.x.x.x.x.x.v.v.v.M.G.G.M.m.n.v.v.k.k.k.k.k.v.z.z.k.v.n.N.N.M.M.n.v.x.x.k.k.x.k.x.v.n.N.D.D.S.N.M.n.x.c.x.x.x.c.c.m.",
"N.n.n.n.v.k.x.x.x.k.v.v.v.v.v.v.M.G.Z.M.M.n.v.k.k.k.k.k.z.x.x.v.x.v.n.S.S.M.n.v.v.j.k.k.k.k.k.v.x.n.M.Z.D.N.N.M.n.c.n.x.x.x.c.c.",
"N.N.n.n.x.x.k.k.v.x.k.k.v.v.v.v.b.M.G.Z.N.M.v.v.v.k.k.k.z.k.k.k.x.j.z.M.M.S.M.M.n.x.k.k.x.k.k.k.x.x.n.n.N.D.S.N.N.n.x.c.c.x.x.x.",
"S.N.N.n.v.x.k.k.k.k.k.v.z.v.v.v.v.m.M.G.N.n.M 9 : j Z k w q z 9.h.z.z.v.n.M.M.M.M.n.x.j.k.k.k.k.x.x.x.x.n.Z.S.S.N.N.n.c.n.x.x.x.",
"G.N.N.n.n.n.v.k.x.v.k.v.k.v.v.v.v.v.b.-.j L E 7 ,.G @.@.@.1 M J K v B q.v.n.M.G.M.M.n.v.v.k.k.k.k.x.x.x.x.m.N.S.S.N.N.n.x.x.n.x.",
"L.G.S.N.n.n.c.x.c.x.k.k.x.k.c.c.c.1.Y +.@.@.@.H *.= @.@.@.u N s @.@.+.) x p.m.Z.S.N.M.n.x.x.x.j.k.k.k.k.z.v.v.M.N.G.M.b.v.v.v.x.",
"L.G.D.S.N.N.c.c.x.x.x.c.x.c.c.c./ @.@.@.@.@.@.@.t 3.8 @.@.X.9 = @.@.@.@.@.l d.b.N.S.S.M.v.x.x.k.k.k.j.x.z.z.z.v.b.N.G.G.M.v.v.x.",
"L.L.D.S.S.N.n.n.c.x.x.x.x.c.B +.@.@.@.@.@.@.@.@.X.X . # e .     $ $ $ F { W 9 B f #.#.v A q.h.x.j.j.j.k.k.z.z.x.v.v.M.G.G.M.v.v.",
"S.L.D.L.D.S.Z.m.c.c.x.c.d.S 3 2 X.@.@.@.@.@.X.4 $ e q 7 i.i.L O y.i.i.$   5 ~ @.@.@.@.@.+.! P A x.x.k.k.k.k.z.j.v.v.v.M.M.M.M.v.",
"D.D.I.D.D.D.S.N.m.n.c.d.2 ; *.V.9 4 X.@.@.5 $ o.i.i.t : ` i.i.X L i.2.  u @.@.@.@.@.@.@.@.@.@.} D x.k.k.k.k.k.k.z.z.v.v.M.M.M.M.",
"S.D.D.I.L.L.D.Z.C.m.m.m +.@.E 1 m e.> y + ` i.i.i.i.u.& & i .   * [ O.r # + u X.@.@.@.@.@.@.@.) 6.v.v.z.k.k.k.k.x.z.z.z.v.M.M.G.",
"N.C.D.L.L.D.D.D.S.C.S ..@.@.@.@.| 2 > X > P i.i._ a $.q.G.M.M.b.h.9.7.:.0 { E + # r W | { ) v 7.C.m.v.v.k.k.k.k.z.z.z.z.z.v.v.S.",
"N.C.S.D.L.L.L.D.D.m.P @.@.@.@.@.@.X.O s > 9 % g 9.v.V.Z.G.G.Z.b.m.v.x.x.h.y } X.X.! p w 9.q.v.M.Z.M.m.v.z.x.z.z.z.j.z.z.z.z.v.v.",
"m.C.C.S.D.I.I.I.D.;.X.@.@.@.@.@.@.4 O.i.i.< w b.n.c.m.m.G.G.G.Z.m.n.v.v.k.d.y X.X.X.X.! 8 h.z.v.M.S.M.M.v.x.x.z.j.j.j.j.j.k.x.x.",
"m.m.C.C.D.D.I.D.D.B @.@.@.@.@.@.| e i.i.T e.v.b.m.m.m.m.C.G.G.G.Z.M.v.v.z.z.q.k } X.X.X.} i h.v.v.M.M.M.m.v.v.z.j.j.j.j.j.j.j.x.",
"m.m.m.C.Z.D.D.I.D.U @.@.@.@.@.@., y.i.u.n b.c.v.b.b.m.b.C.Z.S.G.G.G.M.m.v.z.z.q.g { X.X.X.} f v.z.v.M.S.M.M.v.v.x.j.j.j.j.j.j.j.",
"m.m.C.m.C.A.D.I.a.| @.@.@.@.@.@., i.i.] 9.b.n.b.b.b.m.b.b.m.C.S.G.G.Z.Z.b.v.v.x.h.x K X.X.X.Q D z.v.v.M.M.M.M.M.v.x.j.j.j.j.j.j.",
"c.m.m.C.C.C.C.D.&.+.@.@.@.@.@.E d i.i._ 9.x.c.c.c.x.b.b.b.m.C.C.G.G.G.G.M.b.v.v.v.z.5.v n d i 4.z.z.v.v.m.M.M.M.M.v.v.j.j.j.j.j.",
"c.c.m.N.C.c.C.C.B E E F 2 5 1 . 9 h - o :.c.c.x.b.b.b.b.b.b.b.C.C.A.G.G.G.M.b.b.v.z.z.z.z.q.q.z.z.z.g.v.v.m.M.M.M.v.v.v.x.j.j.j.",
"n.c.n.m.C.C.C.C.3 ,.a.a.f.a.C . 9 1 t K v x.x.c.x.c.c.m.b.b.b.m.V.M.A.G.G.G.Z.M.M.v.v.j.z.x.z.z.z.z.z.v.x.v.n.M.M.M.M.v.v.j.h.j.",
"m.m.n.m.m.m.C.C.3 q 1 * 2 J ! 5 i.i.i.i.K b.c.c.x.c.x.c.b.b.b.b.b.b.Z.A.H.G.G.S.M.n.v.v.j.x.z.z.z.z.z.z.x.z.v.v.M.M.N.n.v.v.j.j.",
"c.n.n.n.b.m.C.C.$.@.@.@.@.@.@.4 i.i.i.i.o.A c.x.x.c.c.x.c.b.b.n.b.b.m.Z.G.G.H.G.A.Z.M.v.v.x.z.z.z.k.z.x.z.x.x.x.b.M.G.b.b.v.v.z.",
"m.m.b.c.n.m.C.C.A X.@.@.@.@.@.F ` i.i.i.i.L a.c.c.x.b.c.c.b.b.b.b.b.b.M.C.G.H.H.G.G.C.m.b.v.x.z.v.z.z.z.x.z.z.z.x.v.b.G.G.b.v.v.",
"c.m.b.c.c.b.C.m.6.| @.@.@.@.@.! r i.i.i.i.i.8 p.c.c.c.b.c.c.b.b.b.b.b.B.M.M.G.H.K.G.G.A.M.b.v.x.x.z.x.z.z.z.z.x.x.x.c.b.S.G.M.v.",
"m.m.m.b.b.b.b.m.c.U @.@.@.@.@.@.$ i.i.i.i.i.2.O 6.c.b.x.c.c.c.x.b.b.b.b.b.m.V.A.H.K.G.G.C.M.b.v.v.z.k.v.x.z.z.z.z.x.x.v.b.M.M.M.",
"m.c.c.m.m.n.c.m.b.b @.@.@.@.@.@.$ i.i.i.i.K ; & a A x.c.x.c.c.c.b.b.b.b.b.B.m.Z.A.G.H.H.S.A.Z.m.b.v.x.x.x.z.z.z.z.v.z.v.v.b.M.M.",
"C.m.c.c.m.n.n.c.m.V +.@.@.@.@.@.J L i.` > m = y.i.2.a %.l.x.c.b.b.c.b.b.b.b.b.C.C.Z.G.H.K.G.S.C.b.b.v.x.x.x.x.z.z.z.z.z.z.v.v.M.",
"C.C.m.c.c.c.b.b.b.c./ @.@.@.@.@.@.@ t w m I i.i.i.i.i.y.K n p.x.x.b.b.x.b.b.b.B.M.Z.A.G.K.L.K.D.Z.b.b.v.v.z.z.z.z.z.v.z.v.g.z.b.",
"C.C.m.c.b.b.b.b.b.b.C @.@.@.@.@.d   M 7 ` i.i.i.i.i.i.i.i.d . n 3   & j.v.v.n.m.m.B.C.C.A.H.P.G.G.Z.M.b.b.v.x.x.z.v.z.v.z.z.z.v.",
"C.C.C.m.c.m.c.m.m.m.m.| @.@.! > w.Z . i.i.i.i.i.i.i.i.i.R   ` o.X T.F.N c.c.c.b.b.B.n.C.C.A.D.K.H.G.A.C.b.b.b.x.z.v.z.z.x.z.z.x.",
"S.S.C.m.n.m.n.c.c.m.m.&.X.2 m U.> R E i i.i.i.i.i.i.i.' . c i.t U.T.T.>.l.c.c.c.b.b.b.b.b.M.A.G.P.H.G.G.Z.b.v.b.z.z.z.z.x.x.v.g.",
"D.S.C.C.m.c.c.m.b.m.m.b.X C.w.% X.@.@.# ` i.i.i.i.i.` ; 1 i.i.= T.T.T.g.9.c.c.c.c.c.B.n.C.B.C.C.G.J.K.G.G.C.M.b.v.v.x.z.x.x.v.z.",
"D.D.S.C.C.m.c.c.m.c.m.b.N w p @.@.@.@.@.@ O.i.i.i.y.% > t.i.i.9 T.T.T.B.>.c.c.c.c.c.b.m.m.n.B.C.C.G.P.H.G.A.A.b.b.v.x.v.x.x.x.x.",
"P.D.D.C.C.C.c.c.b.b.b.b.c.2 @.@.@.@.@.@.X.@ y.i.y.3 w ' i.i.' *.T.T.T.U.D c.b.c.c.c.c.b.B.n.m.C.V.A.G.H.P.H.G.C.b.b.v.v.x.g.v.v.",
"P.P.D.D.C.C.C.n.b.m.b.c.c.l.R @.@.@.@.@.@.X.O ) > =.P i.i.i.6 V.T.T.T.B.D c.c.c.c.c.c.c.m.n.n.B.b.b.V.A.H.K.H.A.G.Z.b.b.x.b.v.v.",
"J.J.D.D.Z.Z.m.m.m.c.c.c.c.b.,.Q @.@.@.@.@.@.X.. M 1 i.i.i.i.3 T.T.T.T.B.q.b.c.c.c.c.c.c.c.c.b.c.b.V.m.M.A.G.J.H.G.A.b.b.b.c.x.x.",
"P.J.J.D.S.Z.C.C.c.b.c.c.b.c.m.V  .@.@.@.@.@.1 f.X 2 i.i.i.y.q T.T.T.T.<.l.m.m.c.b.c.c.c.c.c.c.c.b.b.b.b.M.V.H.H.H.G.G.V.b.v.v.v.",
"D.P.P.D.D.D.A.C.C.c.c.c.c.c.c.c.V } @.@.@.1 8.m ~ E + ^ i.6 A.T.T.T.T.*.D.C.C.c.m.c.c.m.c.c.c.c.v.b.b.b.C.C.C.D.P.D.D.S.Z.M.b.x.",
"S.D.I.D.J.D.A.C.C.C.C.c.c.c.c.m.C.V ( @.l *.;.l @.@.@.6 # 3 T.T.T.T.Y.*.D.D.D.m.c.c.c.c.c.c.c.c.b.b.b.b.b.b.C.C.D.P.D.D.D.Z.C.b.",
"V.D.D.I.J.D.A.A.A.C.c.c.c.m.c.c.c.c.;.3 *.V.2 @.@.@.@.@.6 1.T.T.T.T.4.k.D.K.D.D.C.C.c.c.c.c.c.c.c.b.b.b.B.b.c.C.C.D.K.K.D.S.C.m.",
"C.D.D.D.P.D.A.A.C.C.C.c.C.c.c.c.c.c.c.*.o - X.@.@.@.@.@.- T.T.T.T.Y.S S.D.D.P.P.D.C.C.C.C.C.c.C.c.c.c.c.c.C.c.C.B.Z.D.P.P.D.S.A.",
"C.C.A.D.J.J.D.D.D.C.m.m.c.c.c.c.c.c.c.c.0.0 ( @.@.@.@.2 f.T.T.T.T.*.l.C.Z.D.K.I.K.D.C.C.C.c.c.c.c.c.c.c.c.c.b.b.C.C.A.D.P.P.D.D.",
"C.C.C.D.J.I.I.D.D.Z.C.m.m.C.C.c.c.c.c.c.c.c.8.x | X.- 8.T.T.T.T.a.0.C.C.C.C.D.D.P.K.D.Z.C.C.c.c.b.b.c.c.b.B.c.b.c.c.C.C.A.K.P.G.",
"C.C.C.A.F.I.I.J.D.D.C.C.c.C.C.c.c.c.c.C.c.c.C.c.>.% w.T.T.T.T.s.0.D.D.C.C.C.C.S.H.P.P.D.D.C.C.c.b.C.c.c.x.c.c.b.c.C.m.c.C.D.P.K.",
"c.C.C.C.D.D.J.J.D.C.D.C.C.c.m.m.c.c.c.c.c.c.c.c.C.*.T.T.T.Y.;.l.J.J.D.C.C.C.C.C.Z.D.P.P.D.D.A.C.b.b.c.c.b.b.b.b.c.c.b.n.B.C.D.P.",
"C.c.C.C.A.D.P.J.P.D.D.C.C.c.C.c.m.c.c.c.c.m.m.c.c.a.;.V.r.1.D.J.J.D.D.D.C.C.C.c.C.C.D.P.P.D.D.D.C.m.C.c.m.c.c.c.c.C.c.B.n.b.C.D.",
"c.C.C.C.C.A.J.J.J.J.D.D.D.c.C.c.c.c.c.c.c.c.c.c.C.c.h.1.C.A.A.D.D.J.J.D.A.C.C.C.c.C.C.D.P.I.D.D.Z.C.c.c.m.c.n.x.c.c.b.m.m.b.C.C.",
"C.C.c.C.C.C.D.J.I.J.J.D.D.C.C.c.c.c.c.c.c.c.c.c.c.c.c.C.C.C.A.D.D.D.J.D.D.C.C.c.C.C.C.C.D.D.I.D.D.Z.C.C.c.m.c.c.c.c.c.b.C.c.c.C.",
"c.C.C.c.C.C.C.D.P.I.P.J.D.D.C.C.m.c.m.m.c.c.c.c.c.c.C.c.C.c.C.A.D.D.D.D.D.D.C.C.c.C.C.C.C.D.I.I.D.D.C.C.c.C.m.c.c.c.c.c.c.c.c.C.",
"C.c.C.C.c.C.C.C.D.P.I.P.D.D.D.C.m.m.c.c.c.c.c.c.c.c.c.c.c.C.C.C.D.D.D.J.D.D.C.C.C.c.c.C.c.C.D.D.I.D.D.D.C.m.b.c.c.b.c.c.c.c.C.c.",
"C.C.c.c.C.C.C.C.C.J.P.P.J.D.D.C.C.C.m.m.c.c.c.c.c.c.c.c.C.C.C.C.C.D.J.D.D.D.D.C.C.C.C.c.C.C.A.D.D.I.I.D.S.Z.C.m.b.b.x.b.c.c.c.C.",
"c.C.c.C.c.C.C.C.C.A.D.P.I.J.D.D.C.C.C.c.c.c.c.c.c.c.c.c.C.c.C.C.C.C.D.D.D.J.D.D.C.C.c.C.c.C.C.C.D.D.I.D.D.D.C.m.b.b.c.b.c.c.c.c.",
"C.c.c.c.c.C.c.C.C.C.D.J.I.P.J.J.D.C.C.c.c.C.c.C.c.c.c.c.c.c.c.c.c.C.D.D.D.D.D.D.C.C.C.c.C.c.c.C.A.D.I.I.P.D.S.Z.m.m.c.c.c.c.c.c."
};
