/* XPM */
static char *result[] = {
/* columns rows colors chars-per-pixel */
"64 64 160 2 ",
"   c #35261A",
".  c #36281C",
"X  c #3B2B1D",
"o  c #3D2D20",
"O  c #432D1D",
"+  c #4B2F1C",
"@  c #4D321D",
"#  c #55341F",
"$  c #5B351F",
"%  c #443425",
"&  c #4B3624",
"*  c #4E3A27",
"=  c #463628",
"-  c #483728",
";  c #4D3B2B",
":  c #553924",
">  c #5C3A23",
",  c #553D2B",
"<  c #593F29",
"1  c #503E30",
"2  c #623C21",
"3  c #57402D",
"4  c #5F412C",
"5  c #554434",
"6  c #574738",
"7  c #5F4A39",
"8  c #63442C",
"9  c #6D452D",
"0  c #6C492F",
"q  c #7A4324",
"w  c #714827",
"e  c #77472A",
"r  c #734B2E",
"t  c #7B4A2B",
"y  c #7F522A",
"u  c #634733",
"i  c #624F3D",
"p  c #6E4F39",
"a  c #724C33",
"s  c #7E4D31",
"d  c #714F39",
"f  c #61503F",
"g  c #6E533E",
"h  c #79523A",
"j  c #7D593D",
"k  c #645341",
"l  c #6E5642",
"z  c #655848",
"x  c #6F5C4B",
"c  c #785A41",
"v  c #735D4A",
"b  c #74624F",
"n  c #7D634D",
"m  c #736554",
"M  c #7C6A57",
"N  c #776C5D",
"B  c #7C6C5B",
"V  c #7A6F60",
"C  c #7A7163",
"Z  c #824624",
"A  c #8D4A26",
"S  c #82492A",
"D  c #8E4F2D",
"F  c #994F28",
"G  c #83552C",
"H  c #8C592D",
"J  c #9F5229",
"K  c #915C2E",
"L  c #804D31",
"P  c #835430",
"I  c #8D5333",
"U  c #975734",
"Y  c #9B5531",
"T  c #915E31",
"R  c #975B3A",
"E  c #A15229",
"W  c #A8562B",
"Q  c #A9592F",
"!  c #B25A2C",
"~  c #B85B2D",
"^  c #A85C34",
"/  c #B55E31",
"(  c #A16732",
")  c #A16937",
"_  c #AB6D35",
"`  c #B06035",
"'  c #B47336",
"]  c #C5612F",
"[  c #D0642F",
"{  c #C66131",
"}  c #D06631",
"|  c #DC6A32",
" . c #C77E3C",
".. c #C97F3C",
"X. c #E97035",
"o. c #F57537",
"O. c #816147",
"+. c #886147",
"@. c #86694F",
"#. c #846C57",
"$. c #816E5A",
"%. c #83725E",
"&. c #97745B",
"*. c #867663",
"=. c #877867",
"-. c #8B7865",
";. c #8C7D6B",
":. c #927C66",
">. c #D3853E",
",. c #8D806E",
"<. c #958069",
"1. c #8F8877",
"2. c #928472",
"3. c #988A77",
"4. c #958C7B",
"5. c #9B8D7A",
"6. c #A1856E",
"7. c #AD987F",
"8. c #DF8C41",
"9. c #E08C41",
"0. c #F89B47",
"q. c #9B8F80",
"w. c #9C9584",
"e. c #A49684",
"r. c #A39887",
"t. c #AF9980",
"y. c #A49B8B",
"u. c #AA9F90",
"i. c #A7A08E",
"p. c #B8A186",
"a. c #ADA593",
"s. c #AFA997",
"d. c #AFA999",
"f. c #B1AA97",
"g. c #B3AD9B",
"h. c #B9AF9D",
"j. c #B6B09E",
"k. c #BAB19F",
"l. c #B7B2A0",
"z. c #BCB3A1",
"x. c #BEB9A6",
"c. c #BFBAA8",
"v. c #CBB397",
"b. c #CDB499",
"n. c #C1B6A3",
"m. c #C3B9A6",
"M. c #C8BBA7",
"N. c #C4BCA9",
"B. c #CABEAB",
"V. c #D7BEA0",
"C. c #C6C0AD",
"Z. c #CCC1AE",
"A. c #D1C3AF",
"S. c #CEC4B1",
"D. c #CFC8B5",
"F. c #D2C5B2",
"G. c #D4C9B5",
"H. c #E4CAAB",
"J. c #F0D5B5",
"K. c #FDE1C0",
/* pixels */
"g.l.l.c.C.C.C.c.c.c.l.l.d.d.l.d.l.l.l.l.l.c.c.C.C.x.l.l.j.j.g.l.l.j.l.c.c.C.D.D.C.N.x.k.k.x.x.z.x.x.m.C.S.G.G.S.B.B.N.N.N.m.n.m.",
"j.j.l.l.c.c.C.C.c.c.c.l.l.l.d.l.l.l.l.l.l.l.x.C.C.C.c.x.j.j.g.g.j.l.l.l.x.c.C.D.S.C.C.k.x.j.z.j.j.z.x.m.B.S.G.G.D.S.N.N.N.m.m.m.",
"l.l.j.l.l.l.C.c.C.c.c.c.l.l.d.d.l.d.l.d.l.l.l.l.C.C.c.c.x.j.j.j.g.l.g.j.l.l.c.S.D.S.C.C.x.x.k.k.j.z.k.z.z.N.B.S.G.G.B.B.B.N.n.n.",
"d.d.d.l.l.l.c.c.C.C.c.c.c.c.l.d.d.d.d.l.l.l.l.l.x.c.C.c.x.l.j.j.d.g.g.j.j.j.l.x.C.C.S.C.C.k.x.j.z.z.k.k.z.n.n.N.S.D.G.D.B.B.m.m.",
"g.g.d.l.l.l.l.l.c.C.C.c.c.l.l.d.d.d.l.l.g.g.g.l.j.j.c.C.c.c.x.j.l.d.d.g.j.j.j.j.z.C.C.S.C.C.x.x.j.z.j.l.z.z.z.x.N.B.D.G.B.B.B.B.",
"d.d.d.l.l.d.l.l.c.c.C.c.c.c.c.l.l.d.d.d.g.l.g.g.g.j.l.c.C.C.x.x.l.l.g.j.j.g.g.j.j.z.N.C.C.C.C.x.z.l.k.j.j.z.z.z.z.N.B.B.G.D.D.B.",
"g.d.d.g.d.d.l.l.l.l.c.C.c.c.c.l.l.d.l.d.d.g.g.g.g.g.j.l.x.c.N.c.l.l.g.d.f.j.g.g.j.j.z.x.C.C.C.N.c.z.j.j.g.g.z.z.z.z.m.N.B.B.D.D.",
"g.l.g.d.d.l.d.l.l.l.l.c.C.c.c.c.c.l.d.d.d.d.d.g.g.j.g.g.j.x.N.c.c.c.j.j.j.f.f.g.g.g.j.k.x.C.C.C.N.x.z.z.l.z.l.g.l.z.z.n.B.B.D.G.",
"l.d.l.d.d.d.d.g.l.l.j.l.x.C.C.x.x.k.j.j.g.g.d.g.g.g.g.g.g.j.x.C.c.c.x.l.g.d.d.g.d.g.g.j.j.l.c.C.C.N.c.c.l.l.j.j.h.h.l.z.z.m.N.B.",
"l.d.l.d.g.d.g.g.d.g.l.j.l.c.c.C.c.x.l.j.g.d.d.l.d.g.g.f.d.d.j.k.c.C.x.x.j.j.j.d.g.d.g.d.j.j.x.c.C.B.N.c.z.l.g.j.g.g.h.z.z.z.m.B.",
"l.d.d.d.g.g.d.g.g.g.g.g.j.x.x.N.m.c.c.j.j.g.d.d.d.d.g.g.g.d.j.j.x.x.c.x.j.j.g.g.d.g.g.g.g.j.j.l.c.C.N.N.N.z.l.j.l.g.h.g.h.h.z.m.",
"l.l.l.d.d.g.g.g.d.g.g.l.j.j.j.x.C.C.c.z.j.j.g.d.g.d.d.f.g.g.f.f.g.x.c.c.x.x.j.g.d.g.d.d.s.j.f.j.l.c.B.B.N.c.c.l.h.l.g.g.l.h.h.z.",
"c.l.l.l.d.j.d.g.d.g.d.j.j.j.j.j.x.C.m.x.x.l.j.j.d.w.5.V w.j.d.j.g.g.z.c.C.x.x.j.l.d.d.d.g.d.d.j.j.j.z.N.C.N.c.z.l.l.l.g.g.g.h.h.",
"c.l.l.l.j.g.d.d.j.d.j.g.g.j.j.j.k.x.C.c.x.&.R Q ' ] ] O 6 . p M 5.f.f.k.x.c.x.k.j.g.d.d.g.d.d.d.g.g.l.l.c.B.N.c.z.h.g.l.g.g.d.l.",
"c.c.c.l.j.g.d.d.d.g.d.g.f.j.j.j.k.,.d ~ o.o.o.o.o.o.o.! x ; o.} ( 8 i i.k.x.C.x.x.j.l.d.d.d.d.d.d.g.g.g.z.c.N.N.c.c.h.h.g.g.g.g.",
"C.C.c.l.l.l.g.g.d.j.j.d.g.j.j.3.% v.5 Q o.o.o.o.o.o.o.o.* x ] o.9.J 3 o n d.k.C.x.x.j.g.j.d.d.d.d.g.g.g.g.l.c.N.N.N.c.l.l.g.l.g.",
"D.C.C.c.l.l.h.g.g.g.g.g.g.d.$.I { - p.5 ` o.o.o.o.o.o.o.w <.t o.o.J f 2 | y M x.N.c.x.j.j.d.d.d.d.f.d.d.s.f.j.k.C.C.x.x.j.j.j.g.",
"S.D.C.c.c.c.l.h.h.d.d.h.g.m / o.o.o., -.1 S o.o.o.o.J A $ X X A E J , A o.o.} p s.N.c.x.j.j.g.d.d.f.d.f.g.g.f.j.k.C.C.N.k.j.j.g.",
"S.D.B.B.N.n.z.l.h.g.h.d.=.^ o.o.o.o.o.S 7 #.S q # > y ( ' 3 3 ( y #   # { o.o.X.0 j.N.N.l.j.j.g.d.d.d.d.s.d.s.g.g.k.x.C.N.x.j.j.",
"N.D.S.B.B.N.c.z.h.h.g.u.I o.o.o.o.o.o.o.! X o , 0.0.0.0.0.T = ' 0.0.% G 8 # J o.X.v k.C.c.x.k.j.g.d.d.g.d.s.s.g.g.j.k.x.N.N.x.j.",
"N.B.G.B.B.B.N.c.z.h.h.d X.o.o.o.o.o.o.o.# I ; 6 @ 0.0.0.>.>.= r 0.0.% ( 0.0.w O F 8 4.x.n.m.c.j.g.g.d.d.d.d.d.s.f.g.g.j.x.x.x.x.",
"n.N.D.G.D.S.N.N.n.z.;.^ o.o.o.o.o.o.o.# ` 0.0.u - 3 j @.n N x g 4 &   ( 0.>.  Z F W ` H j l w.z.z.j.j.d.d.d.s.d.f.f.f.g.g.x.x.N.",
"n.n.B.D.D.B.B.B.B.n.d o.o.o.o.o.o.o.$ ' 0.0...s n k.C.C.c.x.x.k.j.g.m 0 ( >.O # o.o.o.o.o.o.Q d ,.x.j.d.d.s.s.s.f.f.s.f.g.j.l.C.",
"n.n.N.B.D.D.S.S.B.d.Y o.o.o.o.o.o.E 9 0.0.8.c h.h.j.k.C.C.C.n.x.j.j.h.g.w.@.O Z @ | o.o.o.o.o.o.{ g d.j.j.d.d.g.f.s.s.s.f.f.j.j.",
"n.n.c.n.B.G.G.D.B.m 6 1 , 2 E | o.@ 0.0.0.r k.k.k.k.z.z.C.C.C.n.x.k.j.j.d.d.w.G ] + F o.o.o.o.o.o.X.v x.j.j.f.f.s.s.s.d.s.g.f.j.",
"z.c.n.n.B.B.G.F.B.6 #.q.t.V.:.i % X 8 T _ n j.k.z.k.k.z.n.C.C.C.m.z.k.j.f.f.f.g | | q + F o.o.o.o.9.u x.x.j.j.f.s.s.s.s.d.s.s.s.",
"z.z.z.n.n.B.F.F.G.< E E 2 < , , o ; k - % =.k.j.j.k.z.k.x.n.N.Z.C.C.x.k.j.d.g.1.D | | | $ u h t w c 7.C.x.x.j.j.f.f.s.s.s.s.s.s.",
"z.z.n.z.n.m.B.F.G.U o.o.o.o.o.o.: 0.0.9.G 2.h.k.k.k.z.k.z.z.n.N.C.C.N.n.k.h.h.g.g [ | | | 0 i.d.f.f.j.x.x.x.x.x.l.f.f.s.s.s.s.s.",
"h.z.z.n.z.n.m.B.u.^ o.o.o.o.o.{ w 0.0.0.>.#.g.k.k.j.k.k.k.k.z.x.M.C.C.m.x.k.k.j.a.9 | | | ] i f.f.f.j.j.x.x.x.x.x.j.j.s.s.s.s.s.",
"h.h.z.c.z.n.n.n.u.{ o.o.o.o.o.E ( 0.0.0.0.j h.h.j.k.k.j.k.k.l.x.k.C.Z.Z.N.x.z.k.j.,.Y | | | H 1.f.f.f.g.g.x.x.x.x.l.g.j.j.s.a.s.",
"z.h.z.z.n.n.n.n.e.{ o.o.o.o.o.E ( 0.0.0.0.P g.h.j.h.j.j.k.k.k.v.v.c.C.Z.C.C.m.c.z.j.%.U | | | g f.f.f.g.g.g.l.x.x.x.x.j.j.s.s.s.",
"h.z.l.l.z.z.n.n.u.~ o.o.o.o.o.E ( 0.0.0.0. .-.h.h.g.h.h.k.k.k.k.k.k.n.C.Z.C.C.m.n.z.k.%.y [ | y f.g.f.f.g.g.j.j.x.x.l.x.j.j.s.s.",
"z.h.h.h.k.z.n.n.n.I o.o.o.o.o.E ( 0.0.0.0.0.s a.h.h.h.z.k.h.k.h.k.k.v.c.C.Z.C.Z.m.m.k.j.i.l 9 4 d.d.d.f.g.f.g.g.j.k.C.x.k.j.g.g.",
"h.z.l.h.k.z.z.n.n.I o.o.o.o.o.E G 0.0.0.' 8 % z h.g.g.g.h.k.k.z.k.k.k.m.m.C.Z.C.C.C.m.z.j.j.g.g.j.d.f.f.f.f.f.g.g.k.k.m.N.z.j.j.",
"z.h.z.h.k.z.k.n.n.+.o.o.o.o.o.o.$ T 3 5 6 ; < H -.h.h.k.h.h.h.k.k.k.k.k.x.x.C.Z.A.Z.C.N.x.k.j.j.g.g.f.j.f.f.g.g.g.g.j.k.N.N.x.j.",
"h.z.z.h.k.z.k.z.n.6.o.o.o.! a 1 X *.k ; G 0.0.0._ -.h.h.k.g.h.g.k.k.k.k.k.k.v.C.Z.Z.Z.C.m.x.k.j.f.j.f.d.g.f.g.f.g.g.g.h.z.x.x.x.",
"z.h.h.h.z.k.k.z.n.k.S , 1 $.b.$.X 8 >.0.0.0.0.0.0._ O.g.h.g.h.h.k.k.k.k.k.v.x.n.M.C.Z.Z.C.N.n.z.k.j.g.g.g.g.f.f.f.f.j.f.j.k.x.x.",
"z.c.h.z.z.l.k.k.h.n.- K.p.; 1 E q K 0.0.0.0.0.0.0.0.>.a a.g.h.z.k.h.h.h.k.k.k.z.n.N.Z.Z.Z.C.C.n.k.j.j.g.g.f.g.f.f.f.f.j.f.j.j.x.",
"n.n.z.h.h.h.h.h.z.z.= ; s | o.o.| : 0.0.0.0.0.0.0.0.0._ o 5.h.g.g.k.k.h.k.j.k.v.n.N.m.C.Z.G.S.N.m.k.j.j.j.g.f.f.f.g.g.g.g.g.f.v.",
"n.z.z.h.k.k.l.z.k.h.e.| o.o.o.o.o.$ >.0.0.0.0.0.0.9.<   T P o X N g.k.j.k.k.l.z.k.k.x.v.Z.Z.F.Z.C.M.x.k.k.j.g.f.f.g.g.f.f.f.f.j.",
"m.n.n.z.l.l.h.z.z.z.z.L o.o.o.o.o.{ 8 0.0.0.0.0.) = % ' 0.8 b H.5 y.h.h.h.h.h.h.h.v.z.n.n.M.B.Z.Z.Z.C.n.k.k.j.j.f.j.f.f.f.f.f.k.",
"N.N.n.z.z.z.z.h.h.z.k.v X.o.o.o.o.o.$ >.0.0.9.8 1 - 9.0. .k K.K.H.N g.h.h.h.h.h.h.h.k.h.n.n.M.B.Z.C.Z.C.m.k.j.j.g.f.f.f.j.f.f.f.",
"B.N.n.n.h.h.h.z.z.k.z.a.U o.o.o.o.o.| @ 0.T & 7 u 0.0.0.* H.K.K.H.B h.h.h.h.h.h.h.k.v.l.z.n.z.b.Z.Z.A.C.C.n.x.k.j.g.g.f.f.j.f.k.",
"B.B.N.n.n.z.h.h.z.h.k.h.n | o.o.o.o.o.Z o %.6 ) 0.0.0.^ $.K.K.K.v.;.h.h.h.h.h.h.h.h.k.z.l.v.h.n.v.Z.A.A.C.N.c.k.k.j.j.j.f.f.k.f.",
"Z.B.B.n.n.z.l.h.h.j.h.z.f.r o.o.o.o.D , ; - >.0.0.0.0.= K.K.K.K.t.w.k.h.h.h.h.h.h.h.h.z.z.h.n.n.x.m.Z.C.Z.Z.C.v.m.k.k.j.k.f.k.j.",
"G.F.B.B.m.n.z.z.z.z.h.h.k.2.~ o.] * -.:.* @ >.0.0.0.L e.K.K.K.K.$.n.n.k.h.k.h.h.h.h.h.h.l.v.h.n.k.k.v.M.Z.A.Z.C.C.k.k.j.k.f.k.f.",
"F.A.B.B.m.m.n.z.k.h.h.h.k.k.g 9 f H.f w o.| X 9.0.} - K.K.K.K.K.N m.n.n.n.k.k.h.h.h.h.h.j.h.k.k.k.z.x.z.C.Z.A.Z.C.C.v.j.k.j.k.j.",
"A.A.A.B.m.m.n.n.k.k.h.h.k.h.r.X H.; ` o.o.o.! X 9.; H.K.K.K.K.e.e.N.N.m.n.k.k.k.h.k.h.h.h.g.h.h.k.z.v.k.x.b.C.A.Z.M.x.x.v.k.k.f.",
"B.F.F.B.B.B.M.n.n.n.h.h.h.h.z.C o | o.o.o.o.o.|   u.K.K.K.K.J.m c.B.B.B.B.c.z.n.z.h.h.h.h.h.h.h.k.k.k.k.n.n.n.B.S.S.B.N.n.z.k.k.",
"B.B.G.B.A.B.M.n.n.n.n.h.h.h.h.h.2.Y o.o.o.o.o.L $.K.K.K.K.K.;.h.B.B.B.B.B.B.B.h.h.z.h.h.h.h.h.h.k.k.h.k.h.n.n.b.B.Z.Z.Z.Z.n.z.k.",
"n.B.B.G.A.B.M.M.n.n.h.h.z.h.h.h.h.=.^ o.o.o., $.K.K.K.K.K.t.q.B.B.B.c.B.B.Z.B.B.n.z.z.h.z.h.h.h.h.h.j.k.h.n.h.v.n.B.F.A.C.B.n.z.",
"n.B.B.B.A.B.M.M.n.n.n.h.z.h.h.h.h.h.=.e # 1 u.K.K.K.K.K.t.$.B.A.B.c.n.B.B.Z.F.F.B.n.n.n.z.z.h.h.h.h.h.h.h.h.h.n.n.n.B.A.A.B.N.N.",
"n.n.M.B.F.A.B.B.n.n.B.h.z.h.h.z.h.h.h.$.q.K.K.K.K.K.K.e.=.B.F.B.B.B.n.c.n.B.Z.G.F.B.n.n.n.h.h.n.h.h.k.h.h.h.h.n.z.z.M.Z.A.A.Z.C.",
"n.b.n.B.A.G.G.B.B.n.n.h.z.z.z.z.h.h.h.$.J.K.K.K.K.M.O.q.B.B.B.A.B.B.B.n.n.B.B.B.D.F.B.n.n.n.h.h.z.v.h.h.n.h.h.h.h.l.v.n.M.F.A.Z.",
"n.n.n.M.B.G.A.A.B.B.B.h.h.n.z.h.h.h.h.u.$.G.A.e.$.e.n.M.M.B.B.A.Z.B.B.n.n.n.n.n.B.D.F.B.n.n.n.h.j.z.h.h.h.h.h.n.z.k.k.k.n.B.Z.A.",
"n.n.h.n.B.A.H.B.B.B.B.n.n.h.z.z.h.h.h.h.u.q.h.h.h.h.n.n.M.B.B.A.Z.B.B.n.n.n.n.n.B.B.F.D.B.B.B.n.z.h.h.h.h.h.h.h.z.h.h.z.v.n.C.F.",
"h.n.n.n.M.B.F.A.A.B.B.n.n.h.n.h.n.h.h.h.h.h.n.h.h.n.n.n.n.M.B.A.Z.Z.B.B.n.n.n.n.h.n.A.F.F.A.B.B.n.z.h.h.h.h.h.z.k.k.k.k.n.n.n.M.",
"n.n.n.n.n.M.A.A.A.A.B.B.B.h.n.h.h.h.h.h.h.h.h.h.h.h.h.n.n.M.B.B.B.A.A.B.B.n.n.h.n.n.n.B.F.F.B.B.m.n.n.z.z.h.h.h.h.k.k.z.h.h.n.n.",
"h.n.n.n.h.n.B.A.G.A.A.B.B.n.n.h.h.h.h.h.h.h.h.h.h.b.n.n.n.n.B.B.B.A.B.B.n.B.n.n.h.n.n.n.B.A.F.A.B.m.n.z.z.z.h.g.h.k.k.k.h.v.h.n.",
"n.n.n.h.n.n.M.B.G.G.F.A.B.B.n.n.c.h.z.z.h.h.h.h.h.h.h.n.h.b.n.n.B.B.B.B.A.n.n.h.n.n.n.n.n.B.F.F.B.B.n.n.z.z.h.h.h.h.k.h.h.h.h.n.",
"n.h.n.n.h.n.n.n.B.A.G.A.B.B.n.n.h.z.h.h.h.h.h.h.h.h.h.h.h.n.n.M.B.n.A.B.B.B.n.n.n.h.n.h.n.n.B.B.G.F.B.m.n.c.h.h.h.k.h.k.h.k.h.z.",
"h.h.h.n.h.n.n.n.B.A.F.F.A.A.B.n.n.n.z.h.h.h.h.h.h.h.h.h.h.n.n.n.n.B.B.A.A.B.B.n.n.n.h.z.h.n.n.B.F.F.A.B.B.N.z.n.k.k.g.k.l.h.h.h.",
"z.n.h.n.h.n.n.n.h.B.A.F.G.F.B.B.n.n.n.h.h.h.h.h.h.h.h.h.n.n.n.n.n.B.B.B.A.B.B.B.n.n.n.h.n.h.n.n.B.B.F.F.B.B.n.z.k.k.h.k.h.h.h.h.",
"z.h.h.h.n.h.h.n.n.n.B.A.G.G.B.A.B.n.n.n.h.h.h.n.h.h.h.h.h.h.h.h.h.n.B.B.B.B.B.B.n.n.h.n.n.h.n.h.n.B.G.G.B.B.N.m.z.z.z.k.h.h.h.h."
};
