/* XPM */
static char *result[] = {
/* columns rows colors chars-per-pixel */
"64 64 156 2 ",
"   c #36271B",
".  c #36281A",
"X  c #3C2B1D",
"o  c #3D2F21",
"O  c #422D1C",
"+  c #4A2E1C",
"@  c #46311F",
"#  c #4E321D",
"$  c #55331E",
"%  c #60371F",
"&  c #443325",
"*  c #4B3524",
"=  c #4D3927",
"-  c #463628",
";  c #4C3A2B",
":  c #553923",
">  c #553D2A",
",  c #5B3F29",
"<  c #623B20",
"1  c #703E22",
"2  c #57402D",
"3  c #5B412C",
"4  c #554333",
"5  c #5B4230",
"6  c #5F4937",
"7  c #5C4C3B",
"8  c #694425",
"9  c #62432B",
"0  c #6E462D",
"q  c #734123",
"w  c #784527",
"e  c #724827",
"r  c #7C492B",
"t  c #7F522A",
"y  c #644632",
"u  c #624B36",
"i  c #604F3E",
"p  c #6D4E39",
"a  c #734C33",
"s  c #7D4D31",
"d  c #62503F",
"f  c #6F513C",
"g  c #755033",
"h  c #7E5434",
"j  c #7A543D",
"k  c #7B593E",
"l  c #635241",
"z  c #6F5643",
"x  c #6B5C4C",
"c  c #755642",
"v  c #725945",
"b  c #7C5D45",
"n  c #795E4A",
"m  c #72604E",
"M  c #7B614C",
"N  c #6B6152",
"B  c #756654",
"V  c #7D6955",
"C  c #756859",
"Z  c #7D6E5C",
"A  c #804425",
"S  c #8F4C27",
"D  c #834C2D",
"F  c #83542C",
"G  c #91502E",
"H  c #9F532A",
"J  c #915C2F",
"K  c #8C5130",
"L  c #805339",
"P  c #995530",
"I  c #915D32",
"U  c #A1532A",
"Y  c #A9592F",
"T  c #B25A2C",
"R  c #BB5C2C",
"E  c #A85C34",
"W  c #B45E31",
"Q  c #9B6231",
"!  c #AD6E35",
"~  c #B06035",
"^  c #B47336",
"/  c #BB7638",
"(  c #C5612F",
")  c #D0642F",
"_  c #C76130",
"`  c #D06631",
"'  c #DC6A32",
"]  c #C77E3C",
"[  c #C97F3C",
"{  c #E97035",
"}  c #F57537",
"|  c #835C44",
" . c #836246",
".. c #92694E",
"X. c #826752",
"o. c #816D58",
"O. c #84725D",
"+. c #8B715A",
"@. c #907056",
"#. c #847260",
"$. c #8A7662",
"%. c #8E7C67",
"&. c #8E7D69",
"*. c #907762",
"=. c #927C67",
"-. c #927E69",
";. c #D2833D",
":. c #95816D",
">. c #8B8373",
",. c #938170",
"<. c #978876",
"1. c #948A7A",
"2. c #9B8F7E",
"3. c #A38F77",
"4. c #A69077",
"5. c #A69079",
"6. c #AD987E",
"7. c #E08C41",
"8. c #F89B47",
"9. c #9C9382",
"0. c #A29684",
"q. c #A39885",
"w. c #A39B8A",
"e. c #A89E8D",
"r. c #AAA08F",
"t. c #B8A186",
"y. c #ACA694",
"u. c #AFA897",
"i. c #AFA999",
"p. c #B0A593",
"a. c #B2A996",
"s. c #B4AD9C",
"d. c #B9AF9D",
"f. c #B6B09E",
"g. c #BAB19F",
"h. c #B7B2A0",
"j. c #BCB3A1",
"k. c #BEB9A6",
"l. c #BFBAA8",
"z. c #CEB599",
"x. c #C1B6A3",
"c. c #C3B9A6",
"v. c #C8BBA7",
"b. c #C4BCA9",
"n. c #CABEAA",
"m. c #D7BEA0",
"M. c #C6C0AD",
"N. c #CCC1AE",
"B. c #D1C3AF",
"V. c #CEC4B1",
"C. c #CFC8B5",
"Z. c #D2C5B2",
"A. c #D4C9B5",
"S. c #E4CAAB",
"D. c #F0D5B5",
"F. c #FDE1C0",
/* pixels */
"s.h.h.l.l.M.M.l.l.l.h.h.i.i.h.i.i.h.h.h.h.l.M.M.M.k.k.h.h.s.f.f.f.f.h.k.M.M.C.C.M.b.l.j.h.j.j.j.k.j.b.n.V.C.A.Z.V.b.b.b.b.c.x.c.",
"f.f.h.h.l.l.M.M.l.l.l.h.h.h.i.h.h.h.h.h.h.h.k.M.M.l.l.h.h.f.s.f.f.f.h.h.h.l.M.C.V.M.b.l.j.j.j.h.j.j.k.l.n.V.A.C.C.V.b.b.b.c.x.c.",
"h.h.f.f.h.l.l.M.M.l.l.l.h.h.h.i.i.h.h.s.h.h.h.h.M.M.M.k.k.h.f.f.i.f.f.f.j.h.l.V.C.V.M.M.l.j.j.h.d.j.j.j.x.c.n.Z.A.C.C.n.n.b.c.x.",
"i.i.i.h.h.h.l.l.M.M.l.l.h.h.h.i.i.i.i.h.h.h.h.h.h.k.M.M.k.h.h.f.f.i.i.f.f.f.h.k.M.M.V.M.b.l.j.j.j.h.h.j.j.j.x.c.n.C.A.Z.n.b.c.c.",
"s.s.s.h.h.s.h.h.l.M.M.l.l.l.h.h.i.s.s.h.i.h.h.s.f.h.k.M.l.l.k.f.f.i.u.s.f.f.f.f.j.M.M.V.N.b.l.j.j.h.j.h.j.j.k.k.n.n.C.A.n.n.n.n.",
"i.i.i.h.s.s.h.h.h.l.M.l.l.l.h.h.h.i.i.i.s.i.i.h.s.f.h.k.M.M.k.k.h.f.s.s.s.s.s.f.f.j.c.M.M.M.b.l.j.h.s.h.h.h.d.j.l.c.n.n.A.C.C.n.",
"s.i.i.i.s.i.h.h.h.l.l.M.M.l.l.h.h.h.h.i.i.i.s.s.f.f.s.h.k.B Z 2.h.h.s.s.s.s.s.s.f.f.j.k.M.V.M.M.l.j.d.f.s.h.j.j.h.j.x.b.n.n.C.C.",
"h.i.h.i.i.h.i.s.h.h.h.l.M.l.l.l.h.h.i.i.h.i.i.s.i.f.i.f.>.D.F.O.u.k.h.s.s.s.u.s.i.f.f.g.k.M.M.M.b.k.j.j.d.d.h.s.h.j.j.l.n.n.C.A.",
"h.i.i.i.h.i.i.h.s.h.f.h.l.M.M.l.k.f.f.f.s.i.i.h.f.i.f.O.F.F.F.6.u k >.y.s.s.s.s.i.s.s.f.f.k.b.M.M.b.l.j.j.j.h.h.d.d.h.j.j.x.n.n.",
"h.h.i.i.i.i.i.s.i.s.f.f.f.l.l.M.M.g.f.f.s.s.s.i.i.f.B F.F.F.F.o ' 7.( F y ; >.i.s.i.i.i.s.f.g.c.M.M.b.l.j.d.s.h.s.s.d.h.h.x.c.n.",
"h.i.h.i.i.h.i.s.h.s.s.f.f.f.k.M.M.k.k.f.s.s.i.i.i.Z m.F.F.F.m ~ } } } } , :.X f 9.f.s.s.s.s.s.j.b.M.M.b.k.j.h.h.d.h.s.d.d.h.j.l.",
"h.h.i.h.i.i.i.s.i.i.i.s.f.f.f.k.M.M.k.k.f.f.s.i.y.Z F.F.F.F.= } } } } } ; S.> { E i 9.i.i.s.s.s.h.l.M.n.b.l.j.h.h.s.s.s.s.d.d.j.",
"l.h.h.h.s.s.i.s.i.f.i.f.f.f.f.f.k.M.M.g.k.h.f.f.Z B.F.F.F.z.e } } } } H o.i _ } } { F M y.i.i.s.s.f.j.b.M.b.l.j.h.s.h.s.s.s.d.d.",
"l.h.h.h.s.i.i.i.s.i.f.s.f.f.f.f.g.c.M.k.k.j.f.f.N F.F.F.F.B 1 ' } } } 2 S.: } } } } } ' a 9.i.s.s.s.f.j.b.b.b.l.l.h.d.s.s.s.s.s.",
"b.l.l.h.f.f.i.i.s.s.i.s.f.f.f.f.f.g.k.M.M.k.k.f.o.F.F.F.F.i J $ # $ T 4 i _ } } } } } } } K <.i.s.i.s.f.j.l.b.b.l.l.h.d.s.s.s.s.",
"M.b.l.h.f.f.s.i.s.s.s.a.u.f.f.f.f.f.f.k.k.M.k.g.:.F.F.F.F.- 8.8.8.;.@ - X } } } } } } } } } * x i.s.i.i.s.h.l.b.b.c.l.h.h.s.s.s.",
"C.b.b.l.l.h.h.i.s.s.s.s.s.i.s.s.h.d.h.h.l.b.b.w.%.F.F.F.F.6 8.8.8.8.2 i F @ U } } } } } } F o.Z l u.u.i.s.s.f.j.M.M.k.g.f.f.f.i.",
"C.C.n.b.l.l.h.h.d.i.i.s.s.s.i.h.d.s.s.d.h.x.b.w.%.F.F.F.F.u 8.8.8.^ N : 8.8.F $ ' } } } T d 6.& ` %.i.u.u.s.a.f.g.k.M.M.k.f.f.f.",
"n.C.n.b.b.x.j.h.h.s.s.s.s.s.h.h.d.d.d.d.d.j.l.j.:.F.F.F.F.u 8.8.8.2 7 ;.8.8.8.7.$ S } ' ; S.* ' } ) :.u.i.u.u.s.f.f.M.M.M.k.f.f.",
"b.C.n.C.n.c.l.j.h.d.s.s.h.s.h.s.i.d.s.d.h.j.l.c.Z F.F.F.F.u 8.8.;.2 3 8.8.8.8.8.8.t A = z.= ' } } } ~ <.u.u.u.s.f.s.f.g.l.l.k.f.",
"n.n.C.C.n.n.b.l.j.h.d.d.d.s.d.s.d.s.s.d.d.h.h.j.Z F.F.F.F.6 8.8.t 2 / 8.8.8.8.8.8.8.@ - 2 ' } } } } } K w.a.u.i.u.s.f.f.k.M.k.k.",
"c.n.n.C.n.C.b.n.x.j.d.d.s.s.s.d.s.h.s.d.d.h.j.j.B D.F.F.F.2 8.8.2 2 8.8.8.8.8.8.8.t B o q } } } } } } } p u.u.i.u.u.a.a.f.g.k.k.",
"l.c.n.C.A.n.n.b.b.x.l.h.h.d.d.i.d.h.d.h.d.h.j.d.r.%.F.F.F.& 8.;.. ;.8.8.8.8.8.8.^ 7 o ;.< T } } } } } } W &.u.i.u.u.u.a.s.f.g.M.",
"l.l.n.n.C.C.C.n.b.b.x.h.d.s.d.i.s.d.d.s.h.d.h.d.f.C D.F.F.& 8.2 @ 8.8.8.8.8.8.;.- 6 / 8.8.# ' } } } } } } a i.i.u.u.u.u.a.a.f.f.",
"j.x.x.c.n.A.A.A.n.n.n.l.d.l.d.d.s.d.d.s.d.d.d.h.h.e.#.m.4 . h . e ] ;.8.8.8.8.@ 2 ^ 8.8.8.;.8 } } } } } } Y 1.i.u.s.u.u.u.s.s.f.",
"j.j.x.x.n.n.A.n.n.n.b.b.x.l.d.d.d.h.s.d.d.d.d.h.h.g.r.& ; M.M.M.i.2.:.b g t 3 o ^ 8.8.8.8.8.$ ' } } } } } } 4 i.u.u.u.u.u.u.u.u.",
"j.j.j.x.c.n.n.A.C.n.n.n.c.l.x.d.h.d.d.d.d.h.d.d.d.j.j.g.x.c.b.N.M.M.k.k.s.y.C 8 7.8.8.8.8.8.] $ } } } ' e ; 7 y.f.u.u.u.u.u.u.u.",
"j.j.x.j.c.n.n.n.A.C.C.n.b.c.c.d.h.h.s.s.d.d.h.d.d.d.g.j.g.j.x.b.M.M.l.k.f.f.s.y.M Q 8.8.8.8.8.$ } _ 3 4 z.t.2 >.f.u.u.u.u.u.u.u.",
"j.j.j.l.j.x.x.n.A.A.A.A.n.n.b.l.j.d.d.s.s.d.d.d.d.d.d.j.j.j.x.x.v.M.M.M.k.f.f.f.s.:.F 8.8.8.8.8 = i 4.m $ t ( M k.h.s.a.u.u.y.u.",
"d.d.d.l.d.x.x.c.n.A.A.n.A.n.b.b.j.j.g.h.s.d.s.d.d.d.d.d.d.d.g.j.g.M.M.M.M.k.g.g.f.s.3.J 8.Q 2 ; - ; 0 ( } } } M k.h.f.f.s.u.u.u.",
"h.d.j.j.x.x.x.x.n.n.A.A.A.C.n.n.x.j.g.g.d.s.d.d.h.d.d.d.j.j.g.j.z.k.M.M.M.M.M.k.j.f.f.v 2 4 4 3 # } } } } } 7.k k.k.h.f.f.u.u.u.",
"j.h.d.j.j.x.x.x.n.n.n.A.A.n.n.n.b.c.j.j.d.d.d.s.s.d.d.d.j.d.d.j.g.g.z.v.M.M.M.M.c.g.f.i.& J 8.8.% } } } } } } h k.k.k.k.f.s.u.u.",
"h.j.d.h.d.j.x.x.x.v.n.n.A.n.Z.Z.n.b.l.j.j.d.d.d.d.d.d.d.d.d.d.d.g.g.z.k.M.M.M.M.c.c.k.f.k 8.8.8.$ } } } } } } > g.l.M.g.g.f.f.f.",
"d.j.d.d.d.j.j.x.x.v.v.n.A.A.A.n.N.n.n.x.j.d.d.d.d.d.d.d.d.d.x.d.g.g.g.c.M.M.N.N.M.M.x.k. .8.8.;.% } } } } } } v s.f.g.M.l.k.f.f.",
"d.j.j.h.j.d.x.x.x.x.x.v.n.A.A.A.N.N.n.x.x.j.j.d.i.d.d.d.d.d.d.d.g.g.g.g.g.g.v.N.V.M.M.c.k 8.8.J U } } } } } ` $.a.a.f.g.k.M.g.f.",
"j.j.d.j.d.j.d.j.x.d.x.v.n.n.Z.A.Z.Z.V.n.x.x.j.j.d.d.d.d.d.d.i.d.g.g.g.g.g.g.z.M.N.N.M.k.I 8.8.# ' } } } } } Y 2.a.f.f.s.g.k.k.k.",
"j.d.d.j.x.d.d.j.x.x.x.x.x.n.n.A.Z.A.Z.N.c.c.x.x.d.d.d.d.d.d.d.d.g.g.g.g.z.g.k.c.c.N.N.5 I [ 8.$ } } } } } } a u.a.f.f.a.f.g.k.k.",
"j.j.j.d.d.x.d.j.d.x.x.d.x.x.n.Z.A.A.Z.N.n.n.c.x.d.d.d.d.d.i.d.d.g.g.g.g.f.k.g.g.c.c.+.X 4 ; o - u = 9 A U ( V s.a.a.a.a.f.s.f.k.",
"x.x.d.d.d.d.d.d.d.x.x.d.x.x.x.n.B.A.d.n | p X.&.d.j.d.d.d.d.d.d.s.g.g.g.f.g.g.z.x.b ! 8.^ 3 O 4 d :.z.4.=.- 9.i.a.s.f.f.f.a.a.f.",
"x.x.x.d.d.d.x.d.d.d.x.x.x.x.x.x.n.Z.y ' ' ' ' R r c 2.d.d.d.d.d.g.s.g.f.f.f.f.w.g ;.8.8.7.# ' } ' U 3 > ; &.s.a.a.s.a.a.a.a.a.f.",
"c.l.l.d.d.j.d.j.j.x.x.x.j.x.x.x.c.n.X.W ' ' ' ' ' ) D c p.d.d.d.a.g.g.f.g.q.7 e 8.8.8.7.$ ' } } } } } { @.g.f.s.s.a.a.a.a.a.s.s.",
"b.c.x.d.j.j.j.d.d.j.d.j.d.x.d.x.x.n.n.*.L ) ' ' ' ' ' ) 0 ,.d.d.p.<.N : * Q - 2 Q 8.^ * ' } } } } } } ..x.g.f.f.s.s.a.a.f.a.a.a.",
"n.c.x.x.d.d.d.j.j.d.j.d.x.d.x.x.x.x.n.n.d.| s R ' ' ' ' ' P 5 0 J ] * & 8.8.;.= 7 & < } } } } } } { @.N.M.z.k.g.f.f.a.f.f.a.f.a.",
"N.b.b.c.j.j.d.d.j.j.d.d.d.d.x.x.x.x.x.n.B.n.-.5 + $ % X $ + + + 7.8.;.o 8 8.7.8 . l : } } } } } ` @.V.V.M.l.k.g.f.f.f.a.a.f.a.f.",
"B.n.n.c.l.x.d.d.j.d.d.j.x.d.d.x.x.x.x.x.,.a ) } } } } } } } ' X Q 8.8.: & # $ T ' = O.; ' } } G :.k.c.N.N.N.M.z.g.f.f.g.f.f.a.f.",
"Z.B.n.n.c.x.j.j.d.j.j.d.d.d.x.x.x.x.x.-.E } } } } } } } } _ + X < $ $ 8 & = } } } ' X 5.- w f q.g.z.x.c.Z.Z.M.M.M.z.g.g.a.f.f.a.",
"Z.Z.n.n.n.c.x.j.d.d.d.d.d.j.x.d.d.x.x.L } } } } } } } _ L + ' } } } } } r m 3 } } } R   ; x g.d.f.z.z.l.M.N.B.N.M.M.x.g.g.g.f.f.",
"n.Z.n.n.c.c.l.j.j.d.d.d.d.d.d.x.d.d.d.p R _ _ _ P a | *.n.p.j W } } } } } ; - r D c $.r.d.s.d.d.g.g.g.g.g.z.M.B.M.M.v.x.g.g.a.g.",
"n.B.Z.n.v.n.x.x.x.d.d.d.d.d.d.d.d.x.x.x.2.#.X.0.0.n.B.Z.Z.B.n.2.X.m z X.X.x C 1.d.j.h.j.d.d.d.d.g.g.g.g.z.j.x.N.Z.N.n.b.c.j.f.d.",
"n.B.A.B.B.n.n.x.x.x.x.x.d.d.d.j.j.d.d.x.x.x.x.v.n.n.B.Z.B.B.B.n.n.n.n.n.n.N.c.j.j.d.d.d.d.d.d.d.g.g.g.g.d.d.j.x.n.Z.N.n.N.c.j.g.",
"x.n.n.A.B.n.v.v.x.x.d.d.d.j.d.d.d.x.d.x.d.x.x.n.n.n.B.B.B.B.B.n.n.c.c.n.N.B.V.c.j.j.j.d.d.d.d.d.d.d.g.g.z.d.d.x.x.n.V.V.N.n.c.j.",
"x.x.n.B.Z.n.v.v.x.x.x.d.x.d.d.d.d.d.d.d.x.x.x.x.x.x.n.n.n.B.B.B.n.n.c.x.n.V.Z.Z.n.x.x.x.d.x.j.d.d.d.d.d.d.x.d.x.z.k.n.V.N.n.c.c.",
"x.x.v.n.Z.Z.B.n.x.j.x.d.d.d.d.d.d.d.d.d.d.x.x.x.x.n.v.n.n.B.B.n.n.c.c.x.c.n.V.Z.Z.n.x.x.x.j.j.d.d.d.d.j.d.d.x.d.j.j.v.n.Z.Z.N.M.",
"x.x.x.v.B.B.B.B.n.n.x.j.j.j.d.x.d.d.d.d.d.x.d.x.x.v.n.n.n.n.B.B.n.n.c.c.x.c.n.n.Z.B.n.c.x.j.d.d.g.g.d.d.j.d.d.d.d.h.z.c.n.N.B.N.",
"d.x.x.v.B.A.B.B.n.n.x.x.j.j.x.d.d.d.d.x.d.d.x.x.x.x.x.n.n.n.B.B.B.n.n.x.x.x.j.n.n.C.Z.n.n.x.x.j.g.j.s.d.d.d.d.x.j.d.j.g.x.v.N.B.",
"x.x.x.x.v.B.B.B.n.n.n.x.x.d.j.x.d.d.d.d.d.d.d.d.d.z.x.x.z.n.n.B.N.n.n.c.x.x.x.j.n.n.Z.Z.n.n.c.x.z.h.d.d.d.d.d.d.g.d.s.j.z.c.M.Z.",
"x.x.x.v.x.n.Z.Z.B.n.n.x.x.d.d.d.j.j.d.d.d.d.d.d.d.x.x.x.v.n.n.B.B.n.n.n.c.x.j.j.j.x.n.Z.Z.B.n.c.c.d.x.d.j.d.d.d.x.d.d.j.x.z.j.n.",
"d.x.d.x.x.v.B.B.B.B.n.n.n.x.d.x.d.d.d.d.d.d.d.j.d.d.x.z.x.x.v.n.n.B.B.n.n.x.x.j.j.x.c.n.Z.Z.B.n.b.x.d.x.d.d.d.d.d.d.d.j.d.d.j.x.",
"x.x.d.x.x.x.n.B.Z.Z.B.n.n.x.x.x.d.d.d.d.d.d.d.d.d.x.x.d.x.x.n.n.n.B.n.n.n.x.x.x.d.x.x.x.n.Z.B.n.n.v.x.d.j.d.d.s.d.d.d.j.d.d.d.x.",
"d.x.x.d.x.x.x.n.Z.A.Z.B.n.n.x.d.j.j.d.x.d.d.d.d.d.d.d.x.d.x.x.v.n.n.n.n.n.x.x.x.x.x.x.x.x.n.Z.Z.n.n.b.x.d.x.d.d.d.d.j.d.d.x.d.j.",
"x.x.x.x.d.x.x.x.n.Z.A.Z.n.n.x.x.j.j.d.d.d.d.d.d.d.d.d.d.d.x.x.x.x.n.B.n.n.n.x.x.x.d.j.d.x.x.n.n.A.Z.n.n.x.j.g.d.d.d.d.d.d.d.d.z.",
"d.x.j.d.x.x.x.x.n.B.Z.Z.B.B.n.x.x.x.j.d.d.d.d.d.d.d.d.d.d.x.x.x.x.n.n.B.n.n.n.n.x.x.d.x.d.x.c.n.n.A.n.n.b.c.x.j.h.d.d.j.x.d.s.h.",
"d.x.d.x.d.x.x.x.x.x.B.Z.Z.Z.B.n.x.x.d.x.d.d.d.d.d.d.d.d.x.x.d.x.x.x.n.n.B.n.n.x.x.x.x.d.x.d.x.x.n.n.Z.Z.n.n.x.j.j.d.h.d.d.d.d.d.",
"d.d.d.d.d.x.d.x.x.x.x.Z.A.Z.Z.n.n.v.x.d.d.d.d.x.d.d.d.d.d.d.d.x.x.x.n.n.n.B.n.n.x.x.j.x.x.d.d.x.x.n.A.A.C.n.b.c.j.j.j.d.d.d.d.d."
};
