/* XPM */
static char *_a75b613e7fd4439b7e08a008093d216jI7AQtQge3qSuL8P[] = {
/* columns rows colors chars-per-pixel */
"64 64 205 2 ",
"   c black",
".  c #0E0600",
"X  c #0E0802",
"o  c #1B0B01",
"O  c #1A1105",
"+  c #101010",
"@  c #1D1610",
"#  c #291301",
"$  c #271608",
"%  c #351500",
"&  c #3B1702",
"*  c #372003",
"=  c #202020",
"-  c #3F3D37",
";  c #461B04",
":  c #551F00",
">  c #462604",
",  c #552502",
"<  c #5D3B0E",
"1  c #672901",
"2  c #712D03",
"3  c #6C3404",
"4  c #7A3106",
"5  c #673F1D",
"6  c #443623",
"7  c #5C4F00",
"8  c #744407",
"9  c #674E30",
"0  c #685743",
"q  c #7C6646",
"w  c #71685A",
"e  c #873603",
"r  c #883609",
"t  c #963C07",
"y  c #8F4B0E",
"u  c #884F1B",
"i  c #935718",
"p  c #A34304",
"a  c #AB4605",
"s  c #B14705",
"d  c #B64A05",
"f  c #AC5907",
"g  c #B54910",
"h  c #927D04",
"j  c #A4600A",
"k  c #B66F12",
"l  c #825A26",
"z  c #8E6735",
"x  c #B27338",
"c  c #DA4E08",
"v  c #C65307",
"b  c #CD5306",
"n  c #CB5409",
"m  c #CE540E",
"M  c #DC5A07",
"N  c #DB5308",
"B  c #D55A09",
"V  c #DF5B09",
"C  c #E05A0B",
"Z  c #E45A14",
"A  c #DE630A",
"S  c #DF6B0E",
"D  c #C7760E",
"F  c #DC6F18",
"G  c #D77118",
"H  c #E0650A",
"J  c #E06D0C",
"K  c #E1740E",
"L  c #E17B0F",
"P  c #E16B15",
"I  c #E27F10",
"U  c #D77F2E",
"Y  c #D27F30",
"T  c #E4782A",
"R  c #E57A37",
"E  c #9D7742",
"W  c #867457",
"Q  c #B27E46",
"!  c #807968",
"~  c #AD9305",
"^  c #B8823C",
"/  c #DD850D",
"(  c #D98A0C",
")  c #DA960C",
"_  c #DE8412",
"`  c #DB8619",
"'  c #E0840F",
"]  c #E28611",
"[  c #E48B12",
"{  c #E88E12",
"}  c #E99213",
"|  c #E6911F",
" . c #E89B1A",
".. c #D1A907",
"X. c #EFA51A",
"o. c #F2A519",
"O. c #F7AA1A",
"+. c #F9AB1A",
"@. c #D78925",
"#. c #D6912C",
"$. c #CE8B32",
"%. c #CD8B3C",
"&. c #D38D32",
"*. c #D18937",
"=. c #D4923C",
"-. c #E48E20",
";. c #E58429",
":. c #E6952F",
">. c #E89D3E",
",. c #A8855A",
"<. c #B88D52",
"1. c #9C8E75",
"2. c #BB9864",
"3. c #AB9476",
"4. c #BCA179",
"5. c #C88B45",
"6. c #CE9243",
"7. c #CA964D",
"8. c #D19345",
"9. c #C59452",
"0. c #C99956",
"q. c #C69958",
"w. c #C4995C",
"e. c #E78547",
"r. c #E88D48",
"t. c #CEA051",
"y. c #EAA54D",
"u. c #E9A85A",
"i. c #C39C65",
"p. c #CB9D68",
"a. c #CDA46F",
"s. c #C4A477",
"d. c #D2A973",
"f. c #EDAC6D",
"g. c #EDB46B",
"h. c #E9B97C",
"j. c #8C8781",
"k. c #9B958A",
"l. c #A59782",
"z. c #BCA684",
"x. c #BAA689",
"c. c #AEA795",
"v. c #AFA997",
"b. c #AFA999",
"n. c #B4A790",
"m. c #B4A994",
"M. c #BAAB94",
"N. c #B3AD9B",
"B. c #B9AF9D",
"V. c #B6B09E",
"C. c #BBB19F",
"Z. c #B6AEA2",
"A. c #B7B2A0",
"S. c #BCB3A1",
"D. c #BEB9A6",
"F. c #BFB9A6",
"G. c #BFBAA8",
"H. c #BABABA",
"J. c #C6AC87",
"K. c #D6B384",
"L. c #C7B79D",
"P. c #D7B991",
"I. c #C1B6A3",
"U. c #C1B7A5",
"Y. c #C1B9A6",
"T. c #C4B9A6",
"R. c #C8BBA7",
"E. c #C1BBA8",
"W. c #C5BAA8",
"Q. c #C2BDAA",
"!. c #C4BCA9",
"~. c #C5BDAA",
"^. c #C5BFAC",
"/. c #C8BDAB",
"(. c #CABEAA",
"). c #F0C288",
"_. c #EDC592",
"`. c #F2C794",
"'. c #F2CA97",
"]. c #C6C1AD",
"[. c #C9C1AE",
"{. c #CDC1AE",
"}. c #D1C3AF",
"|. c #CDC4B0",
" X c #CEC5B2",
".X c #CFC8B5",
"XX c #D2C5B2",
"oX c #D0C6B2",
"OX c #D3C8B6",
"+X c #D5C9B4",
"@X c #E7CEAB",
"#X c #EFD0AC",
"$X c #F4D2A6",
"%X c #E9D1B3",
"&X c #F4D8B5",
"*X c #F8DDC0",
"=X c #F8E1C4",
"-X c #EFE3D3",
";X c #F9E9D6",
":X c #ECECEC",
">X c #FBF0E2",
",X c #F6F3F0",
"<X c #FCF7F0",
"1X c #FDF8F1",
"2X c #FFFEFE",
/* pixels */
"N.V.A.D.Q.].Q.Q.G.G.A.A.A.b.A.A.b.A.A.A.A.G.Q.^.Q.G.D.A.V.V.V.A.A.V.A.D.Q.]..X.X].].D.C.C.D.V.D.C.T.T.!.{.+X+X X X!.].W.W.T.D.T.",
"V.Z.A.A.D.G.].Q.G.G.G.A.A.b.b.b.A.A.A.A.A.A.D.Q.].Q.D.D.V.V.N.N.N.V.A.A.D.D.]..X X].E.D.D.V.V.D.S.S.S.T./. X+XOX X X!.!.W.T.U.U.",
"b.A.V.V.A.D.Q.].Q.Q.G.D.A.A.b.A.A.N.N.A.A.A.A.D.Q.].G.D.D.A.V.V.A.A.N.V.V.C.G.[..X X].].D.D.C.V.V.S.S.S.U.T./.oXOXOX{././.W.U.U.",
"N.b.V.A.A.A.D.G.].].Q.G.A.A.A.b.b.b.b.N.A.A.N.A.D.Q.Q.Q.D.V.V.N.b.N.N.V.V.V.V.D.].]. X].].C.D.V.S.S.S.S.S.S.U.Q. XOX+X X/./.W.U.",
"N.N.Z.Z.N.A.A.A.Q.].Q.Q.H.D.A.N.N.b.N.A.N.A.N.A.A.A.D.].].D.D.V.N.N.N.N.V.V.V.V.L.Q.]. X].].Q.V.C.A.A.C.S.S.S.U.!./.oX+XoX(.(.^.",
"N.N.b.b.N.N.N.A.A.G.].Q.G.G.D.A.Z.N.N.b.N.N.N.N.N.A.V.D.D.].D.D.V.V.N.N.V.V.N.V.V.A.Q.].[.].Q.Q.S.S.V.V.N.S.S.S.S.W./. XoXoXOX(.",
"b.Z.b.Z.N.b.A.A.A.D.Q.Q.G.G.D.A.A.N.N.N.b.N.N.N.N.V.V.V.D.Q.Q.D.D.V.N.N.N.N.N.N.N.V.A.D.].[.].].D.S.A.V.V.V.S.Z.Z.I.U.W./.oXOXoX",
"Z.b.b.b.b.Z.b.A.V.V.A.G.].G.G.D.A.A.N.b.N.b.b.N.N.N.N.N.V.D.Q.Q.D.D.V.N.N.b.N.N.V.V.V.V.L.].].Q.!.D.S.S.V.V.V.V.S.Z.S.S.W./.oXOX",
"b.Z.b.b.b.N.b.N.N.V.A.D.D.].Q.D.D.D.V.N.N.v.N.N.N.N.N.N.N.V.D.E.Q.D.D.V.V.N.v.V.b.V.b.V.V.D.Q.].].^.E.S.S.V.C.V.N.S.S.S.U.T.!.}.",
"Z.b.Z.b.b.b.N.N.b.V.N.A.A.D.Q.Q.E.D.A.V.N.N.b.b.b.v.N.N.N.N.A.S.Q.D.D.D.V.N.V.b.b.b.N.b.V.A.V.Q.].].Q.D.S.S.V.N.N.N.N.S.C.S.T.!.",
"A.N.N.b.Z.b.b.N.N.V.b.N.V.D.Q.Q.E.E.D.A.A.N.v.b.b.N.N.N.N.N.N.N.D.Q.Q.D.A.V.N.m.b.V.b.V.V.b.A.A.W.]. XT.D.S.V.V.B.Z.N.N.V.C.C.U.",
"A.A.Z.N.b.N.N.N.N.b.N.N.V.V.V.D.E.^.G.S.A.V.N.N.b.v.v.v.N.v.N.N.N.A.D.Q.D.D.A.N.b.b.b.b.v.N.N.V.S.S.^.].E.D.D.S.C.N.B.N.N.V.V.S.",
"H.A.A.A.N.N.N.N.N.b.V.N.V.V.V.V.D.Q.Q.E.S.S.V.N.b.b.b.b.b.N.N.N.N.V.V.Q.Q.D.D.N.N.b.b.b.b.b.b.V.N.V.S.E.].E.D.S.S.N.N.N.N.N.C.C.",
"D.A.A.A.N.N.b.b.N.N.V.v.N.V.V.V.S.S.^.E.G.D.V.Z.V.v.b.b.N.N.b.b.N.b.V.V.D.Q.D.A.A.N.b.b.N.b.b.b.N.V.V.S.E.].E.D.S.A.S.N.N.N.N.N.",
"].G.D.A.V.V.b.b.N.N.N.V.N.V.V.V.V.S.T.^.Q.G.G.Z.l.W q 0 W W l.b.b.b.N.V.V.Q.Q.D.D.V.V.N.b.b.b.b.v.N.N.V.S.E.].E.E.S.A.V.B.N.N.N.",
"].Q.G.A.V.V.N.b.N.N.b.N.m.M.V.V.V.S.S.S.Q.1.5 4 ; y t & 2 o   + w b.b.N.V.V.D.Q.D.D.M.4.b.V.b.b.b.N.b.N.N.S.D.].].E.D.S.V.N.N.N.",
"].].].D.C.S.V.N.N.N.N.N.N.b.C.N.V.C.C.C.q r Z Z Z Z Z Z Z Z g O   - v.v.N.N.V.T.L.=._ ] $.n.N.v.b.b.b.N.N.N.V.C.].].].C.V.V.V.N.",
" X X].].D.S.S.N.N.N.N.N.N.N.N.N.V.N.{.w 4 Z Z Z Z Z Z Z Z Z Z m > X w N.b.N.V.N.=.] ] ] ] @.n.b.v.b.v.v.v.V.N.N.C.].].D.C.C.N.N.",
" X X[.].!.D.S.S.V.N.B.N.Z.B.N.B.V.N.x.y B M C C C Z Z Z Z Z Z Z r + -XP.m.m.m.w.G ] / ] ] ] #.b.v.v.b.v.v.v.v.V.N.C.].].].V.V.V.",
"]. X{.[./.E.D.C.S.B.N.N.N.N.Z.N.x.Y A M C C C C V V V H A V V p X j.2X2X<X@Xi._ H C V S ] ] ' 0.V.v.N.b.v.v.v.v.N.N.N.D.Q.Q.D.D.",
"W.[.oX X{.[.E.U.S.Z.B.N.V.N.N.5.H V V V C V V V V V V V V V V V + ,X2X2X2X2Xy.J C M C C C L ' ' n.N.b.v.b.v.b.N.v.N.N.V.D.Q.D.T.",
"T.T. X+X X X].W.D.S.S.N.V.i.F V C C M C C C V V V V V V V V V a j.2X2X2X2X2X>.K C C M C C H ' ' 0.V.V.v.b.v.v.b.v.N.v.V.N.D.D.Q.",
"S.T./.oX+X X[./.!.T.S.M.5.C V V M C V V V V V V V V V V V V v @ ,X2X2X2X2X>X' H C C C C C M H ' ` D.V.V.b.v.v.v.v.b.v.v.m.V.V.Q.",
"U.U.T.[.oXoX{.[.^.Q.3.> 3 b V V V C V V V C V V V V V V V V & l.2X2X2X2X2X).' A H C M C C C M K / s.A.V.V.v.v.b.v.v.2.i.v.m.V.V.",
"S.T.U.T./.OXOX X/.%X2Xn.O   3 b V V V V C C M C M C M C V 4 6 2X2X2X2X2X2X:.K C V V C C C V V C _ t.].C.V.N.N.v.v.2./ / w.N.b.N.",
"S.S.U.U.!. X+XK._.2X2X2X:X0   # s C C V H M C C C C C H g . %X2X2X2X2X2X&X] V C V V M C V V V V L 0.D.D.C.C.N.N.,.* o k ` c.c.N.",
"S.S.S.U.I.d.=.] ] y.>X2X2X2Xk.X X s V V C C V V C C M B # <.2X2X2X2X2X2Xg.K V V V V V V V C V V S 9.D.T.Q.D.C.E , t o o / 4.v.v.",
"S.C.U.C.8.] ] ] ] { | ;X2X2X2XV.  ; V V C M C V C M C , i <X2X2X2X2X2X2X-.A C V V C V V V V V V A 9.C.V.D.L.l r A A p   f 2.v.v.",
"C.S.S.8.] ] ] ) ..) [ | ;X2X2X2Xw X M M M C V V M C p < *X).g.*X2X2X2X;XL V V V V V C V C H C C J %.d.K.$X;X, V C A M , 8 9.v.v.",
"C.B.0.] ] ] ( h = ~ ) } g.2X2X2X2X$ 2 B M C V V C M > u.-._ ] ] $X2X2X$XS C V V V V V V C M C C B T 2X2X2X&Xr V V C C s & <.v.v.",
"S.i.] ] ] ] _ ~ 7 ..( } -.1X2X2X2X1.$ 2 C V V C C i G S I ] ] ] | <X2X).H V V V V V V V V C C M C P 1X2X2Xp.p V V V M C > 7.v.v.",
"N.] _ ] ] ] } / ) / [ } ] $X2X2X2XH.  : C C V V B b c c c B I ] ] '.2Xy.H V V C C V V V V V C M C H 2X1X2X,.M V V V C B e k v.b.",
":.O.X.[ ] ] [ } } } } [ ] u.2X2X2XH.o s C C C C M c c c c c A [ ] g.2Xy.V V V V C H C C C M M C C J 1X2X2X,.V V V V V V b , 2.N.",
"t. .O.O.} ] ] ] [ [ ] ] ] y.2X2X2X0 o d M C M M c c c c c c c G ] :.2Xy.V V V C M C M C C C C C C J 2X1X1XQ V V V V C V V % $.N.",
" .X. .o.+.[ ] ] ] ] ] ] ] y.2X2X2Xo 2 M C A M c c c c c c c c S ] ] 1Xy.C V V V C C C C C C H C C ;.2X1X2Xx M V V V V V C % j z.",
"t. . .X.o.o._ ] ] ] ] [ ] y.2X2X! , b C C M c M c c c c c c c C ] ] =Xg.V V V V M C C M M C M C C u.1X2X2Xu V V C V V V V % j 0.",
"C.6./ [ o.o.] ] ] ] ] ] ] y.2X:Xo 1 C C M C C M c c c c c c c c ] ] =X'.V V V V C C M C V V V V C f.2X1X2Xu V V V V V V b   D &.",
"S.J.` ] ] [ ] ] ] ] ] ] ] y.2X9   ; C C C C C M M c c c c c c H ] ] 2X=XV V V C C M C H C V V C C `.1X2X1Xu V V V V V M e # _ &.",
"U.U.z.@.] ] ] ] ] ] ] ] ] ] ^     p M C M C M C C c c c c c c J ] u.2X2XJ V V V C C C H M C V V M >.y.h.*Xz c V V V M b O y ] 6.",
"U.S.C.M.7.] ] ] ] ] ] ] ] [ j   & s C C C C C C c c c c c c M L [ &X2X2XT V V V C M C M C C V V C K _ w.i.@.f p p s e # < ] / 4.",
"T.U.I.Z.S.x.&.] ] ] ] ] ] ] 8 , f C M C C C C M c c c c c c M ' y.2X2X2Xe.C C C C C C C M C C V V J ] ` C.V.x.q.$.k j D ] %.4.N.",
"!.T.I.C.Z.S.C.s.&._ ] ] ] ] k A M C C H C M H M c c c c M B L :.>X2X2X2XR M C M C M H M C V C V V L ] ] s.C.C.V.N.n.c.m.N.m.N.N.",
"/.!.T.I.C.B.B.S.C.s.&./ I H V V C C C C C C C J J C M H F ' g.<X2X2X2X1XA C M C C C C C V V C C J ' ] ] 0.U.U.C.B.N.N.m.m.N.m.N.",
"{.R.!.T.S.S.B.A.S.B.B.J.*.A V V C M C M C M C C C C M C J T r.e.'.2X2X'.J C C C M C C M V V V K ] ] ] ] a.R.E.S.C.N.V.B.V.N.N.N.",
"XXR.!.W.U.S.S.B.B.Z.C.C.S.M.p.*.F A V V M M C C C C M v v n C N $X#Xh.@./ K H C C C V A S K ] ] ] ] ] #. X{.[.U.S.C.V.B.N.N.N.N.",
"XXXX(.(.T.U.I.Z.S.C.C.B.B.C.B.I.S.J.i.U J C M C C p X         Q I.U.I.B.x.w.*.` ' ' ] ] ' ' ] ] ] ] 7.L.{.{.[.R.T.U.C.B.B.M.N.B.",
"XXXX/.R.T.U.S.S.C.Z.B.B.B.C.I.C.S.S.L.U.U.p.F C t             <.!.T.U.I.I.C.B.B.z.4.7.9.&.&.&.*.w.J.I.I.T.{.oX{.[.T.U.C.B.B.V.V.",
"(.}.oXR.R.T.U.I.C.C.B.B.C.B.C.S.C.C.C.U.L.L.R.z.9 O         & a.!.!.!.T.I.C.C.C.C.V.M.C.B.N.M.B.B.B.I.L.L.T.[.{.{./.!.S.L.V.B.B.",
"(.}.XX(.(.(.(.I.I.C.C.C.C.B.C.Z.B.I.C.I.I.I.I.R.(.L.K.P.p.z 3.(.(.^.(.(.W.W.U.S.C.C.B.B.B.B.B.B.B.B.I.B.L.B.I./.oX(./.!.!.S.C.B.",
"(.}.+X}.(.(.R.R.I.I.Z.C.C.Z.C.C.B.I.I.B.I.I.R.I.R.(.(.(.+XXX(.(.(.(.^.(./.(./.U.C.C.B.Z.B.B.B.B.B.B.B.B.I.B.L.I./.XX(././.!.U.B.",
"L.R.(.+X(.(.R.R.I.Z.I.C.I.Z.B.C.B.B.B.B.I.I.L.I.R.(.(.+XXX}.+X(.W.W.W./.(.(.(.(.I.C.C.C.B.B.B.B.B.B.B.L.I.I.B.L.T.(. X{.{./.U.S.",
"I.R.R.}.+X(.R.R.W.I.C.C.C.B.B.B.B.B.I.I.I.I.I.I.R.(.(.(.(.(.+X(.W.W.W.(.(.(.+X/.(.I.I.I.C.C.I.B.B.B.B.B.B.B.B.I.L.I./.XX{./.!.T.",
"I.I.R.(.+X}.(.(.T.I.I.Z.C.C.B.C.B.B.B.B.M.I.I.I.R.R.R.(.(.(.XX(.(.W.W.T.T.(.(.+X(.(.T.T.I.Z.Z.B.B.B.B.B.B.B.I.B.B.S.R.(.XXXX[./.",
"I.I.I.R.(.XX+X(.(.I.I.I.C.C.I.C.B.B.B.B.B.I.B.I.I.I.R.R.(.(.(.}.(.(.W.T.U.U./.(.+XXX/.T.I.I.I.B.S.B.B.B.B.I.B.B.B.B.L.T.R.}.{.{.",
"I.I.I.R.(.@XXXXX(.(.I.I.C.C.C.C.C.B.B.C.B.B.B.I.I.I.I.R.(.(.(.XX(.(.(.U.I.I.I.W./.+X/.(.(.T.I.I.B.S.B.B.B.M.Z.I.I.B.C.C.T.R.}.{.",
"B.I.I.I.(.XXXX(.(.R.W.I.I.I.I.Z.B.Z.B.B.B.B.I.B.I.L.I.I.(.(.(.(.(.(./.T.U.I.I.U././.+X+X(.W.T.(.S.C.B.B.B.B.B.C.C.C.B.C.L.T.[.oX",
"B.I.I.I.R.(.XX+X(.(.(.(.R.I.B.B.I.B.B.B.B.B.B.B.M.I.I.L.R.R.(.(.(.(.(.(.(.U.I.I.I.I.(.(.(.(.(.(.I.C.B.I.C.B.B.C.C.C.C.L.B.I.I.R.",
"I.I.I.I.L.(.(.XX+X(.(.(.R.I.I.B.B.Z.B.B.B.B.B.I.I.B.B.I.I.R.(.(.(.(.(.(.(.(.I.I.B.I.I.(.+X+X(.(.W.I.C.C.C.Z.C.B.B.C.C.C.S.B.L.I.",
"I.I.I.I.I.I.R.(.+XXX(.(.R.I.I.B.Z.B.C.B.B.B.B.B.B.B.I.I.I.I.R.R.(.+X(.(.R.I.I.I.I.I.I.I.(.(.(.(./.W.I.C.C.I.B.N.B.B.C.Z.B.B.B.S.",
"Z.I.I.B.I.I.I.R.+X+X+X(.(.I.I.I.I.C.C.B.Z.B.B.B.B.B.B.I.I.I.I.I.(.(.(.(.(.T.I.Z.Z.I.I.I.(.(.+X+X(.(.T.I.C.C.C.B.B.B.S.B.B.I.B.S.",
"I.B.I.I.B.I.I.I.(.XX+X(.(.(.(.R.Z.I.Z.B.I.Z.Z.Z.B.B.B.B.B.I.I.I.(.(.(.(.(.(.W.I.I.B.I.I.I.I.(.(.+X(.(.(.I.S.C.Z.B.Z.B.B.B.B.C.C.",
"Z.I.I.Z.I.I.I.I.R.XX+X+X(.(.(.W.I.I.I.Z.M.Z.M.M.M.B.B.B.I.I.I.I.R.(.+X(.(.(.W.W.I.I.B.B.I.I.T.(.(.+X(.(.!.T.I.S.C.B.B.B.I.B.B.B.",
"C.C.B.C.B.I.I.I.I.R.(.+X+X(.(.(.I.I.B.I.Z.B.B.B.Z.Z.B.B.I.B.I.B.I.R.(.(.(.(.(.R.I.I.Z.I.Z.I.I.I.(.(.+X+X(.(.U.S.S.C.B.S.C.B.B.B.",
"C.Z.C.B.I.B.B.I.I.R.(.+X+X+X(.(.T.I.I.Z.B.I.Z.I.B.I.B.B.M.I.B.I.I.I.(.(.(.(.(.W.I.I.I.B.I.B.Z.I.T.(.+X+XXX(.!.T.S.S.C.Z.B.B.B.B."
};
