/* XPM */
static char *_28977c8cc9d435cb110091dbeed76a0OfXmseuuvBqtjMEY[] = {
/* columns rows colors chars-per-pixel */
"100 100 82 1 ",
"  c #743C17",
". c #20773A",
"X c #247D3A",
"o c #2D7F3A",
"O c #357C3A",
"+ c #6E421A",
"@ c #71401A",
"# c #4B622A",
"$ c #7A6F2F",
"% c #767030",
"& c #A35F1E",
"* c #AC5E1E",
"= c #B25B1B",
"- c #A5601F",
"; c #8D6726",
": c #926524",
"> c #A66020",
", c #A86020",
"< c #27813B",
"1 c #29833B",
"2 c #24893E",
"3 c #2E8B3A",
"4 c #32803C",
"5 c #318E3C",
"6 c #389D37",
"7 c #33913D",
"8 c #38973D",
"9 c #3A9E3B",
"0 c #3DA439",
"q c #41A53E",
"w c #44AD3A",
"e c #49B737",
"r c #4BBB37",
"t c #45B238",
"y c #4AB63B",
"u c #4BBB38",
"i c #4EBC38",
"p c #4DBE38",
"a c #4FBC3B",
"s c #4DB83D",
"d c #51BD3A",
"f c #53BE3A",
"g c #53BE3B",
"h c #52BE3D",
"j c #57BF3D",
"k c #4EC136",
"l c #4EC037",
"z c #4FC137",
"x c #4EC038",
"c c #4FC039",
"v c #50C139",
"b c #5AC13F",
"n c #5FC33F",
"m c #60C33F",
"M c #57BF40",
"N c #5CC142",
"B c #5DC142",
"V c #62C343",
"C c #63C343",
"Z c #63C443",
"A c #67C543",
"S c #64C444",
"D c #66C445",
"F c #66C446",
"G c #68C647",
"H c #69C647",
"J c #6EC847",
"K c #68C548",
"L c #69C648",
"P c #6BC649",
"I c #72C948",
"U c #73C949",
"Y c #77CB4A",
"T c #77CB4B",
"R c #77CA4C",
"E c #77CB4C",
"W c #79CB4B",
"Q c #79CC4B",
"! c #7BCC4C",
"~ c #7ACC4D",
"^ c #7CCC4C",
"/ c #7DCD4D",
/* pixels */
"TTTTTTTTTTTTTTTTTTTTTTTTTTTTTTTTTTTTTTTTTTTWAriuxuuxxuuxurrrb!TTTTTTTTTTTTTTTTTTTTTTTTTTTTTTTTTTTTTT",
"TTTTTTTTTTTTTTTTTTTTTTTTTTTTTTTTTTTTTTTTTTUWFruuuuiuuuuuuxrrnTTITTTTTTTTTTTTTTTTTTTTTTTTTTTTTTTTTTTT",
"TTTTTTTTTTTTTTTTTTTTTTTTT!TTWTTTTTTTTWTTTTTWVuuiuuuuuruuuuurnQTTETTTTTTETTTTETTTTTTTTWTTTTTTTTTTTTTT",
"TTTTTTTTTTTTTTTTTEITTTIETIEIEITWTTIETEITTWUWSuiuuxrixruuuxurnTTIITTTTTTII!ITITTTTTTTTEITTTIWTTIWTTTT",
"TTTTTTTTTTTTTTTTTTTTTWWQWWWWWWWWWWE^WTTTTTTWSrpurruruurruurrn/QW!E!QQQT!EWE!TTTTTTUTTWWE/WE/TTTTTTTT",
"TTTTTTTTTTTTTTTTTTTTILLLLSLHLLLLLLLFHWEITTUWLMddNvdMiruirrrrbSHLLSLLLLGGHHHHITTTTTWTAVACACACIEITTTTT",
"TTTTTTTTTTTTTTTTTTTQJuuuuruuuuuuuurudWTITTTTEEWWTTT!SrruuuuiuuuuuuuuuuurruieSEETTUTTdrrrrrrrVWTTTTTT",
"TTTTTTTTTTTTTTTTTTTEJirrprrrrrrrrrdufWTETTTTTWEITTTTSyruuxrurrirrrrrrrxrrrrrVEWWTTTWdrrduurrCWTTTTTT",
"TTTTTTTTTTTTTTTTTTITJrruuuuuuulruiurNETTTTITTTITTTI!NrxuuuuruuxruiuxuuurruurSTITTWTUdppuppurA^TTTTTT",
"TTTTTTTTTTTTTTTTTTETJrruuxuuuiuuuurrdETTTTTTTTETTTE!VruuuxuuuxuixuuuxruxuuurST!TTUTWdrpuruurAWIWTTTT",
"TTTTTTTTTTTTTTTTTTE!Jrrixriuuuxuuurrd!EETTTTEWTTTTT!VruuuuuixuuuruuxuuuuuuurS!TTWUTUdriupuurAWTTTTTT",
"TTTTTTTTTTTTTTTTTTTEJrriuirxuxuxirrrhTTEITTTITTWEII!NrxuxrxuuxuuuiuuiriuuxuuS!TTTWUTdruuuuurAWITTTTT",
"TTTTTTTTTTEITWWW!!E!Irriuuuuuuiuuilrv!!!EW!EEWEWT!Q/VrrrrrrrrrrrrrrrrurluuirS/!QWWWWdrrrrrrrATITTTTT",
"TTTTTTTTTTTTIHHHLSGGSuruuxuxuxuuiuurhLSHHHLSLLLHSLHLNuiuxxuxurixxuiuuruuuxrrNGGLLFLHddddddddHTTTTTTT",
"TTTTTTTTTTTTIiuuuuuuuuruuuxruruuuuruuuuuuuuuuuuuuruuuruuuuuiuuiuuxuuxruuurururuuuuuuLWWTWTTTTTTTTTTT",
"TTTTTTTTTTTWEirrrrrxrrrluuuiiuixxrruuuurrrrrprrrrirrxrrrrrrrrrrrrrrrruruxururrrrrrruHWTTTTTTTTTTTTTT",
"TTTTTTTTTTITIxriuiuuxuruuuurxiuuuxuruuxuuuuuxuiuuuxuruuuxuuuuuuuuiuuuruluuuruuuuuuruSWITTTTITTTTTTTT",
"TTTTTTTTTTTTTrriuuuxuuuiuxxuuuuiuuuuuiuxuluxuruxuiiuxuuuuiiurliuxuuxuuuuxuxuuixuiiriLWTTTTTTTTTTTTTT",
"TWTTWWTTTTTTIirixuuruurxuuuxuxuruxiuuuuriuuruuuuuuuruxuuxuuxuruuuuuuixuruuururxuuirrHWIWTTTTTTTTTTTT",
"IEIETTEITTTTIrrruiuiuuxuiruuuuxuiruxrluuruuiuxuxuxuruuuuruxuuxuxuxuuuriuuirixruupurrHWTTTTTTTTTTTTTT",
"!!!!W^W^E!TETiruuuiuixrxuuuuuxxuuxuuuuixxuuuiuruiururruuuurrrurrurrururuurrrruruuiruHWTTTTTTTTTTTTTT",
"SSSBVVCCSSSSVirxxuuxuuiuiruluuuuuuxuuxuuuxuiuxuuuuuriiiiuiixiiiuxuxiuruxuirxiruuiuruAWTTTTTTTTTTTTTT",
"uurrrrrrrrrrrrrrriuuuxuuuxxuriuiuuururiuxuuxxuuixuuruuxuuuuuxuuuuuuxrruuxurruruiruruHQITTTTTTTTTTTTT",
"uuuuuuuuuuuururuuuxruuuuuuuxuuurxuiixuuuuiruuuurrxrurrrrrurrrruurrrrurururuururxuuruHQTTTTTTTTTTTTTT",
"luxuuiuuuxriuiruuxuuuluxuuruxuixuuuiuuuuuuuuxuxuuxuruxuuuuuuxuuiuxrurrxuuurxuruuuxruSTTTTTTTTTTTTTTT",
"uuuuiruxuuuuxuuiiuluuriuiuxuuuuuxuxurxlurxiuuxuiruuuiuiiuxuxuiruuuururuuxuruxuluxuruG!TTYYTTTTTTTTTT",
"uurxuxxuuxxuuuuxuxriuuuxuuuxuiuuuuxuxruuiuiuriuuiuuxuulruuuuuuxuiuruuxrxuxuuuruuuxruGTTTTTTQTTTTTTTT",
"xuuuuuuuuuuuuiruuuuuiuxuuuiuurxxriuuuuiuiiuuuuuxuxxuuruuuixrlpuuurluuruuuuuuuuixuuruSTTTTTTTTTITIEIT",
"uuuxruuirpuuxuuxuxuiuruurxuxuiuuuixruuuipupuuppuuxuiuxuuxuuxurxuuurruruuuruixuurruruL/QQQ!!T!WQTE^WQ",
"riuuxuxruuirxuuuuuuuxuruxuuruuiuiuuuxuuuuprrpuupuuruuixuruuuiuuuxuurrxruuxuuuuiuxuruNVmVnNVNVnVNmCVB",
"xuxuuuuuliuuurxuuuixuuuiuiuxxuruuuuuuxxrpupruuuruxuuuruuxuiuuxiuurruruxruuuuruuxurrrrrrreerrrrrrrrer",
"uuuxiuxuuuxuuuiurxuuxuxuuuuuuuluuxiuxuuuuuupuppuuuuxuuxuuiuuruxuxuruuruuuiruuuuuiurrrrrrrrrrrrxurrrr",
"xruxuxuuupupupupuuuuxuiriuurxruluruxuuxuuxuxruuuuiuxuiuuuiuurxuuuuuuiuuxuuruuxuxripuliuxuuuuuriuuuxu",
"uuiuuuxupuuuuupruxuuuuuiuxuxuuiuupruiuuuuuuuiuirxuuurlxuuuuuxuiuxurxuuuuiuxuuuuuuuruuuiuxuuluixrxurr",
"uuuuuruirpupupuprxiuuuxuuuxuuuuuuuiuuixruiuuuxuuulrpuuuxriuiuxuuuxuruurxuuuxuiuxuxuuuuuriuuuuuxuuuru",
"xuxuuiruruprpuuuuirxuxuuuuuuuiuxuluxuuuuxruiuuxuiuuupuuuxuxuuruxuiuuiuxuuuiuxruuuuxuixuurxuuxuuuxuyN",
"uiuruxuxuiuiuxupuuuuiuuuxuiuuuxuiuuuxuruuxuuiuuxuxuiuruuxuuuuuxuiuuxxruurxuxuiuuuiuuuiuriuuxxuuuuuxu",
"xuuuuxuuuuiixruuuxulrxuxrxuuuiriuluxuxiuuruxuuuuuuuuxuruuuiriuuuuuxuuuxixuiruuiuuuxuxuuurxuuuuuiuuuu",
"uiuluuuxuurxuuuxxuriuuuulruuuuxrruuuxuuuiuuurxuiruuxuxuixuuluirxxuuxuuuuuiuxulruxrxuuiuxxuuuirxuuiux",
"uuiuiruuiuiuuuiuuuuuuxuiuuuxuuiuuxiruuuxuluuxuiriuxuuuxuuuuuuuxuruiuuiuuuuuuuuxuuuruuuxuuuuiuxuxuuxu",
"xruxuiuuuuuurxuuxuiuuuiuriuuxuuxuuiuxuiuuuiruuuuuurirxuxrxuiruuxiuuuxuriuuxuruxuuiuuuuxuxuruiuuruuuu",
"uuruuuuxxuiuxuxruiuuxruxxuuuxuuuuxuirxuuuxuxxuuxxuiuiuuuiuxuiuuuuuuiuuuuuxuuiuuxxuuxiruuuiuiuxuuxuux",
"uxuuuxxriuuxuxuuuuxurxiuuuxuuiuuxuruuuiuxuiuiuuuuuuxuuuxuuuruiuxuiuixuuixriuuruupuuriuiuiuxuluuxuxuu",
"xuiuiuuuruuuuuiuuruxuuuuuxuuuruxuuuxuuuxuuuuxruxxuuuxuuuuxrurerruuiurrrrrrrrruruuuupiiuuuxuuuuruuuiu",
"iuuiuuurpuuiuxuuiuxrxuiuxuuiurrpiuuuxrluxriuuxuuuuuuuxuiuirrxulxxxxvxxxxuixxuuuupupuprurruuuxuiuuuuu",
"uxuuuxxuruluuuxiuxuuuuxuuiuruupuuuuiuxruuirluuuurxpuuuuruuiiw990999999990999urriupuppupruxuxuuuuxiru",
"rxuuluuiuuuxuruuuuuuiuurxuriiupuxuxuuuuuuxuuuuxuprupuxrxuxux6.XXXXXXXXXXXXXXwiuuppuuuupuuuirirxuuiux",
"iurxuuuuxuiuuiruxuxuuluuuuiuiiuuruuuuixuuuuuuxriuupuuuiuuuix6X<<<<<<<<<<<<<owluurupuupupuxuuuuuxxuxu",
"uuxuiuxuuuxrxupuuxuxurpuupupppupiuuuuxixuuuuxuluupupruuuxuru0X<<1X1X1<<<<1X1wxuupuuuuupuuuiuxuiuuruu",
"uuuxuxuiruuuuupuuuuuuurupupuiupuuxuuuuurxiuxuirupupuxuiuuirl6X1X<<<11<<<1X1Xwruuurppppupuxuuuuuuiuxu",
"xuriuruuxuuupruuriuxixuuupuriuupruuxuuuuuuxriupuupuuxuuuuuux6X<1<<1XX11111X1wxuupupuruuurxiuxuxruiux",
"uuuuuiuxuxuiupupxuuuuuxupupuuuruxuiruxuxruuuuuuupupruuiuxrux6X<<<<<1<XX<1X1Xwxuuurupuppruirxuuuuruuu",
"uuiuruxuuirrpupuriuxuuuuupuuipupuuuuiuuuxuuxxriuupuuxurxuurl0XX11X1Xo111X1<<wruxuipuxuuuuuuuiuuuuxux",
"uiuluxuuuuupuuupuuuulpuupurupupiuxuprliuuiuuuuuxruiuuruuppul6X1X<<<X9uyyMyNturuuiuupuxupuxuxuxuxuuuu",
"ruxuuuiriipuuppruxuuuirxupupupuupurpuuuxiuuuiuxuuiuiuiuuuprr6X1<<<1X0irpyruiuuxuuppuuuiuuuriuruuuiur",
"uxuuuxuuuiupuuupuuxuiriurupupuruuupuuxuuuurxuuuxuriixuuxprpl6X<<<<1X0irreruuuuuupuupuruxuxuuuxuixuux",
"xuuxiuuuxrruuuuuuuuiriuxuuxuxuiupuupurpuxuuuuuuruxuuiuiuuurp6XX1<<<X0lrruuuiuiuxruiuuuuxuuuuxuxuiuxu",
"uuuuuxuuuiuuxuuxuuiuxuuuuxruruuxpupuupuruuuxiruuuuiuuiiupurp0X<<<<<X0lrrxuuuuuxuupurxuruxuriuuururuu",
"ururuuuuuuuuuuuruuuuuuruiuiuuuuurpuruuuuuuuuuuuuruuuuruuuuup6X1<<<110rrrrxuxuururiuiuuxuxuruuuuuuuuu",
"rrrrrruurrrrrrrrrrrrrrurxuuuuxuxpururrrrrruurrrrrrrrrrrrrrrp6X<<<<<X0lppiuiuxruuuuiixuuiururrrrrrrrr",
"iiuxxuiiiixuixiipprdpuruuruuiuirxuiuuiiiuxiuiixririipprurrrl0XX1<<<X0uuxuuuxuluiuiuxuriuuxuirpuxiuii",
"777777777777577777758pruuxupuxuuuuuuy777777777777777777777773X<<<<<X0xuuuuuuuuxuruuuiuxuuiuu07777777",
"XXXXXXXXXXXXXXXXXXXX3urrpuupuuuuuuuuy1XXXXXXXXXXXX<XXXXXXXXXX1X<<<1X0lruuurlrxuuuxuuuiuuuuui8X<XXXXX",
"<<<<<<<<<<<<<<<<<<<<3upurupuuxriuxiiy1X1<<<<<<<<<<<<<<<o11<1<X1<<<1X0luuxuiuuuiuxuxuruxuiuui7X<<<<<<",
"<<<<<1<<<<<<<<<<<2<X3uxuuuuuxuuxxuurs1<<<<<<<<<<<<<<<1<<1<<<<<<<1X1X0ixuuxuiuuruuxuiuiuuuurx8X11<<<1",
"<<<<<<<<<<<<<<<<<o<X3uuuxuruuuiuuuuiy1<<<<<<<<<<<<<<<<<<<<<<X1<<<11X0irriuuuxruuxuuuiuuxuuuu8X1X<<<<",
"<<<111X1<<<2<<<<oo<X3uuuuuuuuuruurruyXX<<<<<<<<<<<<1X1<<<<<111<1<<<X0iriiuuuuuuixuruuuuuuurx7X<<<1<<",
"<<<XXX1X<<<o<<<<2<<X3uuurrrrrrrrrrriNX<<<<X<<<<<<<<X<<<X<X<XX<X<X1XX0xuuruxuxulurrruuuuurrrx8X<<<<<<",
"1<1111X11<<o<<<<X<<X5Miiiixuxiuuuiixs1X<<<<X11<<111111111111111<11110xrrxuixuuiuuiuruixiiiii8<<<<<<1",
"yiuiy3X<<<<<<<<<<<<<<3777777777777773X11<<<X9utMyiyxiyyiiyiyiyiuyiyyxurrruuuxuuxuuix077777771<<<<<<<",
"iurru3X1<<1<<<<<<<<<XXXXXXXXXX<XXXXXX11X<<<X9xuuxrrruuiurxrruuururrrrirxuuuuuxruxurx8XXXXXXX<<<<<<<<",
"uuuir3X<<<<<<<<<<<<<<<<<<<<<<<<<<<<<<<X<<<<X9vuuuiuuuuiuuuuuuiurrruuirrrxuuiurxuuiru9X<<<<<<<<<<<<<<",
"xuuur3X<<1<<<<<<11X1<1<1<<<<<<1X<<<<<<<<<<<X9druuuuuuuxuiuuruuluixuiiuuxuuuxxriuuuux8X<<<<1<<<<<<<<<",
"uiurr3X<<<<<<<<<XX1<<X1X<<<<<<<1<<<<1<1<<<<X9iruiuuxrxuxuuuluuuxiuruuxuriuuurruuiuux0<<<<<<<<<X1<X<<",
"rruxr3X<<<<<1X1X11X11X<1<<<<<1<1<<<<<<<1<<<X9xyixuriuuuuxuiuiuuuxuruuuuuruurrrrruuua8X<<<<<<<11<X1X1",
"rrurr3X<<<1<1X111X1<<1<<<<<<XX<X<<<XX<<X<<1X9xuiuuiuuiuuuuuirxuxururuuiurrxrirrruuuB8X<<<<<<1X1<1<1<",
"uuuur3X<<<1<1XX11X<<<1<<<<<<111111111<X<<<1X9cuuuuiuurxiuruuiuuuiuriuuuuyrrreeeruuuu8<<<<<<<X<<<<<1<",
"<<11<X<<1<X1X11XX1<<<<<<<<<X5uererrrt<<<<<<X0xuuuxuxuuruuxrxuuuiuurx0X111<111<1<111<<<<<<<<<<<<<<<X1",
"<<<<<<<<<<<<1111<<<<<<1<<<<X7rrrurrxt<<<<<<X9iuuruuuxuuxxuuuxuuuxurl6XXX<<<X<<<<<<<<<<<<1<<<<<<<<<<<",
"<<<<<<X<<<<<1XX1<<<<<<<<<<<<3xuuuurit<<<<<XX9duuxuuiuxuuuuuiuxrxuurx6X<<<<<<<<<<<<<<<<<<<<<<<<<<<1<<",
"<<<<<<<<<<<<<<<<<<<<<<<<<<oX3uuurrurt1<<<<<X9xiiiuxriruuruxuiuuuiuux9X<<<<<<<<<<<<<<<<<<<<<<<<<<<<1<",
"<<<<<<<<<<<<<<<<<<<<<<<<<<<X7uuurrult1<<<<<X9xuuuuuxuxuiiuuxuxuuuuux9X<<<2o<<<<<<<<<<<<<<<<<<<<<<<<<",
"<<<<<<<<<<<<<<<<<<<1<<X1<<<X5ruurrrlt<<<<<<X9uriuuuuxuuuuuuuuxriiuux9X<<<<<<oo<<<<<<<<<1<<<<<<<<<<<1",
"X<XXX<<<<<<<<<<<<<<<<<<<<<1<5luxrrrlt<<<<<<X0iruuxuuuiuxuxuuiruxuxuv9.<<<<<<X2<<<<<<X1<X<<<<XX<<XXXX",
"77777<<<<<<<<44444444<X<<<<X3rreuyee0<<<<<<X0uruuriuuuuuuuuruuuuiuuu9<<<<<<<<<<<<<<<<<<1<<<<33777775",
"riirr3X<<<X<<&-->>>-;<<1<<<<11<X<<<<1<<<<<<X9luuuluuuirxuiuxiuuxuxix9X<<<<<<<<<<<<<<<11X<<<1Nyiiiuux",
"rrrrr3X<<<<<o-=****=:o<X<<<<<<<<<<<<<<<<<<<X9xuuxuxuxuxriuxurxuuuiux9X<<<<<<<<<<<<<<1X11<<<1suuurrrr",
"rrrrr3X<<<<<<-*=>**=:<<X<<<<<<<<<<<<<<<<<<<X9luurxuuuuuuuluuuxuuuiux8X<<<<<<<<<<<<1<<1<<<<<1yuuuuuuu",
"rirri3XX<<<<<&*-**&*:<<<<<<<<<<<<<<<<<<<<<XX0iruiuurxuxuiuxuiuuiuxrx6X<X<<<<<<<<<1<<111X<<<1Nrrrrxui",
"ririi3X1<<X<o&=****=:<<X<<<<<<<<<<<<<<<<<<<X9iruuuuuiuuuuruixuxuuuuz6<11<<X<<<2o<<<<XX11<<1<terruiuu",
"rrrru3X1<<<<o&=****=:o<<<<<<<X<<<<<<<<X<<<1X9xruurururuuuuuuruururuu9X1Xo<<X<<<<X1<<1XX1<<X1yxruiuur",
"rxrru3X1<<<<o&=-***=;<<<<<<<<<<<<<<<<<<<1<<X9xuiurxrrxrrirrurrurxurl9X<<2XX2<X<X<X<<X1<1<1<1Muuurrru",
"uuriu3X<<<<<o&=*****:O44444O<1O4OOoOoXX<<<<X8duuyuyiyuyiyuyuMtMMuyyy811O2X4o4<4<o1oOX1XX<<<1tuyyisiy",
"uiuru3X<<<<<o&*******&-----&---->>>*%21<<<1X1111111111112<11X2.41212#@++++++++++++++O<11<<<<<21<1111",
"iruru3X<<<<<o&*********************=$2<<1<X1X<<<<<<X<<X<<<X<X<<<XXX2# +++  +++++++++OXX<<<<X<<<<X<<X",
"uxriu3X1<<X<o&*********************=%Xo1X<1X<<<<<<<<<<<<<<<<<<<<1112# ++++++++++++++O<1<<<<<<<<<<<1<",
"iiuru3X<<<<<1&********,=,-=*******,=$X<<<<<<<<<<<<<<<<2Xo<<<<<<<<<o2# +++++++++ @+++O<<<<<<<<<<<<<<<",
"uuuru3X11<X<o&********=-=,*********=%2<<<<<2<<<<<<<<<<oo2X<<<<<<<<X2# ++++++++++++++O2<<<<<<<<<<<<<<",
"ruuxu3X<<<X<o&*******=-=***********=$X1<<<<X<<<<<<<o<<<<<<<<1<<<<<X<# +++++ ++@+++@+O1X<<<<<1O<<<<<<",
"iurru3X1<<1<o&*******&=-***********=$2o3<<<<<<<<<<<<<<<<<<<<<<<<<<X2# +++++++@++++++OXX<<<<<1<<<<1<<"
};
