/* XPM */
static char *_fc68cdafa02471ef80fbce66b14f7abejJ7XRNf8nBBw2pf[] = {
/* columns rows colors chars-per-pixel */
"100 100 9 1 ",
"  c black",
". c #2E2218",
"X c #4D3929",
"o c #614834",
"O c DimGray",
"+ c SaddleBrown",
"@ c #9E7654",
"# c #A37343",
"$ c gray72",
/* pixels */
"@@@@@@@@@@@@@@@@XoooX.........XXXXXXXXXXXXXXXXXXXXXXXXXXXXXXXXXXXXXXXXXXXXX.........X@@@@@@@@@@@@@@@",
"@@@@@@@@@@@@@@@@@@@@X.ooooooo.@@@@@@@@@@@@@@@@@@@@@@@@@@@@@@@@@@@@@@@@@@@@@.ooooooo.X@@@@@@@@@@@@@@@",
"@@@@@@@@@@@@@@@@@@@@X.oo@@@oo.@@@@@@@@XX@@@@@@@@@@@@@@@@@@@@@@@@@@@@@@@@@@@.oo@@@oo.X@@@@@@@@@@@@@@@",
"@@@@@@@@@@@@@@@@@@@@X.o@@@@@o.@@@@@@@@@@@@@@@@@@@@oo@@@@@@@@@@@@@@@@@@@@@@@.o@@@@@o.X@@@@@@@@@@@@@@@",
"XXXXXXXXXXXXXXXXXXXXX.o@@@@@o.@@@@@@@@@@@@@@@@@@@@@@@@@@@@@@@@@@@@@@@@@@@@@.o@@@@@o.XXXXXXXXXXXXXXXX",
"XXXXXXXXXXXXooXXXoXXX.oo@@@oo.@@@@@@@@@@@@@@@@@@@@@@@@@@@@@@@@@@XXoX@@@@@@@.oo@@@oo.XXXXXXXoooooXXXo",
"@@@@@@@@@@@XXXXXXXXXX.ooooooo.@@@@@@@@@@@@@@@@@@@@@@@@@@@@@@@@@@@@@@@@@@@@@.ooooooo.X@@@@@@XXXXXXXXX",
"@@@@@@@@@@@X@@@@@@@@X.........XXXXXXXXXXXXXXXXXXXXXXXXXXXXXXXXXXXXXXXXXXXXX.........X@@@@@@X@@@@@@@@",
"@@@@@@@XoooX@@@@@@@@XXXXXXXXXo..XXX@@@@@@@@@@XXX         XXX@@@@@@@@@@XXX..XXXXXXXXoX@@@@XoX@@@@@@@@",
"@@@@@@@@@@@X@@@@@@@@XX@@@@@@Xo.XX@@@@@X@@@XXX   OOOOOOOOO   XXX@@@@@@@@@XX.X@@@@@@XoX@@@@@@X@@@@@@@@",
"@@@@@@@@@@@XoX@@@@@@XX@@o@@@XoXX@@@@@X@@@XX  OOO OOOOOOO OOO  XX@@@@@@@@@XXX@@@@@@XoX@@@@@@XooX@@@@@",
"@@@@@@@@@@@X@@@@@@@@XX@@o@@@XoX@@@@@@@@XX  OOOOOO OOOOO OOOOOO  XX@@@X@@@@XX@@@@@@XoX@@@@@@X@@@@@@@@",
"XXXXXXXXXXXX@@@@@@@@XX@@o@@@XoX@@@@@@XX  OOOOOOOO       OOOOOOOO  XX@@X@@@XX@@o@@@XoXXXXXXXX@@@@@@@@",
"oXXXXoooooooXXXXXXXXXX@@X@@@Xo@@@@@@XX  OOOOOO    +++++    OOOOOO  XX@@@@@@X@@X@@@XoXXoXXooXXXXXXXXX",
"XXXXXXXXXXXXXXXXXXXXXX@@@@@@Xo@XX@@@X OO  OO   ++#+++++#++   OO  OO X@@@@@@X@@@@@@XoXXXXXXXXXXXXXXXX",
"@@@@@@@@@@@@@@@@@@@@XX@@@@@@Xo@X@@@X OOOOO   ++++#+++++#++++   OOOOO X@X@@@X@@@@@@XoX@@@@@@@@@@@@@@@",
"@@@@@@@@@@@@@@@@@@@@XX@@@@@@XX@@@@X OOOOO  +#++++#+++++#++++#+  OOOOO X@X@@X@@@@@@XXX@@@@@@@@@@@@@@@",
"@@@@@@@@@@@@@@@@@@@@XX@@@@@@XX@@@@X OOOO  ++#++++#+++++#++++#++  OOOO X@X@@X@@@@@@XXX@@@@@@@@@@@@@@@",
"@@@@@@@@@@@@@@@@@@@@XX@@@@@@XX@@@X OOOOO +++#++++#+++++#++++#+++ OOOOO X@@@X@@@@@@XXXooX@@@@@@@@@@@@",
"@@@@@@@@@@@XX@@@@@@@XX@@@@@@XX@@X OOOOO ++++#++++#+++++#++++#++++ OOOOO X@@X@@@@@@XXX@@@@@@@@@@@@@@@",
"@@@@@@@@@@@@@@@@@@@@XX@@@@@@Xo@@X   OOO ++++#++++#+++++#++++#++++ OOO   X@@X@@@@@@XoX@@@@@@@@@@@@@@@",
"XXXXXXXXXXXXXXXXXXXXXX@@@@@@Xo@X OOO   #++++#++++#+++++#++++#++++#   OOO X@X@@@@@@XoXXXXXXXXXXXXXXXX",
"oooooXXoooooooooooooXX@@@@@@Xo@X OOOO +#++++#++++#+++++#++++#++++#+ OOOO X@X@@@@@@XoXooooooooooXoooo",
"XXXXXXXXXXXXXXXXXXXXXX@@@@@@XoX OOOO  +#++++#++++#+++++#++++#++++#+  OOOO XX@@@@@@XoXXXXXXXXXXXXXXXX",
"@@@@@@@@@@@@@@@@@@@@XX@@@@@@XoX OOOO ++#++++#++++#+++++#++++#++++#++ OOOO XX@@@@@@XoX@@@@@@@@@@@@@@@",
"@@@@@@@@@@@@@@@@@@@@XX@@@@@@XoX OOO  ++#++++#++++#+++++#++++#++++#++  OOO XX@@@@@@XoX@@@@@XX@@@@@@@@",
"@@@@@@@@@@@@@@@@XoooXX@@@@@@XoX OOO +++#++++#++++#+++++#++++#++++#+++ OOO XX@@@@@@XoX@@@@@@@@@@@@@@@",
"@@@@@@@@@@@@@@@@@@@@XX@@@@@@Xo   OO +++#++++#++++#+++++#++++#++++#+++ OO   X@@@@@@XoX@@@@@@@@@@@@@@@",
"@@@@@@@@@@@@@@@@@@@@XX@@@@@@Xo OO   +++#++++#++++#+++++#++++#++++#+++   OO X@@@@@@XoX@@@@@@@@@@@@@@@",
"@@@@@@@@@@@@@@@@@@@@XX@@@@@@Xo OOO ++++#++++#++++#+++++#++++#++++#++++ OOO X@@@@@@XoX@@@@@@@@@@@@@@@",
"XXXXXXXXXXXXXXXXXXXXXX@@@@@@Xo OOO ++++#++++#++++#+++++#++++#++++#++++ OOO X@@@@@@XoXXXXXXXXXXXXXXXX",
"XXXXXXXXXXXXooXXXoXXXX@@@@@@Xo OOO ++++#++++#++++#+++++#++++#++++#++++ OOO X@@@@@@XoXXXXXXXoooooXXXo",
"@@@@@@@@@@@XXXXXXXXXXX@@@@@@Xo OOO ++++#++++#++++#+++++#++++#++++#++++ OOO X@@@@@@XoX@@@@@@XXXXXXXXX",
"@@@@@@@@@@@X@@@@@@@@XX@@@@X@Xo OOO ++++#++++#++++#+++++#++++#++++#++++ OOO X@@@@X@XoX@@@@@@X@@@@@@@@",
"@@@@@@@XoooX@@@@@@@@XX@@@@X@Xo OOO ++++#++++#++++#+++++#++++#+         OOO X@@@@X@XoX@@@@XoX@@@@@@@@",
"@@@@@@@@@@@X@@@@@@@@XX@@@@X@Xo     ++++#++++#++++#+++++#++++#+ $$$ $$$     X@@@@X@XoX@@@@@@X@@@@@@@@",
"@@@@@@@@@@@XoX@@@@@@XX@@@@@@Xo OOO ++++#++++#++++#+++++#++++#+ $$$ $$$ OOO X@@@@@@XoX@@@@@@XooX@@@@@",
"@@@@@@@@@@@X@@@@@@@@XX@@@@@@Xo OOO ++++#++++#++++#+++++#++++#+ $$$ $$$ OOO X@@@@@@XoX@@@@@@X@@@@@@@@",
"XXXXXXXXXXXX@@@@@@@@XX@@@@@@Xo OOO ++++#++++#++++#+++++#++++#+         OOO X@@@@@@XoXXXXXXXX@@@@@@@@",
"oXXXXoooooooXXXXXXXXXX@@@@@@Xo OOO ++++#++++#++++#+++++#++++#++++#++++ OOO X@@@@@@XoXXoXXooXXXXXXXXX",
"XXXXXXXXXXXXXXXXXXXXXX@@@@@@Xo OOO ++++#++++#++++#+++++#++++#++++#++++ OOO X@@@@@@XoXXXXXXXXXXXXXXXX",
"@@@@@@@@@@@@@@@@@@@@XX@@@@@@XX OOO ++++#++++#++++#+++++#++++#++++#++++ OOO X@@@@@@XXX@@@@@@@@@@@@@@@",
"@@@@@@@@@@@@@@@@@@@@XX@@@@@@Xo OOO ++++#++++#++++#+++++#++++#++++#++++ OOO X@@@@@@XoX@@@@@@@@@@@@@@@",
"@@@@@@@@@@@@@@@@@@@@XX@@@@@@Xo OOO ++++#++++#++++#+++++#++++#++++#++++ OOO X@@@@@@XoX@@@@@@@@@@@@@@@",
"@@@@@@@@@@@@@@@@@@@@XX@@@@@@Xo     ++++#++++#++++#+++++#++++#++++#++++     X@@@@@@XoXooX@@@@@@@@@@@@",
"@@@@@@@@@@@XX@@@@@@@XX@@@@@@Xo OOO ++++#++++#++++#+++++#++++#++++#++++ OOO X@@@@@@XoX@@@@@@@@@@@@@@@",
"@@@@@@@@@@@@@@@@@@@@XX@@@@@@Xo OOO ++++#++++#++++#+++++#++++#++++#++++ OOO X@@@@@@XoX@@@@@@@@@@@@@@@",
"XXXXXXXXXXXXXXXXXXXXXX@@@@@@Xo OOO ++++#++++#++++#+++++#++++#++++#++++ OOO X@@@@@@XoXXXXXXXXXXXXXXXX",
"oooooXXoooooooooooooXX@@@@@@Xo OOO ++++#++++#++++#+++++#++++#++++#++++ OOO X@@@@@@XoXooooooooooXoooo",
"XXXXXXXXXXXXXXXXXXXXXX@@@@@@Xo OOO ++++#++++#++++#+++++#++++#++++#++++ OOO X@@@@@@XoXXXXXXXXXXXXXXXX",
"@@@@@@@@@@@@@@@@@@@@XX@@@o@@Xo OOO ++++#++++#++++#+++++#++++#++++#++++ OOO X@@@o@@XoX@@@@@@@@@@@@@@@",
"@@@@@@@@@@@@@@@@@@@@XX@@@o@@Xo OOO ++++#++++#++++#+++++#++++#++++#++++ OOO X@@@o@@XoX@@@@@XX@@@@@@@@",
"@@@@@@@@@@@@@@@@XoooXX@@@o@@Xo     ++++#++++#++++#+++++#++++#++++#++++     X@@@o@@XoX@@@@@@@@@@@@@@@",
"@@@@@@@@@@@@@@@@@@@@XX@@@@@@Xo OOO +++     +#++++#+++++#++++#++++#++++ OOO X@@@@@@XoX@@@@@@@@@@@@@@@",
"@@@@@@@@@@@@@@@@@@@@XX@@@@@@Xo OOO ++++   ++#++++#+++++#++++#++++#++++ OOO X@@@@@@XoX@@@@@@@@@@@@@@@",
"@@@@@@@@@@@@@@@@@@@@XX@@@@@@Xo OOO +++ #++ +#++++#+++++#++++#++++#++++ OOO X@@@@@@XoX@@@@@@@@@@@@@@@",
"XXXXXXXXXXXXXXXXXXXXXX@@@@@@XX OOO +++ #++ +#++++#+++++#++++#++++#++++ OOO X@@@@@@XXXXXXXXXXXXXXXXXX",
"XXXXXXXXXXXXooXXXoXXXX@@@@@@XX OOO +++ #++ +#++++#+++++#++++#++++#++++ OOO X@@@@@@XXXXXXXXXoooooXXXo",
"@@@@@@@@@@@XXXXXXXXXXX@@@@@@Xo OOO ++++   ++#++++#+++++#++++#++++#++++ OOO X@@@@@@XoX@@@@@@XXXXXXXXX",
"@@@@@@@@@@@X@@@@@@@@XX@@@@@@XX     ++++#++++#++++#+++++#++++#++++#++++     X@@@@@@XXX@@@@@@X@@@@@@@@",
"@@@@@@@XoooX@@@@@@@@XX@@@@@@XX OOO ++++#++++#++++#+++++#++++#++++#++++ OOO X@@@@@@XXX@@@@XoX@@@@@@@@",
"@@@@@@@@@@@X@@@@@@@@XX@@@@@@XX OOO ++++#+ ++#++++#+++++#++++#++++#++++ OOO X@@@@@@XXX@@@@@@X@@@@@@@@",
"@@@@@@@@@@@XoX@@@@@@XX@@@@@@XX OOO ++++#   +#++++#+++++#++++#++++#++++ OOO X@@@@@@XXX@@@@@@XooX@@@@@",
"@@@@@@@@@@@X@@@@@@@@XX@@@@@@XX OOO ++++#   +#++++#+++++#++++#++++#++++ OOO X@@@@@@XXX@@@@@@X@@@@@@@@",
"XXXXXXXXXXXX@@@@@@@@XX@@@@@@XX OOO ++++#+ ++#++++#+++++#++++#++++#++++ OOO X@@@@@@XXXXXXXXXX@@@@@@@@",
"oXXXXoooooooXXXXXXXXXX@@@@@@XX OOO ++++#++++#++++#+++++#++++#++++#++++ OOO X@@@@@@XXXXoXXooXXXXXXXXX",
"XXXXXXXXXXXXXXXXXXXXXX@@@@@@Xo OOO ++++#++++#++++#+++++#++++#++++#++++ OOO X@@@@@@XoXXXXXXXXXXXXXXXX",
"@@@@@@@@@@@@@@@@@@@@XX@@@@@@Xo OOO ++++#++++#++++#+++++#++++#++++#++++ OOO X@@@@@@XoX@@@@@@@@@@@@@@@",
"@@@@@@@@@@@@@@@@@@@@XX@@@@@@Xo     ++++#++++#++++#+++++#++++#++++#++++     X@@@@@@XoX@@@@@@@@@@@@@@@",
"@@@@@@@@@@@@@@@@@@@@XX@@@@@@Xo OOO ++++#++++#++++#+++++#++++#++++#++++ OOO X@@@@@@XoX@@@@@@@@@@@@@@@",
"@@@@@@@@@@@@@@@@@@@@XX@X@@@@Xo OOO ++++#++++#++++#+++++#++++#++++#++++ OOO X@X@@@@XoXooX@@@@@@@@@@@@",
"@@@@@@@@@@@XX@@@@@@@XX@X@@@@Xo OOO ++++#++++#++++#+++++#++++#++++#++++ OOO X@X@@@@XoX@@@@@@@@@@@@@@@",
"@@@@@@@@@@@@@@@@@@@@XX@X@@@@Xo OOO ++++#++++#++++#+++++#++++#++++#++++ OOO X@X@@@@XoX@@@@@@@@@@@@@@@",
"XXXXXXXXXXXXXXXXXXXXXX@o@@@@Xo OOO ++++#++++#++++#+++++#++++#++++#++++ OOO X@o@@@@XoXXXXXXXXXXXXXXXX",
"oooooXXoooooooooooooXX@o@@@@Xo OOO ++++#++++#++++#+++++#++++#++++#++++ OOO X@o@@@@XoXooooooooooXoooo",
"XXXXXXXXXXXXXXXXXXXXXX@X@@@@Xo OOO ++++#++++#++++#+++++#++++#++++#++++ OOO X@X@@@@XoXXXXXXXXXXXXXXXX",
"@@@@@@@@@@@@@@@@@@@@XX@X@@@@Xo     ++++#++++#++++#+++++#++++#++++#++++     X@X@@@@XoX@@@@@@@@@@@@@@@",
"@@@@@@@@@@@@@@@@@@@@XX@@@@@@Xo OOO ++++#++++#++++#+++++#++++#++++#++++ OOO X@@@@@@XoX@@@@@XX@@@@@@@@",
"@@@@@@@@@@@@@@@@XoooXX@@@@@@Xo OOO ++++#++++#++++#+++++#++++#++++#++++ OOO X@@@@@@XoX@@@@@@@@@@@@@@@",
"@@@@@@@@@@@@@@@@@@@@XX@@@@@@Xo OOO ++++#++++#++++#+++++#++++#+         OOO X@@@@@@XoX@@@@@@@@@@@@@@@",
"@@@@@@@@@@@@@@@@@@@@XX@@@@@@Xo OOO ++++#++++#++++#+++++#++++#+ $$$ $$$ OOO X@@@@@@XoX@@@@@@@@@@@@@@@",
"@@@@@@@@@@@@@@@@@@@@XX@@@@@@XX OOO ++++#++++#++++#+++++#++++#+ $$$ $$$ OOO X@@@@@@XoX@@@@@@@@@@@@@@@",
"XXXXXXXXXXXXXXXXXXXXXX@@@@@@XX OOO ++++#++++#++++#+++++#++++#+ $$$ $$$ OOO X@@@@@@XoXXXXXXXXXXXXXXXX",
"XXXXXXXXXXXXooXXXoXXXX@@@@@@XX OOO ++++#++++#++++#+++++#++++#+         OOO X@@@@@@XoXXXXXXXoooooXXXo",
"@@@@@@@@@@@XXXXXXXXXXX@@@@@@Xo     ++++#++++#++++#+++++#++++#++++#++++     X@@@@@@XoX@@@@@@XXXXXXXXX",
"@@@@@@@@@@@X@@@@@@@@XX@@@@@@Xo OOO ++++#++++#++++#+++++#++++#++++#++++ OOO X@@@@@@XXX@@@@@@X@@@@@@@@",
"@@@@@@@XoooX@@@@@@@@XX@@@@@@XX OOO ++++#++++#++++#+++++#++++#++++#++++ OOO X@@@@@@XXX@@@@XoX@@@@@@@@",
"@@@@@@@@@@@X@@@@@@@@XX@@@@@@XX OOO ++++#++++#++++#+++++#++++#++++#++++ OOO X@@@@@@XXX@@@@@@X@@@@@@@@",
"@@@@@@@@@@@XoX@@@@@@XX@@@@@@XX OOO ++++#++++#++++#+++++#++++#++++#++++ OOO X@@@@@@XoX@@@@@@XooX@@@@@",
"@@@@@@@@@@@X@@@@@@@@XX@@@@@@XX OOO ++++#++++#++++#+++++#++++#++++#++++ OOO X@@@@@@XoX@@@@@@X@@@@@@@@",
"XXXXXXXXXXXX@@@@@@@@XX@@@@@@XX OOO ++++#++++#++++#+++++#++++#++++#++++ OOO X@@@@@@XoXXXXXXXX@@@@@@@@",
"oXXXXoooooooXXXXXXXXXX@@@@@XXo OOO ++++#++++#++++#+++++#++++#++++#++++ OOO X@@@@@XXXXXoXXooXXXXXXXXX",
"XXXXXXXXXXXXXXXXXXXXXX@@@@@XXo     ++++#++++#++++#+++++#++++#++++#++++     X@@@@@XXoXXXXXXXXXXXXXXXX",
"@@@@@@@@@@@@@@@@@@@@XX@@@@@XXo OOO ++++#++++#++++#+++++#++++#++++#++++ OOO X@@@@@XXoX@@@@@@@@@@@@@@@",
"@@@@@@@@@@@@@@@@@@@@XX@@@@@oXo OOO ++++#++++#++++#+++++#++++#++++#++++ OOO X@@@@@oXoX@@@@@@@@@@@@@@@",
"@@@@@@@@@@@@@@@@@@@@XX@@@@@XXo OOO ++++#++++#++++#+++++#++++#++++#++++ OOO X@@@@@XXoX@@@@@@@@@@@@@@@",
"@@@@@@@@@@@@@@@@@@@@XX@@@@@XXo OOO ++++#++++#++++#+++++#++++#++++#++++ OOO X@@@@@XXoXooX@@@@@@@@@@@@",
"@@@@@@@@@@@XX@@@@@@@XX@@@@@@Xo OOO ++++#++++#++++#+++++#++++#++++#++++ OOO X@@@@@@XoX@@@@@@@@@@@@@@@",
"@@@@@@@@@@@@@@@@@@@@XXXXXXXXXo OOO ++++#++++#++++#+++++#++++#++++#++++ OOO XXXXXXXXoX@@@@@@@@@@@@@@@",
"XXXXXXXXXXXXXXXXXXXXXXXXXXXXXo                                             XXXXXXXXoXXXXXXXXXXXXXXXX"
};
