/* XPM */
static char *bb10651cac644442b2296efada9efe320o4L1JMPAVY8Qzrn[] = {
/* columns rows colors chars-per-pixel */
"100 100 5 1 ",
"  c black",
". c gray27",
"X c DimGray",
"o c #E05E19",
"O c #FFDD00",
/* pixels */
"                                                                                                    ",
"                                                                                                    ",
"                                                                                                    ",
"                                                                                                    ",
"                                                                                                    ",
"                                                                                                    ",
"                                                                                                    ",
"                                                                                                    ",
"                                                                                                    ",
"                                                                                                    ",
"                                                                                                    ",
"                                                                                                    ",
"                                                                                                    ",
"                                                                                                    ",
"                                                                                                    ",
"                                                                                                    ",
"                                                                                                    ",
"                                                                                                    ",
"                                                                                                    ",
"                                                                                                    ",
"                                                                                                    ",
"                                                                                                    ",
"                                                                                                    ",
"                                                                                                    ",
"                                                                                                    ",
"                                                                                                    ",
"                                                                                                    ",
"                                                                                                    ",
"                                                                                                    ",
"                                                                                                    ",
"                                                                                                    ",
"                                                                                                    ",
"                                                                                                    ",
"                                                                                                    ",
"                                                                                                    ",
"                                                                                                    ",
"                                                                                                    ",
"                                                                                                    ",
"                                                                                                    ",
"                                                  o                                                 ",
"                                                  o                                                 ",
"                                                  o                                                 ",
"                                                  o                                                 ",
"                                                  oo                                                ",
"                                                  oo                                                ",
"                                                  oOo                                               ",
"                                                  oOo                                               ",
"                                                  oOOo                                              ",
"                                                  oOOo                                              ",
"                                                  oOOOo                                             ",
"                                                  oOOOOo                                            ",
"                                                  ooOOOo                                            ",
"                                                   oOOOo                                            ",
"                                                   oOOOOo                                           ",
"                                                   oOOOOo                                           ",
"                                              o     oOOOo                                           ",
"                                              o     oOOOo     o                                     ",
"                                               o    oOOOOo   oo                                     ",
"                                               o   oOOOOOo   oo                                     ",
"                                               ooo oOOOOOo  oOo                                     ",
"                                               oOOooOOOOOOo oOo                                     ",
"                                                oOOOOOOOOOooOOo                                     ",
"                                                oOOOOOOOOOOoOo                                      ",
"                                          o     oOOOOOOOOOOOOo                                      ",
"                                          o     oOOOOOOOOOOOOo                                      ",
"                                          o    oOOOOOOOOOOOOOo                                      ",
"                                         oOo   oOOOOOOOOOOOOOooo                                    ",
"                                         oOo   oOOOOOOOOOOOOOOoo   o                                ",
"                                         oOo  oOOOOOOOOOOOOOOoOo   o                                ",
"                                         oOo  oOOOOOOOOOOOOOOoOo   o                                ",
"                                         oOo  oOOOOOOOOOOOOOOOOo   o                                ",
"                                     o   oOo  oOOOOOOOOOOOOOOOOo  oo                                ",
"                                     o  oOOOooOOOOOOOOOOOOOOOOOo  oo                                ",
"                                    oOo oOOOooOOOOOOOOOOOOOOOOOo oOOo                               ",
"                                    oOo oOOOoOOOOOOOOOOOOOOOOOo  oOOo                               ",
"                                    oOOooOOOoOOOOOOOOOOOOOOOOOo oOOOo                               ",
"                                   oOOOOOOOOoOOOOOOOOOOOOOOOOOooOOOOOo                              ",
"                                   oOOOOOOOOOOOOOOOOOOOOOOOOOOOOOOOOOo                              ",
"                                   oOOOOOOOOOOOOOOOOOOOOOOOOOOOOOOOOOo                              ",
"                                  oOOOOOOOOOOOOOOOOOOOOOOOOOOOOOOOOOOOo                             ",
"                                  oOOOOOOOOOOOOOOOOOOOOOOOOOOOOOOOOOOOo                             ",
"                                  oOOOOOOOOOOOOOOOOOOOOOOOOOOOOOOOOOOOo                             ",
"                              XXXXoOOOOOOOOOOOOOOOOOOOOOOOOOOOOOOOOOOOoXXXX                         ",
"                         XXXXXXXXXoOOOOOOOOOOOOOOOOOOOOOOOOOOOOOOOOOOOoXXXXXXXXX                    ",
"                      XXXXXXX......oOOOOOOOOOOOOOOOOOOOOOOOOOOOOOOOOOo......XXXXXXX                 ",
"                    XXX.............ooOOOOOOOOOOOOOOOOOOOOOOOOOOOOOoo.............XXX               ",
"                  XXX.................oOOOOOOOOOOOOOOOOOOOOOOOOOOOo.................XXX             ",
"                 X...X................XoooooooooooooooooooooooooooX................X...X            ",
"                X.....XXX.............X..X....X....X.X....X....X..X.............XXX.....X           ",
"                 X.......XXXXX.........XX......XXXX...XXXX......XX.........XXXXX.......X            ",
"                  XX..........XXXXXXXXX...........................XXXXXXXXX..........XX             ",
"                    XXX................XXXXXXXXXXXXXXXXXXXXXXXXXXX................XXX               ",
"                       XXXXXX...............................................XXXXXX                  ",
"                             XXXXXXXXX.............................XXXXXXXXX                        ",
"                                      XXXXXXXXXXXXXXXXXXXXXXXXXXXXX                                 ",
"                                                                                                    ",
"                                                                                                    ",
"                                                                                                    ",
"                                                                                                    ",
"                                                                                                    "
};
