/* XPM */
static char *_e18d6cd4d374579b57bf7a7ab015c60wrqnDmqI95JciyL2[] = {
/* columns rows colors chars-per-pixel */
"40 50 100 2 ",
"   c #562A0E",
".  c #562B0F",
"X  c #482C1B",
"o  c #492C1B",
"O  c #4B2D1B",
"+  c #4C2E1B",
"@  c #492C1C",
"#  c #4E2F1C",
"$  c #5A2F14",
"%  c #5A3015",
"&  c #5B3115",
"*  c #52311B",
"=  c #51311C",
"-  c #55331C",
";  c #55341C",
":  c #57341C",
">  c #56351C",
",  c #57351C",
"<  c #57341D",
"1  c #5D3318",
"2  c #5E351A",
"3  c #5A361E",
"4  c #5D371D",
"5  c #5B381F",
"6  c #5F381F",
"7  c #60371C",
"8  c #60371D",
"9  c #63381D",
"0  c #613A1F",
"q  c #643A1F",
"w  c #553A26",
"e  c #5E3920",
"r  c #533D2B",
"t  c #573D29",
"y  c #553C2A",
"u  c #5F3E28",
"i  c #5E3E2A",
"p  c #623A20",
"a  c #623B22",
"s  c #633B22",
"d  c #633C22",
"f  c #673C21",
"g  c #643C22",
"h  c #623D25",
"j  c #653E24",
"k  c #693E22",
"l  c #693E23",
"z  c #6A3E22",
"x  c #6C3F23",
"c  c #613F29",
"v  c #5D422E",
"b  c #534132",
"n  c #554537",
"m  c #594434",
"M  c #564538",
"N  c #59493B",
"B  c #5C4A3C",
"V  c #6C4023",
"C  c #6E4023",
"Z  c #6C4024",
"A  c #6E4024",
"S  c #61402A",
"D  c #61432E",
"F  c #704124",
"G  c #714225",
"H  c #714325",
"J  c #724325",
"K  c #4F4D48",
"L  c #534A41",
"P  c #514A42",
"I  c #514D47",
"U  c #584D43",
"Y  c #5B4D42",
"T  c #584E44",
"R  c #56524B",
"E  c #55534E",
"W  c #56544F",
"Q  c #B09C8F",
"!  c #B39F93",
"~  c #B4A194",
"^  c #B7A498",
"/  c #B7A599",
"(  c #B8A69B",
")  c #B9A79C",
"_  c #BCAB9F",
"`  c #BCACA1",
"'  c #BDADA2",
"]  c #C0B0A6",
"[  c #C1B1A7",
"{  c #C2B2A8",
"}  c #C4B5AC",
"|  c #C6B8AE",
" . c #C8BAB1",
".. c #CBBDB5",
"X. c #CCBEB6",
"o. c #CCC0B7",
"O. c #CEC2BA",
"+. c #D1C5BD",
"@. c #D3C7C0",
"#. c white",
/* pixels */
"p p p p p p p e p 3 > - > - + - > 3 d q 0 0 0 q 0 g F F A g p g p g p g p p z F ",
"p p g p p p g p p g 3 3 , , 3 - , 6 0 S B d q g 0 z F F g p d p g p p p p h 0 g ",
"p p p p p h p p p g 0 - , - , > p p p T E N p d p z F p p p 0 g p p p p q p p g ",
"t p p g p p p p p p 4 - - 3 6 p p p d L K P 5 p 0 f z 0 g g p q p p q g D p p C ",
"3 p p p g z z p g g 4 - 4 p g p p p g h n t e p p g p p p g 0 g g 0 c Y R i 0 g ",
"p p g p F F F A l s 4 3 p g 8 g p g p g p e p p p p p g g p p 0 0 g v I K b 8 d ",
"p p p p z z g g s s 4 4 s p p p p p d l z A A A x z z F F z z p p p 0 u n w p p ",
"g p p p 0 0 0 g p e > p p p p p g p z F A F A F F F F F g 0 g p p p 0 q 0 6 g p ",
"F F A l g p q 0 3 - > 4 p g p g g s z z s p g g g z F l p g p p g 0 p p g p p g ",
"F A F F F f 0 3 3 > 3 p g 8 p g p s p p g p 9 0 p p p z p g g s p p p g 0 g A F ",
"F F F l 0 4 > - > > 0 g 0 g g 0 g 0 p p g 9 p g d h 0 0 d p g q 0 g q p p z F F ",
"z d 3 e - > - 3 - 0 g 0 g p 0 g g p g p p g g p p p g q p p p p g 0 q g g x x F ",
"p > - > > > > - 4 g p g p p 0 0 g 0 0 g g 0 0 g p p p g p q p p 9 q q 0 Z A A A ",
"g e 3 > , , 3 > p p p p p g g g f z z q 0 g g p g g p g g p p h B v 0 0 Z F H F ",
"g z 0 > , w - - - 4 p p g p g x F x p g p p p g g p g p p g g B W T 6 d Z A z z ",
"F F H 0 > > : : - > e p p p p z x g p 0 p g g p 0 p p 0 g 0 0 m K L 5 0 d d p p ",
"F F z p - : , , > - > 4 g p p p g g 8 g h p 0 p p d d p p d 0 p v y 2 p g p p g ",
"l p p 0 : - w , > 3 > - 4 g p g 0 g p g p g z C A A A A p 6 d d g p p p p g p p ",
"g p g 0 3 - , - > 3 - 3 - e p p q 0 p p g A F F F F H z 0 - 0 p g p g x x F z A ",
"p p 0 0 - : , , - - 3 4 8 p g p g p g g A J F F A H A g 0 - 6 p p 0 z F F F F F ",
"z g p p - 3 > , > e g g g p p p p g p l F F F F A z p p 4 > 3 p g g F F x J x J ",
"F g p 4 - 3 - > 0 p p p p p g p p p s F F J x F A p p p - - 3 p p z F x F x J x ",
"p p - - 3 > = e p p p p p p g p g p z F F F F x d p 4 = O + > p g l J x J x x F ",
"p > - 3 > - - p s p p p 0 g p g g 8 z x g g g g p > X O @ @ - p p s F x l g q g ",
"3 = > 3 > - 6 0 p g p p g p g 0 g g g p p 0 p p e @ X @ X # 0 p 0 0 g q 0 g g p ",
"> 3 > > - 3 p z z 0 p g p g p g g s p p g g p 0 = @ O O # e p p q g 0 g g 0 p p ",
"> > - 3 e A F F 0 4 g p p p g 8 p 8 p 0 q p 0 - O # # = 4 g p p 0 g g g 0 g g q ",
"0 6 4 p F F z e < 3 p p p p g g 0 g 4 3 < 3 > = 3 p p p p p p g g 0 0 g z F x 0 ",
"g p x A l g p 3 - 3 0 g p p 0 g g g g 4 3 4 3 p p g p p p p p g d g C F F F C p ",
"0 d A p p p 3 > - 3 p p p 0 z g 0 g p p g p p g p p p p p g p p g A F A A z g 0 ",
"g 0 e 3 3 > > 3 4 0 g p g f F l p p p p p g p p p g g p g p p d p d p p p 3 3 > ",
"0 0 p 4 3 p 0 0 g p p g p z F z p p p g p p g p p p p p p 0 g p p p p p e 3 3 3 ",
"p p g g g g g p g p p p g p l z 0 p g g g f g q p q 0 0 p p d p p g p g g p g g ",
"g g 0 f g p 0 4 p p p p p p p p g q p p F x 0 g g g 0 p g p p g g 0 p p p p p p ",
"p p z F F p 3 > 3 3 4 g p p p s p g g z F g q 0 e 3 4 p p p p g 0 q g 0 p p p p ",
"p x F x p 6 > 3 > > > 3 p p g p g 0 g F x g g 8 - - 4 g p p g p g g 0 g z x g p ",
"g F x g q 8 > 3 p 3 > - 4 p p p p p h F x p p 4 3 - 3 d 0 0 p p p 0 x x F g p g ",
"z F g g p 3 > 3 p p > > > p p p p p g F z p g 4 - - 6 p p p g p p z x x g q 9 g ",
"g s g p p 3 > 6 g p 4 - 3 3 p p h q d z p p d 6 3 - 3 d p p p p p x g 0 0 q g 0 ",
"p p p p - > - 3 p g 6 > - 3 p g p p p p p p d 3 - > 3 p p p g p g g q g 0 g p 4 ",
"p 0 6 3 > 3 3 e g p 0 > - > 0 0 p p p p 6 p 2 > > - 3 g p p p p p p 0 g p 0 6 - ",
"3 3 > - > > 4 d p g 0 3 3 > p h p p g 3 3 = > - 3 > 6 p p g p p p g g 0 e > - > ",
"> 3 3 > = 6 p p p p > - - p g p p p p p 3 3 > 3 > = 4 p p p p 0 4 4 3 , - - 3 - ",
"6 > > > 3 d p p g e 3 3 p p 0 g d p p g 0 0 p p 6 3 e g p p g p p 4 > - > 3 < - ",
"p p p p p p p d p g p p p 0 p p p p p p p g g g d p p d p g p p p g p 3 e p 4 3 ",
"p d p d p h g p p p g g p g p g g g g p g q p g 0 d g p p g p g g p p g p g p p ",
"g g g g g A g g g g g g g g s s g g g g g g g p g d g g p g d d g g s s g g g p ",
". . . % . . $ . % % $ $ $ $ $ 1 % % % $ 1 $ > 1 % 1 1 1 2 1 2 2 2 2 2 8 1 8 8 8 ",
"! Q Q ! ~ ~ ^ ^ ^ ( ) ) ) ` ` ` ` [ [ [ { { } } } |  . . .....X.O...O.O.+.+.+.@.",
"#.#.#.#.#.#.#.#.#.#.#.#.#.#.#.#.#.#.#.#.#.#.#.#.#.#.#.#.#.#.#.#.#.#.#.#.#.#.#.#."
};
