/* XPM */
static char *result[] = {
/* columns rows colors chars-per-pixel */
"64 64 166 2 ",
"   c #35261A",
".  c #36281C",
"X  c #3B2B1D",
"o  c #3D2E20",
"O  c #3F3023",
"+  c #442D1C",
"@  c #4C2F1C",
"#  c #4E321D",
"$  c #56341F",
"%  c #59351F",
"&  c #60371F",
"*  c #64391F",
"=  c #412F21",
"-  c #433224",
";  c #4B3624",
":  c #4E3927",
">  c #463728",
",  c #4B3A2B",
"<  c #583520",
"1  c #563922",
"2  c #593A23",
"3  c #543C2B",
"4  c #5B3C28",
"5  c #4E3E30",
"6  c #623F23",
"7  c #57412E",
"8  c #5F412D",
"9  c #554435",
"0  c #57483A",
"q  c #5D4C3C",
"w  c #624023",
"e  c #684525",
"r  c #62452C",
"t  c #6D462B",
"y  c #7B4426",
"u  c #7F4525",
"i  c #714927",
"p  c #72462C",
"a  c #744D2D",
"s  c #7B4C2C",
"d  c #644834",
"f  c #604E3D",
"g  c #6C4E39",
"h  c #734730",
"j  c #734E32",
"k  c #7D4D31",
"l  c #724F38",
"z  c #63503E",
"x  c #6D513C",
"c  c #755032",
"v  c #7F5533",
"b  c #73523C",
"n  c #76583F",
"m  c #645342",
"M  c #685747",
"N  c #6C5846",
"B  c #6C5B4A",
"V  c #705846",
"C  c #775B47",
"Z  c #725E4C",
"A  c #6F604F",
"S  c #73614E",
"D  c #7D624D",
"F  c #756553",
"G  c #796956",
"H  c #7C705F",
"J  c #804525",
"K  c #8F4B27",
"L  c #854A2A",
"P  c #8D4E2C",
"I  c #81542D",
"U  c #8F502E",
"Y  c #9F5229",
"T  c #925C2F",
"R  c #825531",
"E  c #8E5332",
"W  c #865A36",
"Q  c #9A5531",
"!  c #915E31",
"~  c #A15229",
"^  c #AA592F",
"/  c #B25A2C",
"(  c #BB5C2C",
")  c #AC5B32",
"_  c #B55E31",
"`  c #A16732",
"'  c #A26935",
"]  c #AC6D35",
"[  c #B96031",
"{  c #B47336",
"}  c #C6612E",
"|  c #D0642F",
" . c #C66130",
".. c #D06631",
"X. c #DC6A32",
"o. c #C97F3C",
"O. c #E97035",
"+. c #F57537",
"@. c #805F44",
"#. c #87664D",
"$. c #816C56",
"%. c #886B54",
"&. c #816E5A",
"*. c #83705E",
"=. c #987358",
"-. c #847663",
";. c #887C6B",
":. c #927C66",
">. c #947F6B",
",. c #D3853E",
"<. c #96816C",
"1. c #8E8271",
"2. c #8F8877",
"3. c #958572",
"4. c #978875",
"5. c #968E7D",
"6. c #998F7E",
"7. c #A08067",
"8. c #A38269",
"9. c #A38E76",
"0. c #A69077",
"q. c #A59179",
"w. c #DF8C41",
"e. c #E08C41",
"r. c #EC9344",
"t. c #F89B47",
"y. c #979180",
"u. c #9C9483",
"i. c #9F9888",
"p. c #A19685",
"a. c #A29887",
"s. c #A49C8B",
"d. c #A7A08F",
"f. c #B8A186",
"g. c #ACA594",
"h. c #AEA897",
"j. c #AFA999",
"k. c #B1A796",
"l. c #B2A997",
"z. c #B3AD9B",
"x. c #B9AF9D",
"c. c #B6B09E",
"v. c #BBB19F",
"b. c #B7B2A0",
"n. c #BCB3A1",
"m. c #BEB9A6",
"M. c #BFBAA8",
"N. c #C7AF94",
"B. c #CAB296",
"V. c #CDB499",
"C. c #C1B6A3",
"Z. c #C3B9A6",
"A. c #C8BBA7",
"S. c #C4BCA9",
"D. c #CABEAB",
"F. c #C6C0AD",
"G. c #CCC1AE",
"H. c #D1C3AF",
"J. c #CEC4B1",
"K. c #CFC8B5",
"L. c #D2C6B2",
"P. c #D5C9B4",
"I. c #D8CBB6",
"U. c #E3C9AB",
"Y. c #F0D5B5",
"T. c #FDE1C0",
/* pixels */
"z.b.b.M.F.F.F.M.M.M.b.b.j.j.b.b.b.b.b.b.b.M.M.F.F.M.m.c.b.c.z.c.c.b.b.m.M.F.K.K.F.M.M.n.n.b.n.n.M.n.S.S.K.K.P.K.D.D.S.S.S.C.C.S.",
"c.c.b.b.M.M.F.F.M.M.M.b.b.b.j.j.b.b.b.b.b.b.M.F.F.F.M.b.b.c.z.z.c.c.b.b.m.m.F.K.J.F.S.M.n.n.b.n.n.n.n.S.D.D.K.I.K.D.S.S.S.Z.Z.C.",
"b.b.c.c.b.b.M.F.F.M.M.M.b.b.j.j.b.j.b.j.b.b.b.b.F.F.M.M.m.c.z.c.c.c.z.c.c.v.m.F.K.J.F.F.M.n.n.b.n.n.n.n.Z.Z.D.L.I.K.K.D.D.Z.C.C.",
"j.j.j.b.b.b.M.M.F.F.M.M.b.b.b.b.j.j.j.b.z.b.b.b.m.M.F.M.M.b.b.c.j.c.z.c.c.c.c.m.S.J.J.F.S.M.n.n.b.x.b.n.n.n.C.S.D.K.I.K.D.S.S.S.",
"z.z.j.b.b.b.b.b.M.F.F.M.M.M.b.b.j.z.z.b.j.z.c.z.c.c.S.F.M.M.m.c.c.j.j.z.c.c.c.c.m.Z.F.J.G.S.m.n.n.c.c.x.n.n.C.C.S.D.K.P.D.D.D.D.",
"z.j.j.b.b.j.b.b.M.M.F.M.M.M.b.b.b.j.j.j.b.z.z.z.c.c.c.m.F.F.m.m.b.c.c.z.c.c.z.c.c.b.S.F.J.F.S.m.n.n.c.c.c.b.b.n.n.Z.D.D.K.P.K.D.",
"z.j.j.j.j.j.b.b.b.b.M.M.M.M.M.b.b.z.z.j.j.j.c.z.c.j.c.c.m.m.F.m.b.c.c.j.z.c.z.c.c.c.n.m.F.J.F.F.M.n.c.c.c.x.b.b.b.C.Z.S.D.K.K.K.",
"z.z.b.j.j.b.j.b.b.b.M.M.F.M.M.M.b.b.b.z.z.j.j.j.z.c.z.z.c.m.M.M.M.M.c.c.j.j.j.z.c.j.c.c.m.F.F.F.S.M.n.n.c.b.b.x.n.b.n.n.Z.D.P.K.",
"b.j.j.j.z.j.j.b.c.c.b.b.M.F.F.M.M.n.c.j.c.j.z.c.c.l.z.z.z.c.c.F.F.m.v.c.z.j.z.j.z.j.c.c.b.m.S.F.J.S.M.n.b.b.b.x.b.b.n.n.n.C.D.D.",
"b.j.b.b.j.z.j.j.j.z.c.c.b.M.S.S.M.m.b.c.c.j.j.z.j.z.z.p.4.3.z F A <.8.<.:.3.i.g.j.z.j.j.z.b.n.Z.J.S.S.M.n.b.x.c.z.z.b.x.n.n.S.D.",
"b.j.j.j.z.z.z.z.z.c.z.c.c.m.m.S.S.M.m.b.c.j.j.y.G g v _ X.+.w f.+ +.r.+.+.O.} k b H g.c.z.z.z.n.M.S.J.S.M.n.b.b.x.z.x.z.x.x.n.M.",
"b.b.b.j.j.j.j.z.z.j.z.j.c.c.c.m.S.F.M.n.d.M x Q X.+.+.+.+.+.Y 0.+ +.+.+.+.+.+.+.+.X.i q i.z.z.c.b.M.S.S.S.M.n.b.b.x.x.j.z.x.x.n.",
"M.M.b.z.j.z.z.z.j.j.c.c.c.c.c.c.m.F.c.9 - , X.+.+.+.+.+.+.+.Y H ; +.+.+.+.+.+.+.+.+.+.3 F m j.l.c.c.n.S.S.S.M.M.b.z.x.z.z.z.b.b.",
"M.b.b.b.c.j.j.j.c.c.j.h.c.z.c.c.c.-.R  .9 f.v +.+.+.+.+.+.+.X.z d +.+.+.+.+.+.+.+.+.P :.9 [ g g.j.c.b.b.S.S.S.M.M.b.x.z.z.z.x.z.",
"S.M.M.b.c.c.j.j.j.c.h.c.d.1.H 5.d  .+.+.3 U.7 +.+.+.+.+.+.+.+.9 z +.+.+.+.+.+.+.+.+.: V.8 +.O.4 y.j.z.z.n.M.S.S.M.M.b.b.x.z.j.x.",
"K.M.M.b.c.c.c.j.c.j.h.g.A U.Y.> +.+.+.+. .B 0 X.+.+.+.+.+.^ Y X > / +.+.+.+.+.+.+.X.9 9  .+.+.O.4 g.z.z.z.b.M.S.S.Z.M.b.b.z.z.j.",
"K.M.S.M.M.b.b.z.z.z.z.z.s.T.T.5 +.+.+.+.+.: f.k X.K % 2 2 w ' 7 , i w # % u X.+.+.v 0.3 +.+.+.+.O.g j.l.z.z.c.n.F.F.M.M.c.c.c.c.",
"K.K.D.S.M.n.b.b.z.j.z.z.N.T.T.>.K +.+.+.+.P f . % T t.t.t.t.t.+ z t.t.t.t.{ % # Y , z } +.+.+.+.+...S j.j.z.l.c.c.M.F.M.m.c.c.j.",
"D.K.S.S.S.M.n.n.b.x.z.z.N.T.T.T.3 +.+.+.J = o 0 ,.t.t.t.t.t.t.r z t.t.t.t.t.t.t.6 o : +.+.+.+.+.+.+.E i.j.l.j.z.c.c.F.M.M.m.c.c.",
"S.K.D.K.S.S.n.n.b.z.x.z.9.T.T.T.Z Q / @ ) t.E -.v t.t.t.t.t.t.r 7 t.t.t.t.t.t.t.3 m + X.+.+.+.+.+.+.O.V j.h.j.j.z.z.c.V.F.S.M.c.",
"S.D.K.D.D.D.S.S.M.x.x.z.*.T.T.T.T.- 2 t.t.t.e.5 7 t.t.t.t.t.t.` O { t.t.t.t.t.t.7 , w.# X.+.+.+.+.+.+.h d.j.j.l.z.z.z.c.m.S.M.m.",
"S.D.K.P.K.D.S.S.C.n.b.x.A T.T.T.T.V.4 t.t.t.t.d 7 ,.t.t.t.t.t.' o ` t.t.t.t.t.T 7 ' t.w.$ +.+.+.+.+.y 9 5.j.h.j.h.h.l.z.c.c.M.M.",
"n.Z.D.K.K.D.D.D.Z.C.C.x.;.C.T.T.T.T.:.h t.t.t.o.7 v t.t.t.t.t.e.  e v v n D j ; - t.t.t.` e +.+.+.3 $.f.F j.j.j.h.h.h.l.l.c.v.M.",
"M.Z.D.D.K.K.D.K.D.Z.C.C.k.S T.T.T.T.T.&.R t.t.t.7 7 t.t.t.t.e.R B 5.j.c.j.j.h.h.3.a r.t.t.% X.} : 0.z r =.z.l.j.h.h.h.h.l.l.c.m.",
"n.C.Z.Z.D.P.P.P.D.D.S.Z.n.1.x.T.T.T.T.T.$.I t.t.` . w.t.t.' #.c.n.c.c.z.z.h.h.h.h.d.c t.t.{ % 9 7.# } +.7.z.z.l.h.h.h.h.h.z.z.c.",
"n.n.C.C.D.D.P.D.D.D.S.S.Z.n.Z Y.T.T.T.T.T.$.R t.t.= v r.s q.F.F.F.M.v.c.z.z.l.l.h.h.2.] t.e X f e +.+.+.W c.c.z.h.h.h.h.h.h.h.h.",
"n.n.n.C.Z.D.D.P.J.J.D.S.Z.n.z.F Y.T.T.T.T.T.&.3 t.I = c c.C.F.F.F.F.v.c.z.z.z.h.h.h.h.a - A   } +.+.+.+.7.z.c.c.z.h.h.h.h.h.h.h.",
"n.b.C.n.Z.D.D.D.I.K.K.D.D.Z.C.i.q Y.T.T.T.T.T.f.1 T f n.v.v.C.S.F.F.F.v.v.z.z.z.h.h.h.> > ! w } +.+.+.e.7.m.m.c.c.z.h.h.h.h.h.h.",
"n.n.n.n.C.C.C.D.P.I.L.J.D.D.Z.C.l.A V.T.T.T.T.T.. s.x.n.x.n.C.C.A.F.F.F.F.c.c.c.z.l.l.x e.t.I Y +.+.+.+.<.c.m.m.m.c.l.h.h.g.g.h.",
"x.x.n.n.n.n.C.Z.L.K.P.L.K.D.S.Z.n.n.-.*.U.T.T.T.. n.n.x.n.x.v.n.B.F.F.F.F.v.v.v.c.z.z.a t.t.i ~ +.+.+.O.<.m.m.m.m.c.c.c.c.h.h.h.",
"n.b.n.n.C.C.C.Z.D.D.P.P.P.D.D.D.Z.n.v.k.-.A *.0 9 x.n.n.v.v.v.n.v.m.F.F.F.F.F.v.c.z.z.! t.t.w +.+.+.+./ q.b.n.m.m.m.m.c.c.h.h.h.",
"b.x.n.n.n.C.n.Z.C.D.D.P.P.J.J.D.S.Z.n.n.b.x.x.x.z.z.z.x.v.v.v.v.v.v.V.F.F.J.F.F.F.v.c.I t.t.# +.+.+.+.s l.l.c.c.m.m.m.m.c.c.h.h.",
"x.x.x.x.n.n.C.C.C.A.A.L.I.L.H.H.D.D.M.C.n.x.x.x.x.x.x.x.x.x.n.x.v.v.m.C.F.F.G.F.A.Z.6.] t.' # u r 3 ; - l.z.z.c.c.m.F.V.m.c.c.z.",
"n.n.x.x.x.n.C.C.C.C.C.D.L.P.L.L.D.D.D.C.n.x.x.x.x.x.x.x.x.n.x.x.V.v.c.m.Z.A.G.G.F.F.M O > 9 X B q.q.m F j.l.j.l.l.c.c.F.m.c.c.c.",
"x.n.n.x.x.n.C.n.C.C.C.C.H.L.I.L.D.J.D.C.C.n.n.x.j.x.x.x.x.x.x.x.c.c.m.B.m.Z.F.G.G.F.t ` ' % i Y Y Y - j.j.l.j.z.z.z.z.v.F.m.m.c.",
"n.n.n.x.x.n.x.n.C.C.C.C.D.D.L.L.J.K.J.D.C.C.n.n.x.x.x.x.x.x.x.x.c.c.c.v.v.c.V.F.F.z ] t.t.# +.+.+.^ 3.z.z.l.j.l.z.l.z.v.c.m.m.m.",
"n.n.x.n.n.n.x.n.C.C.C.C.C.D.H.L.L.L.L.J.D.C.C.n.x.x.x.x.x.k.x.x.v.v.v.x.v.B.m.C.a.X { t.` J +.+.+.x z.z.z.z.l.h.z.c.l.c.c.c.m.m.",
"n.n.n.x.x.n.n.x.x.C.C.x.C.C.D.H.I.L.J.J.D.D.D.n.n.x.x.x.x.x.x.x.v.x.v.v.v.v.v.n.3 X - - X ; p ~ E u.c.z.z.l.z.l.z.l.l.l.z.c.c.m.",
"M.M.x.x.x.x.C.x.x.C.C.x.C.C.C.D.J.I.P.L.L.G.D.M.n.n.x.x.k.x.x.x.z.v.v.v.c.v.v.#.,.t.,.; - 9 S q 0 n.c.c.c.z.l.z.l.z.c.l.c.l.l.c.",
"C.n.n.x.x.x.x.x.x.x.C.C.C.C.C.C.D.L.I.P.L.L.G.D.M.n.n.x.x.x.x.x.x.z.z.v.v.v.p.T t.t.o.< +.+.J 7 S.Z.m.n.v.z.z.l.l.z.l.l.l.l.l.c.",
"M.C.M.x.x.n.x.n.n.C.n.C.n.C.C.C.D.D.L.I.I.L.H.D.D.D.x.n.x.x.x.x.x.x.x.s.5.S - +   e.$ X.+.O.l Z.G.F.A.C.m.c.v.c.l.z.l.l.l.l.l.c.",
"D.M.C.n.n.n.n.x.x.x.n.x.n.C.C.C.C.D.D.L.P.L.L.L.D.D.D.x.C.n.x.x.6.V c L / | * & % % } +.O.h x.G.J.G.F.F.C.c.v.c.c.l.l.l.c.l.l.z.",
"D.C.C.C.x.x.x.n.x.C.C.x.n.C.C.x.C.D.D.D.L.P.L.L.G.D.D.C.C.n.6.g Y | X.X.} $ L +.+ / +.O.r k.V.Z.F.H.G.G.A.C.m.c.c.l.c.l.c.l.l.c.",
"G.D.D.C.C.n.x.x.n.x.x.C.x.x.n.C.x.C.C.D.H.L.I.L.G.L.D.D.D.V U X.X.X.X.} @ } +.+.@ O.) x l.n.n.C.A.F.L.G.F.F.M.b.c.c.c.l.l.c.c.l.",
"J.D.D.C.M.n.x.x.x.x.C.x.x.x.x.C.C.C.C.A.A.D.H.L.P.L.L.G.C ( X.X.X.X. .@ X.+.+...N D p.v.n.v.n.v.B.C.F.G.J.J.F.V.m.c.z.v.l.l.c.l.",
"L.J.D.D.C.M.C.x.x.x.x.x.C.C.x.C.x.C.C.C.A.D.H.L.I.L.L.3.) X.| X.X.) + / +.+.+.k c.x.x.x.v.v.n.B.c.C.V.A.G.J.G.A.F.V.v.v.c.c.x.c.",
"L.L.D.D.D.M.C.C.x.C.x.x.x.x.x.C.C.C.C.V.C.A.D.H.L.L.L.b X.X. .U x S ^ +.+.+.X.#.x.x.x.x.x.x.v.x.n.n.n.m.Z.G.J.G.F.Z.v.c.c.x.x.c.",
"G.L.H.D.C.M.C.n.x.x.x.x.x.x.C.x.x.x.x.C.C.A.A.D.H.L.P.k.V %.>.x.S.g +.+.+.+.j k.x.x.x.x.x.x.x.x.v.B.v.v.m.V.G.J.G.F.F.m.B.v.v.l.",
"D.L.L.H.D.A.C.C.C.x.x.x.x.x.x.x.x.C.x.C.C.D.D.D.D.D.H.H.L.H.D.D.C.E +.+.+._ 4.x.x.x.x.n.x.x.x.x.c.v.v.v.x.C.C.D.L.H.D.S.S.n.x.x.",
"D.D.L.H.H.D.A.C.C.C.C.x.x.x.C.x.x.C.C.x.x.D.C.C.D.D.H.H.H.H.H.D.i._ +.+...C D.x.x.n.x.x.x.x.x.x.v.v.v.v.C.v.C.C.D.H.G.D.S.S.n.x.",
"C.D.D.H.H.H.A.C.C.x.C.x.x.x.x.x.x.C.x.C.x.C.D.D.A.D.D.H.H.H.H.D.p.) +...@.J.J.D.C.C.n.x.x.x.x.x.x.v.x.v.v.C.v.n.C.D.J.J.F.D.Z.n.",
"C.C.D.H.L.D.A.A.A.C.x.C.n.x.x.x.x.x.x.x.x.C.C.C.C.D.D.D.D.H.H.H.D.b h *.D.G.L.K.D.C.C.n.n.C.C.x.x.x.x.x.v.n.v.N.B.Z.D.L.H.D.S.Z.",
"C.C.A.D.L.L.H.A.D.C.C.x.n.x.x.n.x.x.x.x.x.C.C.C.C.A.D.D.D.H.H.D.D.D.C.C.S.D.G.L.J.D.C.C.C.n.x.x.x.x.x.x.x.x.x.C.n.n.Z.G.L.L.G.S.",
"C.C.C.A.H.L.H.H.D.C.C.C.x.C.n.x.x.x.x.x.x.x.x.C.C.A.D.D.D.D.H.H.D.D.D.C.C.C.D.D.K.L.D.Z.C.C.x.x.v.v.x.x.x.B.x.n.x.n.B.C.A.H.H.G.",
"C.C.C.A.H.L.H.H.D.D.C.C.n.n.C.n.x.x.x.x.x.C.C.C.C.C.A.C.A.D.H.D.G.D.D.C.C.C.C.S.D.K.L.D.Z.C.C.x.v.C.x.x.c.x.x.n.n.v.n.v.C.D.H.J.",
"x.C.C.C.A.H.I.H.D.C.D.C.C.n.n.x.n.x.x.x.x.x.x.x.C.x.V.C.A.A.H.H.G.G.D.C.C.C.C.C.Z.D.L.L.G.D.Z.C.v.v.x.x.x.x.x.x.v.x.c.n.B.Z.G.G.",
"x.C.C.C.C.D.L.L.L.D.D.C.C.x.C.x.n.x.x.x.x.n.n.x.x.x.V.C.A.A.D.H.G.G.H.D.C.C.C.C.x.A.D.L.L.H.D.Z.C.n.x.x.x.x.x.x.n.x.x.x.C.n.Z.D.",
"C.C.x.C.C.A.H.H.L.H.D.D.D.x.C.x.x.x.x.x.x.x.x.x.x.x.C.C.C.A.A.D.D.G.D.D.C.C.C.C.n.C.C.D.H.L.H.D.Z.C.C.C.n.n.x.x.x.x.n.n.x.N.v.C.",
"C.C.C.C.C.C.D.H.L.L.H.D.D.C.C.x.x.x.x.x.x.x.x.x.x.C.C.C.C.C.A.D.D.H.D.D.D.C.C.x.n.C.C.C.D.L.H.H.D.D.C.x.n.x.x.z.x.n.x.x.b.N.v.n.",
"x.C.C.x.C.C.C.D.L.P.L.H.D.D.C.C.C.x.x.C.x.x.x.x.x.x.x.C.x.C.C.A.D.D.H.D.D.D.C.C.n.C.C.C.C.D.H.L.D.D.Z.C.n.n.n.x.x.x.n.x.n.x.x.C.",
"x.x.C.C.x.C.C.C.D.L.L.L.D.D.D.C.n.n.x.x.x.x.x.x.x.x.x.x.x.C.C.A.D.D.D.H.D.D.C.C.n.x.C.n.C.C.D.L.K.L.D.D.C.n.n.x.x.x.x.x.x.n.v.v.",
"C.C.x.C.x.C.C.C.D.H.L.L.H.D.D.C.C.n.n.x.x.x.k.x.x.x.x.x.C.C.x.C.C.D.D.D.D.D.D.C.C.C.x.n.x.x.C.D.D.P.D.D.D.S.n.n.x.x.b.x.b.v.x.v.",
"C.x.C.x.C.C.C.C.C.C.D.L.L.L.D.D.C.C.x.x.x.x.x.x.x.x.x.x.x.C.C.x.C.C.D.D.G.G.D.D.C.C.n.n.C.n.C.C.D.D.L.L.D.D.C.n.n.n.x.b.x.x.x.v.",
"x.x.x.C.x.C.x.C.C.C.D.L.P.L.L.D.D.C.D.C.x.C.x.C.x.x.x.x.x.x.x.C.C.C.D.D.G.D.D.D.C.C.C.n.C.x.x.n.C.D.P.P.D.D.S.Z.C.n.x.x.x.x.x.x."
};
