/* XPM */
static char *result[] = {
/* columns rows colors chars-per-pixel */
"64 64 163 2 ",
"   c #342519",
".  c #36281C",
"X  c #3A2A1D",
"o  c #3C2D20",
"O  c #3F3023",
"+  c #422D1C",
"@  c #4A2E1C",
"#  c #47301C",
"$  c #4D321D",
"%  c #55331F",
"&  c #59351F",
"*  c #443324",
"=  c #4C3727",
"-  c #4D3927",
";  c #463729",
":  c #483728",
">  c #47392A",
",  c #4D3B2B",
"<  c #563720",
"1  c #573821",
"2  c #553D2B",
"3  c #5A3E2A",
"4  c #633C22",
"5  c #603F2A",
"6  c #57402D",
"7  c #564435",
"8  c #5C4837",
"9  c #5D4D3D",
"0  c #684324",
"q  c #62432B",
"w  c #6C452D",
"e  c #7D4424",
"r  c #734926",
"t  c #7A472A",
"y  c #734E2E",
"u  c #7D512B",
"i  c #624936",
"p  c #6C4A33",
"a  c #734B32",
"s  c #7E4D31",
"d  c #714F3A",
"f  c #63513F",
"g  c #6C513D",
"h  c #7C5432",
"j  c #7B5438",
"k  c #655444",
"l  c #6E5642",
"z  c #665748",
"x  c #6A5C4B",
"c  c #735641",
"v  c #775842",
"b  c #735D4A",
"n  c #785E4B",
"m  c #7E624D",
"M  c #6F6152",
"N  c #746452",
"B  c #796654",
"V  c #7F6C57",
"C  c #766B5B",
"Z  c #7C705F",
"A  c #834524",
"S  c #8F4C27",
"D  c #844B2C",
"F  c #8E4E2D",
"G  c #984F29",
"H  c #84552D",
"J  c #9F5229",
"K  c #915D2E",
"L  c #814F32",
"P  c #825632",
"I  c #8E5433",
"U  c #805338",
"Y  c #82593E",
"T  c #9E5731",
"R  c #9A5835",
"E  c #A25329",
"W  c #AA592F",
"Q  c #B25A2C",
"!  c #A85B33",
"~  c #B65E31",
"^  c #A16732",
"/  c #A26834",
"(  c #AD6D35",
")  c #B06036",
"_  c #B47336",
"`  c #B4753B",
"'  c #C5612F",
"]  c #D0642F",
"[  c #C76130",
"{  c #D06631",
"}  c #DC6A32",
"|  c #C67D3B",
" . c #C97F3C",
".. c #E97035",
"X. c #F57537",
"o. c #835B42",
"O. c #856347",
"+. c #83644A",
"@. c #876950",
"#. c #836E5A",
"$. c #83715C",
"%. c #8C7764",
"&. c #867B6A",
"*. c #8C7D6A",
"=. c #927C66",
"-. c #987E68",
";. c #D3853E",
":. c #898070",
">. c #948574",
",. c #988672",
"<. c #9C8874",
"1. c #958B7A",
"2. c #9C8E7B",
"3. c #98907F",
"4. c #A38E76",
"5. c #A69077",
"6. c #AC957D",
"7. c #DF8C41",
"8. c #E08C41",
"9. c #EC9344",
"0. c #F89B47",
"q. c #9F9786",
"w. c #A29583",
"e. c #A39986",
"r. c #A79B89",
"t. c #A99E8D",
"y. c #ABA18F",
"u. c #B8A186",
"i. c #BEA68B",
"p. c #A7A090",
"a. c #ADA694",
"s. c #AFA897",
"d. c #AFA998",
"f. c #B2A795",
"g. c #B1AA97",
"h. c #B3AD9B",
"j. c #B9AF9D",
"k. c #B6B09E",
"l. c #BAB19F",
"z. c #B7B2A0",
"x. c #BCB3A1",
"c. c #BEB9A6",
"v. c #BFBAA8",
"b. c #C6AF95",
"n. c #CBB397",
"m. c #CDB499",
"M. c #D3BB9E",
"N. c #C1B6A3",
"B. c #C3B9A6",
"V. c #C8BBA7",
"C. c #C4BCAA",
"Z. c #CABEAB",
"A. c #D7BEA0",
"S. c #C6C0AD",
"D. c #CCC1AE",
"F. c #D1C3AF",
"G. c #CEC4B1",
"H. c #CFC8B5",
"J. c #D2C6B2",
"K. c #D4C9B5",
"L. c #E4CAAB",
"P. c #F0D5B5",
"I. c #FDE1C0",
/* pixels */
"h.z.z.v.S.S.v.v.v.v.z.z.z.h.z.d.d.z.z.z.v.v.v.S.S.v.z.z.k.k.k.k.k.z.z.c.C.S.H.H.S.C.c.c.k.l.k.c.c.S.m.S.J.K.K.G.G.C.Z.C.C.N.C.N.",
"k.k.z.z.v.v.S.S.v.v.v.z.z.h.d.h.z.z.z.z.z.z.v.S.S.S.v.c.z.k.d.k.h.k.z.z.c.v.S.H.G.S.C.c.l.c.k.l.l.l.c.c.C.G.K.K.G.G.Z.C.C.N.C.N.",
"z.z.k.z.z.v.v.v.S.v.v.z.z.z.h.d.d.z.z.z.z.z.z.z.S.S.v.v.c.k.k.k.k.z.h.k.k.c.v.S.H.G.S.S.c.c.l.k.k.c.l.x.N.B.V.F.K.H.G.Z.Z.B.c.N.",
"d.d.d.z.z.z.v.v.S.S.S.v.z.z.z.z.d.d.d.z.h.z.z.z.c.v.S.v.c.z.k.k.d.h.h.z.k.k.k.v.S.S.G.S.C.c.c.k.l.k.l.k.x.N.N.B.G.H.K.G.Z.Z.B.N.",
"h.h.h.z.z.z.z.z.v.S.v.S.v.v.z.d.z.d.d.d.d.z.z.h.k.k.v.S.C.v.c.k.d.h.d.k.h.k.k.k.c.C.S.G.S.S.c.c.l.x.k.k.x.x.c.c.C.Z.K.K.H.Z.Z.C.",
"h.d.d.z.z.d.z.z.v.v.S.v.v.v.v.z.d.d.z.d.h.h.h.h.h.k.z.c.C.S.c.z.z.k.h.h.h.h.h.k.k.k.C.S.S.S.S.c.x.x.x.k.k.z.c.z.x.C.Z.Z.K.H.Z.Z.",
"h.d.d.d.d.d.z.z.z.z.v.S.v.v.v.z.z.z.d.d.d.d.h.h.h.h.k.z.c.v.S.c.c.z.h.d.h.h.h.h.k.k.c.c.S.S.S.S.v.x.k.k.k.k.z.l.z.x.x.C.Z.K.K.H.",
"h.h.z.d.d.z.d.z.z.z.z.v.S.v.v.v.z.z.z.z.d.d.d.h.h.k.h.h.k.c.v.S.v.c.z.k.h.h.h.h.h.h.k.k.c.S.S.S.v.v.x.l.k.z.z.l.x.x.x.v.B.Z.H.K.",
"z.d.z.d.d.d.d.h.z.z.z.z.c.S.C.v.c.x.k.h.h.d.d.z.h.h.h.h.k.k.c.C.v.c.c.z.h.h.h.g.g.h.h.k.k.z.S.S.S.C.v.x.x.k.z.k.j.j.z.c.x.N.Z.H.",
"z.d.d.d.z.d.h.h.d.h.z.z.z.v.C.C.v.x.x.k.h.h.d.z.d.h.h.d.d.d.k.x.S.v.c.c.k.k.s.h.g.h.h.g.k.z.z.c.S.Z.C.v.x.x.k.h.j.h.j.z.x.x.N.B.",
"z.d.z.d.d.d.d.z.h.h.h.h.k.z.v.C.S.c.c.z.z.h.d.d.d.d.h.h.d.h.h.k.c.c.S.c.z.z.h.h.h.h.h.h.d.k.k.c.C.S.G.C.v.x.k.k.h.j.h.h.j.x.x.N.",
"z.z.d.z.d.h.h.h.h.h.h.h.k.k.z.v.S.S.c.x.z.z.d.d.h.d.d.d.h.h.h.h.k.z.c.v.c.c.k.h.d.h.d.d.s.k.d.z.z.v.C.C.B.v.c.z.j.h.z.h.h.j.j.x.",
"v.z.z.z.d.h.d.h.d.h.h.h.k.k.k.k.c.V.C.c.c.z.k.k.d.g.g.d.d.h.h.h.k.k.z.v.S.c.z.k.h.d.d.d.d.d.d.d.k.k.x.C.C.C.v.c.x.z.h.h.h.h.j.z.",
"v.v.z.z.z.d.d.d.h.h.h.h.k.k.k.k.l.c.S.c.c.x.k.s.g M p.d.h.d.d.d.s.s.h.z.z.S.c.c.z.k.d.d.k.d.d.d.h.h.k.x.C.C.C.v.x.z.z.h.h.h.h.h.",
"v.v.v.z.z.h.d.d.h.h.h.h.h.k.k.k.k.c.c.S.S.c.c.g ..} V g.h.d.d.g.h.h.h.k.z.c.c.c.c.z.k.d.d.d.d.d.d.d.h.k.z.B.C.C.v.v.x.j.h.h.j.h.",
"H.v.v.z.z.z.h.h.h.h.h.d.h.k.k.k.k.k.k.x.S.v.C { X.X.j d.d.h.g.d.s.s.s.k.k.z.c.S.c.z.z.k.d.k.d.d.d.d.k.d.k.z.v.C.C.C.v.z.z.h.h.h.",
"H.v.v.v.z.z.z.h.h.h.h.h.d.d.h.j.j.j.z.z.v.Z.c X.X.X.Y h.g.>.i s x s.s.h.h.k.z.c.S.c.c.c.k.g.s.s.d.d.d.h.h.h.k.l.S.S.S.k.k.k.h.h.",
"G.H.H.C.v.v.j.z.z.h.d.j.d.z.d.z.h.j.z.h.j.&.[ X.X.X.o.s.8 J } } y s.s.s.s.g.k.k.c.c.c.c.k.k.g.g.d.d.d.d.s.h.g.h.l.v.S.c.c.k.k.h.",
"Z.H.Z.C.C.N.z.z.j.h.d.j.j.z.d.h.j.h.z.j.N.c X.X.X.X.f w ] } } ' N s.s.s.s.h.h.h.k.c.c.c.c.k.k.g.d.d.d.d.d.h.g.g.k.k.S.S.c.c.k.k.",
"Z.H.G.Z.Z.C.v.x.z.h.j.h.j.z.j.z.h.j.j.j.j.c X.X.X.D 4 } } } } w p.g.s.s.s.s.s.h.k.k.c.c.c.c.k.k.h.h.d.d.d.d.h.g.h.k.k.c.S.S.c.k.",
"C.Z.K.Z.Z.Z.Z.v.x.z.j.j.j.d.h.h.h.j.j.j.w.R X.X.X.@ } } } } I ,.g.h.s.s.s.s.s.h.g.k.k.c.c.c.c.c.h.h.d.d.d.d.d.s.g.k.g.k.c.c.c.c.",
"C.C.H.H.H.Z.Z.C.N.x.z.z.j.j.j.j.h.j.h.j.>.[ X.X.e A } } } I &.k.h.h.h.s.s.s.s.s.g.g.g.g.k.c.c.c.z.k.k.d.d.d.s.d.g.g.h.g.h.c.c.C.",
"N.N.Z.H.H.Z.Z.C.C.N.x.z.j.h.j.h.h.z.f.n 2 Q X.} # } } { w 3.c.k.h.k.h.s.s.s.s.s.s.h.k.g.k.c.c.c.B.x.k.k.d.d.d.d.s.s.g.g.g.k.l.c.",
"N.N.Z.Z.H.H.G.G.C.C.v.z.z.j.h.j.h.d.a X.4 G X.@ ' } D b n.S.B.l.z.k.k.h.h.s.s.s.s.g.g.g.g.h.c.c.C.c.x.k.h.d.d.d.s.g.g.g.g.g.h.c.",
"v.N.N.B.Z.K.K.K.Z.Z.Z.v.x.x.j.j.j.5 ..X.+ G % A D c 1.c.S.S.S.B.c.k.k.k.g.s.s.s.s.s.s.h.h.s.h.k.c.C.c.c.k.k.h.h.s.s.d.d.s.h.g.k.",
"z.N.N.N.Z.Z.K.Z.Z.Z.C.B.N.x.z.j.B [ X.T t   + # y.x.x.l.N.S.S.S.c.c.k.k.k.g.g.s.s.s.s.s.h.g.g.h.k.c.c.c.k.k.k.g.s.s.s.s.d.s.s.s.",
"x.x.x.N.B.Z.K.K.K.Z.Z.Z.B.v.N.d.L X.X.% 0.K 8.#.l.l.x.l.N.B.V.S.S.S.c.c.k.g.g.g.s.s.s.s.s.s.s.g.g.k.c.C.c.c.k.k.h.s.s.s.s.s.s.s.",
"z.x.N.x.N.V.Z.Z.K.H.H.Z.Z.N.N.+.} X.[ 5 0.0.^ t.l.l.x.l.l.l.c.S.S.S.c.c.k.k.k.g.g.s.s.s.s.s.s.s.g.k.k.c.c.c.c.k.z.g.g.s.s.s.s.s.",
"x.x.x.N.x.N.N.Z.K.K.Z.K.Z.Z.f.2 E E $ D / / p j.l.j.l.l.l.x.N.N.S.S.S.S.c.c.k.k.h.g.s.s.s.s.g.g.g.g.k.k.c.c.c.c.c.z.h.s.s.a.a.a.",
"j.j.x.N.N.x.N.N.J.K.K.K.K.Z.z #.k k o ; .   k j.k.k.l.l.l.l.l.N.c.c.A.S.S.c.k.k.k.h.h.s.s.s.s.g.g.g.g.k.h.c.c.c.c.z.k.k.k.s.s.s.",
"z.z.x.x.x.N.N.N.Z.Z.K.K.K.Z.2 5 t E @ _ 0.< h.j.j.j.j.l.l.l.l.l.c.c.S.S.A.S.c.c.3.Z $.C :.3.g.g.g.g.g.g.h.k.c.c.c.c.z.k.k.s.s.s.",
"j.z.x.x.N.x.N.N.N.Z.Z.K.K.j.R X.X.Q L 0.0.3 j.h.j.g.h.j.x.l.l.l.k.n.c.S.S.S.S.z 7 I.I.I.n.4.x :.g.g.g.k.g.g.k.k.c.c.c.c.z.k.s.s.",
"z.z.j.j.x.x.N.N.N.V.Z.Z.K.<.{ X.X.J ^ 7.H l j.h.h.j.j.l.l.l.l.l.k.x.c.B.V.S.G.. I.I.I.I.I.I.I.b.M >.g.h.h.g.h.h.l.c.S.l.l.k.k.h.",
"z.j.j.j.x.x.N.N.N.N.V.Z.K.B X.X.E X * , o b l.l.j.j.h.h.j.j.l.l.k.b.k.c.B.V.S.> 8 I.I.I.I.I.I.I.I.<.C d.g.s.s.h.h.k.l.S.S.l.k.k.",
"x.x.x.j.j.x.x.j.N.N.N.N.Z.* 2 , #.o , P 8.O.x.l.j.j.j.j.j.h.j.l.k.k.l.b.x.c.4.K 6 f L.I.I.I.I.I.I.I.A.C g.h.g.h.g.h.k.l.S.C.c.k.",
"x.j.x.j.j.x.x.x.N.N.N.N.V.9 -.2 2 < ^ 0.0.O.x.N.j.j.j.l.j.j.j.j.k.c.l.l.l.g.. u 0.;.2 9 L.I.I.I.I.I.I.M.M h.s.g.g.h.h.j.l.c.c.c.",
"x.j.j.x.x.x.x.x.N.N.N.b.>.o F X.X.J ^ 0.0.+.N.x.j.j.j.j.j.j.h.j.l.l.k.k.n.y | . ` 0.0.;.- #.I.I.I.I.I.I.M.C s.g.g.k.g.k.h.l.B.c.",
"N.x.j.j.j.x.j.j.j.N.x.x.w.F X.X.X.Q D 0.0.P V.N.x.j.j.j.j.h.j.j.l.k.k.i.m ;.0.0 X 7.0.0.0./ , u.I.I.I.I.I.$.s.h.g.g.g.g.g.k.k.c.",
"N.x.x.j.j.j.j.l.x.j.N.x.t.Q X.X.X.X.& 0.0.q Z.B.N.l.j.j.j.h.j.h.k.k.h.:.( 0.0.0.* - 0.0.0.0.7.q #.I.I.I.I.P.&.g.g.g.g.k.g.k.g.k.",
"N.N.x.j.j.x.j.x.x.l.x.N.N.~ X.X.X.X.& 0.h * B V.N.N.l.l.j.j.j.j.k.l.:.( 0.0.0.0.` , 2 0.0.0.0.7.X 8 I.I.I.I.V h.g.k.k.g.g.g.g.k.",
"C.N.N.j.z.z.x.j.x.x.x.x.N.I X.X.X.X.e 6 f 6 u S.Z.B.N.l.l.l.j.j.k.x u 0.0.0.0.0.0.6 x H 0.0.8.% } ) 8 I.I.I.i.j.g.k.g.g.g.g.g.k.",
"C.C.B.x.x.x.x.j.l.x.x.x.x.U X.X.X.X.) . - 8.;.j Z.V.B.N.x.l.j.%.u $ - 0.0.0.0.0.0.0.6 f ` 8.$ } X.X.F =.I.I.I.e.g.g.g.g.h.h.g.g.",
"Z.N.N.N.j.j.j.x.x.l.l.l.x.-.X.X.X.Q 7 ; r 0.0.;.a @.&.q.=.v I | 0.h O 7.0.0.0.0.0.0._ f : @ } X.X.X.X.* I.I.P.>.k.h.h.h.k.i.h.h.",
"Z.Z.Z.N.N.x.j.j.l.l.x.l.l.l.X.X.[ , V F % _ 0.0.0.9.o P | 0.0.0.0.;.7 y 0.0.0.0.0.0.0.O : = } X.X.X.X.t z n.f y.n.k.k.k.h.h.h.k.",
"Z.Z.Z.Z.B.x.z.j.j.l.l.l.x.l.~ } , 5.q X.X.& _ 0.0.! 7 / 0.0.0.0.0.0.6 6 9.0.0.0.0.;.$ S 6 6.2 X.X.X.X.D e.r.l.N.c.k.k.l.h.h.h.h.",
"K.G.Z.Z.B.N.x.x.x.x.l.j.x.l.o.- m.- X.X.X.X.& r 0.a ,  .0.0.0.0.0.0.0 B ^ 0.9.;.1 1 } X.Q f =.r X.X.I <.D.D.D.S.c.m.l.l.k.h.j.k.",
"J.J.Z.Z.C.N.N.x.j.j.j.j.l.j.1.6.6 [ X.X.X.X.X.E @ + k 0.0.0.0.0.0.0._ $.6 K 1 4 } X.X.X.9.4 u.k T t *.N.C.D.D.D.S.S.l.l.j.j.k.k.",
"Z.Z.Z.Z.B.N.N.N.l.l.j.j.l.j.k.; R X.X.X.X.X.X.X.X.; X 5 5 ! ! R ^ K 6 X . e X.X.X.X.X.X.X.X.- P.X e.b.l.n.V.D.F.S.S.S.n.l.k.j.j.",
"Z.Z.K.Z.Z.Z.V.N.N.j.j.j.j.j.x.2.L X.X.X.X.X.X.X.X.7 7 X.[ E E E E E X.2 u.L X.X.X.X.X.X.X.X.W . C l.l.l.N.N.N.Z.J.Z.Z.C.B.x.j.j.",
"Z.J.K.Z.Z.Z.V.V.N.N.j.N.j.j.j.j.%.! X.X.X.X.X.X.[ k i X.X.X.X.X.X.X.X.F -.= X.X.X.X.X.X.X.~ g a.l.l.k.l.l.x.N.N.Z.J.D.Z.Z.C.x.l.",
"N.Z.K.K.F.Z.V.V.N.N.j.j.N.j.j.j.j.#.! X.X.X.X.X.E 2.= X.X.X.X.X.X.X.X.} 7 #.Q X.X.X.X.} a -.j.j.j.j.j.l.b.x.l.N.N.Z.K.G.D.V.B.x.",
"N.Z.Z.A.F.Z.V.V.N.N.N.j.j.j.j.j.j.j.%.I ..X.X.X.5 m.5 X.X.X.X.X.X.X.X.X.2 K.2 X.X...I +.d.x.N.j.j.j.j.j.j.N.j.l.b.B.Z.G.J.Z.B.B.",
"N.N.V.Z.J.J.F.Z.Z.N.N.j.x.j.j.j.j.j.j.t.d ~ X.X.2 L.5 X.X.X.X.X.X.X.X.X.w m.7 [ U n d.N.x.x.j.j.j.j.l.j.j.j.l.l.j.N.B.Z.J.D.D.S.",
"j.N.N.V.F.J.J.Z.Z.N.N.N.x.x.x.N.j.j.j.j.j.>.d R 2 2.D X.X.X.X.X.X.X.X.X.E ; ; 2.J.J.Z.N.N.N.j.x.b.l.j.j.x.j.l.b.j.l.x.C.V.J.F.D.",
"N.N.V.V.A.K.K.F.Z.Z.N.N.j.x.x.j.j.j.j.N.j.j.N.t.n z w I W [ [ T o.I o.-.N.N.x.Z.D.K.J.Z.Z.N.N.N.x.x.j.j.j.j.j.N.N.j.l.b.N.Z.F.F.",
"j.N.N.N.Z.Z.J.F.Z.N.Z.N.N.j.N.x.j.j.j.j.j.j.j.j.N.j.N.j.w.w.r.f.Z.Z.Z.N.N.N.N.N.N.Z.J.J.Z.Z.N.N.x.l.j.j.j.j.j.j.x.b.l.x.b.B.S.G.",
"j.N.N.N.V.Z.F.F.J.Z.Z.N.N.j.j.j.x.j.j.j.j.x.x.j.j.j.N.N.V.V.Z.F.Z.Z.F.Z.V.N.N.j.N.N.Z.J.J.Z.Z.B.N.j.j.N.j.j.j.j.l.l.j.x.l.N.N.V.",
"j.N.N.N.N.V.F.F.J.F.Z.Z.V.N.j.N.j.j.j.j.j.j.j.j.N.j.b.N.m.V.V.Z.Z.F.Z.Z.V.N.N.N.j.N.Z.Z.J.J.Z.Z.C.N.N.j.j.x.z.j.l.l.l.x.l.l.N.N.",
"N.N.N.j.N.N.Z.F.J.F.F.Z.Z.N.N.j.j.j.x.j.j.j.j.j.j.j.N.N.N.N.V.Z.Z.F.F.Z.V.N.N.j.j.N.N.B.Z.J.F.F.Z.V.N.j.x.N.j.h.j.l.k.j.l.l.j.N.",
"N.N.N.N.j.N.N.Z.K.K.J.F.Z.Z.N.N.x.j.x.x.j.j.j.j.j.j.j.N.j.N.N.N.Z.Z.Z.Z.Z.V.N.N.N.N.N.N.N.Z.J.J.Z.Z.Z.N.j.j.x.j.j.k.x.j.l.j.x.b.",
"j.N.N.N.j.N.N.N.Z.J.J.J.Z.Z.N.N.x.x.j.j.j.j.j.j.j.j.j.j.N.N.N.N.V.Z.Z.F.Z.Z.N.N.N.N.j.j.j.N.Z.J.K.J.Z.N.N.x.x.j.j.j.j.j.l.j.j.N.",
"N.j.x.j.j.N.N.V.V.F.J.J.F.F.Z.N.N.N.x.j.j.j.j.j.j.j.j.j.j.N.N.N.V.V.Z.F.Z.Z.V.V.j.N.N.j.N.N.N.Z.J.J.G.Z.Z.C.x.x.j.j.j.j.j.l.j.l.",
"x.x.j.N.j.N.N.N.N.V.Z.J.K.F.F.Z.N.N.j.N.j.j.j.j.j.j.j.j.j.N.N.N.N.N.Z.Z.Z.F.Z.V.N.N.j.N.j.N.N.N.Z.Z.J.J.Z.Z.N.x.x.x.j.x.j.j.j.j.",
"j.j.j.j.N.j.j.N.N.N.Z.F.K.K.Z.F.Z.N.N.j.j.N.j.N.j.j.j.j.j.j.j.j.N.N.N.Z.F.F.Z.V.N.N.N.j.N.j.j.j.N.Z.K.K.Z.Z.C.B.x.j.x.j.j.j.j.j."
};
