/* XPM */
static char *result[] = {
/* columns rows colors chars-per-pixel */
"64 64 165 2 ",
"   c #36271B",
".  c #36281B",
"X  c #3C2B1D",
"o  c #3D2E21",
"O  c #3E3022",
"+  c #442D1C",
"@  c #482D1B",
"#  c #47321F",
"$  c #4E321D",
"%  c #55341E",
"&  c #5E361E",
"*  c #443325",
"=  c #4A3524",
"-  c #4E3927",
";  c #453528",
":  c #47382C",
">  c #4D3B2B",
",  c #553320",
"<  c #563922",
"1  c #583821",
"2  c #553D2A",
"3  c #583F2D",
"4  c #4E3F30",
"5  c #623A20",
"6  c #6C3E22",
"7  c #603F2A",
"8  c #5D4026",
"9  c #57402E",
"0  c #5C4028",
"q  c #554233",
"w  c #5C4531",
"e  c #5F4937",
"r  c #564838",
"t  c #5C4C3C",
"y  c #6B4625",
"u  c #6E452C",
"i  c #724124",
"p  c #734927",
"a  c #7F4825",
"s  c #7A472A",
"d  c #774B2E",
"f  c #7D4A2B",
"g  c #7F522A",
"h  c #624531",
"j  c #624B36",
"k  c #6A4A34",
"l  c #614F3E",
"z  c #734B33",
"x  c #7D4E33",
"c  c #714F39",
"v  c #62513F",
"b  c #6C513D",
"n  c #755032",
"m  c #7B593E",
"M  c #645342",
"N  c #6F5542",
"B  c #6E5947",
"V  c #6B5C4E",
"C  c #775B46",
"Z  c #725E4C",
"A  c #7A5D49",
"S  c #76624E",
"D  c #7C624C",
"F  c #756553",
"G  c #7B6754",
"H  c #776859",
"J  c #7B6C5B",
"K  c #8F4B27",
"L  c #844B2D",
"P  c #83542C",
"I  c #9E522A",
"U  c #925D2F",
"Y  c #814E31",
"T  c #825533",
"R  c #8F5331",
"E  c #9C5631",
"W  c #925E31",
"Q  c #9B5934",
"!  c #A1532A",
"~  c #AC572B",
"^  c #AC5B2F",
"/  c #B25A2C",
"(  c #BA5C2D",
")  c #A65F38",
"_  c #B65E31",
"`  c #9A6230",
"'  c #A16632",
"]  c #AD6D35",
"[  c #B06035",
"{  c #B47336",
"}  c #B4753B",
"|  c #BA7638",
" . c #C5612F",
".. c #D0642F",
"X. c #C76130",
"o. c #D06631",
"O. c #DC6A32",
"+. c #C67D3B",
"@. c #C97F3C",
"#. c #E97035",
"$. c #F57537",
"%. c #865C42",
"&. c #846247",
"*. c #83664D",
"=. c #94694E",
"-. c #8A6951",
";. c #826D58",
":. c #84715E",
">. c #857361",
",. c #8A7663",
"<. c #8E7A67",
"1. c #8B7D6B",
"2. c #957D67",
"3. c #D2833D",
"4. c #99836E",
"5. c #8C8271",
"6. c #8F8877",
"7. c #978976",
"8. c #968978",
"9. c #958B7B",
"0. c #A18F7B",
"q. c #A69079",
"w. c #A9947C",
"e. c #AD987E",
"r. c #DF8C41",
"t. c #E08C41",
"y. c #EC9344",
"u. c #F89B47",
"i. c #979180",
"p. c #9D9584",
"a. c #A19482",
"s. c #A59B8B",
"d. c #AA9D8C",
"f. c #ACA18F",
"g. c #B8A186",
"h. c #ACA493",
"j. c #AFA897",
"k. c #AFA999",
"l. c #B0A695",
"z. c #B0A997",
"x. c #B3AD9B",
"c. c #B9AF9D",
"v. c #B6B09E",
"b. c #BAB19F",
"n. c #B7B2A0",
"m. c #BCB3A1",
"M. c #BEB9A6",
"N. c #BFBAA8",
"B. c #C9B196",
"V. c #CEB599",
"C. c #C1B6A3",
"Z. c #C3B9A6",
"A. c #C8BBA7",
"S. c #C4BDAA",
"D. c #CABEAB",
"F. c #C6C0AD",
"G. c #CBC1AE",
"H. c #D1C3AF",
"J. c #CEC4B1",
"K. c #CFC8B5",
"L. c #D2C6B2",
"P. c #D4C9B5",
"I. c #E4CAAB",
"U. c #F0D5B5",
"Y. c #FDE1C0",
/* pixels */
"x.n.n.N.F.F.F.N.N.N.n.n.k.k.n.k.n.n.n.n.n.N.N.F.N.N.M.n.v.v.v.v.v.n.n.N.N.F.K.K.F.S.M.M.m.v.M.b.M.M.F.F.L.P.P.K.J.A.S.S.S.Z.Z.Z.",
"v.v.n.n.N.N.F.F.N.N.N.n.n.n.n.k.n.n.x.n.n.n.N.F.F.F.N.M.n.v.x.x.x.n.n.n.M.M.F.K.J.F.M.M.b.M.b.b.b.b.M.V.S.J.P.K.K.J.S.S.S.Z.C.C.",
"n.n.v.n.n.N.N.N.N.N.N.N.n.n.k.k.x.x.n.x.n.n.n.n.N.F.N.N.n.v.v.x.v.x.v.v.v.M.N.F.K.J.F.F.M.M.b.v.v.b.v.M.C.A.D.L.P.K.J.D.D.S.Z.C.",
"k.k.k.n.n.n.N.N.F.F.F.N.N.n.n.x.k.k.x.n.x.n.n.n.M.N.F.N.M.M.v.v.k.v.x.v.v.n.n.M.F.G.K.F.S.M.M.v.m.v.v.v.n.C.C.S.D.K.P.L.D.D.S.C.",
"x.x.n.n.k.n.n.n.N.F.F.N.N.n.n.n.k.k.n.x.k.k.x.n.n.n.M.F.F.M.M.v.v.k.k.x.v.v.v.v.M.S.F.F.F.F.M.M.m.v.b.v.m.m.m.Z.S.D.K.P.D.D.D.D.",
"k.k.k.x.k.n.n.n.n.N.N.F.N.N.n.n.n.k.k.k.n.n.n.x.v.n.n.M.N.F.M.M.n.v.v.x.x.v.z.v.v.v.S.F.F.F.M.M.M.n.v.v.v.m.n.n.m.S.D.D.P.P.K.D.",
"n.k.k.n.x.k.n.n.n.N.N.F.F.N.N.n.n.n.n.k.k.k.x.x.v.v.v.n.M.F.M.M.n.n.v.k.z.v.z.v.v.v.M.M.F.J.F.F.N.b.v.v.v.v.n.b.m.m.C.S.D.P.P.K.",
"k.n.k.k.k.n.k.n.n.n.n.N.F.N.N.N.n.n.k.k.n.k.k.x.v.k.k.x.v.M.F.M.N.N.v.x.v.z.j.v.z.v.v.v.M.F.F.F.F.M.m.b.v.n.n.b.c.m.n.N.S.D.D.P.",
"n.k.n.k.k.x.k.k.x.n.v.n.M.F.F.N.M.M.v.x.k.k.k.x.k.v.x.x.x.v.M.N.N.N.M.M.v.k.k.k.v.k.v.v.n.M.M.F.F.D.N.m.b.n.v.v.c.c.c.m.C.Z.D.D.",
"n.n.k.k.x.k.k.n.k.x.v.v.n.N.S.S.N.M.v.v.v.v.k.x.x.k.x.x.x.x.v.v.N.N.M.M.v.k.k.v.k.k.k.k.x.n.M.M.F.D.S.N.m.n.c.v.x.n.c.c.m.m.Z.D.",
"n.k.x.k.x.x.x.x.x.x.n.x.v.M.M.S.S.N.N.v.v.k.k.k.k.k.k.x.x.x.x.v.M.M.N.M.n.n.v.k.k.v.v.k.k.v.x.M.N.F.J.S.N.m.n.v.n.x.x.x.c.b.m.N.",
"n.n.n.k.x.k.k.x.x.k.k.n.v.v.v.M.S.F.S.b.v.v.x.x.k.k.z.z.x.z.x.x.v.M.N.N.M.M.v.k.k.k.k.k.z.x.x.n.n.N.S.S.S.N.M.n.n.n.n.k.x.c.c.b.",
"n.n.n.n.k.x.x.x.x.k.x.v.v.x.v.v.M.F.F.M.M.v.v.x.k.x.z.k.j.x.x.v.x.x.n.M.N.M.M.v.v.x.z.k.k.k.k.x.v.v.m.S.S.S.N.m.n.c.x.n.n.x.c.c.",
"N.N.n.n.v.x.k.k.x.x.x.x.v.v.v.v.b.N.F.M.M.M.v.v.v.k.k.k.x.j.j.j.z.z.v.n.M.F.M.M.n.x.z.z.x.k.k.k.x.x.n.m.S.S.S.N.m.n.c.x.x.x.x.x.",
"F.N.N.n.v.x.k.k.x.k.v.j.x.v.v.v.v.b.b.F.N.N.M.v.v.z.k.k.j.x.x.j.v.j.k.v.n.M.M.M.M.n.x.v.k.k.k.k.k.x.x.v.n.S.S.S.N.N.n.c.n.x.x.x.",
"F.N.N.n.n.n.n.k.k.n.j.x.j.v.v.v.v.b.b.M.N.F.M.M.6.V V S D w v D 5.j.x.x.v.n.M.e.6.J :.6.x.x.k.k.k.x.k.k.v.n.N.S.S.S.N.n.x.x.n.x.",
"K.S.S.N.n.n.c.x.x.x.x.x.x.k.x.x.c.c.c.c.l.2.A 6 a ; > $.$.$.$.$.( h i.f.;.m x ~  .O. ._ b x.z.z.k.k.k.k.z.x.v.v.F.F.N.M.v.v.x.x.",
"J.K.J.S.N.N.c.c.x.x.x.x.n.x.x.c.c.x.l :   ( $.$.$.8 Z n $.$.$.$.$.O.* x ..$.$.$.$.$.$.$.n v.x.z.k.k.k.x.x.x.x.v.b.N.F.M.M.v.v.x.",
"F.K.D.D.S.Z.n.n.n.c.x.x.x.x.n.x.p.N s = a.+ #.$.$.$.9 O 6 # 5 5 . + X.$.$.$.$.$.$.$.$.' 5.x.v.x.j.j.k.k.k.k.j.x.v.v.F.F.F.M.v.v.",
"S.K.K.S.S.S.Z.n.n.x.c.x.n.x.c.1.%.$.$.O.= >.o O./ % + O 8 u.u.U . O.$.$.$.$.$.$.$.o.n 7.M.M.v.v.x.x.k.k.j.z.j.x.x.x.v.M.F.N.M.v.",
"D.D.P.D.J.D.S.S.N.c.c.x.c.c.-...$.$.$.$.$.2 M   p 3.u.y * 3.u.r.+ @ + & X & % @ 0 :.h.m.S.M.M.v.v.k.j.x.j.j.k.k.z.x.x.v.b.N.M.M.",
"C.Z.K.P.K.D.S.S.C.m.c.c.c.=.#.$.$.$.$.$.$.5 + t 9 3.u.u.# 9 | W d 2 I O.O.O.O.O.( d B f.v.M.M.M.m.v.v.j.k.j.j.j.z.z.z.x.v.M.M.F.",
"C.C.D.K.K.J.D.D.S.C.m.c.=.$.$.$.$.$.$.O.$ } u.) q * ` = 9 J 0.k.x.c.1.u ..O.O...O.O.X.g *.M.M.M.N.m.v.v.j.j.j.k.z.z.z.z.x.v.v.M.",
"C.C.Z.D.K.K.J.J.D.Z.C.-.#.$.$.$.$.$.X.+ t.u.u.y.p r f.F.F.N.Z.m.m.x.x.h.b L O.O.O.O.O.O.' S M.M.Z.N.m.v.x.x.k.z.z.z.z.z.z.z.v.b.",
"N.C.C.Z.D.P.P.D.D.D.1.q : 7 ! O.$.O.= t.u.u.r.z f.b.n.m.F.G.F.C.m.m.v.x.z.6.b d ( O.O.O.o.< x.v.M.S.M.m.v.v.x.z.z.j.j.k.j.z.x.v.",
"n.C.C.C.D.D.P.P.J.l.: 1.a.V.2.l 4 + 7 { u.] A v.n.m.m.m.M.F.F.F.N.M.b.v.v.j.z.f.:.Z j n V e.z.x.v.M.M.M.m.v.v.z.j.j.j.j.k.j.j.j.",
"m.m.N.m.Z.D.D.P.D.;.X.I K 7 , e * o > r . ;.b.x.b.b.m.m.C.Z.S.G.F.S.m.b.v.z.z.x.j.j.z.z.j.j.j.z.v.v.M.M.M.M.v.v.x.j.j.j.j.j.j.j.",
"n.m.C.m.C.A.D.P.P.%.$.$.$.$.$.$., u.+.W w b.b.c.b.c.m.b.b.b.C.S.F.G.F.M.b.v.x.x.z.z.z.z.j.j.j.j.v.z.v.M.S.M.M.m.v.z.z.j.j.j.j.j.",
"m.m.m.C.m.C.Z.D.d._ $.$.$.$.$.O.1 u.u.P h.c.c.c.c.c.b.b.b.m.C.C.F.F.F.F.Z.b.v.v.z.z.z.z.z.z.z.z.z.z.v.v.M.M.M.M.M.v.v.z.j.j.h.j.",
"c.c.m.C.m.C.C.C.<...$.$.$.$.$.! ' u.u.C x.c.c.x.x.b.b.b.b.b.m.b.V.A.F.F.F.m.m.b.v.v.z.z.z.z.z.z.z.z.v.z.x.M.M.M.M.v.v.v.v.j.j.j.",
"c.c.m.m.C.C.C.C.N $.$.$.$.$.$.5 t.u.u.%.c.c.c.x.c.x.b.b.b.b.b.C.b.Z.F.F.F.Z.F.m.v.v.v.z.z.j.z.z.z.z.z.z.x.x.v.M.M.M.n.n.v.j.j.j.",
"n.m.n.m.m.m.C.C.%.$.$.$.$.$.$.5 u.u.u.m c.c.c.c.c.c.x.c.n.b.b.b.b.b.C.F.G.G.F.F.M.M.v.z.z.j.z.z.z.z.z.v.x.x.v.v.M.M.M.M.n.x.j.j.",
"c.n.c.c.m.m.C.Z.%.$.$.$.$.$.$.5 u.u.W = m.c.x.c.c.c.x.x.b.c.c.b.b.b.m.Z.G.F.G.G.Z.Z.b.v.v.v.j.x.j.z.x.x.z.x.x.x.b.m.F.b.M.v.z.z.",
"m.m.n.c.c.m.m.C.%.$.$.$.$.$.$., 2 r 4 2 C m.c.b.c.c.n.b.c.c.m.b.b.b.b.M.C.F.F.G.G.F.Z.m.v.v.x.x.x.j.j.x.x.z.z.x.x.b.b.F.M.M.b.v.",
"c.m.m.c.n.m.m.m.C $.$.$.X.7 3 : : 9 ' u.U w.m.n.c.c.c.c.c.c.c.c.b.b.b.B.b.M.F.G.J.G.F.Z.m.b.v.v.x.z.z.x.z.z.z.x.x.x.x.b.F.M.M.v.",
"m.c.m.c.c.m.c.m.G X.Y > Z 0.r = y u.u.u.u.P 4.m.c.c.c.c.c.c.c.c.b.b.b.b.b.m.V.A.G.G.F.G.Z.m.b.b.x.x.z.x.x.z.z.z.x.x.x.b.b.S.M.M.",
"C.c.c.m.m.m.c.m.1.4 g.V.4 7 O.$.$ u.u.u.u.u.` *.l.c.c.c.c.x.c.c.v.b.b.b.b.V.M.Z.S.G.G.G.F.Z.Z.n.b.x.x.v.x.j.z.z.z.x.v.z.x.b.M.M.",
"C.m.m.c.b.n.m.c.x.t > u O.$.$.$.5 @.u.u.u.u.u.r.7 H h.c.x.c.c.c.n.b.b.b.b.b.b.m.C.S.G.G.J.G.S.M.b.b.v.v.x.x.x.z.x.z.z.x.x.v.b.M.",
"C.C.m.c.c.c.b.b.b.h $.$.$.$.$.$.O.1 u.u.u.u.u.} * 3 P T &.<.9.s.v.c.v.: O f.b.V.m.Z.S.A.G.L.J.A.F.n.v.v.v.x.z.z.z.x.x.x.v.v.z.v.",
"C.m.m.c.b.n.b.b.m.8.^ $.$.$.$.$.$.5 @.u.u.u.{ 9 < u.u.u.u.+.+.p . T . r U.J f.n.m.B.Z.Z.S.J.J.G.F.V.M.b.v.x.x.x.z.x.x.x.g.z.z.v.",
"C.C.C.m.n.c.n.m.m.m.z $.$.$.$.$.$.O.% u.u.{ r > t.u.u.u.u.u.u.- 2 u.> Y.Y.U.F b.b.b.B.C.m.A.J.J.F.F.S.V.b.v.v.x.x.z.z.z.z.z.x.x.",
"S.S.C.m.m.m.m.c.c.m.1._ $.$.$.$.$.$./ 1 { O M { u.u.u.u.u.u.+.  @.u.> Y.Y.Y.1.s.b.b.b.b.B.C.Z.G.J.J.F.F.F.b.b.v.x.x.z.v.v.z.z.z.",
"D.S.C.C.c.c.c.m.b.m.m.c $.$.$.$.$.$.$.i X F P u.u.u.u.u.u.u.2 = u.u.* Y.Y.Y.I.J c.b.b.B.m.C.C.C.F.J.G.G.F.b.M.b.v.v.z.g.x.z.b.z.",
"D.D.S.C.C.m.c.c.b.b.b.h.R $.$.$.$.$.O.> * # u.u.u.u.u.u.u.@.; T u.u.j Y.Y.Y.Y.J c.b.n.m.m.B.b.C.A.F.H.G.G.F.S.b.b.v.v.v.x.b.z.b.",
"J.D.D.C.C.m.c.m.b.b.b.b.q._ $.$.$.O.> V.- a g u.u.u.u.u.u.3 q u.u.u.j Y.Y.Y.Y.J c.c.c.m.B.n.m.C.V.Z.F.F.H.G.F.B.M.b.b.v.v.v.c.z.",
"P.J.D.D.Z.C.m.c.n.b.b.c.m.4.o.$.O.= I.> O.$.K $ t.u.u.u.@.t 3 u.u.u.j Y.Y.Y.Y.<.l.c.c.c.n.m.m.B.b.b.V.A.G.H.G.A.A.b.b.b.c.z.c.c.",
"L.L.D.D.Z.Z.C.m.b.b.c.c.c.n.2.( o I.M / $.$.$.O.$ L u.u.3 F [ u.u.u.j Y.Y.Y.Y.<.9.c.x.c.c.c.b.c.v.V.m.m.F.G.J.J.F.A.M.b.b.c.c.x.",
"H.D.G.D.D.Z.C.C.c.m.c.c.c.c.m.M ;.;.f $.$.$.$.$.$.! $ L M > u.u.u.u.w Y.Y.Y.Y.<.l.m.c.c.c.c.c.c.b.b.C.b.M.V.F.J.G.A.S.B.b.v.c.v.",
"D.L.L.D.D.D.A.C.C.c.c.c.c.c.c.c.Z , $.$.$.$.$.$.$.$.$.o : @ @.u.u.u.: Y.Y.Y.Y.,.c.c.c.c.c.c.c.c.b.b.b.b.C.C.C.J.J.D.D.S.Z.m.c.c.",
"D.D.P.D.D.D.A.A.C.C.C.c.m.c.c.m.c.0.Q $.$.$.$.$.$.$.X.l : / 6 , , R l Y.Y.Y.Y.H c.m.m.c.m.c.c.c.b.b.b.b.c.m.B.C.D.L.G.D.G.Z.m.b.",
"A.A.D.P.H.D.A.A.C.C.c.c.C.c.c.c.c.c.d.c O.$.$.$.$.$.3 I.3 $.$.$.$.6 >.Y.Y.Y.Y.H C.C.m.c.c.c.c.c.c.b.b.b.c.m.C.c.C.D.L.H.G.D.Z.b.",
"C.A.D.H.L.D.A.D.C.C.C.c.m.c.c.c.c.c.c.c.*.R #.$.$.X.l ;.E $.$.$.$.6 V.Y.Y.Y.B.8.D.C.C.m.m.m.m.c.c.c.c.c.c.B.c.C.C.C.D.L.G.D.A.S.",
"C.C.A.D.P.H.D.D.C.C.C.c.c.c.c.c.c.c.c.c.c.l.c E #.3 I.: $.$.$.$.$.; Y.Y.Y.Y.;.L.L.D.C.C.C.c.m.c.c.c.c.c.c.c.c.C.c.C.A.J.L.L.G.S.",
"c.V.C.D.H.P.P.D.D.D.C.c.C.m.m.m.c.c.c.c.c.c.C.l.N   4.6 $.$.$.$.[ H Y.Y.Y.C.5.D.L.L.D.C.C.m.c.c.b.b.c.b.n.B.c.b.c.b.m.m.A.H.H.G.",
"C.C.C.C.D.I.L.H.D.D.D.C.C.m.m.m.c.c.c.C.c.c.C.c.C.a.4 k L X.$.O.; Y.Y.Y.U.H C.S.D.P.L.D.D.C.C.c.b.m.c.c.c.c.c.m.C.c.m.B.C.A.H.J.",
"C.C.C.C.A.H.L.D.D.D.C.C.C.c.C.c.c.c.c.c.c.c.m.c.c.c.C.A.C.0.A h a.Y.Y.Y.>.C.C.C.S.D.L.L.D.D.D.C.b.b.c.c.c.c.b.b.b.c.b.n.B.S.G.G.",
"C.C.C.C.C.D.H.L.H.D.D.C.C.c.c.c.c.m.c.c.c.m.c.c.c.c.C.C.A.A.D.c.>.Y.U.<.A.C.C.C.C.C.D.P.L.H.D.C.C.c.c.m.c.c.c.c.m.c.c.b.C.c.C.A.",
"c.C.c.C.C.A.H.H.H.H.D.D.D.c.c.C.c.c.c.c.c.c.c.c.C.C.c.C.C.A.D.D.s.;.>.D.A.C.C.c.c.C.C.D.L.L.H.D.Z.C.C.C.n.c.c.c.c.c.b.m.c.C.B.C.",
"c.D.C.C.C.C.D.H.L.L.H.D.D.C.C.C.c.m.c.c.c.c.c.c.c.c.C.C.C.C.D.D.D.D.D.D.A.C.C.C.C.C.C.C.D.L.H.D.D.A.C.c.N.c.c.c.c.m.c.b.b.c.b.m.",
"c.C.C.C.c.C.C.D.L.P.L.H.D.D.C.c.m.c.m.m.c.c.c.c.c.c.B.c.c.C.C.A.D.D.D.D.D.A.c.C.C.c.C.C.C.D.L.L.D.D.Z.C.m.m.c.c.c.c.m.c.b.b.b.C.",
"C.C.c.C.C.c.C.C.D.L.P.H.H.D.C.C.m.m.m.c.c.c.c.c.c.c.c.c.c.C.C.C.D.D.D.D.D.D.A.C.C.c.c.C.C.C.D.L.P.P.D.A.C.m.c.c.c.c.c.c.b.b.b.b.",
"C.c.c.C.c.C.C.D.C.H.L.L.H.H.H.C.C.C.m.c.c.c.c.c.c.c.c.c.C.C.B.C.D.D.D.D.D.D.A.Z.C.C.C.c.c.c.C.D.P.D.D.D.D.S.m.C.b.b.c.c.b.b.b.b.",
"c.m.c.C.c.C.C.C.C.C.H.H.P.H.D.D.C.C.c.C.c.c.c.c.c.c.c.c.c.C.c.C.C.C.D.D.D.J.D.A.C.C.c.C.C.c.C.Z.D.D.P.P.D.D.C.N.m.b.c.b.c.c.b.c.",
"c.m.c.c.C.c.c.C.C.A.D.H.P.P.H.D.A.C.C.c.c.C.c.C.c.c.c.c.c.c.c.C.C.C.D.D.D.D.D.D.C.C.C.c.C.C.c.c.C.D.L.P.D.D.S.Z.m.m.c.c.c.c.c.c."
};
