/* XPM */
static char *result[] = {
/* columns rows colors chars-per-pixel */
"64 64 163 2 ",
"   c #35271A",
".  c #37291C",
"X  c #3A2B1D",
"o  c #3D2F22",
"O  c #3E3023",
"+  c #432D1C",
"@  c #4C321D",
"#  c #55331E",
"$  c #422F21",
"%  c #433325",
"&  c #4B3523",
"*  c #4E3926",
"=  c #453629",
"-  c #463829",
";  c #4C3B2B",
":  c #543621",
">  c #593B24",
",  c #553C2A",
"<  c #5B3E29",
"1  c #623D22",
"2  c #603E29",
"3  c #763F22",
"4  c #57402D",
"5  c #58402E",
"6  c #554334",
"7  c #5F4937",
"8  c #574738",
"9  c #574838",
"0  c #62432B",
"q  c #6D472F",
"w  c #6C482E",
"e  c #724927",
"r  c #75472D",
"t  c #7F472A",
"y  c #744C2D",
"u  c #7C4A2B",
"i  c #7C5029",
"p  c #664834",
"a  c #6D4932",
"s  c #734D32",
"d  c #794B30",
"f  c #62503F",
"g  c #6D503C",
"h  c #73543C",
"j  c #7D563B",
"k  c #5F5141",
"l  c #645443",
"z  c #6E5541",
"x  c #6C5C4A",
"c  c #755742",
"v  c #785640",
"b  c #745A46",
"n  c #715D4A",
"m  c #795D49",
"M  c #6F604F",
"N  c #7B614C",
"B  c #736553",
"V  c #7C6350",
"C  c #776857",
"Z  c #7F6C57",
"A  c #706758",
"S  c #76695A",
"D  c #7B6D5B",
"F  c #7C715F",
"G  c #814524",
"H  c #8C4A26",
"J  c #834B2C",
"K  c #8D4E2D",
"L  c #994F28",
"P  c #82542C",
"I  c #93502D",
"U  c #9F5229",
"Y  c #915C2E",
"T  c #824F33",
"R  c #815632",
"E  c #8C5232",
"W  c #9C5732",
"Q  c #9A5935",
"!  c #965F3F",
"~  c #A1532A",
"^  c #AB572B",
"/  c #AA5A2F",
"(  c #B25A2C",
")  c #B85C2D",
"_  c #A85C33",
"`  c #B65E31",
"'  c #A16732",
"]  c #A26834",
"[  c #AC6C35",
"{  c #B06035",
"}  c #B47336",
"|  c #C5612F",
" . c #D0642F",
".. c #C66231",
"X. c #DC6A32",
"o. c #C67D3B",
"O. c #E97035",
"+. c #F57537",
"@. c #846246",
"#. c #8B6147",
"$. c #846349",
"%. c #8A6D54",
"&. c #826E5B",
"*. c #886F5A",
"=. c #83725E",
"-. c #837563",
";. c #8D7A64",
":. c #877D6B",
">. c #8B7C6A",
",. c #937D66",
"<. c #9F7D65",
"1. c #937F6A",
"2. c #D3853E",
"3. c #95806A",
"4. c #8D8373",
"5. c #938473",
"6. c #9C8873",
"7. c #948A79",
"8. c #9B8E7A",
"9. c #98917E",
"0. c #A38D76",
"q. c #A4927F",
"w. c #DF8C41",
"e. c #E08C41",
"r. c #EC9344",
"t. c #F89B47",
"y. c #9F9482",
"u. c #A69785",
"i. c #A59D8B",
"p. c #AB9E8C",
"a. c #B8A186",
"s. c #A7A090",
"d. c #ACA493",
"f. c #AFA897",
"g. c #AFA999",
"h. c #B3AA97",
"j. c #B4AD9B",
"k. c #B9AF9D",
"l. c #B6B09E",
"z. c #BAB19F",
"x. c #B7B2A0",
"c. c #BCB3A1",
"v. c #BEB9A6",
"b. c #BFBAA8",
"n. c #C6AF95",
"m. c #CBB397",
"M. c #CDB499",
"N. c #D3BB9E",
"B. c #C1B6A3",
"V. c #C3B9A6",
"C. c #C8BBA7",
"Z. c #C4BDAA",
"A. c #CABEAA",
"S. c #C6C0AD",
"D. c #CCC1AE",
"F. c #D1C3AF",
"G. c #CEC4B1",
"H. c #CFC8B5",
"J. c #D2C5B2",
"K. c #D4C9B5",
"L. c #E4CAAB",
"P. c #F0D5B5",
"I. c #FDE1C0",
/* pixels */
"j.x.x.b.S.S.b.b.b.b.x.x.x.x.g.x.g.x.x.x.x.b.S.S.b.v.v.x.x.j.l.l.l.l.x.v.b.S.H.H.S.b.v.v.x.x.c.c.v.B.V.A.H.H.K.H.A.A.Z.Z.Z.B.B.Z.",
"l.l.x.x.b.b.S.S.b.b.b.x.x.g.x.g.x.x.x.x.x.x.v.S.S.S.v.v.x.j.j.l.l.l.x.x.v.b.S.H.G.S.Z.v.c.c.c.x.z.c.v.V.A.A.H.K.H.A.A.A.Z.Z.B.B.",
"x.x.l.l.j.b.S.b.S.b.b.x.x.x.g.g.g.x.g.x.x.x.x.x.S.S.v.v.v.l.j.j.g.l.l.l.x.x.v.S.H.G.S.S.V.v.x.x.z.c.c.c.B.V.A.G.K.H.A.A.A.Z.V.B.",
"g.g.g.x.x.x.b.b.S.S.S.b.b.x.x.g.g.g.j.x.x.x.x.x.v.b.S.b.v.v.l.l.g.x.g.x.l.l.v.v.S.S.G.D.Z.v.c.c.x.x.x.c.c.v.B.A.H.H.K.H.A.A.Z.B.",
"j.j.g.x.x.x.x.x.b.S.S.b.b.x.x.x.g.x.g.g.g.x.j.x.l.x.v.S.S.v.v.l.l.g.g.l.l.l.l.l.v.Z.D.S.D.Z.v.c.c.z.z.x.z.c.x.B.Z.A.H.K.H.A.A.A.",
"g.g.g.x.x.g.x.x.x.b.S.b.b.b.x.x.x.g.g.x.g.x.g.g.j.l.x.v.b.S.v.v.x.l.l.j.l.h.j.l.l.l.Z.S.D.S.Z.v.c.x.k.x.l.c.x.c.b.Z.A.A.H.A.A.H.",
"j.g.j.j.g.g.x.x.x.b.b.S.S.b.b.x.x.g.x.g.g.g.j.x.l.l.j.l.v.S.v.v.v.x.j.g.l.j.j.j.l.l.x.b.S.G.S.S.b.c.x.x.l.l.k.c.k.c.B.Z.A.H.K.H.",
"x.g.j.g.g.x.g.x.x.x.x.b.S.b.b.b.x.x.x.g.g.x.g.j.g.l.g.l.l.v.S.v.b.x.l.l.g.h.g.j.j.l.l.l.v.S.D.S.Z.b.c.z.l.l.x.k.k.x.c.B.V.A.H.H.",
"x.g.g.g.g.g.g.j.j.x.l.x.b.S.S.b.v.l.l.l.g.g.j.j.j.j.j.j.h.l.v.b.b.b.v.x.h.h.h.h.h.i.4.s.l.v.Z.S.S.Z.b.b.c.x.k.l.k.k.k.c.c.B.A.A.",
"x.x.g.g.x.g.j.j.j.j.j.x.x.b.S.b.Z.v.l.l.l.j.g.j.g.l.g.g.h.j.l.c.b.S.v.v.l.l.9.=.q.L.P.F i.l.c.b.S.Z.Z.b.c.x.k.l.j.x.x.k.c.b.B.A.",
"x.g.x.g.g.x.j.j.j.j.j.x.l.v.v.b.Z.v.v.l.l.g.g.g.g.g.g.j.j.j.l.l.v.v.b.v.9.B L.I.I.I.I.L.-.l.l.c.Z.S.Z.Z.b.x.c.x.x.k.k.j.k.x.c.b.",
"x.x.g.x.g.g.g.j.g.j.j.g.l.l.l.v.S.S.Z.z.x.l.j.g.g.g.g.g.j.g.h.g.l.l.S.A q.I.I.I.I.I.I.Z F g.j.l.x.b.A.A.Z.b.b.x.x.j.j.j.k.k.k.x.",
"b.b.x.g.g.j.j.g.j.g.x.j.l.l.l.l.v.S.S.v.v.l.l.j.j.g.g.g.g.j.j.l.l.l.B N.I.I.I.I.I.0.@ e J -.g.j.l.x.c.Z.Z.Z.b.x.x.x.j.j.j.j.j.k.",
"b.x.x.x.j.j.g.g.j.j.g.j.j.l.l.l.l.Z.S.v.b.v.l.l.j.g.g.g.g.f.f.g.h.A n.I.I.I.I.I.Z e +.+.+.Q -.g.j.j.l.c.Z.Z.Z.b.b.x.x.j.j.k.j.j.",
"b.b.b.x.x.j.g.g.j.j.j.h.h.l.l.l.l.z.v.S.S.v.v.l.l.g.g.j.f.j.g.h.7.7.I.I.I.I.I.Z i +.+.+.+.+.J 3.g.j.j.j.x.Z.Z.Z.V.x.x.k.j.j.j.k.",
"H.b.b.x.x.x.j.g.j.j.j.j.h.l.l.l.l.l.z.v.b.b.b.v.l.l.g.g.j.j.g.f.M I.I.I.I.I.0.X X.e.+.+.+.+.( X A g.j.g.k.x.b.Z.Z.Z.b.x.x.j.j.j.",
"H.Z.Z.Z.b.x.x.j.j.j.j.j.j.g.j.j.x.x.k.x.b.V.Z.b.v.l.l.h.f.f.f.4.a.I.I.I.I.L.> e.@ ` +.+.+.K 6 I.o s.g.g.g.j.l.l.S.S.S.z.l.l.l.f.",
"H.H.Z.Z.b.c.x.x.k.g.g.j.j.j.j.j.k.j.x.k.k.b.Z.V.v.v.l.l.l.f.f.C I.I.I.I.I.* 2.t.2.+ X.+.4 D m.4 J z g.g.h.j.j.l.l.Z.S.v.v.l.l.l.",
"Z.H.A.Z.Z.b.x.x.x.j.j.j.k.k.j.x.k.k.k.x.k.c.b.Z.Z.v.v.l.l.l.i.F I.I.I.I.3.Y t.t.t.r.@ + q.N > X.+.` >.g.g.g.f.j.l.l.Z.S.b.v.l.l.",
"Z.H.H.A.A.Z.B.c.x.k.j.j.k.j.k.j.j.j.j.k.x.x.b.Z.Z.S.v.c.l.l.7.m.I.I.I.F.4 t.t.t.t.} O - 4 _ +.+.+.+.s s.f.g.g.h.h.l.l.V.S.b.v.l.",
"A.A.H.H.A.A.Z.Z.c.x.k.k.k.j.j.j.j.j.j.k.x.x.c.b.Z.S.Z.v.c.x.D L.I.I.I.f 2.t.t.t.i 9 M @ G +.+.+.+.+.X.m g.g.g.g.f.l.f.l.z.S.v.z.",
"Z.A.A.H.H.A.Z.Z.b.c.x.x.k.k.j.x.x.j.k.x.k.k.x.k.c.Z.Z.Z.v.v.F I.I.I.L.4 t.t.t.4 M 4 ] t.# X.+.+.+.+.+.E i.g.g.g.f.f.f.l.l.v.v.S.",
"b.B.A.H.K.A.A.Z.Z.B.c.x.j.k.j.j.x.k.x.k.k.k.x.c.z.B.Z.S.Z.b.F P.I.I.g 2.t.2.- 4 7 w.t.t.2.# +.+.+.+.+.O.x g.f.g.f.f.f.f.h.l.l.Z.",
"b.B.Z.A.K.H.A.H.A.b.B.c.x.j.j.j.j.k.k.k.x.k.k.k.j.z.v.Z.S.Z.f.- m.7 4 t.} o % } t.t.t.t.t.4 X.+.+.+.+.+.r h.h.g.f.f.f.d.h.l.l.l.",
"c.B.B.V.A.H.K.H.A.A.A.V.c.c.k.k.k.x.k.j.k.k.j.k.x.k.c.c.Z.D.A.F . + P P . 0 t.t.t.t.t.t.t.2.# +.+.+.+.+.X.7.l.f.f.f.f.f.f.l.f.l.",
"c.c.B.B.A.A.K.A.A.A.A.V.V.c.c.k.j.x.j.x.k.k.x.x.c.c.c.c.v.A.S.S.Z.v.9.X [ t.t.t.t.t.t.t.t.t.# +.+.+.| 0 4 4 l.l.f.f.f.f.f.f.f.f.",
"c.c.b.c.C.A.K.K.A.H.A.A.V.B.c.c.k.k.j.k.x.k.k.k.k.c.c.c.v.B.Z.A.S.S.v.h.w 2.t.t.t.t.t.t.t.t.Y H i , 7 m.F.@ z.l.l.f.f.f.f.f.f.f.",
"c.c.c.B.B.C.A.A.K.H.H.Z.Z.V.V.c.k.k.j.k.k.k.k.k.k.k.c.k.c.c.B.Z.S.S.V.v.l.N } t.t.t.t.t.t.} , . ,.a.M 4 4 P v.z.l.j.f.f.f.f.f.f.",
"k.c.c.B.c.B.B.A.K.K.K.A.G.A.V.c.c.k.k.k.j.k.k.k.k.k.k.c.k.c.B.B.S.S.S.S.v.l.3.[ t.t.2.P ; z =.  , u ..+.+.+.6.v.v.l.j.f.f.f.f.f.",
"k.k.c.b.c.B.B.B.K.K.K.K.H.A.A.V.B.x.k.k.j.k.k.j.k.k.x.k.k.c.c.c.z.S.S.G.S.v.z.=.i 4 - 9 6 4 Y 0 +.+.+.+.+.+.@.z.v.c.l.l.j.f.f.f.",
"x.k.x.c.B.B.B.B.A.A.K.K.K.G.A.Z.B.k.k.c.k.j.k.k.k.k.k.k.c.c.k.c.m.v.b.S.S.S.S.z.l 4 w 2.t.t.t.e ( +.+.+.+.+.Y v.v.v.c.l.l.f.f.f.",
"c.k.c.c.c.c.B.B.B.A.A.K.K.A.G.A.z z V g.k.k.j.k.j.k.k.k.k.c.z.z.z.z.m.S.D.D.S.S.l.y t.t.t.t.t.] ~ +.+.+.+.+.Y l.v.v.v.v.l.j.f.f.",
"k.k.k.k.c.c.B.B.B.C.A.A.K.A.K.A.d X...2 1.k.k.k.k.j.k.k.k.z.z.z.z.z.z.S.S.S.S.S.S.3.o.t.t.t.t.' U +.+.+.+.+.^ y.x.b.S.v.z.l.h.l.",
"c.c.x.k.k.c.B.B.B.B.C.A.K.K.K.K.c X.X.X.Q >.k.k.j.l.l.k.k.z.z.z.z.z.z.v.M.S.G.G.S.S.P t.t.t.t.' U +.+.+.+.+.| 7.j.x.z.Z.b.v.l.l.",
"c.k.c.k.k.x.B.c.B.B.B.C.A.P.K.K.u.~ X.X.X.E 8.z.k.k.k.l.k.k.k.k.z.z.z.m.z.v.S.S.F.D.h t.t.t.t.' U +.+.+.+.+.| 7.j.h.l.z.S.b.z.l.",
"c.x.k.k.c.c.k.c.B.B.B.V.A.A.A.K.A.z  .X.X.X.q h.k.k.z.k.k.k.k.k.z.z.z.z.n.l.m.S.D.D.3.2.t.t.t.1 | +.+.+.+.+._ 7.j.j.j.l.z.z.S.v.",
"B.c.k.c.c.c.k.c.c.c.B.B.V.C.A.A.K.A.p X.X.X. .b k.k.k.l.j.k.h.k.l.z.z.z.c.z.B.V.S.S.q.P } t.t.# +.+.+.+.+.+.E h.h.j.l.h.l.z.v.V.",
"c.c.k.k.k.k.x.c.c.B.k.B.B.k.m @.2 #.v 2 X.X.X.G u.k.k.k.k.j.k.k.z.k.z.z.l.v.c.n.B.C.:.% 6 9 6 . 7 + 0 0 t ~ < g.h.f.h.h.j.l.l.v.",
"B.B.c.k.c.k.k.k.k.B.B.B.B.2 O.+.+.+.+.L @ 3 X.X.c k.k.k.j.k.k.l.k.k.z.z.z.l.l.B.B.V.@.o.' 5 X % f &.a.L.0.0.k h.h.h.j.j.l.h.h.l.",
"B.B.c.k.x.k.k.c.c.k.k.B.B.c O.+.+.+.+.+.+.H + ..J d.z.k.k.k.k.l.k.k.z.l.z.z.l.z.z.h.u t.t.t.@ +.+.U i > 6 ; D h.f.l.h.h.h.h.h.l.",
"V.B.B.c.k.c.c.k.c.c.c.B.c.j.z | +.+.+.+.+.+.X.$ H $ %.p.z.k.k.k.h.k.k.k.z.z.l.l.z.j e.t.t.e U +.+.+.+.+.+.E p.l.j.h.h.h.f.h.h.h.",
"Z.V.B.c.k.c.k.x.k.c.c.c.B.B.B.;.r ` +.+.+.+.+.+.# $ e._ s S z.k.l.k.k.h.l.l.z.n u 2.t.t.} 1 +.+.+.+.+.+.+.j l.l.j.j.h.h.h.l.l.h.",
"A.Z.B.B.k.c.k.c.k.c.c.c.k.B.B.B.B.7.m T E ` ^ L K   ..t.'   : 2 z N @.@.@.s & O 4 t.t.} # +.+.+.+.+.+.+./ 5.v.l.l.h.j.h.l.h.h.h.",
"D.Z.Z.B.c.k.k.c.c.k.c.k.c.k.k.B.B.B.C.C.B.p.a L $ a t.t.' = t.t.j % o.r.t.t.t.s 7 , e # +.+.+.+.+.+.+.O.h C.C.z.z.l.l.l.h.h.l.l.",
"F.A.A.b.B.c.c.k.k.k.k.c.z.z.z.B.B.B.B.B.C.A.$.O.+.~ # # T = t.t.2.- i t.t.t.t.t.4 X + Q +.+.+.+.+.+.+.R l.F.S.B.v.l.k.k.l.j.j.j.",
"J.D.A.A.Z.B.B.x.c.c.c.k.z.k.B.z.B.B.B.B.C.C.V.s O.+.+...# . $ t ] - 4 ] ] P > # G i 6 f y +.+.+.+.+._ 4.D.G.D.C.Z.M.l.k.j.j.l.l.",
"J.F.A.A.B.b.B.c.k.k.k.k.z.z.z.B.n.z.B.B.B.C.A.C.v ..+.+.~ f ~ ( ~ X + # ~ ( +.+.+.+.{ 6 0.& X.+.+._ *.B.S.D.F.D.S.V.z.z.n.h.l.l.",
"F.J.F.A.A.V.B.c.z.z.k.k.z.k.B.z.k.z.B.B.B.C.C.C.A.*.T X.~ f L +.+.K =.w +.+.+.+.+.+.+.( 6 L.; ( I ;.c.n.n.V.S.F.D.S.S.S.z.z.l.h.",
"A.J.J.A.A.A.C.B.B.k.k.k.k.k.c.k.k.B.k.B.B.A.A.A.A.A.A.#.$ 6 t +.+.X.f ; +.+.+.+.+.+.+.+.) $ B.= u.k.z.n.B.B.B.A.A.J.A.Z.V.v.k.j.",
"A.A.K.F.A.A.C.C.B.B.k.k.k.k.k.c.k.c.B.k.B.B.B.B.B.A.F.J.k.g 2 W  .+.= &.^ +.+.+.+.+.+.+.) v 5.k.k.k.x.x.k.B.B.B.A.A.A.A.A.V.B.z.",
"B.A.A.K.F.A.C.C.B.B.B.k.c.c.k.k.k.B.k.B.k.B.B.A.C.A.F.F.F.F.F.k.<.m . 8 $ ......K ! <.k.c.k.k.k.k.z.k.k.k.B.z.n.C.A.F.F.D.A.B.c.",
"B.C.A.A.F.A.C.C.B.B.k.B.k.k.k.k.k.k.k.k.B.B.B.B.B.C.A.A.F.F.F.A.A.V.A.B.>.p.k.H.A.B.B.B.k.c.B.k.k.k.k.k.k.c.k.B.B.C.A.J.G.A.V.V.",
"B.B.C.A.F.F.F.A.V.B.B.k.c.k.k.k.k.k.k.k.k.B.B.B.B.A.A.A.A.F.F.A.A.B.A.B.V.A.G.H.J.A.B.B.B.k.c.k.k.k.z.k.k.k.k.B.c.B.C.A.J.J.D.A.",
"B.B.B.C.F.K.F.F.A.B.B.B.c.c.k.B.k.k.k.k.k.k.B.B.B.B.C.A.A.A.F.F.D.A.V.B.B.V.A.A.J.J.A.B.B.c.k.k.z.c.k.k.c.n.k.z.k.x.n.V.A.D.D.D.",
"B.B.B.C.F.F.K.F.A.A.B.B.k.c.B.k.c.k.k.k.k.k.B.k.B.B.B.C.C.A.F.F.D.A.A.B.B.B.B.V.A.J.J.D.A.B.B.k.z.z.k.k.k.k.l.c.c.c.c.z.B.C.F.G.",
"k.B.B.B.C.F.F.F.A.A.A.V.B.k.B.c.k.k.k.k.k.B.k.k.B.B.B.B.C.A.A.F.D.A.A.A.B.V.B.B.V.A.J.J.A.A.A.B.B.z.k.k.k.k.k.z.z.k.z.c.n.V.S.J.",
"k.B.B.B.B.A.F.K.F.A.A.B.B.B.k.k.k.c.k.k.k.k.c.k.k.B.n.B.C.C.A.F.D.F.A.A.V.B.B.c.B.B.A.J.J.A.A.B.B.k.c.c.c.k.k.k.B.k.k.B.k.c.V.A.",
"B.B.k.B.B.A.F.F.F.F.A.A.B.B.k.B.k.k.k.k.k.k.k.c.k.k.B.B.B.C.C.A.A.D.F.A.C.B.B.c.k.B.A.A.J.J.F.A.B.B.B.k.k.k.k.k.k.k.z.c.n.z.z.B.",
"B.B.B.B.B.B.A.A.J.J.F.A.A.B.B.B.k.k.k.k.k.k.k.k.k.k.B.B.B.B.C.C.A.F.A.A.A.B.B.k.k.B.B.B.A.J.J.F.A.C.B.B.c.c.k.j.k.k.z.z.n.k.z.B.",
"k.B.B.k.B.B.B.A.J.K.J.F.A.A.B.k.B.c.k.B.k.k.k.k.k.k.k.k.B.B.B.C.A.A.A.A.A.C.B.B.B.B.B.B.B.A.F.J.A.A.V.B.k.c.c.k.k.k.x.k.c.k.k.B.",
"B.k.B.B.k.B.B.B.A.J.K.J.A.A.B.B.c.c.k.k.k.k.k.k.k.k.k.k.B.B.B.B.A.A.A.F.A.A.B.B.B.c.c.k.B.B.A.G.K.G.A.C.B.c.k.k.k.k.k.k.z.k.k.c.",
"B.k.B.c.B.B.B.B.B.F.J.J.F.F.A.B.B.B.c.k.k.k.k.k.k.k.k.k.k.B.B.B.C.A.A.A.F.A.A.B.B.k.c.c.k.k.B.A.J.J.G.A.A.Z.b.c.k.k.l.k.c.l.k.k.",
"k.c.k.B.k.B.B.B.B.A.A.J.J.J.F.A.B.B.B.k.k.k.k.k.k.k.k.k.k.B.B.k.B.B.A.A.F.D.A.V.B.B.B.B.B.k.B.B.A.A.J.J.A.A.B.c.x.c.k.c.z.k.k.k.",
"k.k.k.k.B.k.k.B.B.B.A.F.K.H.F.D.V.B.B.B.k.k.k.B.B.k.k.k.k.k.k.B.B.B.V.A.A.G.A.A.V.B.c.k.k.B.B.k.B.A.J.K.A.A.Z.V.B.c.c.k.k.k.k.k."
};
