/* XPM */
static char *result[] = {
/* columns rows colors chars-per-pixel */
"64 64 168 2 ",
"   c #352619",
".  c #37281B",
"X  c #3A2A1D",
"o  c #3E2E21",
"O  c #3F3123",
"+  c #432C1C",
"@  c #4E321D",
"#  c #56341F",
"$  c #5C361F",
"%  c #443324",
"&  c #4C3625",
"*  c #4E3827",
"=  c #473729",
"-  c #47382A",
";  c #4D3B2B",
":  c #573720",
">  c #573923",
",  c #563C2A",
"<  c #623C22",
"1  c #603F2A",
"2  c #703F22",
"3  c #57412E",
"4  c #5F422E",
"5  c #564434",
"6  c #594837",
"7  c #5F4937",
"8  c #5B4B3C",
"9  c #674127",
"0  c #62442D",
"q  c #6C462C",
"w  c #6D4A2E",
"e  c #734123",
"r  c #7F4525",
"t  c #7F4825",
"y  c #714728",
"u  c #744E2C",
"i  c #7D4A2A",
"p  c #7F522A",
"a  c #604A37",
"s  c #6C4A33",
"d  c #624E3A",
"f  c #6C4E39",
"g  c #744C31",
"h  c #61503F",
"j  c #6D503D",
"k  c #765134",
"l  c #74533D",
"z  c #625241",
"x  c #6A5542",
"c  c #6E5846",
"v  c #7B5741",
"b  c #745A46",
"n  c #7B5B44",
"m  c #755E4B",
"M  c #76624F",
"N  c #7B614C",
"B  c #746453",
"V  c #7F6C57",
"C  c #75695A",
"Z  c #7C6C5C",
"A  c #7A6F60",
"S  c #8F4B27",
"D  c #844C2D",
"F  c #894928",
"G  c #914B26",
"H  c #954E29",
"J  c #83552D",
"K  c #8C532D",
"L  c #9E522A",
"P  c #915C2E",
"I  c #814E31",
"U  c #805732",
"Y  c #8C5334",
"T  c #8C5D38",
"R  c #9C5631",
"E  c #925C30",
"W  c #9B5833",
"Q  c #A3542A",
"!  c #AA5A2F",
"~  c #B2592C",
"^  c #B95C2D",
"/  c #A65E37",
"(  c #A85C35",
")  c #96602F",
"_  c #A16732",
"`  c #A26834",
"'  c #AE6D35",
"]  c #B06035",
"[  c #B47336",
"{  c #BA7437",
"}  c #C5612F",
"|  c #D0642F",
" . c #C76130",
".. c #CD6936",
"X. c #D06631",
"o. c #DC6A32",
"O. c #C67D3B",
"+. c #C97F3C",
"@. c #E97035",
"#. c #F57537",
"$. c #82634B",
"%. c #986041",
"&. c #9A684B",
"*. c #836650",
"=. c #8D6D53",
"-. c #816E5A",
";. c #82705D",
":. c #837563",
">. c #897763",
",. c #857867",
"<. c #8D7B67",
"1. c #877C6C",
"2. c #8C7C6A",
"3. c #937D67",
"4. c #947F6A",
"5. c #8D806E",
"6. c #8D8270",
"7. c #958874",
"8. c #9D8973",
"9. c #948B7A",
"0. c #9A8D7B",
"q. c #A48E77",
"w. c #A28F79",
"e. c #A59078",
"r. c #DF8C41",
"t. c #E08C41",
"y. c #EC9344",
"u. c #F89B47",
"i. c #9D9382",
"p. c #A29584",
"a. c #AA9785",
"s. c #A29A89",
"d. c #A7A18D",
"f. c #ADA18F",
"g. c #B9A187",
"h. c #BAA388",
"j. c #ADA493",
"k. c #AFA897",
"l. c #AFA999",
"z. c #B1A695",
"x. c #B1AA97",
"c. c #B3AC9B",
"v. c #B9AF9D",
"b. c #B6B09E",
"n. c #BAB19F",
"m. c #B7B2A0",
"M. c #BCB3A1",
"N. c #BEB9A6",
"B. c #BFBAA8",
"V. c #C7B095",
"C. c #C8B095",
"Z. c #CDB499",
"A. c #D3BB9E",
"S. c #C1B6A3",
"D. c #C3B9A6",
"F. c #C8BBA7",
"G. c #C4BCAA",
"H. c #CABEAB",
"J. c #C6C0AD",
"K. c #CBC1AE",
"L. c #D1C3AF",
"P. c #CEC4B1",
"I. c #CFC8B5",
"U. c #D2C6B2",
"Y. c #D4C9B5",
"T. c #E4CAAB",
"R. c #F0D5B5",
"E. c #FDE1C0",
/* pixels */
"c.m.m.B.J.J.J.B.B.B.m.m.l.l.m.l.m.m.m.m.m.B.B.J.J.B.B.m.b.b.c.m.m.m.m.N.J.J.I.I.J.N.N.n.n.N.N.M.N.N.D.H.U.Y.I.I.H.H.G.G.G.S.S.D.",
"b.b.m.m.B.B.J.J.B.B.B.m.m.m.m.l.m.m.m.m.m.m.B.B.J.B.B.B.m.b.c.c.b.b.m.m.N.N.J.I.P.J.J.N.N.n.M.n.b.M.M.D.H.H.Y.Y.I.P.H.G.G.D.S.S.",
"m.m.b.m.m.B.B.B.B.B.B.B.m.m.l.l.m.l.c.m.m.m.m.N.J.J.B.B.N.m.c.b.c.c.m.c.m.m.N.J.I.P.J.J.N.N.n.b.m.M.M.M.D.D.H.P.I.Y.P.H.H.G.G.S.",
"l.l.l.m.m.m.B.B.J.J.J.B.B.m.m.c.l.l.l.c.l.m.m.m.N.B.J.B.N.m.m.b.c.c.c.m.m.m.m.N.J.J.P.K.J.n.N.b.m.m.b.M.M.M.D.F.P.I.Y.P.H.H.G.S.",
"c.c.m.m.l.m.m.m.B.J.J.B.B.m.m.m.c.l.c.m.c.m.m.c.b.m.N.J.B.B.N.b.b.c.c.c.b.b.b.b.N.J.J.K.J.J.N.N.M.m.b.n.m.M.M.D.G.H.I.Y.H.H.H.H.",
"l.l.l.c.l.m.m.m.B.B.B.J.B.B.m.m.c.l.c.l.l.c.c.c.c.b.m.N.J.J.N.N.m.c.c.c.b.b.b.c.b.b.D.J.K.J.N.N.M.M.n.m.m.m.m.M.M.G.H.H.Y.Y.H.H.",
"m.l.l.m.c.l.m.m.m.m.B.J.J.B.B.m.m.m.l.l.l.l.c.c.b.b.b.m.N.J.B.N.m.m.c.c.c.b.x.b.b.b.N.N.J.K.J.J.D.M.n.b.v.n.m.m.M.M.B.D.H.Y.Y.I.",
"l.m.l.l.l.m.l.m.m.m.m.B.J.B.B.B.m.m.m.m.l.c.l.c.c.c.l.b.b.m.J.B.B.N.b.b.c.x.x.x.c.c.b.b.N.J.J.J.G.N.M.m.v.m.m.v.v.M.M.B.G.H.I.I.",
"m.l.m.l.l.l.l.m.c.m.b.b.N.J.J.B.N.b.b.c.l.l.c.c.k.b.c.c.c.b.N.B.B.B.N.m.b.l.b.c.c.l.c.b.m.N.G.J.J.G.G.M.m.b.b.b.v.v.M.M.M.S.G.I.",
"m.m.l.l.c.l.l.c.l.c.m.b.m.B.G.G.J.n.N.b.c.b.l.c.c.k.c.c.c.c.b.n.J.B.N.N.b.b.l.l.l.c.l.c.l.b.m.G.J.H.G.B.M.m.v.b.c.v.v.m.M.M.S.G.",
"m.l.c.l.c.c.m.l.c.m.c.c.b.N.N.G.J.N.N.b.b.l.c.l.l.l.k.c.c.c.b.b.N.B.J.N.b.b.c.c.l.c.c.c.b.b.b.N.B.J.P.G.D.M.m.b.v.m.c.v.v.v.M.S.",
"m.m.m.l.c.l.l.c.c.l.l.m.b.b.b.N.J.J.B.n.m.b.c.l.l.l.c.k.c.k.c.k.b.m.B.B.G.n.b.c.c.l.c.l.l.x.x.m.m.B.G.G.G.B.B.m.m.c.c.c.c.v.v.M.",
"m.m.m.m.c.c.c.c.c.l.c.b.b.b.b.b.N.J.J.N.N.b.b.b.c.l.l.l.l.c.b.b.c.b.N.N.N.N.n.b.c.l.x.l.l.l.l.l.b.b.M.G.G.G.B.M.v.m.m.c.m.c.v.v.",
"B.B.m.m.l.b.l.l.c.c.c.c.b.b.b.b.n.N.J.N.N.N.b.b.c.l.l.l.l.l.k.k.c.k.c.b.d.5.M j s.c.x.x.l.l.l.b.c.c.m.M.G.G.G.B.M.v.m.v.c.c.c.c.",
"J.B.B.m.b.l.l.l.c.c.b.l.c.b.b.b.b.n.N.J.B.B.N.b.b.l.l.c.l.c.l.l.k.x.7.k ) o.#.#.b b.c.x.c.l.l.l.l.c.c.b.m.G.G.G.B.B.m.v.m.c.m.c.",
"J.B.B.m.m.m.m.l.c.c.k.c.k.c.b.b.b.b.n.N.B.G.B.B.m.b.l.k.c.l.c.k.s.d _ #.#.#.#.#.N N.b.b.c.l.l.l.l.l.c.l.b.m.B.G.G.B.B.m.c.c.c.c.",
"I.G.G.B.m.m.m.c.c.c.c.c.l.c.c.c.m.m.v.v.M.G.G.B.d.N l f 4 k 5.:.U @.#.#.#.#.#.K d.N.N.N.c.c.c.x.l.c.l.l.k.b.b.N.J.J.J.n.b.b.b.c.",
"P.I.J.G.B.B.v.v.v.l.l.m.c.c.c.v.c.v.v.v.v.p.z v ! o.#.#.#.#.+ L #.#.#.#.#.#.i 5.N.N.N.N.m.c.c.x.l.l.l.l.k.b.k.b.n.N.J.N.N.b.b.c.",
"J.I.H.G.G.D.m.m.m.c.v.c.m.c.m.m.v.v.c.p.x X 8 r #.#.#.o.e + e #.#.#.#.#.H 4 9.c.N.N.N.N.N.b.x.x.k.l.l.l.k.k.k.b.b.n.J.J.J.b.b.b.",
"H.I.I.H.H.G.D.M.m.v.c.c.c.v.c.c.c.l.B Y #.~ ; ; ] Q # # ) $ #.~ Q 2 # @ F L p 9 x >.b.N.N.N.b.b.c.c.l.x.k.k.k.c.c.c.b.n.J.G.N.b.",
"G.H.Y.H.H.H.G.B.B.v.v.c.v.c.v.c.8 1 o.#.#.#. .% . 4 u.u.J   + $ G ~ o.o.o.o.o.o.o.[ y e.N.N.N.N.b.c.k.l.k.l.l.l.x.c.c.b.N.G.N.N.",
"G.H.H.Y.I.P.G.G.S.M.v.v.v.c.c.% B z , o.#.#.< $ % % [ u.u.[ + s L | o.o.o.X.o.o.o.o.{ M N.N.N.N.m.b.b.k.l.k.k.l.x.x.c.x.b.b.N.G.",
"B.S.H.I.I.P.H.H.G.S.S.v.v.c.m Q 1 ; 4.5 1 & { u.u.3 + J k w.N.b.i.c q i ~ ~ o.~ Q u n d.b.b.N.N.N.N.b.b.k.k.k.k.x.k.k.x.x.b.b.G.",
"D.S.D.H.I.I.P.P.G.G.S.M.v.m | #.#.o.2 = + - / u.r.> - d.J.J.D.n.m.m.c.j.9.A b V 9.x.x.x.x.c.N.N.D.B.n.b.b.k.l.l.k.k.x.k.x.b.b.b.",
"M.D.S.D.H.Y.Y.H.H.H.D.S.8...#.#.#.#.o.* u ; = % w 0.M.M.J.K.J.N.N.m.b.c.c.k.k.k.k.k.k.k.b.k.c.b.N.G.N.N.b.b.c.x.k.k.l.l.k.l.l.m.",
"M.M.S.S.H.H.Y.I.I.H.H.D.( #.#.#.#.#.& t.u.u.J z n.M.n.M.n.J.K.J.D.N.n.c.c.x.k.c.k.k.k.k.x.k.x.c.b.N.N.N.b.b.b.x.l.k.k.k.l.k.x.x.",
"M.M.M.S.S.H.U.Y.I.H.H.&.#.#.#.#.#.G E u.u.{ b v.n.n.M.n.D.D.G.J.J.G.N.M.b.c.x.l.k.k.k.k.k.k.k.c.b.b.N.G.N.N.M.b.l.x.k.k.k.k.k.k.",
"m.v.D.M.S.S.H.Y.Y.Y.I.@.#.#.#.#.o.@ u.u.r.v n.c.n.n.M.n.n.n.D.H.K.J.G.N.n.b.c.c.k.x.k.x.k.k.x.k.x.x.b.N.N.N.N.m.b.c.x.k.k.k.k.k.",
"M.M.M.S.S.S.S.H.Y.Y.%.#.#.#.#.#.2 +.u.u.q z.v.v.n.n.n.n.n.n.M.D.J.K.J.J.D.n.b.b.c.x.x.x.x.x.x.x.x.x.b.b.b.N.N.N.m.b.b.x.k.k.d.k.",
"v.v.M.M.M.M.S.S.U.a., 1 1 * o 8 X d a % <.v.v.v.b.n.n.n.n.n.n.S.V.G.J.J.G.N.N.n.b.c.x.x.k.x.x.x.x.b.x.x.b.N.N.G.N.m.b.b.b.k.k.k.",
"m.m.M.M.S.S.S.S.H.C E.E.a.4.z , o , , o v.v.c.c.c.v.n.n.n.n.n.M.N.N.D.K.J.G.D.N.b.b.b.x.x.k.x.x.x.x.x.b.b.x.m.N.N.N.m.b.b.x.k.k.",
"v.M.M.M.M.S.S.S.S.= = 1 r L  .L _ u.t.*.v.v.v.v.c.v.c.v.n.n.n.n.n.n.D.H.K.K.J.D.N.N.b.c.k.x.x.x.x.x.x.x.x.b.b.b.N.G.N.N.m.b.l.k.",
"v.M.v.v.M.M.S.S.i.L #.#.#.#.#.r ` u.O.:.n.v.v.v.v.c.c.v.b.n.n.n.n.n.M.G.H.K.K.K.D.B.N.b.b.x.x.x.x.l.b.k.x.c.c.c.n.N.J.N.n.b.c.c.",
"v.m.M.v.v.M.S.S.i. .#.#.#.#.#.< _ u.r.=.M.n.v.v.v.v.v.b.v.n.n.n.n.n.n.N.D.G.K.K.J.J.N.n.n.n.x.b.c.x.c.x.x.x.x.c.c.b.n.D.J.n.b.b.",
"M.v.M.v.v.M.M.M.i. .#.#.#.#.#.L _ u.u.g S.M.n.v.v.c.v.v.v.v.n.n.n.n.n.V.n.N.G.K.P.K.D.D.N.n.b.x.x.k.x.c.c.x.x.c.x.c.b.N.J.N.n.b.",
"M.M.v.M.v.M.M.M.i.} #.#.#.#.#.~ p u.u.W B S.S.n.v.v.v.v.v.v.c.v.n.n.n.n.n.N.V.J.K.P.K.K.D.N.n.b.b.b.k.c.x.x.x.x.c.x.x.n.n.N.J.N.",
"v.v.v.M.M.M.v.M.i.~ #.#.#.#.#.#.> u.0 ; = 3.S.S.n.n.v.v.v.v.c.v.n.n.n.n.V.M.M.D.G.K.K.K.H.D.D.m.b.b.x.b.x.c.c.x.x.b.x.b.c.n.D.N.",
"M.B.M.v.v.M.M.v.z.Y #.#.#.#.#.#.@ ; h , u.{ g z.n.v.v.v.c.v.v.n.n.n.n.n.6.o ; A D.D.K.K.P.J.H.N.n.b.b.b.c.x.x.c.x.x.x.x.c.b.b.N.",
"S.S.M.v.v.v.v.M.v.v #.#.#.#.#.2 - = p u.u.u.y.T U 4.j.v.b.v.n.m.i.0.A C . h.E.A.C N.F.J.K.I.P.H.G.n.n.b.b.c.x.x.x.c.x.b.x.b.x.b.",
"S.M.M.v.v.m.v.v.v.m @.#.#. .; 3.; + u.u.u.u.u.u.u.O.o & T T i E E J + O.6 E.E.E.h.,.V.D.G.K.P.K.F.G.N.n.b.b.c.x.c.x.b.x.x.x.x.b.",
"D.D.S.M.m.v.m.M.M.f.R #.F ; g.*  .~ 9 u.u.u.u.u.u.U o +.u.u.u.u.u.0 & u.3 E.E.E.E.<.f.n.N.F.H.P.K.J.G.D.n.n.b.b.x.c.x.x.c.x.x.b.",
"D.D.S.M.M.M.v.v.v.M.f & 3.w., o.#.#.t p u.u.u.u.u.; , u.u.u.u.u.u.3 0 u.P 5.E.E.E.R.C V.V.S.D.K.K.K.K.J.D.n.b.b.x.b.x.x.c.c.c.x.",
"H.D.D.S.v.v.v.M.n.M.1.w.-.1 #.#.#.#.#.: ' u.u.u.g 8 ` u.u.u.u.u.u.O p u.r.3 E.E.E.E.Z x.M.S.S.D.K.K.K.K.G.D.M.n.c.b.b.x.c.c.c.c.",
"H.H.D.D.S.M.v.M.M.v.M.8 D #.#.#.#.#.#.#.# P u.r., ; u.u.u.u.u.u.r.= ` u.u.3 E.E.E.E.T.,.N.V.n.M.D.K.U.K.K.F.F.n.V.b.b.x.b.x.v.c.",
"P.H.H.S.S.M.M.v.m.M.v.z.g #.#.#.#.#.#.#.#.t $ 0 ,.I u.u.u.u.u.u.P ; [ u.u.w Z.E.E.E.E.z M.n.V.N.V.D.F.K.P.K.K.D.n.n.b.b.x.x.x.n.",
"Y.P.H.H.D.S.M.v.m.n.v.v.p.Y #.#.#.#.#.#.#.#.S X = u.u.u.u.u.u.u.0 8 u.u.u.[ V E.E.E.E.B n.n.m.V.n.D.n.F.K.P.K.G.J.D.n.b.n.v.x.v.",
"U.U.H.H.D.S.S.M.n.v.v.v.v.<._ #.#.#.#.#.#.#.3 g.X # { u.u.u.u.u.3 = u.u.u.u.6 E.E.E.E.;.n.v.n.n.M.M.V.B.G.K.L.K.K.D.Z.m.n.c.n.n.",
"U.H.P.H.H.D.S.S.n.n.v.n.n.c.<.W #.#.#.#.#.L h 5 o.o.D * 2 ..u.u.6 d u.u.u.u.3 E.E.E.E.<.n.v.v.v.n.M.V.M.V.F.K.K.K.J.J.n.V.n.n.c.",
"H.L.L.H.H.H.F.S.S.v.v.v.v.v.v.a.I #.#.#.#.; T., #.#.#.#. .2 # + % o ` ` / / = E.E.E.E.2.v.v.v.v.n.n.n.n.v.S.S.H.U.P.K.F.D.M.n.c.",
"H.H.Y.L.H.H.H.S.S.S.S.v.v.v.v.M.v.$.| #.R ;.z  .#.#.#.#.#.#.#.D w.& L L L L = E.E.E.E.2.M.v.v.v.n.n.n.n.S.S.S.V.H.U.K.H.H.D.S.n.",
"S.F.H.Y.L.H.F.F.S.S.v.v.v.M.v.v.v.v.a.Y = E., #.#.#.#.#.#.#.#., T.1 #.#.#.#.1 E.E.E.E.B v.v.v.v.v.v.v.n.S.v.v.V.D.H.L.K.K.H.D.M.",
"S.H.H.H.U.H.F.H.F.S.S.v.S.v.v.v.v.v.S.v.j O H #.#.#.#.#.#.#.#.7 q.F #.#.#.#., E.E.E.E.Z S.v.v.v.v.v.v.v.n.n.v.S.S.S.H.L.K.H.F.D.",
"S.S.F.H.U.U.H.H.H.S.S.v.v.v.v.M.v.v.v.v.v.S.>.2 | #.#.#.#.#.#.5 3.L #.#.#.#., E.E.E.a.z.S.M.v.v.v.v.n.n.v.v.S.v.n.S.F.H.U.U.K.H.",
"S.S.S.H.L.U.U.H.H.B.S.M.S.v.M.M.v.v.v.v.v.S.S.S.4.v I ^ @.#.Q ;.z o.#.#.#.~ 5 E.E.E.,.S.D.v.v.M.n.n.v.v.n.v.v.v.n.m.V.D.H.K.K.K.",
"S.S.S.F.H.T.U.U.H.H.S.S.v.S.S.v.v.v.v.S.v.v.v.S.S.S.H.0.*.j * ; o Q  . .^ 1 4.E.E.C.H.H.H.S.S.v.n.M.n.v.v.v.v.S.M.n.M.n.S.H.L.P.",
"v.S.Z.S.H.L.U.H.H.S.H.S.S.v.M.M.v.v.v.v.v.v.S.v.v.S.S.S.F.F.H.H.p.p.p.p.p.p.;.R.C.p.U.Y.H.H.H.S.V.m.v.v.v.v.n.n.S.v.n.m.V.D.H.U.",
"S.S.S.S.S.H.U.U.L.H.H.S.S.v.v.v.v.v.M.v.M.v.v.v.v.V.S.S.F.H.H.H.H.H.H.H.H.S.z.;.5.S.H.U.U.H.H.S.S.M.S.v.M.v.v.v.v.v.n.n.n.S.S.F.",
"S.S.v.S.S.F.L.L.L.L.H.H.H.S.v.S.v.v.v.v.v.v.v.v.v.v.S.S.S.F.H.H.H.H.H.H.H.F.S.S.v.S.H.H.U.Y.L.H.D.S.v.S.v.v.v.v.v.n.n.M.S.v.S.S.",
"v.S.v.S.S.S.H.L.Y.L.L.H.H.S.S.v.v.v.v.v.v.v.v.v.v.v.S.S.S.S.F.H.H.H.H.H.H.S.S.v.S.S.S.S.H.U.U.H.H.D.S.v.M.M.v.v.v.n.n.n.V.v.v.S.",
"S.S.S.S.S.S.S.H.Y.Y.U.L.H.H.S.S.M.M.v.M.v.v.v.v.v.v.v.V.S.S.S.S.H.H.H.H.H.S.S.S.v.S.S.S.S.H.U.U.H.H.G.M.M.M.v.v.v.v.n.v.v.v.S.v.",
"v.v.S.S.v.S.S.S.H.U.Y.L.H.H.H.S.M.M.v.v.v.v.v.c.v.v.v.v.v.S.S.S.H.H.H.H.H.H.S.S.S.v.v.S.S.S.H.H.Y.Y.H.F.S.M.v.v.v.v.v.v.v.n.n.n.",
"S.v.v.S.v.S.S.S.F.L.U.L.L.H.H.S.D.M.M.M.v.v.c.v.v.v.v.v.S.S.S.S.H.H.H.H.H.H.F.F.S.S.S.v.v.S.F.H.H.Y.H.H.G.D.S.M.v.v.v.M.m.v.v.n.",
"v.S.S.v.S.S.S.S.S.S.H.Y.Y.L.H.H.D.S.S.v.M.v.v.v.v.v.v.v.v.v.S.S.F.F.H.H.H.H.H.F.S.S.S.S.S.v.S.S.H.H.Y.U.H.H.S.M.M.M.v.m.v.v.v.v.",
"v.v.v.v.v.S.v.S.S.S.H.L.Y.U.L.L.G.S.S.M.v.M.M.S.v.v.v.v.v.V.v.S.S.S.H.H.H.H.H.F.S.S.v.v.S.v.v.S.S.H.U.Y.Y.H.G.S.S.v.M.v.v.v.v.v."
};
