/* XPM */
static char *result[] = {
/* columns rows colors chars-per-pixel */
"64 64 157 2 ",
"   c #342619",
".  c #37281B",
"X  c #3A2B1D",
"o  c #3C2E21",
"O  c #3F3021",
"+  c #422B1B",
"@  c #4B2F1C",
"#  c #4D321D",
"$  c #54331E",
"%  c #5D361E",
"&  c #412F20",
"*  c #443324",
"=  c #4B3625",
"-  c #4E3824",
";  c #463628",
":  c #4C3B2B",
">  c #583520",
",  c #563922",
"<  c #5E3D25",
"1  c #543C2B",
"2  c #633B21",
"3  c #603F2A",
"4  c #703F22",
"5  c #57412E",
"6  c #5C442E",
"7  c #554233",
"8  c #574738",
"9  c #574838",
"0  c #5D4D3D",
"q  c #62442D",
"w  c #6B4629",
"e  c #7F4625",
"r  c #714827",
"t  c #7F472A",
"y  c #744E2E",
"u  c #7C4A2D",
"i  c #674733",
"p  c #6C4A34",
"a  c #614E3B",
"s  c #6D4F39",
"d  c #724C32",
"f  c #7C4E33",
"g  c #61503F",
"h  c #6C513D",
"j  c #7E5434",
"k  c #765339",
"l  c #7B553B",
"z  c #7B583D",
"x  c #655443",
"c  c #6B5542",
"v  c #665749",
"b  c #6F5C4A",
"n  c #735945",
"m  c #785D45",
"M  c #725F4D",
"N  c #74624F",
"B  c #7B624D",
"V  c #746453",
"C  c #7B6552",
"Z  c #7E6855",
"A  c #74695A",
"S  c #7C6B5A",
"D  c #7E705F",
"F  c #8F4B26",
"G  c #984F27",
"H  c #81532D",
"J  c #8F502E",
"K  c #93522F",
"L  c #9F5229",
"P  c #905B2C",
"I  c #804D31",
"U  c #895A38",
"Y  c #975634",
"T  c #925D31",
"R  c #A15127",
"E  c #A2542B",
"W  c #A9592F",
"Q  c #B2592C",
"!  c #BA5C2C",
"~  c #A75F39",
"^  c #B85F31",
"/  c #A16632",
"(  c #A26835",
")  c #AE6D35",
"_  c #B47336",
"`  c #C6612F",
"'  c #D0642F",
"]  c #C66131",
"[  c #D06631",
"{  c #DC6A32",
"}  c #C97F3C",
"|  c #E97035",
" . c #F57537",
".. c #836049",
"X. c #956546",
"o. c #836A55",
"O. c #816E5A",
"+. c #84705E",
"@. c #8E745D",
"#. c #847665",
"$. c #857B6A",
"%. c #8C7E6C",
"&. c #927B65",
"*. c #D3853E",
"=. c #94806C",
"-. c #938573",
";. c #988770",
":. c #968876",
">. c #948B7A",
",. c #9A8F7E",
"<. c #9B907F",
"1. c #A38C75",
"2. c #A08F7B",
"3. c #A69077",
"4. c #AB957E",
"5. c #DF8C41",
"6. c #E08C41",
"7. c #EC9344",
"8. c #F89B47",
"9. c #9B9482",
"0. c #A19787",
"q. c #A69C8B",
"w. c #A99F8D",
"e. c #A7A08E",
"r. c #B5A08A",
"t. c #ACA593",
"y. c #AFA897",
"u. c #AFA999",
"i. c #B0A593",
"p. c #B1A997",
"a. c #B3AD9B",
"s. c #B9AF9D",
"d. c #B6B09E",
"f. c #BBB19F",
"g. c #B7B2A0",
"h. c #BCB3A1",
"j. c #BEB9A6",
"k. c #BFBAA8",
"l. c #C7AF95",
"z. c #CAB296",
"x. c #CDB499",
"c. c #C1B6A3",
"v. c #C3B9A6",
"b. c #C8BBA7",
"n. c #C4BCA9",
"m. c #CABEAB",
"M. c #D8BEA1",
"N. c #C6C0AD",
"B. c #CCC1AE",
"V. c #D1C3AF",
"C. c #CEC4B1",
"Z. c #CFC8B5",
"A. c #D2C5B2",
"S. c #D4C9B5",
"D. c #E4CAAB",
"F. c #F0D5B5",
"G. c #FDE1C0",
/* pixels */
"a.g.g.k.N.N.N.k.k.k.g.g.u.u.g.u.g.g.g.g.g.k.n.N.n.k.j.g.g.a.g.g.g.g.g.j.k.N.Z.Z.N.k.j.j.f.h.h.h.j.j.v.m.A.S.S.Z.m.n.n.n.n.v.v.v.",
"d.d.g.g.g.k.N.N.k.k.k.g.g.g.u.g.g.g.g.g.g.g.k.N.N.n.k.g.g.a.a.a.a.d.g.g.j.k.N.Z.Z.N.k.j.j.h.g.h.g.h.j.v.m.m.S.S.Z.C.n.n.n.v.c.v.",
"g.g.d.g.g.k.N.k.N.k.k.k.g.g.u.u.g.u.g.u.g.g.g.g.N.N.n.k.j.a.a.d.a.g.a.g.d.d.k.C.C.C.N.N.j.j.d.d.h.g.g.h.c.n.b.A.S.Z.C.m.m.v.v.h.",
"u.u.u.g.g.g.k.k.N.N.k.k.g.k.g.u.u.u.u.g.u.g.g.g.j.k.N.k.j.j.g.d.a.a.a.g.d.d.d.j.N.C.C.N.v.j.j.f.g.g.f.h.g.j.c.n.C.S.S.C.m.m.n.v.",
"a.a.u.g.g.g.g.g.k.N.N.k.k.k.g.u.u.u.g.g.u.g.g.a.d.g.k.N.n.k.j.a.g.a.a.a.d.d.d.d.f.N.C.C.N.N.j.d.h.s.g.s.g.j.c.c.n.m.Z.S.m.m.m.m.",
"u.u.u.g.g.u.g.g.k.k.N.k.k.k.k.g.g.u.u.u.u.a.a.a.a.d.d.k.n.N.j.j.g.g.a.p.d.a.a.d.d.d.k.N.N.N.N.j.c.g.s.g.s.g.g.h.h.v.m.m.S.Z.Z.m.",
"a.u.u.a.u.u.g.g.g.g.k.N.k.k.k.g.g.g.a.u.u.g.a.a.g.a.g.d.j.n.k.j.g.g.a.a.p.a.a.d.d.d.f.j.N.C.N.n.v.h.g.f.a.g.g.h.h.h.v.n.m.m.S.Z.",
"a.g.a.u.u.g.u.g.g.g.g.k.N.k.k.k.g.g.g.u.u.u.u.d.a.a.a.a.d.j.N.k.k.j.d.d.a.a.p.a.a.d.d.d.j.N.C.N.v.k.h.g.g.s.g.s.g.h.h.v.n.m.Z.Z.",
"g.u.g.u.g.u.a.a.g.g.d.d.j.N.N.k.j.j.d.a.a.u.u.d.u.u.a.a.a.d.f.N.k.k.j.g.u.u.d.a.u.a.a.d.d.j.k.N.N.n.n.h.f.g.g.g.s.g.g.h.h.v.m.m.",
"u.g.u.u.u.u.u.u.u.a.g.d.g.k.n.n.v.j.d.d.a.u.u.u.a.>.=.>.p.a.d.f.k.N.k.g.d.d.u.u.a.u.a.a.a.g.d.N.N.n.n.k.h.g.s.a.a.s.g.g.h.h.v.m.",
"g.g.u.u.a.a.a.a.a.a.a.a.d.d.k.n.v.j.j.d.d.9.b f U W - z.= ^ X.1.j.j.N.j.d.d.d.u.u.a.u.a.a.a.g.d.n.N.C.n.k.h.g.g.s.s.a.s.s.s.h.k.",
"g.g.g.u.a.u.u.a.u.a.a.g.d.d.d.j.N.N.j.t.h / |  . . .L S 9  . . .{ z =.k.j.j.d.a.u.a.u.u.a.a.p.g.g.k.n.n.n.k.k.h.g.a.a.a.s.s.s.g.",
"g.k.g.g.u.a.a.a.u.u.d.d.d.d.d.d.c.N.Z J |  . . . . . .: Z F  . . . .| P Z d.j.d.g.u.u.p.a.u.u.a.a.g.h.n.n.n.k.g.g.s.a.a.a.a.s.s.",
"k.g.g.g.d.a.u.u.d.d.u.y.d.d.d.d.p.h [  . . . . . . . .y 3.1  . . . . . .{ . -.g.d.a.a.p.a.u.u.a.a.a.g.h.n.n.n.k.k.g.g.s.a.a.a.a.",
"N.k.k.g.d.a.u.u.u.d.y.d.a.d.d.y.: K  . . . . . . . . .{ 7 9  . . . . . . .g O =.j.d.a.u.u.u.u.u.u.a.a.a.g.n.n.n.k.h.g.g.a.a.a.s.",
"N.k.k.g.g.g.a.a.a.u.a.a.y.d.y.; M.N j  . . . . . . . . ., N W  . . . . .Q S 5 / -.d.d.g.a.u.u.u.u.u.a.a.g.g.k.n.n.n.k.g.g.a.a.a.",
"Z.n.n.k.k.h.g.u.a.a.a.a.u.a.v [ 1 &.&.1  . . . . .Q 2 $ # .   < $ F  . .F =.6  ./ &.j.d.a.a.p.u.u.u.u.a.p.d.d.j.v.N.j.f.d.d.d.a.",
"Z.Z.N.k.k.h.g.g.a.u.a.a.u.+.]  . .t i 9.= {  .E # r *.8.8.- 9 8.8.P $ 2 , O.R  . .T V j.d.d.a.p.u.u.u.u.y.d.p.d.j.j.N.N.f.f.d.a.",
"Z.Z.m.m.n.c.h.g.s.s.a.a.u.4  . . . .] * 9.: $ 4 8.8.8.8.8.T 7 _ 8.8.8.*.. X  . . .2 ; 9.j.d.d.p.y.y.u.u.u.u.y.d.d.d.N.N.n.j.d.d.",
"n.m.Z.m.m.v.k.h.s.s.a.a.b |  . . . . . .1 o : ~ 8.8.7./ y T X # *.8.8.8.a * # ] { 7 : h k.j.f.d.a.a.u.u.y.y.y.u.a.a.d.f.N.n.k.d.",
"m.m.S.m.m.m.n.k.h.s.s.u.J  . . . . . .{ $ / 1 0 j *.y t.f.d.d.t.@.y ) 8.: y 5.# < M u [ Z N.f.d.d.p.u.u.y.y.u.u.a.a.d.d.j.j.j.j.",
"v.n.Z.Z.Z.Z.m.v.v.h.g.+.|  . . . . . .@ 6.8.5.i : * N.N.j.j.d.d.a.a.;.w X _ 8.8.. *  . .H y.k.j.h.d.d.y.u.y.y.y.y.p.p.p.a.j.j.k.",
"k.v.m.Z.Z.m.m.m.v.k.h.I  . . . . . .F P 8.8.8.8.w e.v.N.N.j.f.f.d.a.d.y.x / 8.j ; # Q  .| n j.n.j.j.d.d.u.y.y.y.y.y.p.p.a.d.j.j.",
"h.c.n.m.Z.Z.Z.m.m.v.v.!  . . . . .{ @ 8.8.8.8.7.z f.f.N.N.N.v.j.d.d.d.a.a.N $ * q 8.# {  .P e.j.v.j.g.d.d.y.a.y.y.y.y.y.p.p.d.d.",
"h.v.h.v.m.S.S.S.m.m.0. . . . . . .2 } 8.8.8.8._ ,.f.f.j.N.N.N.c.j.f.d.a.p.y.9 . 7.8.*.2  .' @.d.j.n.j.h.d.p.d.p.y.y.y.y.y.a.a.a.",
"h.v.c.v.m.m.S.m.m.m.1 t ]  . . . .> 8.8.8.8.8.P f.f.f.f.v.N.N.N.j.j.d.d.d.y.y.B *.8.w @ L  .B a.d.j.n.j.j.d.d.p.y.y.y.y.y.y.y.p.",
"h.h.h.c.v.m.m.S.S.m.0 0.x 1 1 I 4 P 8.8.8.8.8.y f.f.h.f.f.v.b.N.N.N.c.f.d.a.p.y.w *.  F O 2 @.p.a.d.j.j.j.j.d.d.a.y.y.y.y.y.y.y.",
"s.g.c.h.c.m.m.S.S.m.= : c 0.r.r.X 8 5 d _ 8.8.U f.f.h.f.f.j.c.N.N.N.v.v.f.a.a.a.e.w X F  .E h e.p.d.d.j.j.j.j.j.d.a.y.y.y.y.y.y.",
"s.c.h.c.h.c.c.m.S.r.]  .] E 4 3 X 1 x 0 9 * 5 6 d.f.f.f.f.h.c.c.N.N.N.N.v.f.f.d.a.>.L #  . .| r 3.d.d.d.h.j.j.j.j.d.d.y.p.y.y.y.",
"g.g.h.c.h.c.c.c.m.&. . . . . .] 2 8.8._ / q - : d.d.f.f.f.f.f.h.x.v.N.N.N.f.f.f.d.Z ! % `  . . .y <.p.p.d.j.j.j.j.d.d.d.a.y.t.y.",
"s.g.s.h.h.c.c.c.m.o. . . . . .R ( 8.8.8.8.8.8./ q.s.f.f.f.f.f.h.f.v.N.N.N.N.N.j.f.B { Q $  . . .| r t.p.p.d.d.j.j.j.g.d.d.p.y.y.",
"s.h.h.h.c.h.c.c.b.i  . . . . .4 ( 8.8.8.8.8.8.*.@.a.a.s.f.f.f.f.f.f.x.N.N.N.N.N.c.B { { % Q  . . .6.h a.p.d.d.d.j.j.j.j.d.d.p.y.",
"s.h.s.s.h.h.c.v.c.l  . . . . .2 } 8.8.8.8.8.8.8.s s.s.s.s.s.s.s.f.f.j.v.N.N.N.N.n.B { { { #  . . . .W -.a.p.a.a.d.h.N.f.f.d.d.a.",
"h.g.g.s.s.h.h.c.c.i  . . . . .2 8.8.8.8.8.8.8.8.~ q.s.s.s.s.h.s.f.f.f.x.v.N.B.B.B.Z ' { { r d  . . . .k p.p.p.a.a.f.f.N.N.f.d.d.",
"h.s.h.s.s.h.h.h.c... . . . . .2 8.8.8.8.8.8.8.8.7.n s.s.s.s.s.s.f.f.f.f.g.x.N.B.B.<.Q { { Q D d {  . .f y.p.p.a.a.a.s.f.j.N.f.d.",
"h.s.h.s.h.g.s.h.c.m  . . . . .2 _ 8.8.8.8.8._ Y ~ 3 q.s.s.s.s.u.f.f.f.f.j.f.x.N.B.s.J { { ! A p.O.s f n a.a.p.p.a.a.p.s.j.j.k.k.",
"h.s.s.h.h.h.s.h.c.c 4 i 3 i & & : a ; 8 1 ; o o * & +.s.s.s.s.s.d.f.f.f.f.f.c.v.b.N.k { { { B h.s.s.a.a.a.a.p.p.p.p.f.p.a.f.v.j.",
"c.h.s.h.f.g.h.s.h.v x D.G.G.2.a : : 7 1 s ~ } 8.8.8.f s.s.s.s.s.f.d.f.d.f.f.g.x.c.b.S ` { { C v.j.s.f.a.a.a.a.p.p.p.p.p.p.d.d.j.",
"c.v.h.s.s.s.g.f.f.%.o 1 1 i u G q 8.8.8.8.8.8.8.~ : o   A s.s.s.s.d.f.d.f.f.f.f.j.j.f.p { ! =.n.c.h.f.a.a.a.p.p.p.f.p.d.p.d.p.d.",
"c.h.h.s.f.g.f.h.f.h.d  . . . . .% 8.8.8.8.8.6.3 b G.G.G.: s.s.s.s.s.f.f.d.f.f.f.h.x.c.<.u u f.B.n.n.j.f.f.d.a.a.p.p.d.p.p.p.p.f.",
"v.v.c.g.g.h.s.h.h.h.s  . . . . .$ 8.8.8.8.H 1 x.G.G.G.G.A s.s.s.s.s.s.s.s.s.s.s.s.l.h.c.i.w.B.B.B.N.b.c.f.f.d.d.p.f.p.p.a.p.p.d.",
"n.c.c.h.h.h.s.s.s.h.O.{  . . . .e _ 8.( : 1.G.G.G.G.G.q.:.s.s.s.s.a.s.a.s.s.s.s.s.s.g.l.h.v.b.B.C.B.N.N.v.f.d.d.p.p.p.p.a.a.p.p.",
"m.v.c.c.h.s.s.h.h.s.w.Y  . . . .` + : +.G.G.G.G.G.G.F.v c.c.s.s.f.s.s.p.s.s.s.s.s.f.h.h.f.l.c.v.N.V.B.B.N.j.j.f.d.d.d.p.p.d.p.d.",
"m.m.n.v.c.h.s.g.h.h.g.1 & i 3 1 7 3.G.G.G.G.G.G.G.F.V c.c.c.c.s.f.f.s.s.s.s.s.s.s.s.s.h.c.h.h.l.v.N.A.B.N.b.v.f.z.d.d.a.p.d.p.d.",
"C.m.m.c.c.h.s.s.f.f.#.l.G.G.G.G.G.G.G.G.G.G.G.G.F.V m.m.m.c.c.c.x.h.f.s.s.s.s.s.s.s.s.f.x.g.h.c.z.c.N.B.V.C.N.z.f.f.f.d.d.d.p.s.",
"S.C.m.m.c.c.h.h.f.f.D G.G.G.G.G.G.G.G.G.G.G.G.l.V m.V.V.m.m.c.c.v.k.c.s.s.s.f.s.s.f.s.s.f.g.g.l.f.c.z.v.V.V.N.N.N.j.f.d.s.p.d.s.",
"A.V.m.m.v.v.c.h.f.f.-.4.G.G.G.G.G.G.G.G.G.z.N :.A.S.S.A.V.m.m.m.v.c.c.c.c.s.f.s.s.s.s.s.s.s.f.f.f.h.j.c.N.N.V.B.N.N.z.d.s.d.s.p.",
"V.V.C.m.v.v.c.c.f.d.d.q.D =.z.x.z.x.4.S S -.b.b.V.V.S.A.A.A.m.m.n.n.n.n.c.h.f.f.s.s.s.s.s.s.s.s.f.h.x.f.f.x.B.V.B.N.N.f.z.f.s.s.",
"m.A.A.m.m.m.b.c.c.s.s.s.s.s.s.0.$.$.<.c.c.m.m.m.b.m.V.S.A.V.m.m.m.k.m.m.m.c.c.h.s.c.s.s.s.s.s.s.f.d.f.f.f.c.v.m.A.m.m.b.v.h.f.a.",
"m.m.S.m.m.m.b.b.c.c.c.s.h.s.s.s.s.c.s.c.c.c.c.m.c.m.V.V.V.V.V.m.m.m.m.m.m.m.m.s.s.s.s.s.s.s.s.s.f.f.f.f.h.h.c.c.m.A.V.N.m.v.h.f.",
"b.m.m.S.V.m.b.b.c.c.s.s.s.c.s.s.s.c.s.c.s.c.c.c.b.m.V.V.V.V.V.m.m.c.k.m.m.C.B.m.c.s.c.s.s.s.s.s.s.f.s.f.l.h.f.c.c.m.V.B.B.n.b.h.",
"c.m.m.m.A.m.b.b.c.c.c.s.h.s.s.s.s.s.s.s.s.c.c.m.c.b.m.m.V.V.V.m.m.m.m.k.m.B.A.A.m.c.c.c.s.c.h.s.s.s.s.s.s.c.s.h.c.c.V.V.B.m.n.v.",
"c.c.b.b.A.A.V.m.c.c.h.s.s.s.s.s.s.s.s.s.s.c.c.c.c.m.m.m.V.V.V.V.m.m.c.c.c.m.C.Z.Z.m.c.c.c.h.h.s.s.s.h.s.s.s.l.s.g.h.b.B.A.V.B.N.",
"c.l.b.b.V.A.V.m.m.v.v.c.c.h.s.c.s.s.s.s.s.s.s.c.c.c.m.m.m.m.m.V.m.m.m.c.c.v.m.m.A.A.m.v.c.h.s.s.f.f.s.s.h.s.s.s.s.g.x.c.b.A.V.B.",
"h.c.c.b.m.S.V.V.m.m.c.h.h.h.c.s.s.s.s.c.s.c.s.c.c.c.b.c.b.m.V.V.C.m.m.h.c.c.c.k.B.A.A.m.m.c.c.s.f.h.s.s.s.s.s.c.h.h.f.f.c.m.B.V.",
"h.c.c.c.m.V.S.V.m.m.m.c.c.s.c.h.s.s.s.s.s.s.c.s.c.s.c.x.b.b.m.V.m.m.m.v.v.c.c.c.v.m.A.A.m.m.b.c.l.g.s.s.s.s.s.s.s.s.f.f.x.c.N.A.",
"s.c.c.c.b.m.A.A.V.m.m.c.c.s.s.s.s.h.s.s.s.s.s.s.s.c.c.x.b.b.m.m.C.m.V.m.c.c.c.h.s.b.m.A.A.m.m.b.v.s.c.s.h.s.s.s.c.s.s.c.s.h.v.m.",
"c.c.c.c.c.b.V.A.A.V.m.m.m.c.s.c.s.s.s.s.s.s.s.s.s.s.s.c.c.b.m.m.m.V.m.m.v.c.c.h.c.c.c.m.A.S.V.m.m.c.s.s.h.s.s.s.s.s.s.h.s.l.h.c.",
"c.c.s.c.c.c.m.m.A.A.V.m.m.c.c.s.s.s.s.s.s.s.s.s.s.c.s.c.c.c.b.m.m.V.V.m.c.m.c.h.s.c.c.c.m.V.A.m.m.v.c.c.h.s.s.a.s.s.h.h.s.s.s.c.",
"s.c.c.c.s.c.c.m.A.S.A.V.m.m.c.c.c.h.s.c.h.s.s.s.s.s.c.s.c.c.c.b.m.m.m.m.m.c.c.c.c.c.c.c.c.m.V.S.m.m.n.c.s.h.h.s.s.s.s.s.h.h.l.f.",
"c.s.c.c.s.c.c.c.m.V.S.A.m.m.m.c.s.c.s.s.s.s.s.s.s.s.s.s.c.c.c.c.m.m.m.V.m.m.c.c.c.c.s.s.c.c.m.A.S.S.m.m.c.h.h.s.s.s.s.s.s.s.h.f.",
"s.c.h.s.c.c.c.c.b.V.A.V.V.m.m.c.c.c.s.s.s.s.s.s.s.s.s.s.s.c.c.c.c.m.m.m.V.m.m.c.c.s.s.c.h.s.c.m.m.S.m.m.m.n.h.h.s.s.g.s.h.s.s.f.",
"s.h.h.h.s.c.c.c.c.b.m.V.S.A.m.m.c.c.c.s.s.s.s.s.s.s.s.s.s.c.c.c.c.c.m.m.V.B.m.m.c.c.h.h.h.h.c.c.m.m.S.m.m.m.c.h.f.f.f.g.s.s.s.s.",
"s.h.s.s.c.s.s.c.c.c.m.V.S.S.A.m.m.c.c.s.c.s.s.c.s.s.s.s.s.s.s.s.c.c.m.m.m.m.m.m.c.c.c.h.h.h.s.c.c.m.S.S.m.m.n.v.k.h.f.f.s.s.s.s."
};
