/* XPM */
static char *result[] = {
/* columns rows colors chars-per-pixel */
"64 64 164 2 ",
"   c #36271A",
".  c #37281B",
"X  c #3B2B1D",
"o  c #3E2F22",
"O  c #432D1E",
"+  c #4A2E1B",
"@  c #4D321D",
"#  c #55341F",
"$  c #5A351F",
"%  c #443324",
"&  c #4A3524",
"*  c #4E3926",
"=  c #483728",
"-  c #4D3A2A",
";  c #563720",
":  c #563922",
">  c #5D3C22",
",  c #563D2B",
"<  c #4D3F30",
"1  c #623B21",
"2  c #603F29",
"3  c #5E412A",
"4  c #544334",
"5  c #5F4936",
"6  c #564738",
"7  c #5B4838",
"8  c #5A4B3C",
"9  c #624023",
"0  c #6F4127",
"q  c #62442B",
"w  c #6F492E",
"e  c #7D4525",
"r  c #714827",
"t  c #754629",
"y  c #724C2C",
"u  c #7C4A2C",
"i  c #7C512B",
"p  c #6D4B34",
"a  c #614D3A",
"s  c #6D4E39",
"d  c #744D34",
"f  c #7E4D32",
"g  c #704F39",
"h  c #63503F",
"j  c #6D503B",
"k  c #7C5035",
"l  c #77563E",
"z  c #78573C",
"x  c #7A583C",
"c  c #655443",
"v  c #6D5644",
"b  c #685845",
"n  c #66594A",
"m  c #6D5B49",
"M  c #715643",
"N  c #735A46",
"B  c #785941",
"V  c #705D4B",
"C  c #6F604F",
"Z  c #73614D",
"A  c #7C624D",
"S  c #766553",
"D  c #7C6652",
"F  c #7E6A56",
"G  c #766D5E",
"H  c #7D6D5B",
"J  c #7D7364",
"K  c #884926",
"L  c #8D4E2C",
"P  c #82532D",
"I  c #8F502D",
"U  c #9F5229",
"Y  c #925C2E",
"T  c #815531",
"R  c #8D5333",
"E  c #915D31",
"W  c #9C5834",
"Q  c #A15229",
"!  c #A8562B",
"~  c #AA592F",
"^  c #B25A2C",
"/  c #BB5C2C",
"(  c #A75B33",
")  c #B55E31",
"_  c #A16632",
"`  c #A16937",
"'  c #AD6D35",
"]  c #A0603C",
"[  c #B47336",
"{  c #B5743A",
"}  c #BB7638",
"|  c #BF7839",
" . c #C5612F",
".. c #D0642F",
"X. c #C66231",
"o. c #CC6936",
"O. c #D16631",
"+. c #DC6A32",
"@. c #C67C3B",
"#. c #C97F3C",
"$. c #E97035",
"%. c #F57537",
"&. c #865C41",
"*. c #86634A",
"=. c #846D57",
"-. c #816E59",
";. c #84715E",
":. c #8A725C",
">. c #91785F",
",. c #847562",
"<. c #8B7B69",
"1. c #927C66",
"2. c #937F6A",
"3. c #D3853E",
"4. c #95836D",
"5. c #8F8877",
"6. c #928472",
"7. c #998776",
"8. c #908978",
"9. c #9A8C7B",
"0. c #A28D76",
"q. c #E08C41",
"w. c #EC9344",
"e. c #F89B47",
"r. c #9E9482",
"t. c #A09685",
"y. c #A49986",
"u. c #AF9880",
"i. c #A49C8B",
"p. c #A99D8A",
"a. c #ACA08D",
"s. c #B8A186",
"d. c #BCA48A",
"f. c #ACA593",
"g. c #AEA897",
"h. c #AFA998",
"j. c #B1A795",
"k. c #B1AA97",
"l. c #B3AD9B",
"z. c #B9AF9D",
"x. c #B6B09E",
"c. c #BBB19F",
"v. c #B7B2A0",
"b. c #BCB3A1",
"n. c #BEB9A6",
"m. c #BFBAA8",
"M. c #CBB397",
"N. c #CDB499",
"B. c #C1B6A3",
"V. c #C3B9A6",
"C. c #C8BBA7",
"Z. c #C4BCA9",
"A. c #CABEAB",
"S. c #C6C0AD",
"D. c #CCC1AE",
"F. c #D1C3AF",
"G. c #CEC4B1",
"H. c #CFC8B5",
"J. c #D2C6B2",
"K. c #D5C9B5",
"L. c #D8CBB6",
"P. c #E4CAAB",
"I. c #F0D5B5",
"U. c #FDE1C0",
/* pixels */
"l.v.v.m.S.S.S.m.m.m.v.v.h.h.v.h.l.v.v.v.v.m.S.S.S.m.n.v.x.l.x.x.x.v.v.n.m.S.H.G.S.m.m.b.v.b.b.n.n.B.V.A.J.K.K.H.A.A.A.V.V.V.V.V.",
"x.x.v.v.v.m.S.S.m.m.m.m.v.v.h.v.v.v.v.v.v.v.m.S.S.m.n.n.v.x.h.x.v.x.v.v.n.m.S.H.G.S.Z.n.b.b.b.v.v.v.n.V.Z.G.K.H.H.G.Z.Z.Z.V.b.V.",
"l.v.x.v.v.m.S.m.S.m.m.v.v.v.h.v.l.l.l.v.v.v.v.v.S.S.m.n.n.x.x.x.v.x.v.v.c.c.m.S.H.G.S.S.m.b.b.v.v.b.b.b.B.V.A.J.H.L.H.A.A.Z.V.V.",
"l.l.h.v.v.v.m.m.S.S.m.m.v.v.v.h.h.h.l.v.l.v.v.v.n.m.S.m.n.n.x.x.h.h.l.v.x.x.x.n.S.D.D.D.Z.n.n.v.c.c.v.v.b.b.B.Z.A.H.H.H.A.Z.Z.B.",
"h.l.h.v.v.v.v.v.m.S.S.m.m.m.v.v.h.v.h.l.h.x.x.l.l.v.m.S.Z.m.x.x.v.l.l.l.x.x.x.x.b.S.D.S.S.Z.m.b.b.v.v.v.c.b.b.V.Z.A.A.K.A.A.A.A.",
"l.h.h.v.v.h.v.v.m.m.S.m.m.m.v.v.v.h.h.l.l.x.h.l.l.x.x.m.Z.S.n.n.x.l.l.l.x.x.x.x.x.x.Z.S.D.S.S.b.b.b.z.v.v.v.c.c.B.Z.A.A.K.H.H.A.",
"l.h.l.v.h.h.v.v.v.v.m.S.m.m.m.v.v.l.v.h.h.l.l.l.l.v.l.x.n.S.S.m.v.v.l.l.l.l.h.x.x.x.n.n.S.D.S.S.V.b.v.v.z.v.v.c.b.m.Z.Z.A.A.H.H.",
"l.l.h.h.h.v.h.v.v.v.v.m.S.m.m.m.v.v.l.h.l.h.l.l.v.l.l.l.x.x.Z.m.m.m.x.x.l.l.h.h.x.h.x.c.n.S.S.S.Z.m.b.v.z.v.v.z.v.v.b.B.Z.A.H.K.",
"v.h.v.h.h.v.h.v.v.v.x.v.n.S.S.m.m.c.x.x.l.h.l.l.h.x.l.l.a.5.F j 6 6 F D 5.a.h.k.l.h.x.x.x.c.S.S.S.Z.m.m.c.v.v.v.z.z.v.b.b.B.Z.A.",
"v.v.h.h.h.h.h.h.h.l.v.x.v.m.Z.Z.n.n.v.x.l.l.k.k.h.a.N p P  .$. .C 8 %.$. .I s H a.l.h.h.l.x.c.S.S.Z.A.m.b.v.l.v.l.z.z.v.b.B.V.A.",
"v.h.h.h.h.h.h.v.l.l.l.l.x.n.n.Z.Z.m.n.c.v.l.h.j.l ( $.%.%.%.%.%.4 h  .%.%.%.%.O.k S h.v.x.l.x.v.m.S.S.Z.m.b.b.v.z.l.l.l.z.z.b.V.",
"v.v.v.l.h.v.h.l.h.l.l.v.x.x.x.n.S.S.m.b.x.v.A [ %.%.%.%.%.%.%.%.5 0.U %.%.%.%.%.%.O.a i.h.l.l.x.b.m.A.Z.Z.m.v.b.v.v.v.l.v.v.z.v.",
"v.v.v.v.h.v.h.l.l.l.l.l.x.x.x.x.B.S.Z.n.n X %.%.%.%.%.%.%.%.%.%.4 0.U %.%.%.%.%.%.%.$.% a.h.h.l.l.v.b.V.Z.Z.m.b.v.v.z.l.l.l.z.v.",
"m.m.v.v.v.h.h.h.l.l.l.l.l.x.x.x.c.V.l.& ;.0.w %.%.%.%.%.%.%.%.%.> 4.0 %.%.%.%.%.%.%.+.4 n h.h.l.l.x.v.v.Z.Z.Z.m.b.v.l.v.l.z.l.l.",
"Z.m.m.v.v.l.h.h.h.l.h.l.k.x.x.x.x.,.W %., M.- +.%.%.%.%.%.%.%.%.U 0.3 %.%.%.%.%.%.%.i s.- *.h.h.h.l.l.x.v.Z.Z.Z.Z.m.v.z.z.l.l.l.",
"S.Z.m.v.v.v.l.l.h.v.l.l.k.x.x.x.m ~ %.%.+.- P., %.%.%.%.%.^ K 9 # X o Q %.%.%.%.%.%.- 0.u $.g.g.h.l.h.l.z.v.m.Z.Z.m.m.v.l.l.l.l.",
"H.Z.Z.m.m.v.v.l.l.l.l.l.l.l.l.V o.%.%.%.%.^ c m W %.L # # i [ e.e.4 X P $ $  .%.%.U H - %.%.] h.h.h.h.h.g.l.x.c.S.S.S.c.x.x.x.l.",
"H.H.A.Z.m.v.v.v.z.h.h.l.l.l.m o.%.%.%.%.%.%.2 0.. @ Y e.e.e.e.e.e.a a e.e.3.3 $ +., 1.I %.%.%.h.h.h.h.h.l.k.l.l.c.S.S.n.c.x.x.x.",
"A.H.Z.Z.Z.m.b.b.v.z.l.l.l.H ) %.%.%.%.%.%.%.! . C y e.e.e.e.e.e.e.@ a e.e.e.e.3.@ < - %.%.%.%.E g.g.h.h.g.l.h.l.l.c.S.S.n.n.x.l.",
"A.H.A.H.A.Z.b.b.c.z.l.l.J t %.%.%.%.%.%.%.; t q.% h 3.e.e.e.e.e.e.q X Y | w.e.e.3   I %.%.%.%.+.4.l.h.l.h.h.h.g.l.l.l.n.S.S.n.x.",
"A.A.A.H.A.A.Z.m.b.v.z.i.o 4 ) %.%.%.%.+.$ [ e.e.` b * e.e.e.e.3.P z J 9.5.l _ e.6 - @ %.%.%.%.%.s l.l.g.g.g.g.l.l.k.x.x.n.Z.n.n.",
"Z.A.H.K.H.A.A.Z.B.b.v.= 4 P.4 u %.%.+.@ [ e.e.e.e.3 8 ` e.e.E =.l.l.l.l.g.g.,.@ - _ [ 1 %.%.%.%.f h.l.l.h.g.g.h.k.k.k.k.x.c.n.Z.",
"m.B.A.H.H.A.A.A.Z.n.6.~ X.- s.F f %.O q.e.e.e.e.e.e.4 = q.y y.x.x.l.l.l.h.g.h.6 % e.e.; +.%.%.%.e G x.l.h.g.g.h.g.g.k.k.k.x.v.Z.",
"B.b.Z.A.H.H.A.H.A.Z.g %.%.%.2 -.-.. [ e.e.e.e.e.e.w.3.o : c.n.n.x.x.l.l.h.g.g.g.w e.e.3.1 %.%.w 6 8 v.x.l.l.h.h.g.k.k.k.k.k.x.v.",
"m.B.B.V.A.K.H.A.A.2.X.%.%.%.%.L o m , e.e.e.e.e.e.e.e.y y.D.S.n.n.x.x.l.l.k.g.g.6.' e.e.# +.* 0.c q n.n.x.x.k.k.g.g.g.k.g.k.l.x.",
"b.b.B.B.A.A.K.b.<.- %.%.%.%.%.^ ; - ,.% q.e.e.e.e.e.#.:.c.S.D.S.n.n.c.x.l.k.k.k.l.i e.e.# = H = ' D n.n.b.x.x.k.g.g.g.g.g.g.g.g.",
"b.b.b.B.V.A.V.S I.-., %.%.%.%.& e.e.q v - 3.e.e.e.e.i c.V.V.Z.S.S.S.n.c.x.k.k.l.h.z q.3 6 X i %.q.T n.n.n.n.x.x.l.g.g.g.g.g.g.g.",
"b.b.B.b.B.Z.<.N.U.U.=.B %.%.e ( e.e.e.` = % [ e.e.3.>.c.c.c.V.Z.S.S.n.n.x.x.x.k.l.J o = 3 @ %.%.%.5 x.n.n.n.n.n.x.l.g.g.g.g.g.g.",
"b.b.b.B.B.B.z.d.U.U.U.<.& X.# e.e.e.e.e.q.% o { e.P j.b.c.b.B.V.S.S.S.Z.n.c.x.x.l.a.@ 3.e.9 %.%.%.N l.x.x.n.n.n.n.x.x.k.g.g.g.g.",
"z.z.v.b.B.b.B.<.U.U.U.U.P.M % R e.e.e.e.e.e.p   i B c.c.c.z.c.b.B.C.S.D.S.n.c.c.x.l.w e.e.#  .r @ 7 l.l.x.n.n.Z.n.v.x.x.l.g.g.g.",
"v.z.b.b.b.B.B.B.<.U.U.U.U.U.U.1.4 3 T q.e.e.e.{ . t.v.b.c.c.c.b.c.V.C.D.S.n.S.n.x.x.X q.i X h Z 4 h k.l.k.x.x.n.n.n.v.v.l.l.g.g.",
"v.b.v.b.b.B.B.B.r.N.U.U.U.U.U.U.I.U.d.c - , y @.x l.l.z.c.c.c.c.c.c.V.S.D.S.S.S.n.n.. . o X 9 Q ~ 8.k.k.k.x.x.x.n.n.n.n.x.l.g.g.",
"v.v.z.z.b.b.B.V.B.-.C.U.U.U.U.U.U.U.U.U.U.U.N.  < z.z.z.z.b.z.z.c.M.B.Z.Z.S.S.D.Z.l., _ e.1 %.%.f g.l.l.l.l.l.l.x.N.S.n.c.x.l.l.",
"b.v.b.z.z.b.b.B.B.B.;.2.U.U.U.U.U.U.U.U.U.U.U.U.  z.z.z.z.z.z.z.c.x.c.B.V.C.D.G.S.r.} e.e.; %.%.p l.l.g.k.j.g.k.x.x.c.m.Z.n.x.x.",
"b.z.b.z.z.b.B.b.B.B.B.p.C u.U.U.U.U.U.U.U.U.U.F.  z.z.z.z.z.z.z.c.c.c.c.M.V.Z.D.G.p.@.' e.# %.$.v k.h.l.k.l.k.l.k.x.x.c.S.n.n.x.",
"b.b.v.z.b.b.z.b.B.B.B.B.A.t.;.;.d.C.U.U.I.z.<.C t.z.z.z.z.z.z.z.c.c.c.c.c.c.V.Z.A.p.>   > K %.( r.l.h.l.k.l.k.k.k.l.k.x.c.n.n.n.",
"z.z.z.b.b.b.z.b.z.B.B.B.B.C.F.L.a.6.<.;.J 9.j.b.z.z.z.z.z.z.z.z.x.c.c.c.b.c.B.C.c.5 $ K X X.$.g c.x.l.l.l.l.k.k.k.x.k.x.x.c.n.n.",
"B.b.b.z.b.z.b.z.z.B.B.z.B.B.C.F.K.K.J.A.A.A.A.B.b.z.z.z.z.h.z.z.c.c.c.c.x.c.n.0.p ..+ %.e U d j.c.x.x.l.l.l.l.k.k.k.k.d.k.x.x.n.",
"m.m.z.z.z.z.z.z.B.z.B.B.B.B.B.A.J.K.K.J.G.D.A.m.m.z.z.z.z.z.z.z.l.c.c.x.c.x.0.x ..U K %.O.a B.Z.Z.c.x.x.l.l.k.l.x.k.k.x.k.x.l.x.",
"B.b.B.z.z.z.z.B.z.z.B.z.B.B.B.B.A.K.L.K.J.J.A.A.B.m.b.z.z.z.z.z.c.l.c.c.x.9.z +.+.# +.%.%.N G.G.Z.Z.V.c.x.z.l.k.k.x.x.k.k.k.k.x.",
"m.B.m.z.z.z.b.b.b.b.B.B.b.B.B.B.B.A.K.L.K.J.F.A.A.A.B.z.b.z.z.z.l.c.c.l.j.p O.+.+.# %.%.%.&.G.G.D.S.S.b.c.x.c.l.k.k.k.k.l.l.l.l.",
"A.V.B.b.b.b.z.z.z.b.b.z.b.B.B.B.B.A.A.J.L.J.J.F.A.A.B.B.B.z.z.z.c.l.l.c.N  .+.+. .> %.%.%.&.V.A.F.D.S.S.V.c.c.c.l.l.k.k.l.d.k.k.",
"A.V.B.b.z.b.z.b.b.z.z.b.z.b.B.z.B.B.A.A.F.L.K.J.A.A.A.B.B.B.z.z.c.x.z.a.f +.+.+.1 ! %.%.%.&.B.B.S.D.G.D.S.M.c.c.x.l.l.l.l.l.x.l.",
"A.A.A.B.b.z.z.b.b.z.b.z.b.z.B.B.B.B.C.C.A.J.L.J.F.J.A.A.B.B.B.B.c.x.x.j ..+.+./ M  .%.%.%.p M.B.N.D.G.G.S.S.S.c.c.x.x.l.k.l.l.l.",
"D.A.A.B.m.B.z.z.z.z.z.b.z.z.z.B.B.B.B.C.A.A.F.L.K.K.J.A.A.B.B.B.N.n.z.d +.+.O.p 6.X.%.%.%.*.B.z.b.S.S.D.F.G.S.c.n.x.x.x.k.l.l.k.",
"J.J.A.A.m.B.b.b.b.b.b.z.B.B.z.B.z.B.B.C.C.A.A.J.L.J.F.F.A.A.A.B.B.n.B.T +...w j.j.R %.%.X.<.c.B.c.c.n.N.D.F.D.S.S.M.c.x.c.c.l.c.",
"J.J.A.A.A.B.B.b.z.z.z.z.z.z.z.B.B.z.z.B.C.C.A.F.J.J.J.J.F.A.A.B.Z.B.B.d ! p j.z.z.g %.%.k f.c.z.v.N.N.n.S.S.F.D.S.S.B.c.c.l.c.k.",
"A.J.J.A.B.m.B.B.z.b.z.z.z.z.B.z.z.N.z.N.B.C.C.A.F.J.K.J.J.F.F.A.Z.V.Z.7.<.B.b.z.z.t.t O.A z.z.z.c.c.v.c.M.V.D.F.D.n.Z.B.M.c.c.c.",
"A.F.J.A.A.C.B.B.B.z.z.z.z.z.z.z.z.z.B.B.B.A.A.B.A.A.F.J.J.F.A.A.A.m.A.A.A.B.B.b.z.B.t.,.z.z.z.z.c.c.c.c.z.B.B.A.J.A.A.Z.B.n.l.z.",
"A.F.J.F.F.A.C.B.B.B.B.z.z.z.z.B.b.B.B.z.B.B.B.A.A.A.F.J.F.F.F.A.A.A.A.A.A.A.A.z.z.z.z.z.z.z.z.z.c.c.c.c.B.z.B.B.A.J.D.A.D.V.b.c.",
"B.A.F.F.F.A.C.B.B.B.z.z.b.z.z.z.z.z.B.z.z.B.B.B.C.A.F.F.F.F.F.F.A.m.m.A.A.G.G.A.B.B.z.z.z.z.z.z.z.c.x.c.B.B.c.b.B.A.J.G.D.A.B.b.",
"B.B.A.F.F.F.A.C.A.B.z.B.b.z.z.z.z.z.z.b.B.z.B.A.B.C.A.A.A.F.F.A.A.V.A.m.A.D.J.J.Z.B.B.B.z.B.b.b.z.z.z.z.c.c.c.c.N.B.A.J.D.A.Z.Z.",
"B.B.C.A.J.J.F.C.B.B.b.z.z.z.z.z.z.z.z.z.z.B.B.B.C.B.A.A.A.F.F.A.A.A.B.m.B.A.G.J.G.A.B.B.B.b.z.z.z.z.z.z.z.M.z.M.z.B.V.A.J.D.D.S.",
"B.B.B.A.F.J.F.F.A.A.B.B.B.b.b.b.z.z.z.z.z.B.z.B.B.C.A.A.A.A.F.F.A.A.A.B.B.V.A.A.H.J.A.V.B.B.z.z.c.c.z.c.v.v.z.z.z.z.B.n.C.J.F.D.",
"z.B.B.C.F.J.J.F.A.A.B.B.b.b.b.z.z.z.z.b.z.z.b.b.B.B.B.B.C.A.F.A.F.A.A.B.B.B.B.V.G.H.J.A.V.V.B.z.c.b.z.z.z.z.z.B.B.z.b.M.B.A.F.F.",
"B.B.B.B.C.F.J.F.A.A.A.B.B.z.b.b.z.z.z.b.z.z.b.z.z.N.B.C.C.C.F.F.A.A.A.B.V.B.B.B.B.A.G.J.A.A.Z.B.c.c.z.z.z.z.z.c.c.z.z.v.M.V.S.G.",
"B.B.B.B.B.A.J.J.A.F.A.B.B.z.z.B.b.z.z.z.z.b.z.z.z.z.B.C.C.C.A.F.F.A.F.A.B.B.B.b.z.B.A.J.J.A.A.V.B.z.b.z.z.z.z.z.b.z.c.c.B.B.B.C.",
"z.z.B.B.B.C.F.J.F.F.A.A.A.z.B.z.z.z.z.z.z.z.z.z.B.z.B.B.B.C.A.A.A.F.A.A.V.B.B.b.B.B.V.A.J.K.F.A.B.B.B.b.b.v.z.z.z.b.c.b.z.z.B.B.",
"B.B.z.B.B.B.A.A.J.J.F.A.A.B.z.B.z.z.z.z.z.z.z.z.z.z.B.B.z.B.C.A.A.F.A.A.A.B.B.b.z.B.B.B.A.J.J.A.A.V.B.B.z.B.z.l.z.z.c.c.c.c.z.M.",
"z.B.B.B.B.B.B.A.J.K.J.F.A.A.B.B.B.z.z.b.b.z.z.z.z.z.z.z.B.B.B.C.A.A.F.A.A.A.B.b.B.B.B.B.B.A.J.J.J.A.V.B.z.b.b.z.z.z.c.z.c.c.c.b.",
"B.z.B.B.B.z.C.B.A.J.J.J.A.A.A.B.b.b.z.b.z.z.z.z.z.z.z.z.z.B.B.B.A.A.A.F.A.A.B.B.B.z.B.z.B.V.A.J.K.A.A.A.b.b.b.v.z.v.c.z.c.z.c.c.",
"z.B.b.B.z.B.B.C.A.F.J.J.F.A.A.B.B.B.b.z.z.z.z.z.d.z.z.z.B.B.B.B.B.A.A.F.A.A.A.V.B.B.z.B.z.z.B.A.A.K.J.A.A.Z.B.b.z.z.v.z.b.z.z.c.",
"z.B.z.b.z.B.B.B.B.B.A.J.J.J.A.A.B.B.B.z.z.z.z.z.z.z.z.z.B.z.B.B.B.B.A.A.F.A.A.V.B.B.B.B.z.B.B.V.A.A.J.J.A.A.V.b.c.z.z.c.z.z.z.z.",
"z.z.b.z.B.z.z.B.B.B.A.J.K.J.J.A.A.B.B.B.z.z.z.B.z.B.z.z.z.z.z.z.B.B.V.A.A.F.A.A.V.B.z.z.B.z.z.z.B.A.J.K.A.A.Z.V.B.b.b.z.z.z.z.z."
};
