/* XPM */
static char *result[] = {
/* columns rows colors chars-per-pixel */
"64 64 166 2 ",
"   c #352619",
".  c #36281B",
"X  c #3A2B1D",
"o  c #3D2D20",
"O  c #3F3122",
"+  c #432C1C",
"@  c #4E311D",
"#  c #56341F",
"$  c #5F381E",
"%  c #60371F",
"&  c #433324",
"*  c #4A3625",
"=  c #4E3A27",
"-  c #463629",
";  c #483728",
":  c #4D3B2B",
">  c #553A24",
",  c #5C3922",
"<  c #543D2B",
"1  c #593D2A",
"2  c #543F30",
"3  c #623D23",
"4  c #703E23",
"5  c #57422F",
"6  c #5F422C",
"7  c #564434",
"8  c #5C4635",
"9  c #5A4A3A",
"0  c #6F4127",
"q  c #63452D",
"w  c #6C452B",
"e  c #6C4A2F",
"r  c #714022",
"t  c #7F4525",
"y  c #734A27",
"u  c #7C4A26",
"i  c #784629",
"p  c #744D2C",
"a  c #7C4A2B",
"s  c #7F522A",
"d  c #6C4933",
"f  c #624C38",
"g  c #674E38",
"h  c #734D35",
"j  c #7D4D31",
"k  c #61503F",
"l  c #7C5034",
"z  c #74533C",
"x  c #7C563D",
"c  c #5F5040",
"v  c #625342",
"b  c #6C5947",
"n  c #6D5E4D",
"m  c #725744",
"M  c #7B5A43",
"N  c #745F4B",
"B  c #6E604E",
"V  c #72604E",
"C  c #7B614B",
"Z  c #736453",
"A  c #7C6552",
"S  c #7D6A56",
"D  c #7D6D5B",
"F  c #814625",
"G  c #8F4B26",
"H  c #8D4E2C",
"J  c #914B27",
"K  c #84542C",
"L  c #90512F",
"P  c #9F5229",
"I  c #915C2E",
"U  c #814E32",
"Y  c #825532",
"T  c #8B5333",
"R  c #8B5C37",
"E  c #915533",
"W  c #9C5631",
"Q  c #925D32",
"!  c #A2532A",
"~  c #AC592D",
"^  c #B1592C",
"/  c #B85B2D",
"(  c #A45D37",
")  c #9C6231",
"_  c #A16732",
"`  c #A36935",
"'  c #AD6C34",
"]  c #B47236",
"[  c #BA7638",
"{  c #C5612F",
"}  c #D0642F",
"|  c #C56231",
" . c #CE6936",
".. c #D06631",
"X. c #DC6A32",
"o. c #C97F3C",
"O. c #E97035",
"+. c #F57537",
"@. c #835D43",
"#. c #926549",
"$. c #846752",
"%. c #826F5B",
"&. c #84715D",
"*. c #8A725E",
"=. c #947257",
"-. c #857563",
";. c #8D7966",
":. c #857969",
">. c #8F7D68",
",. c #937D67",
"<. c #D2833C",
"1. c #96826B",
"2. c #8B8373",
"3. c #998674",
"4. c #908977",
"5. c #9D8974",
"6. c #958D7C",
"7. c #9B917F",
"8. c #A38E76",
"9. c #A59078",
"0. c #DF8C41",
"q. c #E08C41",
"w. c #EC9344",
"e. c #F89B47",
"r. c #979080",
"t. c #9B9382",
"y. c #A49684",
"u. c #A19A89",
"i. c #AA9E8D",
"p. c #A6A08F",
"a. c #AAA18F",
"s. c #B8A186",
"d. c #B0A28F",
"f. c #BBA38A",
"g. c #ADA695",
"h. c #AFA897",
"j. c #AFA999",
"k. c #B0A693",
"l. c #B3A997",
"z. c #B4AD9C",
"x. c #B9AF9D",
"c. c #B6B09E",
"v. c #BBB19F",
"b. c #B7B2A0",
"n. c #BCB3A1",
"m. c #BEB9A6",
"M. c #BFBAA8",
"N. c #C4AB90",
"B. c #CAB296",
"V. c #CDB499",
"C. c #C1B6A3",
"Z. c #C3B9A6",
"A. c #C8BBA7",
"S. c #C4BCA9",
"D. c #CABEAB",
"F. c #D7BEA0",
"G. c #C6C0AD",
"H. c #CCC1AE",
"J. c #D1C3AF",
"K. c #CEC4B1",
"L. c #CFC8B5",
"P. c #D2C6B2",
"I. c #D5C9B5",
"U. c #D8CCB7",
"Y. c #E4CAAB",
"T. c #FDE1C0",
/* pixels */
"z.b.b.M.G.G.G.M.M.M.b.b.j.j.b.z.z.b.b.b.b.M.G.G.M.m.b.b.c.c.c.c.c.b.b.m.G.G.L.L.G.M.M.m.b.b.n.n.m.n.S.D.L.L.L.L.D.D.S.S.S.M.C.S.",
"c.c.b.b.b.M.G.G.M.M.M.b.b.b.b.j.b.b.b.b.b.b.m.G.G.G.M.m.b.c.c.j.c.c.b.b.b.M.G.L.L.G.S.m.n.n.n.b.v.n.n.Z.D.D.I.U.L.D.D.D.S.S.C.M.",
"b.b.c.c.b.M.M.G.G.M.M.M.b.b.j.b.j.z.z.b.b.b.b.b.M.G.M.M.m.c.z.c.c.c.c.c.b.c.M.G.L.G.G.G.Z.m.b.n.b.n.n.n.Z.Z.D.P.U.L.L.D.D.S.C.C.",
"j.j.j.b.b.b.M.M.G.G.M.M.b.b.b.j.z.j.j.z.b.b.b.b.m.M.G.G.M.b.c.c.j.z.j.c.c.c.m.m.G.K.K.G.S.m.n.b.v.b.n.n.n.n.C.S.D.L.U.D.D.D.S.C.",
"z.z.b.b.j.b.b.M.M.G.G.M.M.b.b.b.z.z.z.b.z.c.b.c.c.c.M.G.M.M.m.c.z.z.z.h.c.c.c.c.n.G.H.H.G.S.m.n.n.b.z.v.v.n.n.M.D.D.D.U.D.D.D.D.",
"j.j.j.b.j.b.b.b.b.M.M.G.M.M.M.b.z.j.j.j.b.j.j.j.c.c.b.M.G.G.m.b.b.c.z.c.c.z.z.c.c.c.Z.G.G.G.G.m.n.n.b.b.b.n.v.n.M.S.D.D.U.L.D.D.",
"z.j.j.b.j.j.b.j.b.M.M.G.M.M.M.b.b.z.z.z.j.j.j.b.z.z.c.c.m.M.G.m.b.b.c.h.h.z.l.z.c.c.m.m.G.H.G.G.M.n.b.b.z.b.b.v.b.n.Z.S.D.L.U.L.",
"z.z.j.j.j.b.b.j.b.b.b.M.G.M.M.M.b.b.b.j.j.j.g.2.2.z.z.z.c.m.m.G.M.M.c.c.c.z.h.z.z.z.c.c.m.G.K.G.S.M.n.v.b.v.v.z.n.b.n.n.S.D.L.L.",
"j.j.b.j.j.j.j.z.z.b.c.b.m.G.G.m.M.v.c.j.j.z.Z B.f.B z.4.6.6.r.S.M.m.m.c.z.j.l.j.z.j.c.c.c.m.Z.G.G.S.M.m.v.b.z.b.z.b.b.n.C.C.D.D.",
"b.b.j.j.j.j.z.z.j.z.b.c.b.M.G.G.M.m.m.c.c.7.Y.T.T.9 T H ~ / , & O g g S 6.g.z.j.j.z.j.j.z.c.b.Z.G.S.S.M.n.v.v.z.x.z.z.b.b.C.C.D.",
"b.j.j.j.b.j.j.z.z.z.z.z.c.c.m.M.M.M.m.c.c.D T.T.T.& +.+.+.+.0 8.1 +.w.O./ K z ;.j.z.z.z.z.c.c.n.S.G.K.S.M.n.b.b.b.x.z.x.x.b.M.n.",
"b.b.b.j.b.j.z.j.j.z.j.b.c.c.c.m.G.G.m.m.4.Y.T.T.Y.6 +.+.+.+.6 T.< +.+.+.+.+.+.} j V j.j.j.z.j.c.b.M.S.S.S.M.m.b.z.b.z.z.z.x.x.b.",
"M.b.b.b.j.z.z.z.j.h.c.c.c.c.c.c.Z.G.G.m.&.T.T.T.8.G +.+.+.+.< T.q +.+.+.+.+.+.+.+.< v 9 j.j.j.z.z.b.n.S.S.S.M.m.b.x.z.z.x.z.x.x.",
"M.M.b.b.z.z.j.j.c.c.j.h.c.c.c.c.c.m.Z.v.>.T.T.T.9.P +.+.+.+.5 8.G +.+.+.+.+.+.+.X.7 V.6 T 3.j.l.z.z.b.n.S.S.M.M.M.b.b.x.z.z.z.x.",
"S.M.M.b.c.z.j.j.j.c.h.c.z.c.c.c.c.n.Z.t.B.T.T.T.9.% ! ! ! ! < n { +.+.+.+.+.+.+.w s.7 X.+. .z z.j.z.z.z.b.S.S.S.M.n.b.x.z.z.z.j.",
"G.S.M.b.b.b.z.j.c.j.z.z.h.c.c.c.c.c.n.7.B.T.T.T.N.* _ ) _ ) X . # # F X.+.+.+.+.: s., +.+.+.+.a 4.j.z.j.b.b.M.S.S.S.M.b.b.z.z.z.",
"L.S.S.M.M.b.b.z.z.z.z.z.z.z.z.z.z.b.x.r.C.T.T.T.T.5 e.e.e.e.v 5 e.e.] 3 @ u X.H D : +.+.+.+.+.+.( -.j.j.z.z.c.n.G.G.M.m.c.c.c.h.",
"L.L.D.M.M.n.b.b.x.j.j.z.j.z.z.b.z.x.z.6.f.T.T.T.T.f e.e.e.o.v 6 e.e.e.e.e._ #   8.a +.+.+.+.+.+.+.( -.z.j.l.j.c.m.m.G.Z.m.c.c.c.",
"D.L.D.D.S.M.b.b.b.z.z.z.b.z.z.x.x.x.x.j.%.T.T.T.T.7 e.e.e._ k I e.e.e.e.e.e.<.7   ^ +.+.+.+.+.+.+.+.T 6.l.z.j.z.c.c.Z.G.G.m.c.c.",
"S.L.L.D.D.S.C.n.b.x.z.z.z.b.x.z.z.z.z.b.n T.T.T.T.,._ e.e._ : <.e.e.e.e.e.e.5 Z Q # r +.+.+.+.+.+.+.+.q t.j.j.j.h.c.c.m.M.M.m.c.",
"D.D.U.D.D.D.D.M.n.x.x.x.z.z.z.z.x.z.z.x.n T.T.T.T.Y.1 e.e.q - e.e.e.e.e.e.0.9 : e.e._ # +.+.+.+.+.+.X.* v j.j.l.j.z.z.c.m.G.m.m.",
"M.D.D.U.L.D.D.S.Z.b.x.b.b.x.z.x.z.z.x.x.r.y.T.T.T.T.& e.e.q 7 e.e.e.e.e.e.e b _ e.e.e.] @ +.+.+.+.X.: V.9 :.j.j.h.h.h.z.c.v.m.m.",
"M.Z.D.D.L.L.S.D.S.C.M.b.x.z.z.z.x.b.x.x.x.Z T.T.T.T.N ] e.= q e.e.e.e.e.e.- = e.e.e.e.e.s t +.+.^ : V.: H g k.j.j.j.h.l.l.c.v.G.",
"M.M.S.D.L.L.D.L.D.S.n.b.x.x.x.z.z.x.x.x.x.r.,.T.T.T.Y.1 e.& Q e.e.e.e.e.I O <.e.e.e.e.e.e.q ^ u 9 8.& X.+.W u.l.j.j.h.h.l.l.c.c.",
"n.C.Z.S.D.I.D.D.D.D.S.C.M.n.x.x.z.b.x.z.x.b.D A.T.T.T.2 o.o ) E K Y R R 5 & [ w.e.e.e.e.e.e.. S k w +.+.+.O.C l.h.h.h.j.j.j.z.c.",
"n.n.n.C.D.D.U.L.I.D.S.S.C.n.b.x.b.x.x.b.x.x.b.c F.T.N.. @.Z p.j.G.n.c.c.j.j.4.x K q.e.e.q.5 5 O ^ +.+.+.+.+.h l.j.h.h.h.j.h.h.h.",
"n.n.n.C.S.D.I.D.I.D.D.D.Z.C.n.n.x.x.z.x.x.x.x.j.Z - . r.n.Z.S.D.G.G.B.m.c.h.h.h.p.C ' q.= 7 q # +.+.+.+.+.+.K c.z.h.h.h.h.h.h.h.",
"n.n.C.n.C.A.D.I.I.L.L.D.S.Z.C.n.b.b.z.x.x.x.x.x.x.x.x.C.n.n.C.S.G.G.M.m.c.c.c.c.l.l.-.O * ` e.> +.+.+.+.+.+.I 7.c.l.h.h.h.h.h.h.",
"n.n.n.C.n.C.C.D.I.U.P.D.P.D.S.n.b.x.x.z.z.x.x.x.n.x.x.n.x.x.C.C.G.G.G.G.Z.v.c.c.l.z.h.V _ e.e.K ^ +.+.+.+.+.{ 7.m.c.c.l.h.g.g.h.",
"x.x.n.M.x.C.C.C.D.L.I.I.L.D.S.S.n.n.x.x.z.x.x.z.x.x.n.b.n.x.n.n.C.Z.G.H.G.n.v.v.c.c.l.h.p e.e._ P +.+.+.+.+.{ 7.m.c.c.c.c.h.g.h.",
"n.x.b.n.C.C.C.C.D.D.I.I.I.P.D.D.Z.C.b.n.x.z.x.x.x.x.x.x.x.n.n.n.v.Z.G.G.G.Z.G.m.c.c.z.l.C q.e._ 0 +.+.+.+.+.' 7.m.m.c.c.c.l.h.h.",
"x.b.b.n.C.n.C.C.Z.D.D.I.I.D.D.D.S.C.n.n.x.x.z.x.x.z.x.x.n.x.x.n.B.v.V.G.G.G.G.G.Z.n.c.z.V <.e._ P +.+.+.+.+.I a.m.m.m.m.c.z.l.h.",
"x.n.x.x.n.n.C.C.C.A.A.J.U.J.J.J.D.D.Z.n.n.x.x.x.x.x.x.x.x.x.x.x.c.v.B.G.G.H.H.G.Z.Z.m.c.x w.e.I % G q * 8 : - z.c.n.G.v.v.c.c.z.",
"x.x.n.x.x.n.n.C.C.C.A.D.I.I.J.P.D.D.D.n.n.x.x.x.x.x.x.x.x.x.n.x.v.c.v.Z.n.G.H.H.G.G.m.n.o k 5 o S *.1.9.9.9.B l.c.c.v.G.G.v.c.c.",
"n.x.n.x.x.n.n.C.C.C.C.C.J.P.I.I.D.H.D.D.C.n.n.x.x.x.x.x.x.x.x.x.v.v.v.v.C.n.G.G.K.H.S.;.5 X 6 . 6 6 t P P F l.z.z.z.z.v.G.m.m.c.",
"n.n.n.x.n.x.x.n.C.x.C.C.A.J.P.I.P.L.D.D.M.C.n.n.x.x.x.x.x.x.j.x.v.v.v.v.v.n.B.G.H.H.C.s e.e._ u +.+.+.+.+.#.h.h.l.z.z.c.v.m.m.m.",
"n.x.x.n.n.n.x.n.C.C.C.C.C.A.J.I.P.P.P.K.D.D.n.n.x.x.x.x.x.x.x.x.v.v.x.v.v.B.m.Z.A.G.z w.e.e.@ +.+.+.+.+.X.z.h.l.l.c.c.l.c.n.m.m.",
"M.x.x.x.x.n.x.n.x.C.C.x.C.A.A.J.I.I.P.J.D.D.D.n.x.x.x.x.j.x.x.x.v.x.v.v.v.v.n.n.Z.M <.e.e.0 G +.+.+.+.+.=.z.z.j.l.l.l.l.l.c.c.m.",
"M.C.M.x.x.x.x.C.x.C.C.x.x.C.C.A.P.I.P.L.K.H.D.Z.n.n.x.x.x.x.x.x.z.v.v.x.v.c.v.B.c q 0.e.] # +.+.+.+.+.Q z.z.l.l.h.c.c.l.c.l.l.c.",
"C.n.n.x.n.x.x.x.x.x.C.C.C.C.C.A.D.P.U.I.P.P.D.D.Z.M.x.x.x.x.x.x.x.z.v.v.v.c.4.g 6 : : q + +.+.+.+.+.{ c.v.c.z.z.c.l.l.l.l.l.l.c.",
"M.C.C.x.x.x.x.n.n.C.n.n.C.C.C.C.Z.H.P.I.I.P.J.x.y.:.r.3.x.x.x.x.x.x.x.x.y.- # q.e.<.= . 8 < P +.+...*.v.v.v.c.c.h.l.h.l.l.l.z.z.",
"D.D.C.n.x.M.x.x.x.x.n.n.n.n.C.C.C.D.J.P.I.3.d L ~ / / ~ U d m 3.x.z.5.p ) X ; <.e.[ @ G : 8.%.: $ B H.G.A.v.v.c.c.l.z.l.c.l.l.l.",
"D.C.C.C.n.x.x.M.x.C.n.x.C.x.C.x.C.C.D.D.3.~ X.X.X.X.X.X.} X.} P d > ) e.e.q.; ; # 3 +.+.+.a = 9 k K.K.G.G.B.v.v.c.l.c.l.c.l.c.l.",
"D.D.M.Z.n.x.x.x.n.n.x.n.x.x.C.C.C.C.C.D.d.d | X.} X.X.X.X.X./ J $ @   u e.e.y . - H +.+.+...h Z Z.G.K.K.G.G.G.v.b.c.c.l.l.c.l.c.",
"H.D.D.C.M.n.x.x.x.n.x.n.x.C.x.C.C.C.A.C.A.C.*.M U T / ! # + % ! ^ +.4 a # # P X.: k l O.T A x.C.v.Z.G.G.J.J.G.v.m.c.c.c.l.l.c.l.",
"I.K.D.D.D.C.M.x.x.x.x.x.x.x.x.C.x.C.C.C.C.D.J.I.P.x.8 i X.+.+.+.+.^ X u X.+.+.+.| X X 5 a.v.n.n.v.B.B.G.H.J.H.A.G.V.v.c.c.c.c.c.",
"P.P.D.D.Z.Z.C.n.C.x.x.x.x.C.x.C.C.x.C.V.A.A.D.J.d.h O.+.+.+.+.+. .+ +.+.+.+.X.W h Z 6.x.x.x.x.B.v.n.n.C.G.H.H.H.G.Z.v.v.c.c.c.c.",
"J.J.H.D.D.Z.C.n.x.x.x.x.x.x.C.C.x.x.x.C.C.A.A.x.d +.+.+.+.+.+.W *.i.M x @.M *.i.v.v.x.x.x.x.x.x.v.m.B.v.v.A.H.J.H.G.G.m.B.c.c.l.",
"D.J.P.D.A.D.A.C.x.C.x.x.x.x.x.x.x.C.C.C.C.C.A.*.X.+.+.+.+.| x y.D.S.D.D.D.C.C.n.x.x.x.x.x.x.x.x.v.c.v.v.x.C.C.D.P.D.D.S.Z.n.v.z.",
"D.J.P.J.J.D.A.C.C.C.C.x.n.x.x.n.x.n.x.C.C.C.C.m +.+.O.~ j 3.D.D.D.D.D.D.D.D.S.n.x.C.x.x.x.x.x.x.v.v.v.v.C.v.C.C.D.P.D.D.D.S.C.b.",
"C.D.J.J.J.D.A.C.C.C.x.x.C.x.x.x.x.C.x.C.x.C.C.i.m M $.d.J.J.J.J.D.M.S.D.H.H.H.S.C.C.C.x.n.x.x.x.x.v.x.v.v.C.N.C.A.D.K.K.D.D.Z.n.",
"C.C.D.J.J.J.D.A.C.C.C.x.x.x.x.x.x.x.x.x.x.C.C.D.C.D.D.D.D.J.J.D.D.Z.C.S.D.H.P.P.D.C.C.C.x.n.x.x.x.x.x.x.x.n.n.x.B.Z.D.P.K.D.S.Z.",
"C.C.A.J.J.J.J.A.Z.C.C.n.x.x.x.C.x.n.x.x.x.C.C.C.C.C.A.D.J.J.J.D.D.D.M.C.Z.D.H.P.K.D.C.C.C.n.n.n.x.x.n.x.x.x.v.C.b.B.A.D.P.P.H.D.",
"x.C.C.D.J.P.J.J.D.Z.C.n.C.x.n.x.x.x.x.x.x.x.C.C.C.D.A.D.A.A.D.J.D.D.D.C.C.Z.D.H.K.P.D.Z.C.n.x.x.v.v.x.x.B.x.x.v.v.x.C.Z.D.H.P.D.",
"C.C.A.C.J.J.P.J.D.D.Z.n.x.C.C.x.x.x.x.x.x.x.C.x.C.C.A.A.A.D.J.J.J.D.Z.C.C.C.C.Z.H.L.K.D.D.C.C.n.v.b.x.x.b.z.x.n.n.v.n.v.C.D.H.P.",
"x.C.C.C.D.J.P.P.D.D.D.C.C.x.M.x.x.x.x.x.x.C.x.x.x.C.C.C.A.D.J.J.H.D.D.Z.Z.C.C.C.Z.D.P.P.H.D.C.C.B.b.x.x.x.x.v.v.v.v.x.b.B.Z.D.K.",
"C.C.C.C.A.D.P.P.J.D.D.C.C.x.x.x.n.n.x.x.x.x.n.x.x.C.C.V.C.A.D.J.H.H.D.D.C.C.C.x.x.C.H.P.P.H.D.C.C.x.x.x.x.x.x.x.v.v.v.n.v.C.C.D.",
"x.C.x.C.C.A.J.J.P.D.D.D.D.C.C.x.x.x.x.x.x.x.x.n.C.x.x.C.C.A.D.D.D.H.J.D.D.C.C.C.C.C.C.H.P.P.H.D.D.C.C.C.n.x.x.x.v.v.v.v.v.v.C.C.",
"C.C.x.C.x.C.D.J.P.P.P.D.D.C.C.x.x.x.x.x.x.x.x.x.x.x.x.C.C.C.A.D.J.D.J.D.D.C.C.x.x.C.C.C.D.P.P.J.D.Z.C.x.n.x.z.z.x.v.x.v.n.x.x.C.",
"x.C.C.C.C.C.C.D.P.I.P.J.D.D.C.C.C.x.x.C.x.x.x.x.x.x.x.C.C.C.C.A.D.D.D.D.D.D.C.C.C.C.C.C.C.D.J.P.D.D.S.C.x.C.n.x.x.v.v.x.v.n.N.x.",
"C.x.C.C.x.C.C.C.D.P.P.P.D.D.C.C.n.n.x.x.x.x.x.x.x.x.x.x.C.C.C.C.D.D.D.D.D.D.C.C.C.C.n.x.C.C.D.D.I.P.D.Z.Z.n.n.n.x.x.x.x.x.v.v.n.",
"C.x.C.x.C.C.C.C.C.J.P.P.J.J.D.C.C.C.n.x.x.x.x.x.x.x.x.x.x.C.C.C.C.D.D.J.D.D.D.Z.C.x.x.n.x.C.C.D.P.P.D.D.D.S.n.n.b.x.x.v.n.x.x.x.",
"x.C.n.C.x.C.C.C.C.D.J.P.P.P.D.D.C.C.C.x.x.x.x.x.x.x.x.x.x.C.C.C.C.C.D.D.J.J.D.Z.C.C.C.C.x.C.C.C.D.D.I.P.D.D.C.n.b.n.x.x.x.x.x.x.",
"x.x.x.x.x.C.x.C.C.C.D.J.I.P.J.J.D.C.C.C.x.x.x.C.x.x.x.x.x.x.x.x.C.C.Z.D.D.J.D.D.Z.C.n.x.C.x.C.x.C.D.I.I.D.D.S.Z.C.n.n.x.x.x.x.x."
};
