/* XPM */
static char *result[] = {
/* columns rows colors chars-per-pixel */
"64 64 162 2 ",
"   c #36271B",
".  c #37281C",
"X  c #3B2B1D",
"o  c #3D2D21",
"O  c #3F3023",
"+  c #432C1B",
"@  c #4B2F1C",
"#  c #4D321D",
"$  c #55331E",
"%  c #59351F",
"&  c #402F20",
"*  c #433224",
"=  c #4C3624",
"-  c #4E3A27",
";  c #453628",
":  c #4C3A2B",
">  c #543520",
",  c #573A23",
"<  c #593921",
"1  c #543D2C",
"2  c #5C3D29",
"3  c #623E22",
"4  c #6E3D21",
"5  c #603F2A",
"6  c #703F23",
"7  c #57412E",
"8  c #544434",
"9  c #5F4532",
"0  c #554638",
"q  c #584738",
"w  c #574838",
"e  c #5C4C3D",
"r  c #644023",
"t  c #61432C",
"y  c #6B452B",
"u  c #69482E",
"i  c #7F4625",
"p  c #73462D",
"a  c #724A2D",
"s  c #7F522A",
"d  c #6A4B36",
"f  c #614F3E",
"g  c #6D4F3A",
"h  c #724D33",
"j  c #7D4D30",
"k  c #63503F",
"l  c #7D5333",
"z  c #71523B",
"x  c #7A563F",
"c  c #645342",
"v  c #6A5544",
"b  c #6C5947",
"n  c #6C5A49",
"m  c #735540",
"M  c #705845",
"N  c #715D4A",
"B  c #6F604E",
"V  c #76614D",
"C  c #6E6051",
"Z  c #736352",
"A  c #7B6652",
"S  c #7B6B5B",
"D  c #884724",
"F  c #8F4C27",
"G  c #8D4E2C",
"H  c #81542E",
"J  c #9F5229",
"K  c #915C2E",
"L  c #824E31",
"P  c #8C5231",
"I  c #805834",
"U  c #8C5D38",
"Y  c #9D5631",
"T  c #915E31",
"R  c #A2532A",
"E  c #AA592F",
"W  c #B25A2C",
"Q  c #BA5C2D",
"!  c #A75C34",
"~  c #B55E31",
"^  c #B95F31",
"/  c #A16732",
"(  c #A26834",
")  c #AC6C35",
"_  c #B47336",
"`  c #C6612E",
"'  c #D0642F",
"]  c #C66130",
"[  c #D06631",
"{  c #DC6A32",
"}  c #C97F3C",
"|  c #E97035",
" . c #F57537",
".. c #85644A",
"X. c #96694C",
"o. c #806651",
"O. c #816C56",
"+. c #816E5A",
"@. c #936B51",
"#. c #84715F",
"$. c #8F745F",
"%. c #9E775F",
"&. c #847563",
"*. c #867A68",
"=. c #937C66",
"-. c #987D66",
";. c #D2833D",
":. c #90816E",
">. c #8D8271",
",. c #9E8976",
"<. c #918A79",
"1. c #968A79",
"2. c #9A907F",
"3. c #AA856B",
"4. c #A38D76",
"5. c #A28F7C",
"6. c #A69077",
"7. c #AF987F",
"8. c #DF8C41",
"9. c #E08C41",
"0. c #EC9344",
"q. c #F89B47",
"w. c #9D9482",
"e. c #9F9886",
"r. c #9F9888",
"t. c #A19786",
"y. c #A09886",
"u. c #A59B88",
"i. c #AA9E8C",
"p. c #ACA18E",
"a. c #B8A186",
"s. c #AEA594",
"d. c #AFA897",
"f. c #AFA998",
"g. c #B1A695",
"h. c #B1A997",
"j. c #B3AD9B",
"k. c #B9AF9D",
"l. c #B6B09E",
"z. c #BAB19F",
"x. c #B7B2A0",
"c. c #BCB3A1",
"v. c #BEB9A6",
"b. c #BFBAA8",
"n. c #C7B095",
"m. c #CAB296",
"M. c #CDB499",
"N. c #C1B6A3",
"B. c #C3B9A6",
"V. c #C8BBA7",
"C. c #C4BCA9",
"Z. c #CABEAB",
"A. c #C6C0AD",
"S. c #CCC1AE",
"D. c #D1C3AF",
"F. c #CEC4B1",
"G. c #CFC8B5",
"H. c #D2C6B2",
"J. c #D4C9B5",
"K. c #E3C9AB",
"L. c #F0D5B5",
"P. c #FDE1C0",
/* pixels */
"j.x.x.b.b.A.A.b.b.b.x.x.j.f.x.f.f.x.x.x.x.b.b.A.A.b.x.x.l.l.l.l.l.x.x.v.b.A.G.G.A.C.v.v.l.z.v.z.v.v.A.A.F.J.J.G.F.C.Z.C.B.B.B.B.",
"l.l.x.x.b.b.A.A.b.b.b.x.x.x.x.f.x.x.x.x.x.x.b.A.A.A.b.b.x.l.j.j.l.l.x.x.v.v.A.G.G.A.C.v.z.v.l.z.z.z.z.B.Z.F.J.J.G.F.C.C.C.B.B.B.",
"x.x.l.x.x.b.b.A.A.b.b.b.x.x.f.f.f.x.x.x.x.x.x.x.A.A.b.b.x.x.l.j.j.j.x.x.l.l.b.F.G.A.A.C.v.z.z.l.z.z.z.v.N.B.Z.H.H.G.F.Z.Z.B.N.B.",
"f.f.f.x.x.x.b.b.A.A.b.b.b.x.x.f.f.f.f.j.x.x.x.x.l.b.A.b.v.v.x.j.j.j.j.x.l.l.l.v.A.F.F.A.A.v.v.z.z.z.z.z.c.c.N.C.F.H.G.H.Z.Z.B.N.",
"j.j.f.x.x.x.x.x.b.A.A.b.b.x.x.x.j.f.x.x.f.x.f.x.l.l.b.A.A.v.v.l.j.j.f.l.l.l.l.l.v.v.A.F.A.A.v.v.v.l.l.l.x.c.c.B.C.Z.G.J.Z.Z.Z.Z.",
"f.f.x.f.x.f.j.x.b.b.A.b.b.b.b.x.x.f.f.f.j.j.j.x.l.l.l.b.A.A.v.v.x.l.j.j.l.l.j.l.l.c.C.A.A.A.v.v.v.l.z.l.z.x.c.x.c.C.Z.Z.J.G.G.Z.",
"x.f.f.x.f.x.x.x.x.x.b.A.b.b.b.x.x.f.x.f.j.f.x.f.l.l.l.l.v.b.A.b.v.x.l.f.j.j.j.j.l.l.c.v.A.A.A.A.v.l.z.l.z.l.x.z.c.c.N.B.Z.G.J.G.",
"f.x.f.f.f.f.f.x.x.x.x.b.A.b.b.b.x.x.x.f.j.f.f.f.l.j.f.j.j.v.b.b.b.v.l.j.j.d.j.j.j.j.l.v.v.A.A.A.A.v.v.l.l.z.x.l.k.c.c.N.B.Z.G.G.",
"x.f.x.f.f.j.f.j.j.l.l.x.v.A.C.b.v.v.l.j.j.f.f.x.l.f.l.h.l.l.v.b.b.b.v.l.j.j.j.f.j.f.l.l.l.x.b.A.F.C.b.v.z.x.x.j.k.k.x.c.c.B.Z.G.",
"f.x.f.f.f.f.f.f.f.l.l.l.x.b.C.C.b.v.x.l.l.f.f.j.f.l.f.f.f.f.l.v.b.A.b.x.l.j.d.j.f.j.f.f.l.l.v.v.C.C.C.b.c.x.x.x.j.x.k.k.c.c.N.C.",
"x.x.f.f.x.f.j.x.j.j.j.l.l.v.b.C.v.v.v.l.l.j.f.f.f.f.h.l.j.f.j.x.v.b.A.v.v.l.l.h.j.j.j.j.l.l.l.x.C.A.F.C.B.c.x.j.k.j.j.j.k.x.z.B.",
"x.x.x.f.x.f.f.j.j.f.j.l.l.l.x.b.A.A.v.v.x.l.j.f.f.f.f.f.j.j.f.j.l.x.b.b.v.x.l.l.f.f.f.f.f.f.l.l.x.b.C.C.C.B.v.x.x.x.k.j.j.k.k.z.",
"x.x.x.x.f.j.j.j.f.j.j.l.j.l.l.l.v.A.B.v.v.x.l.j.f.f.f.f.+.p g f.j.l.x.v.A.v.x.l.j.l.f.f.f.f.f.j.j.x.c.C.C.C.b.v.x.x.j.j.j.j.k.x.",
"b.b.x.x.x.j.f.f.j.j.j.f.j.l.l.l.z.B.A.B.v.v.l.l.l.f.f.M ]  .! w.j.d.j.x.v.v.v.v.j.l.f.d.j.f.f.j.j.j.l.x.C.C.C.b.c.x.k.k.k.j.j.j.",
"C.b.b.x.l.f.f.f.j.j.f.l.j.l.l.l.z.x.v.C.C.v.v.l.l.j.M [  . .~ <.j.j.j.l.v.v.v.v.v.l.l.d.f.f.f.f.f.j.j.l.x.B.C.C.b.b.x.x.k.j.j.k.",
"G.b.b.x.x.x.x.f.j.j.j.j.f.l.l.l.l.z.x.v.C.C.v.v.l.:.~  . . .P p.d.d.j.j.l.l.v.C.v.v.l.l.l.f.f.f.f.j.j.j.x.x.b.C.C.C.b.x.x.j.j.f.",
"A.A.C.C.x.x.x.j.j.j.j.j.f.j.j.j.x.x.x.x.b.C.C.b.j.h  . . . .g f.2.#.V u 2.l.l.v.A.v.v.x.l.h.h.d.f.f.f.f.j.j.l.z.A.A.A.z.l.l.l.h.",
"F.G.A.C.b.b.k.k.j.j.j.j.j.j.j.k.j.k.k.k.x.N.C.C.o.{  . . .E n 9 K Q { { u d.l.l.v.A.v.v.l.l.j.d.f.f.f.j.j.h.h.l.z.v.A.b.v.l.l.j.",
"F.G.Z.C.C.B.x.x.x.j.j.j.k.j.x.x.x.x.j.k.k.k.N.c.l  . . .W # W { { { [ / *.d.l.l.l.v.v.v.v.l.l.j.f.f.f.f.d.j.d.j.l.z.v.A.b.v.l.l.",
"C.G.Z.F.Z.C.B.c.x.k.k.j.j.k.j.j.j.k.j.k.k.r.o.C '  . .{ + { { { { { _ b d.d.d.d.l.l.v.v.v.v.l.j.h.h.f.f.f.f.f.h.j.l.z.v.b.A.v.l.",
"Z.Z.J.Z.Z.C.Z.b.c.k.x.x.j.j.k.j.j.k.k.g.v ! | $  . .W @ ` { { { { K B f.d.d.d.l.h.l.l.x.v.v.v.v.l.j.f.f.f.f.f.f.h.j.j.l.v.b.v.v.",
"B.C.G.J.G.F.Z.C.N.c.k.k.k.k.j.k.k.k.w.5 |  .W &  .D $ ` { { ' K u <.j.d.d.d.d.d.h.h.h.l.l.v.v.v.z.l.l.f.f.d.f.f.h.h.h.j.l.v.v.A.",
"c.B.Z.G.J.Z.C.C.C.N.b.k.j.k.j.j.j.f.5 |  .W $ % $ 4 ` W L u V e.l.j.j.d.d.d.d.d.d.l.l.h.l.v.v.v.v.v.l.j.f.f.d.f.j.d.h.h.h.l.l.v.",
"N.N.C.Z.G.G.F.F.C.B.b.k.x.x.k.j.s.d |  .{ $ 9.  X @ A y.N.V.B.z.l.l.j.j.d.d.d.d.d.h.h.h.h.j.v.v.A.v.l.l.j.h.h.f.d.d.h.h.h.h.j.v.",
"c.C.N.B.Z.J.J.J.Z.Z.Z.b.c.c.k.k.1 6  . .# } q.q.K t.z.N.A.A.A.B.v.l.l.h.h.h.h.h.d.d.d.h.h.h.h.x.v.C.v.v.l.l.h.h.d.d.d.j.d.d.j.l.",
"c.c.N.N.Z.Z.J.Z.Z.Z.C.C.N.N.c.0 c c 1 = * } q.;...z.c.z.B.A.A.A.b.v.l.l.l.h.h.h.d.d.d.h.h.h.h.l.l.v.v.v.l.l.l.h.d.d.d.d.d.d.d.d.",
"c.c.c.N.N.Z.Z.J.G.F.Z.Z.N.N.u.G Y 6 : o ; X o < z.z.c.z.N.B.C.S.A.A.v.l.l.j.h.h.d.d.d.d.j.d.d.h.l.l.v.v.C.v.v.l.j.h.d.d.d.d.d.d.",
"k.c.N.c.N.Z.Z.J.J.J.F.Z.V.N.m  . . .i / q._ . w.z.k.c.z.z.z.N.C.S.A.A.v.l.l.j.j.h.d.d.d.d.d.d.h.l.h.l.v.v.v.v.l.l.h.d.d.d.d.d.d.",
"x.c.c.N.c.N.N.Z.J.J.J.Z.Z.5.E  . . .> q.q.( q k.z.j.k.z.z.c.N.N.A.S.A.A.v.z.l.l.h.h.h.h.d.d.h.h.h.h.l.l.v.v.v.v.v.l.l.h.d.d.d.d.",
"k.x.c.N.c.N.N.N.F.J.J.J.J.= R R R 6 < / / y k.k.z.z.z.z.z.z.z.c.z.B.A.A.A.v.z.z.l.h.l.h.d.d.d.d.h.h.l.h.l.l.v.v.v.x.l.l.j.d.s.d.",
"c.x.k.c.N.N.N.N.Z.Z.J.J.C c 5.5.N o : ; & c j.k.j.k.k.z.z.z.z.N.M.v.A.A.A.B.A.v.l.l.l.h.h.d.h.h.h.h.h.h.j.l.c.v.v.v.x.l.j.j.d.d.",
"k.c.c.c.c.c.N.N.N.Z.Z.J.; : 5 5 L @ / q.) t.k.j.k.j.k.k.z.z.z.z.z.z.M.A.S.A.A.A.v.v.l.l.h.d.h.h.h.h.h.l.h.j.l.l.v.v.v.v.l.j.d.d.",
"k.k.k.k.c.c.N.N.N.Z.Z.Z.z  . . . .< q.q.P x.k.k.k.x.j.k.x.x.k.c.z.z.z.A.A.A.A.A.A.v.z.j.j.j.j.j.h.j.h.j.j.h.l.j.l.v.A.B.z.l.h.j.",
"c.c.x.k.k.c.c.N.N.N.V.i.Q  . . .{ 3 q.q.U x.k.k.k.j.k.k.k.x.n.z.z.z.l.v.M.A.S.w e #.Z :.d.l.h.j.h.h.h.j.h.f.d.h.j.l.z.A.v.v.z.l.",
"k.c.c.k.k.c.c.N.N.N.N.-.|  . . .J s q.q.h c.z.z.j.k.k.k.k.x.k.k.z.z.z.M.M.z.A.  P.P.P.K.+.*.j.j.j.d.h.j.h.j.h.j.j.j.l.z.A.v.v.l.",
"c.x.c.k.c.x.x.c.N.N.N.$. . . . .J K q.9.z N.c.N.k.k.k.k.k.k.j.k.z.z.z.z.z.l.p.. P.P.P.P.P.m.B d.j.j.h.j.h.h.h.h.h.j.h.z.z.v.v.v.",
"N.k.k.c.c.c.k.c.N.N.N.%. . . . .W 3 T ; ; N.v.c.k.k.k.k.k.j.k.k.l.z.l.l.z.k K 7 a.P.P.P.P.P.L.f 2.z.j.l.j.j.h.h.h.l.l.h.l.c.v.v.",
"c.c.k.k.z.z.c.k.k.N.k.X. . . . .]   c - y Z.B.N.N.k.k.k.k.j.k.k.z.l.z.p.u O H q.# +.P.P.P.P.P.L.Z h.l.l.j.h.j.h.h.h.h.l.j.j.z.v.",
"N.N.N.k.k.k.z.z.z.z.N.X. . . .6 c . t q.) g.Z.B.N.k.k.k.k.k.x.j.l.l.,.s 0.K + q.q.I O.P.P.P.P.P.L.c l.l.l.j.h.j.h.h.l.h.l.h.h.z.",
"N.c.c.k.z.z.z.c.z.k.z.@. .W : =.: > _ q.q.l N.Z.N.N.k.k.k.k.k.x.p...( q.q.;.  / q.q.H S P.P.P.P.P.m.>.z.l.l.j.h.h.j.h.h.h.h.h.z.",
"B.B.b.k.k.k.k.k.z.B.z.%.5 c a.= ] { < q.q.0.h 4.Z.N.N.c.k.k.1.n H 9.q.q.q.q.7 7 q.q.q.s +.P.P.P.P.P.A v.N.z.l.l.j.h.h.h.j.h.h.l.",
"C.B.N.c.k.b.c.k.k.z.z.S a.+.5  . . .6 / q.q.q.* : z ..d L P a o q.q.q.q.q.q.l 7 ;.0.q.q.a -.P.P.P.P.m.<.B.z.l.z.l.j.h.l.l.h.h.h.",
"Z.B.N.N.c.k.k.c.z.N.k.w.: L  . . . . .# 9.q.( ; ! q.q.q.q.q.( o / q.q.q.q.q.;.7 9 q.q.q.q.7 M.P.P.P.P.Z A.M.z.z.l.j.j.a.a.l.l.h.",
"Z.Z.Z.B.N.c.x.k.z.z.z.g.p  . . . . . .{ # 9.- q q.q.q.q.q.q.( ; / q.q.q.q.q.q.7 w 8.q.q.q.< X P.P.P.P.A A.b.C.z.z.l.l.j.l.h.l.l.",
"H.Z.Z.N.N.b.k.k.z.z.z.z.N |  . . . . . .{ + w 1 q.q.q.q.q.q.} : a q.q.q.q.q.q.U #.l q.K # E J n P.P.P.,.D.F.A.N.z.l.l.l.l.j.j.l.",
"J.F.Z.Z.N.N.c.k.c.c.z.k.i.P  . . . . . . .- * r q.q.q.q.q.q.q.c t q.q.q.q.q.q.;.w O # D  . . .7 P.P.P.m.S.D.S.V.A.B.z.l.l.j.l.j.",
"H.Z.Z.Z.N.C.N.c.z.k.k.k.k.A [  . . . . .` c - J $ 1 ^ q.q.q.q.v - q.q.q.q.q.K , X w K  . . . .F :.P.P.m.C.A.D.A.S.B.M.l.z.z.l.j.",
"Z.J.Z.Z.Z.N.N.N.k.z.k.k.k.k.d |  . . . .1 6.j  . .{ L % @ 5 6 : : ( r % r $ F  .s a.-  . . . .{ 7 P.P.7.v.M.S.D.S.S.A.z.n.z.j.z.",
"Z.J.Z.Z.Z.Z.V.N.N.N.k.k.c.k.k.2 |  . .] f 0 {  . . . . . . .W : O R ]  . . . . .{ q N ]  . . .| * L.K.B N.n.N.Z.H.S.Z.C.B.c.z.k.",
"Z.Z.J.J.Z.Z.Z.N.N.N.k.k.k.k.k.r.2 |  .1 M.1  . . . . . . . . .f 0  . . . . . . . .1 K.1  . .] g y.S &.h.N.k.c.N.Z.H.S.S.Z.B.z.z.",
"M.V.Z.J.J.Z.V.V.N.N.k.k.k.k.k.k.g.d ^ 0 $.P  . . . . . . . . .f f  . . . . . . . .L g.8 ] p #.k.k.z.z.z.N.N.k.n.N.Z.D.S.S.V.B.z.",
"N.V.Z.D.Z.Z.V.Z.N.N.N.k.N.k.k.k.k.k.v o.1  . . . . . . . . . .f o.R  . . . . . . .{ : O 8 f.N.k.k.z.k.k.k.z.k.N.N.N.Z.H.S.Z.Z.C.",
"N.V.V.Z.H.D.Z.Z.Z.N.N.k.k.k.k.k.k.k.k.i.e L {  . . . . . . . .o 5.Y  . . . . .{ Y x n g.N.c.k.k.k.k.z.k.k.k.N.k.z.N.V.S.H.H.S.S.",
"k.N.N.Z.Z.K.J.Z.Z.N.N.c.k.N.c.N.k.k.k.k.k.k.#.x L ] {  . . . .o a.6  .' ! L ..#.N.Z.V.N.N.N.k.k.z.z.k.k.x.n.k.k.k.x.n.B.V.D.S.S.",
"N.N.N.V.Z.J.J.Z.Z.Z.N.N.c.c.N.k.k.k.k.k.k.k.N.k.k.g.,.%.%.3.3.v +.v 5.5.i.N.N.Z.Z.J.J.Z.B.N.N.k.z.c.k.k.k.k.k.N.N.k.c.z.B.V.D.S.",
"k.N.N.N.Z.Z.K.J.Z.Z.Z.N.N.k.N.k.N.k.k.k.k.k.c.k.N.k.N.N.Z.Z.D.D.Z.Z.V.V.N.N.N.N.B.Z.D.D.S.Z.B.N.c.k.k.k.k.x.k.z.z.k.z.x.n.N.S.H.",
"N.N.N.N.V.V.H.H.D.Z.Z.N.N.k.k.k.c.k.k.k.k.c.k.k.k.k.M.N.V.V.Z.Z.Z.Z.H.Z.V.N.N.N.N.N.Z.J.H.Z.Z.V.N.k.k.k.k.k.k.k.z.n.z.N.k.k.N.Z.",
"k.N.k.N.N.V.D.D.H.Z.Z.Z.Z.N.k.N.k.k.k.k.k.k.k.c.N.k.N.N.N.V.Z.Z.Z.J.Z.Z.V.N.N.N.N.N.N.Z.H.J.D.Z.Z.N.N.N.c.k.k.k.x.x.z.z.z.N.N.N.",
"N.N.k.N.N.N.V.D.J.D.D.Z.Z.N.N.k.k.k.k.k.k.k.k.k.k.k.N.N.N.N.Z.Z.Z.Z.Z.Z.Z.N.N.k.N.k.N.N.Z.H.Z.Z.Z.B.N.k.c.c.k.j.x.x.z.z.z.k.k.N.",
"N.N.N.N.k.N.N.Z.H.J.H.D.Z.Z.N.N.N.k.k.N.k.k.k.k.k.k.k.k.N.N.N.N.Z.Z.Z.Z.Z.N.N.N.k.N.N.N.N.Z.J.J.Z.Z.B.N.c.c.c.k.k.k.z.k.k.z.k.n.",
"N.N.k.N.N.N.N.N.Z.H.H.H.Z.Z.Z.N.c.c.k.k.k.k.k.k.k.k.k.k.k.N.M.V.Z.Z.Z.D.Z.Z.N.N.N.k.N.N.N.N.Z.Z.J.J.Z.Z.N.c.k.k.k.k.k.k.z.z.N.k.",
"k.k.N.N.k.N.N.N.N.D.H.H.D.Z.Z.N.N.N.c.k.k.k.k.k.k.k.k.k.k.N.N.N.N.Z.Z.D.Z.Z.Z.N.N.N.k.k.k.N.V.Z.J.Z.Z.Z.Z.C.N.c.z.k.k.k.z.k.k.k.",
"k.N.k.k.k.N.N.N.N.V.D.H.J.D.Z.Z.V.N.k.N.k.k.k.k.k.k.k.k.k.N.k.N.N.N.Z.D.D.Z.Z.Z.N.N.N.N.N.k.N.N.Z.Z.J.Z.Z.Z.B.c.z.z.k.k.k.k.k.k.",
"k.k.c.k.N.k.k.N.N.N.Z.D.J.J.D.Z.N.N.N.k.k.N.k.N.k.k.k.k.k.k.N.k.N.N.N.Z.Z.D.Z.Z.N.N.k.k.k.N.k.N.N.Z.J.J.Z.Z.C.B.N.c.c.c.k.k.k.k."
};
