/* XPM */
static char *result[] = {
/* columns rows colors chars-per-pixel */
"64 64 164 2 ",
"   c #34261A",
".  c #37281C",
"X  c #3A2B1D",
"o  c #3C2D20",
"O  c #3E3022",
"+  c #432B1B",
"@  c #4C2E1D",
"#  c #4D321D",
"$  c #54341E",
"%  c #5F361F",
"&  c #60371F",
"*  c #412F20",
"=  c #443324",
"-  c #4B3524",
";  c #4D3926",
":  c #463628",
">  c #4D3B2B",
",  c #5C3B25",
"<  c #573A28",
"1  c #553C29",
"2  c #4E3E30",
"3  c #543F30",
"4  c #633C21",
"5  c #6E3F23",
"6  c #57402D",
"7  c #5E412D",
"8  c #554333",
"9  c #5B4B3B",
"0  c #6E4427",
"q  c #62442C",
"w  c #69472B",
"e  c #6C452E",
"r  c #734123",
"t  c #714827",
"y  c #714D2D",
"u  c #7D492C",
"i  c #664936",
"p  c #6D4C35",
"a  c #624E3B",
"s  c #6B4F39",
"d  c #744E34",
"f  c #7D4D31",
"g  c #61503F",
"h  c #6B513D",
"j  c #7E5235",
"k  c #7A5537",
"l  c #765039",
"z  c #79543A",
"x  c #635344",
"c  c #6A5543",
"v  c #6E5C4B",
"b  c #735641",
"n  c #705947",
"m  c #7A5F4C",
"M  c #6F604F",
"N  c #7C6047",
"B  c #74614E",
"V  c #7B624E",
"C  c #716150",
"Z  c #7A6451",
"A  c #7E6956",
"S  c #766959",
"D  c #7D6C5A",
"F  c #7C7263",
"G  c #804425",
"H  c #8F4B26",
"J  c #984F27",
"K  c #82542E",
"L  c #8F502E",
"P  c #95532F",
"I  c #9F5229",
"U  c #905B2C",
"Y  c #815334",
"T  c #8D5232",
"R  c #8B5C37",
"E  c #965833",
"W  c #A15127",
"Q  c #AB592F",
"!  c #B2592C",
"~  c #BA5C2C",
"^  c #A95D34",
"/  c #A75F38",
"(  c #A16632",
")  c #A26836",
"_  c #AE6E35",
"`  c #B56034",
"'  c #B47336",
"]  c #C6612F",
"[  c #D0642F",
"{  c #C66131",
"}  c #D06631",
"|  c #DC6A32",
" . c #C97F3C",
".. c #E97035",
"X. c #F57537",
"o. c #855C42",
"O. c #846955",
"+. c #836E5A",
"@. c #83705F",
"#. c #89725C",
"$. c #867663",
"%. c #8E7B67",
"&. c #817968",
"*. c #897C6B",
"=. c #927B65",
"-. c #947F69",
";. c #D3853E",
":. c #8F806D",
">. c #90806D",
",. c #8D8373",
"<. c #8F8878",
"1. c #928574",
"2. c #9D8A75",
"3. c #958C7B",
"4. c #97907E",
"5. c #9D907F",
"6. c #A48F77",
"7. c #A69077",
"8. c #A7927A",
"9. c #E08C41",
"0. c #EC9344",
"q. c #F89B47",
"w. c #9F9888",
"e. c #A99783",
"r. c #A69C8C",
"t. c #A7A08E",
"y. c #A8A18F",
"u. c #B8A186",
"i. c #B8A188",
"p. c #A7A190",
"a. c #ACA493",
"s. c #AFA897",
"d. c #AFA999",
"f. c #B0A795",
"g. c #B2A997",
"h. c #B3AD9B",
"j. c #B9AF9D",
"k. c #B6B09E",
"l. c #BBB19F",
"z. c #B7B2A0",
"x. c #BCB3A1",
"c. c #BEB9A6",
"v. c #BFBAA8",
"b. c #C7AF94",
"n. c #CAB296",
"m. c #C0B29F",
"M. c #CDB499",
"N. c #C1B6A3",
"B. c #C3B9A6",
"V. c #C8BBA7",
"C. c #C4BCA9",
"Z. c #CABEAB",
"A. c #D8BEA1",
"S. c #C6C0AD",
"D. c #CCC1AE",
"F. c #D1C3AF",
"G. c #CEC4B1",
"H. c #CFC8B5",
"J. c #D2C6B2",
"K. c #D5C9B4",
"L. c #D8CBB6",
"P. c #E4CAAB",
"I. c #F0D5B5",
"U. c #FDE1C0",
/* pixels */
"h.z.z.v.S.S.S.v.v.z.z.z.z.d.z.d.z.z.z.z.z.c.v.S.S.c.z.z.z.k.h.z.z.z.z.c.v.S.H.H.C.C.c.x.x.z.x.x.c.x.C.Z.J.K.H.H.Z.C.C.C.B.B.N.B.",
"k.k.z.z.v.v.S.S.S.v.v.z.z.z.z.d.z.z.z.z.z.z.c.S.S.S.v.c.k.z.h.h.h.k.z.z.c.v.S.H.H.S.C.c.x.x.z.z.l.x.x.B.Z.Z.K.L.H.G.Z.C.C.B.N.B.",
"z.z.k.k.z.v.v.v.S.v.v.z.z.z.d.z.z.d.z.z.h.z.z.c.S.S.v.v.z.z.h.h.h.z.h.z.c.l.v.S.K.H.S.S.v.c.x.x.z.x.x.x.x.C.Z.G.H.H.H.Z.C.C.B.v.",
"d.d.d.z.z.z.v.v.S.S.v.v.z.z.z.d.d.d.d.d.d.z.z.z.c.v.S.v.c.c.k.k.h.h.h.z.k.k.l.c.S.S.D.D.C.c.x.z.l.x.z.x.x.x.B.C.Z.L.H.H.Z.Z.C.N.",
"h.h.d.z.z.z.z.z.v.S.S.v.v.z.z.z.z.d.z.z.h.z.z.h.k.k.C.S.C.v.c.k.h.h.h.h.k.k.k.k.c.C.S.S.S.C.C.l.x.z.z.l.l.x.x.B.C.Z.H.L.Z.Z.Z.Z.",
"d.d.d.z.z.d.z.z.c.v.S.v.v.v.v.z.h.d.d.d.d.d.d.k.d.k.k.v.S.C.c.c.z.h.h.h.h.h.h.k.k.k.C.S.S.S.S.c.x.z.l.h.z.z.l.l.x.B.Z.Z.L.H.Z.Z.",
"h.z.d.h.d.d.z.z.z.z.v.S.v.v.v.z.h.z.h.d.h.d.h.h.k.k.g.k.c.S.v.v.c.z.h.d.k.k.d.k.k.k.k.B.S.S.S.S.v.x.z.z.z.z.l.z.x.x.B.C.Z.H.L.H.",
"z.d.d.d.d.z.d.z.z.z.z.v.S.v.v.v.z.z.z.h.h.d.d.h.k.k.k.d.k.k.S.v.v.c.z.k.s.s.s.h.k.k.k.k.c.D.S.S.C.v.x.x.z.j.z.j.z.x.x.x.C.Z.H.H.",
"z.d.d.d.d.d.d.h.k.k.k.z.v.S.S.v.c.x.z.d.h.d.d.h.h.k.d.k.k.k.l.S.v.c.c.k.d.d.k.d.d.d.k.k.k.x.S.S.S.C.C.z.z.z.z.j.z.h.z.N.x.N.Z.Z.",
"z.d.z.d.d.d.h.h.d.h.h.k.z.v.C.C.C.c.z.z.z.d.d.h.d.&.x h N 6 s o.a g :.5.k.g.d.k.d.k.d.d.g.k.k.C.S.Z.C.v.x.z.j.z.j.z.h.h.x.x.B.Z.",
"z.d.h.d.z.d.h.h.h.h.h.k.k.k.v.C.C.3.$.,.k.r.D h k O c 0 X.X.X.X.X.X.X.[ ; 9 ; 2.g.k.k.d.k.k.k.k.v.S.G.C.B.x.z.z.j.z.h.j.j.z.v.x.",
"z.z.z.d.h.h.d.d.h.d.h.k.k.k.k.c.s.u.I.b.> E | X.X.8 P.7 X.X.X.X.X.X.X.X.8 7.u X.~ k @.p.d.h.h.k.x.v.C.C.C.v.z.z.h.h.z.h.h.j.j.z.",
"v.z.z.h.d.k.d.k.d.k.d.k.k.k.k.k.F U.U.U.X X.X.X.X.; U.7 X.X.X.X.X.X.X.] g g ] X.X.X...K n a.d.h.k.z.x.C.C.C.v.v.z.z.h.h.j.h.j.j.",
"v.v.z.z.h.h.d.d.k.d.k.d.k.k.k.k.%.U.U.U.q X.X.X.X.6 U.7 X.X.X.X.X.X.X.J 7.6 X.X.X.X.X.X...u D h.d.k.z.z.C.C.C.v.x.z.j.z.h.h.h.j.",
"C.v.v.z.k.h.d.d.d.d.d.k.k.k.k.k.n.U.U.U.q X.X.X.X.u 6.= X.X.X.X.X.X.X.t u.6 X.X.X.X.X.X.X.X.` h p.h.h.h.z.C.C.C.v.v.z.j.h.h.h.h.",
"H.v.v.z.k.z.k.d.h.k.k.d.g.k.k.4.n.U.U.U.1 X.X.X.X.J c X 4 4 % % 5 W ] 7 u.j X.X.X.X.X.X.X.X.X.} : p.h.h.h.z.v.C.C.C.v.z.z.h.h.h.",
"H.v.C.v.v.z.h.h.h.h.h.h.h.d.h.F m.U.U.U.3 { G % $ 4 ; ; ;.q.q.q.( ( 7 . o r X.X.X.X.X.X.X.X.X.- A.> p.d.d.h.k.x.C.S.c.l.k.k.k.g.",
"H.H.Z.C.v.v.z.h.j.d.h.h.h.h.h.<.m.U.U.U.5.o ` q.q.q.8 9 q.q.q.q.q.q.q.6 6 U $ % | X.X.X.X.X.u =.v P h d.g.h.h.k.k.C.S.S.c.k.k.k.",
"Z.H.C.C.B.v.x.z.z.h.h.h.h.h.z.3.i.U.U.U.U.2 q.q.q.q.8 ; q.q.q.q.q.q.q.x 6 q.q.;.# H X.X.X.] 9 =.u X.} B s.d.s.h.k.k.B.S.v.c.k.k.",
"Z.H.Z.H.Z.C.v.x.z.j.h.h.z.h.z.d.O.U.U.U.U.@./ q.q.q.6 8 q.q.q.q.q.q.' 9 w q.q.q.q.U # | X.= 7.1 X.X.X.T w.s.s.h.h.k.k.c.S.v.c.k.",
"C.Z.H.Z.Z.Z.C.v.z.j.j.j.z.d.j.d.S U.U.U.U.U.> q.q.q.w 8 q.q.q.q.q.q.( 8 ' q.q.q.q.q.9.$ 1 7.; X.X.X.X...h d.d.h.g.g.k.k.l.C.c.c.",
"B.Z.H.L.H.Z.Z.C.v.v.j.j.z.h.j.j.*.b.U.U.U.U.6.Y q.q.( : q.q.q.q.q.q.7 6 q.q.q.q.q.q.q.( . ; | X.X.X.X.X.E w.a.s.g.d.g.d.k.c.c.C.",
"v.B.Z.H.H.Z.Z.Z.C.N.x.z.j.j.j.d.j.M U.U.U.U.U.> ;.q. .   .q.q.q.q.q.6 ; q.q.q.q.q.q.9.6 8 # X.X.X.X.X.X...v a.d.d.d.g.g.g.k.k.v.",
"v.N.C.Z.H.H.Z.H.Z.v.N.z.j.j.j.h.h.*.b.U.U.U.U.M.q q.q.  ( q.q.q.;.( 6 6 R j K _ 0.q.6 8 ) t I X.X.X.X.X.X.j h.s.d.d.d.d.d.h.k.l.",
"x.N.N.B.Z.L.H.H.Z.Z.Z.v.x.x.z.z.j.j.v I.U.U.U.U.C / q.: ( 0.( j #.y.k.h.g.g.s.<.k q O k q.q.# X.X.X.X.X.X.K h.g.s.d.s.d.s.g.h.k.",
"x.x.N.B.Z.Z.K.Z.Z.Z.Z.B.B.x.z.j.j.j.a.M I.U.U.U.U.= q.* q z h.S.S.l.k.k.k.g.g.g.s.<.# ;.q.q.t ] X.X.X.X.X.Q 4.d.s.s.s.d.d.s.s.s.",
"x.x.x.x.B.Z.J.J.H.Z.Z.Z.B.N.N.j.j.h.j.a.C I.U.U.U.* b +.a.B.C.Z.S.S.l.l.k.d.g.d.s.s.d.y q.q.;.% X.X.X.X.I ; <.k.g.s.s.s.s.s.s.s.",
"x.x.x.N.N.B.Z.J.L.H.H.Z.C.B.B.j.z.z.j.j.d.x i.U.U.  l.l.x.x.c.Z.S.S.S.c.l.k.h.h.h.s.s.4.( q.q.$ X.| y 6 D n.y.l.z.h.s.s.s.s.s.s.",
"x.x.x.v.x.m.N.Z.K.L.K.G.Z.Z.C.N.x.j.j.h.j.j.*.D > S j.x.j.x.x.N.V.S.S.C.c.l.k.k.h.d.s.s.K q.q.$ < 8 7.:.8 ; S.l.c.k.k.g.s.s.s.s.",
"j.j.x.x.m.x.N.B.G.K.K.J.H.Z.C.C.N.z.j.h.j.h.j.h.j.j.l.z.l.l.l.N.c.V.S.D.S.c.l.l.k.k.h.s.R U ; . B 6 1 H X.~ l.S.c.k.k.k.h.s.s.s.",
"x.z.x.x.N.m.N.N.Z.Z.L.K.K.Z.Z.C.B.x.x.x.h.j.h.h.j.j.j.z.l.l.l.x.m.c.V.D.S.B.S.c.l.k.k.d.O 8 8 . ! X.X.X.X.U x.c.c.c.z.k.k.s.s.s.",
"z.j.x.x.v.x.N.N.N.B.Z.K.K.G.G.Z.C.N.x.x.x.j.j.j.j.h.h.j.x.l.l.l.l.l.B.S.S.S.S.S.v.x.k.p.# ' q.& X.X.X.X.0.g.k.k.c.c.c.c.k.h.s.s.",
"j.x.j.j.x.x.N.B.N.V.Z.F.L.J.J.D.Z.Z.v.x.x.j.j.j.j.j.j.j.j.j.j.m.l.n.N.C.V.D.D.S.C.c.l.+.;.q.q.$ X.X.X.X.| h.h.h.h.c.S.l.l.k.k.h.",
"j.x.z.j.j.x.x.N.N.N.N.Z.J.J.J.J.G.Z.B.N.x.j.j.j.j.h.j.j.j.j.m.j.l.l.l.B.c.C.D.D.S.S.C.y q.q.U H X.X.X.X.Y g.g.h.h.l.k.S.S.l.k.k.",
"x.z.x.j.x.x.x.x.N.N.N.V.F.J.L.K.D.Z.Z.N.v.x.j.j.j.j.j.j.j.j.j.j.l.l.l.l.c.c.C.G.G.S.8._ q.q.$ X.X.X.X...+.g.s.h.g.h.k.l.S.c.l.k.",
"j.x.x.j.x.j.j.x.N.x.m.N.V.F.J.J.G.J.G.Z.B.N.N.x.j.j.j.j.j.j.j.d.k.l.l.l.l.n.N.C.D.G.p q.q.;.& X.X.X.X.L s.h.g.g.g.h.h.j.l.c.S.c.",
"x.x.j.x.x.x.j.x.x.N.x.m.V.Z.Z.J.K.J.J.Z.V.N.N.N.j.j.j.j.j.j.j.j.l.l.l.l.l.l.N.V.C.n X = a . < H ! X.| Z h.h.h.s.g.k.k.g.k.l.c.c.",
"x.x.x.j.j.x.x.j.x.m.N.m.N.N.Z.J.L.L.J.G.D.Z.B.N.j.j.j.j.j.f.j.j.l.l.l.l.k.l.l.N.A ( ' d + X +.-.B g X a.h.d.s.h.g.g.g.g.g.k.k.N.",
"v.v.x.j.j.j.j.j.x.x.N.N.N.N.m.Z.J.L.K.J.G.D.Z.B.x.x.j.j.j.j.j.d.g.l.l.l.l.l.l.a # q.q.9.# X.W q 6 o >.h.h.h.h.g.k.g.g.k.g.k.g.k.",
"N.x.j.j.j.j.j.x.x.j.N.x.m.N.N.V.Z.J.L.J.H.G.G.Z.N.x.x.j.j.j.j.j.g.l.k.g.l.k.N   = K q.# | X.X.X.) *.N.x.l.k.h.g.g.k.k.g.g.g.g.k.",
"B.B.x.x.j.x.j.x.x.x.x.x.N.N.N.N.B.Z.K.L.J.J.F.Z.Z.N.N.j.N.j.j.j.l.k.k.k.a.w ;.9.6 : X , X.X.X.^ >.S.S.m.l.l.l.k.g.d.g.g.g.g.g.h.",
"Z.B.N.x.j.x.x.j.j.x.j.N.N.x.m.m.N.Z.Z.J.L.K.J.F.Z.Z.B.m.a.1.O.m N N +.4.w 0.q.q.;.$ = g 6 q P >.J.F.S.S.S.l.k.l.k.g.g.g.k.h.h.g.",
"Z.B.N.N.x.j.j.x.x.x.N.j.j.j.N.x.N.N.Z.Z.J.L.K.J.F.m.O.l L Q [ | | | ~ W X   w ;.$ ! X.u > ; B V.S.F.F.S.S.l.l.l.k.g.k.g.g.l.h.g.",
"Z.Z.B.B.N.x.j.j.j.x.j.j.x.j.N.N.N.N.B.Z.Z.J.L.J.e.i { | | | | | | ! % # H H # & | X.X.[ p 5.l.m.V.S.F.F.S.S.V.l.l.k.h.k.k.g.h.k.",
"D.Z.Z.N.v.x.j.j.j.j.j.x.x.x.x.N.m.N.N.V.Z.Z.J.m.e | | | | | | | % % ] X.X.+ W X.X...T V l.m.m.m.m.m.S.F.F.F.S.m.N.l.k.k.g.k.h.h.",
"K.G.Z.Z.v.N.x.j.x.x.x.j.j.j.x.x.m.N.m.V.N.Z.Z.j.G ~ | | ~ ! e @ ! X.X.X.W 5 X.[ T z r.l.l.l.l.m.l.m.m.V.S.F.S.S.C.m.l.l.l.g.g.j.",
"J.J.Z.Z.Z.B.v.x.j.j.j.j.j.j.x.m.m.m.m.V.m.V.Z.F.m.%.O.O.@.1.l X.X.X.X...h %.V %.t.l.h.j.l.l.l.l.l.B.B.n.S.S.F.S.D.B.N.l.l.h.l.l.",
"F.J.D.Z.B.B.B.x.j.x.j.j.m.j.m.x.j.x.m.m.m.V.V.V.F.J.J.J.N.l X.X.X.X...y l.l.l.l.k.l.j.l.l.h.j.l.l.l.l.l.n.B.D.F.D.S.V.B.l.l.j.h.",
"Z.J.J.F.Z.V.V.m.N.j.j.j.j.j.j.j.j.N.m.N.N.B.V.V.V.Z.F.J.@.| X.X.X...i j.Z.N.N.x.j.j.x.j.j.j.j.x.l.l.l.l.m.m.V.F.J.F.D.m.S.m.l.k.",
"V.Z.J.F.Z.Z.V.N.N.N.N.j.x.j.j.x.x.j.N.j.N.N.V.V.V.Z.F.J.l X.X.X...l d.Z.Z.Z.Z.x.x.x.j.j.j.j.j.j.l.j.l.l.l.m.l.m.S.F.D.S.S.m.m.l.",
"m.Z.Z.J.F.F.N.Z.N.N.j.j.x.j.j.j.j.N.j.N.m.N.N.Z.V.Z.Z.F.T X.X.Q h j.B.Z.Z.G.D.B.N.x.x.j.j.x.j.j.j.l.j.l.l.m.l.m.m.S.F.D.S.V.m.m.",
"N.N.Z.F.F.F.Z.N.Z.x.N.j.x.j.j.j.j.j.j.j.j.N.N.B.N.V.Z.Z.m f m e.Z.Z.B.N.Z.D.J.H.Z.N.N.N.j.x.j.j.j.j.j.l.l.m.l.m.m.S.D.F.F.D.S.S.",
"N.N.Z.Z.J.J.F.Z.Z.N.N.j.j.j.j.j.j.j.j.j.j.N.N.N.N.V.V.Z.Z.F.F.Z.Z.V.N.N.B.Z.G.H.J.C.N.N.N.x.j.x.j.j.l.j.j.l.l.l.m.m.S.F.F.F.S.D.",
"m.m.N.Z.F.J.F.F.Z.N.N.N.x.x.x.x.j.j.x.j.j.j.x.N.m.V.Z.Z.Z.Z.Z.F.Z.Z.Z.N.N.B.Z.Z.J.J.Z.N.N.N.j.j.l.l.j.l.j.l.l.k.l.l.l.m.S.F.F.D.",
"m.N.V.V.Z.L.F.F.Z.Z.N.N.N.j.x.N.j.j.j.x.j.m.x.x.N.V.N.V.V.Z.F.F.D.Z.Z.N.N.N.N.B.Z.J.J.Z.C.N.N.j.l.l.l.j.j.j.j.n.l.l.l.m.m.S.F.F.",
"m.N.m.N.Z.F.F.F.Z.B.Z.x.N.N.x.j.j.j.j.j.j.j.x.j.m.m.m.V.N.Z.F.F.D.Z.Z.V.N.N.N.N.Z.Z.J.J.Z.Z.C.N.l.l.l.j.j.j.j.l.l.l.l.m.m.m.S.F.",
"x.x.N.N.N.Z.J.L.J.Z.Z.N.m.j.m.j.x.x.j.j.j.j.j.j.j.m.m.V.V.Z.Z.Z.F.Z.Z.Z.B.N.N.m.N.N.Z.J.J.D.Z.C.m.x.x.x.x.j.j.l.l.l.l.l.m.m.V.V.",
"N.N.m.N.N.N.F.J.J.Z.Z.Z.Z.m.N.j.j.j.j.j.j.j.j.j.j.j.m.B.N.B.Z.Z.Z.F.F.Z.B.N.N.N.j.N.C.Z.J.J.D.Z.B.N.m.x.x.j.j.j.l.l.l.l.l.l.l.m.",
"j.N.N.N.N.N.Z.Z.J.J.J.Z.Z.N.N.j.j.j.j.j.j.j.j.j.m.m.N.j.m.N.Z.Z.Z.F.Z.Z.Z.B.N.j.j.N.N.N.Z.J.J.Z.Z.B.m.x.j.x.j.h.j.k.l.l.l.l.l.m.",
"N.N.N.m.m.N.N.Z.J.L.J.F.Z.Z.N.N.x.x.x.x.x.j.j.j.j.j.j.N.m.m.N.N.Z.Z.Z.Z.Z.B.N.N.N.N.N.N.N.Z.J.J.Z.Z.C.m.x.x.l.j.j.j.l.l.l.l.l.m.",
"x.x.x.v.N.j.N.N.Z.J.J.J.Z.Z.Z.N.x.x.j.j.j.j.j.j.j.j.j.j.j.N.N.Z.Z.Z.Z.F.Z.Z.N.N.N.j.N.N.N.N.Z.Z.L.Z.Z.Z.N.x.l.l.j.l.h.x.l.l.l.l.",
"x.x.j.N.j.N.B.B.Z.J.J.J.J.Z.Z.N.N.N.x.j.j.j.j.j.j.j.j.j.m.N.N.N.N.Z.Z.Z.Z.Z.Z.B.N.N.j.j.x.m.B.Z.Z.L.Z.Z.C.C.x.x.l.j.j.h.l.l.l.l.",
"j.x.j.N.m.N.N.N.m.Z.Z.J.J.J.Z.Z.v.N.x.x.j.j.j.j.j.j.j.j.j.N.m.m.m.V.Z.Z.J.Z.Z.Z.N.N.m.x.x.x.N.N.Z.Z.L.J.Z.C.B.x.x.l.j.l.l.j.l.j.",
"j.x.j.j.j.m.m.m.m.m.Z.J.K.J.G.Z.B.v.N.x.j.x.N.j.j.j.j.j.j.j.m.m.m.m.Z.Z.Z.Z.Z.Z.N.N.j.x.x.x.N.j.N.Z.K.K.J.Z.B.B.x.x.x.j.j.j.j.j."
};
