/* XPM */
static char *e85acaaf0b9247fcbedc60c0436e1ea60kbRKNYlKARLbdBP[] = {
/* columns rows colors chars-per-pixel */
"64 64 192 2 ",
"   c #1B1B1B",
".  c #281F1B",
"X  c gray16",
"o  c #42281B",
"O  c #512D1C",
"+  c #793A1D",
"@  c #933D1F",
"#  c #843221",
"$  c #913522",
"%  c #A93D23",
"&  c #B93E24",
"*  c #AE4A1F",
"=  c #AD4022",
"-  c #BA4622",
";  c #BA4C22",
":  c #B94429",
">  c #BB5020",
",  c #BA5836",
"<  c #C74226",
"1  c #C84425",
"2  c #C54E2D",
"3  c #D44526",
"4  c #C95421",
"5  c #D75A20",
"6  c #CD4E32",
"7  c #D8593B",
"8  c #E14727",
"9  c #EF4B28",
"0  c #F04C28",
"q  c #E45E20",
"w  c #E0502C",
"e  c #EB512F",
"r  c #F15F23",
"t  c #E75635",
"y  c #E95535",
"u  c #EA5837",
"i  c #E55D3E",
"p  c #EA5A39",
"a  c #F05B3D",
"s  c #DD652D",
"d  c #CB6331",
"f  c #D7623B",
"g  c #EE6626",
"h  c #E86528",
"j  c #EE692A",
"k  c #F26321",
"l  c #EB6D31",
"z  c #E67036",
"x  c #E97138",
"c  c #EA733A",
"v  c #B05E41",
"b  c #BA6446",
"n  c #B76C5D",
"m  c #966B62",
"M  c #E65F40",
"N  c #DF6244",
"B  c #DD694C",
"V  c #DC7F4F",
"C  c #D86F52",
"Z  c #CF795F",
"A  c #DB7154",
"S  c #D57559",
"D  c #D87A58",
"F  c #D9795D",
"G  c #E26446",
"H  c #E46748",
"J  c #E96A4B",
"K  c #F2694B",
"L  c #E47943",
"P  c #E87846",
"I  c #E46F51",
"U  c #E97B55",
"Y  c #E17659",
"T  c #F37358",
"R  c #D27C62",
"E  c #DC7D60",
"W  c #D97E6A",
"Q  c #F57F68",
"!  c #BD8764",
"~  c #BF927C",
"^  c #C3815F",
"/  c #D78355",
"(  c #DD8354",
")  c #D1865C",
"_  c #E7824E",
"`  c #E68857",
"'  c #E7895C",
"]  c #C58766",
"[  c #CB8067",
"{  c #C5856D",
"}  c #CE8269",
"|  c #D68167",
" . c #D98166",
".. c #D3856B",
"X. c #DD856A",
"o. c #D39069",
"O. c #C58D76",
"+. c #CD8A72",
"@. c #C68E78",
"#. c #C98F79",
"$. c #D48D75",
"%. c #C2957D",
"&. c #CC927A",
"*. c #C99878",
"=. c #DC9473",
"-. c #D19A77",
";. c #D3947B",
":. c #DD9B7C",
">. c #E19C73",
",. c #E0A17C",
"<. c #9A9493",
"1. c #BB9783",
"2. c #BE9B85",
"3. c #B69D89",
"4. c #B99F8B",
"5. c #B4A48F",
"6. c #BCA38B",
"7. c #AEA796",
"8. c #AFA997",
"9. c #AFA999",
"0. c #B4A391",
"q. c #BAA794",
"w. c #B1A997",
"e. c #BCAA96",
"r. c #B3AD9B",
"t. c #B9AE9D",
"y. c #B6B09E",
"u. c #BAB19F",
"i. c #B7B1A0",
"p. c #BCB3A1",
"a. c #BEB9A5",
"s. c #BEB9A6",
"d. c #BFBAA8",
"f. c gray69",
"g. c #C49681",
"h. c #C39B86",
"j. c #CA9A83",
"k. c #C69F89",
"l. c #C99F89",
"z. c #D89B87",
"x. c #C4A186",
"c. c #CDA384",
"v. c #C4A48D",
"b. c #CCA38D",
"n. c #CCAA8E",
"m. c #D7A58D",
"M. c #D9A78F",
"N. c #C2A591",
"B. c #C4AB95",
"V. c #C2AD99",
"C. c #CDAD98",
"Z. c #D7AC92",
"A. c #C3B19D",
"S. c #CCB29B",
"D. c #DCB397",
"F. c #E0AB87",
"G. c #C1B6A3",
"H. c #C1B7A5",
"J. c #CBB5A0",
"K. c #C1B9A6",
"L. c #C3B9A6",
"P. c #CABBA6",
"I. c #C5BAA8",
"U. c #C2BCA9",
"Y. c #C2BDAA",
"T. c #C3BEAA",
"R. c #C5BCA9",
"E. c #C5BCAA",
"W. c #C5BFAC",
"Q. c #C8BDAB",
"!. c #CABEAA",
"~. c #D1BBA6",
"^. c #D3BDA8",
"/. c #C6C1AD",
"(. c #C7C1AD",
"). c #C9C1AE",
"_. c #CDC1AE",
"`. c #D1C3AF",
"'. c #D9C2AB",
"]. c #CDC3B0",
"[. c #CDC4B0",
"{. c #CEC5B2",
"}. c #CFC8B5",
"|. c #D2C5B1",
" X c #D0C6B2",
".X c #D3C8B6",
"XX c #D5C9B4",
"oX c gray83",
"OX c #E1D9D7",
"+X c #FCDFD8",
"@X c #FCE1DA",
"#X c #E2E2E2",
/* pixels */
"r.i.i.d.T././.T.a.a.i.i.i.9.i.9.i.i.i.i.y.a.T./.T.a.a.i.y.i.i.i.i.i.i.s.d./.}.{./.T.a.p.p.p.p.p.d.p.I.W.{..X.X}.!.W.W.I.I.a.H.I.",
"y.y.i.i.a.d./.T.d.d.d.i.i.i.9.i.9.f.i.i.y.i.a.T./.T.a.a.y.r.r.r.r.i.y.y.a.d.].}.{./.I.a.p.p.p.i.p.p.a.I.!.!..X.X|.{.!.E.I.I.H.a.",
"i.i.y.i.y.a././.T.T.d.i.i.y.9.9.r.r.i.r.y.i.y.a.T./.a.a.a.i.y.y.r.i.i.i.u.p.d./..X{././.a.p.p.i.i.p.p.p.H.I.!.]..X.X!.!.!.I.G.H.",
"9.9.9.i.i.y.a.d././.T.d.a.i.f.9.9.9.r.i.y.i.i.y.d.d.T.T.a.a.y.y.r.r.9.i.y.y.y.a./.)._.).I.a.p.p.p.p.r.p.p.p.K.E.{..X.X.X!.!.I.H.",
"r.r.r.f.y.r.i.i.T./.T.d.a.a.i.r.9.9.i.r.r.r.r.i.i.y.T.T.T.a.y.y.r.r.i.r.y.y.y.y.a.T.E.)./.E.d.u.p.r.r.p.p.p.p.K.I.W.|..X.X!.W.!.",
"9.9.9.r.r.r.y.y.a.a./.d.d.a.i.i.i.9.9.9.r.i.r.r.r.y.y.T.T.T.T.y.y.i.9.r.y.r.r.y.y.y.T./.)././.a.p.p.p.i.y.i.i.p.G.U.!.{..X].{.!.",
"r.f.9.r.r.9.i.y.i.a.a.T.T.d.d.a.i.i.i.9.9.9.r.r.r.i.r.y.a.T.T.a.a.i.r.r.r.r.r.r.y.y.u.a./.)././.d.p.i.r.y.t.y.u.p.p.G.I.E..X.X}.",
"r.r.9.9.9.i.9.y.t.r.a.d.T.d.d.d.i.i.9.9.i.9.9.r.r.r.r.r.y.a.T.T.d.a.y.r.r.9.r.r.y.y.y.u.K./.)./.I.d.p.p.y.p.y.y.u.t.i.H.K.!.{..X",
"r.9.9.9.9.9.9.r.r.y.y.y.d./.T.d.a.p.t.y.9.9.9.i.r.9.r.r.r.y.p.I.T.d.a.i.r.9.9.y.9.y.9.y.y.u././.W.W.U.a.i.u.t.t.i.i.u.p.a.G.I.|.",
"i.r.f.9.f.9.r.r.r.r.r.y.i.T.T.T.a.a.i.y.y.9.9.r.9.r.r.8.9.r.y.p.d.T.d.i.y.y.r.9.9.9.9.r.y.y.u.d.].W.T.V.W e t h.r.h.C R k.p.H.I.",
"i.r.r.9.9.9.r.r.r.r.r.y.y.y.a.T.T.T.a.t.y.r.9.9.r.9.r.r.r.r.r.t.a.a.T.a.i.i.r.r.r.r.r.r.y.r.y.y.d.W.$.9 9 9 0 #.t.+.9 9 y #.p.a.",
"i.i.r.r.r.9.r.9.9.r.r.r.y.y.y.a.T./.d.p.i.y.r.9.9.9.8.r.r.9.r.r.r.y.T.T.a.a.i.r.9.r.9.9.9.r.r.y.p.A 9 9 9 9 i t.i.R 9 9 9 0 g.p.",
"p.p.f.r.9.r.9.y.r.~ 1.y.y.y.y.y.a.T.T.a.a.i.y.r.9.9.9.9.9.r.r.r.r.y.u.T.T.a.i.i.r.r.9.9.9.r.9.y.+.9 9 9 9 9 u u.y.M 9 9 9 9 u e.",
"d.p.p.p.+.%.9.9.B 9 9 e D y.y.y.p.a.T.T.d.a.i.y.y.9.9.9.9.9.9.9.9.9.r.u.a.T.a.p.y.r.9.9.9.9.9.9.t 9 9 9 9 9 y b.p.R 9 9 9 9 9 R ",
"E.K.a.A 9 9 5.9.[ 9 9 9 9 G t.y.y.p.a.E.T.a.a.i.q.r.0.9.r.r.9.w.r.r.r.y.6...H I *.e.y.9.y.9.9.2.9 9 9 9 9 9 E W.I 9 9 9 9 9 9 B ",
"/.p.M 9 9 9 } r.R 9 0 0 0 9 B e.y.u.p.p.T.T.d.&.7 < 6 N 0.9.r.9.9.9.8.9.h 9 9 3 & B e.y.9.9.9.~ 9 9 9 9 0 0 0 b.A 9 9 9 9 9 9 B ",
"{.I 9 9 9 9 r.r.@.e 9 9 9 9 9 @.t.y.t.p.p.T.j.3 & 3 < 9 M 9.9.9.9.9.9.Z 9 9 9 9 3 # F u.r.r.8.5.9 9 9 9 0 9 B ..e 9 9 9 9 9 9 R ",
"z.9 9 9 9 9 B t.2.t 9 9 9 9 9 G r.y.p.r.p.v.0 3 Q z.W 9 9 R 9.9.9.9.9.R 9 9 T z. .3 p p.y.y.r.w.i 9 9 9 0 0 i i 9 9 9 9 9 9 9 @.",
"I 0 0 9 9 9 W y.M 9 9 9 9 9 9 C y.p.t.t.t.;.0 K OXX   n 9 Z 7.9.9.9.9.+.9 J #XX   n 9 B.a.y.r.r.{ 9 9 9 0 0 8 1 9 9 9 9 9 9 G r.",
"y 0 0 9 9 9 i j.+.9 9 9 9 9 9 B r.r.r.t.y...0 K #X    m 9 R 9.9.9.9.r.3.0 Q oX    m q -.a.a.p.r.w.S 9 9 0 0 $ 3 9 9 9 9 9 e v.p.",
"9 9 9 9 9 9 9 F i 9 9 9 9 9 9 R r.r.r.r.y.R 0 0 +Xf.<.T 0 +.y.r.9.9.9.9.t 9 @Xf.<.K u j.T.a.a.p.r.r.S 9 9 9 # 1 9 9 9 9 G l.P.a.",
"H 9 9 9 9 9 0  .9 9 9 9 9 9 9 #.u.y.u.y.u.e.0 0 0 ' K 9 9 B.y.r.9.y.9.9.R 9 9 ' p 0 y q.u.a.a.a.p.y.r.5.C t 1 9 9 i B %.r.a.a.I.",
"$.9 9 9 9 9 9 9 & 9 9 9 9 9 C i.y.y.t.p.y.e.A 0 9 9 9 9 H K.a.y.y.r.r.9.O.9 9 0 0 0 Z r.y.a.a./.d.p.y.y.8.! d O.5.8.9.w.r.y.i.U.",
"a.G 9 9 9 9 9 9 $ 9 9 9 9 i q.r.r.y.y.r.y.t.h.y 9 9 9 9 Y E.a.a.p.y.r.r.w.9 9 0 0 u 0.w.w.w.y.a.T.a.p.y.w.) k 8.8.8.7.7.7.r.r.p.",
"p.V.M 0 9 9 9 9 # 3 0 9 D e.p.r.i.t.r.t.y.t.r.g.0 9 9 9 I ].W.K.p.p.i.i.5.9 9 9 9 ~ 9.9.r.9.y.y.a.T./.u.r./ z 6.8.8.9.8.8.w.r.r.",
"p.p.H. .a 0 9 9 9 < b b.a.a.p.t.t.i.t.i.y.r.u.u.&.9 9 9 B W.P.S.b.B.*.6.A 3 9 e ] 7.9.9.9.9.w.r.y.a.T.a.u.z ( 9.8.8.8.8.9.8.9.w.",
"p.p.a.H.H.C.M.M.m.h P !.H.p.G.p.t.r.r.t.t.u.r.p.u.N.i - ; j l k k k k k 5 4 > V *.5.9.7.9.8.8.w.9.y.a.a.c.k o.i.r.8.8.8.8.8.8.8.",
"u.u.G.p.H.H.!.|..X` k :.U.P.H.u.t.i.t.r.r.p.p.i.k.V s q k k 5 + O . o k k k k k k g ~ 7.8.8.8.8.%.r.t.a.l j x.a.y.r.8.8.8.8.8.8.",
"u.p.p.H.p.G.G.~..XD.k l Z./.U.p.p.t.y.r.i.i.h.L k k k k k k q O     + k k k k k k k k z 5.9.5.C r S y.( k c a.a.u.y.y.9.8.8.7.8.",
"u.u.p.a.u.G.G.I.`..XP k _ P./.T.a.W S W q.%.z k k k k k k k k k k k k k k k k k k k k k z ~ N 9 e e ^ k j c.a.a.U.u.y.y.r.8.8.8.",
"y.y.i.p.G.G.G.H.P._.D.k k j =.S.b.9 9 0 f l k k k k k k k k k k k k k k k k k k k k k k k g 9 9 9 9 , , / r.u.a.a.a.u.y.y.w.8.8.",
"u.i.p.p.p.G.p.H.H.P._.,.k k k k v 9 9 % r k k k k k k k k k k k k k k k k k k k k k k k k k > 9 9 9 9 b r.r.y.y.a.U.a.a.y.r.9.8.",
"t.i.u.u.u.p.G.G.I.I.P.`.F.g g , : 9 8 5 k k k k k k k k k k k k k k k k k k k k k k k k k k q - 0 0 0 e 4.w.r.r.y.K./.u.u.y.y.r.",
"i.i.u.u.u.p.p.G.A.G.K.).XX'.,.B 9 9 - k k k k k k k k k k k k k k k k k k k k k k k k k k k k 4 < 0 9 9 R w.w.r.r.y.u././.u.y.y.",
"p.u.u.t.u.u.p.G.G.G.H.K._.XX'.a 9 3 > k k k k k k k k k k k k k k k k k k k k k k k k k k k k k $ 9 9 9 O.w.w.r.r.r.e.u.T.a.u.y.",
"p.u.p.u.y.u.u.u.a.A.A.K.S._.z.9 9 $ * k k k k k k k k k k k k k k k k k k k k k k k k k k k k k ; 9 9 G w.w.9.8.r.r.r.y.u.a.T.T.",
"p.u.t.p.p.p.t.p.u.a.A.a.H.P.~.a 9 - 4 k k k k k k k k k k k k k k k k k k k k k k k k k k k k k l C %.t.r.r.w.r.r.r.r.e.y.u.a.a.",
"G.p.t.u.p.y.u.p.u.G.A.u.G.H.I.^.K e r k k k k k k k k k k k k k k k k k k k k k k k k k k k k k ) t.y.r.r.r.w.r.w.w.w.r.w.y.y.a.",
"H.K.p.t.y.u.y.y.p.p.a.p.G.G.G.P.|.D.' k k k k k k k k k k k k k k k k k k k k k k k k k k k k k -.p.y.r.r.r.q.w.w.r.r.r.r.r.r.y.",
"G.p.p.t.y.p.y.p.u.p.A.G.A.G.G.G.P.XXU k k k k k k k k k k k k k k k k k k k k k k k k k k k r c E.E.a.p.y.y.r.r.r.r.r.w.w.w.e.y.",
"H.H.H.f.t.t.u.t.p.p.G.p.G.G.G.G.I.Y 9 - k k k k k k k k k k k k k k k k k k k k k k k k k k k P S.)./.u.u.u.y.y.r.w.w.w.r.w.e.r.",
"I.K.H.t.A.p.p.t.t.p.p.p.p.p.G.G.A 0 9 % 4 k k k k k k k k k k k k k k k k k k k k k k k k k ; 5 >._././.K.u.y.y.r.r.w.w.r.r.r.w.",
"!.U.I.G.p.t.t.p.u.i.u.u.u.A.G.#.0 0 u M.c.k k k k k k k k k k k k k k k k k k k k k k k k g 2 9 0 X._./.).a.A.u.r.r.r.r.w.y.r.e.",
"!.!.I.I.p.p.t.t.p.u.u.u.p.t.V.e 0 A S.P.Y = ; k k k k k k k k k k k k k k k k k k k k k k $.p.| e 0 F.`./.P.a.a.u.y.e.y.y.r.r.r.",
"!.!.I.I.K.p.t.t.u.u.u.u.p.p...0 $.G.P.;.0 0 J j k k k k k k k k k k k k k k k k k k k k - A u.H.j.e u P.{._.P.a.a.u.y.y.e.w.y.r.",
"oX^.!.!.I.G.a.t.u.p.u.i.t.u.l.j.p.p.G.i 0 Y |.F 1 k k k k k k k k k k k k k k k k k l ] u 9 k.p.A.B.l  ._.{.).P.P.a.u.e.r.y.e.y.",
"^.'.!.!.I.H.G.p.p.t.t.t.t.u.G.u.u.G.b.9 A P.P.p 9 ' c k k k k k k k k g k k k k g ; { t.q.9 H u.u.A.G.x.K._._.{.P.T.a.y.y.e.r.y.",
"^.|.!.!.I.I.H.p.t.u.t.t.u.t.u.u.u.u.v.F H.K.m.9 X.XX'.>.P j c k k k j L z ( ( -.e.Z e 6.t.h.e h.t.u.H.p.a.P.P.].{.P.P.a.a.y.y.y.",
"!.|.|.!.!.P.I.K.p.p.t.t.p.t.t.t.t.A.p.G.G.G.X.y J.!.^..XXX!.~.!.C.E.!.J.J.K.G.u.u.q.u #.t.t.h.N.t.u.u.A.G.G.G.!.|.!.!.E.K.p.r.t.",
"!.].XX|.!.!.P.K.G.G.u.u.t.t.t.p.p.p.p.G.G.G.C.C.I.~.^..X|.|.!.!.!.!.!.!.!.!.I.H.u.u.W +.t.t.t.t.u.u.t.u.u.p.G.G.!.|._.).(.P.G.u.",
"I.I.!.|.|.!.I.I.G.p.p.u.t.p.t.t.t.G.t.p.G.G.G.I.U.!.!.|.!.|.|.].!.I.E.E.!.!.!.!.G.p.p.e.t.t.t.t.t.u.t.t.u.A.u.A.G.!.`.`._.E.G.u.",
"G.P.!.^.XX!.P.I.I.p.p.p.a.t.t.t.t.t.t.p.t.G.G.G.I.!.!.!.].^.].!.!.I.E.!.!.!..X.XE.G.G.p.p.p.p.u.t.t.t.t.u.G.u.u.G.I.!.`._.!.!.E.",
"G.G.K.^.XX|.].P.I.G.G.t.t.t.t.p.t.t.t.t.u.u.G.G.G.P.P.!.!.|.|.!.!.I.I.H.G.!.!..X^.E.K.G.G.p.t.t.t.t.u.t.t.t.u.A.u.A.I._.`.`././.",
"V.G.I.P.`.XX|.!.I.I.H.G.p.p.p.p.t.t.t.t.t.A.u.G.G.I.P.!.!.!.].|.!.!.I.K.a.I.E.!..X|.I.I.I.p.t.u.u.u.t.u.u.A.t.t.u.u.A.K.P.}.`._.",
"p.G.K.S.!.XX|.^.!.I.I.A.H.p.p.t.t.t.t.p.t.u.t.G.G.H.I.L.P.!.^.!.^.!.I.G.G.G.G.I.!..X|.!.E.K.a.p.u.p.t.t.t.t.t.p.u.u.A.u.G.P.`._.",
"p.H.G.G.P.|.|.`.^.!.H.G.G.t.p.p.t.t.t.t.u.u.G.t.V.A.H.H.P.P.].].!.!.!.I.G.G.G.d.!.!.^..X^.I.H.H.p.u.t.t.t.t.t.u.u.u.u.u.u.P./.`.",
"p.G.G.I.I.!.XX.X^.!.!.I.G.t.u.t.p.t.t.t.t.p.u.t.p.A.G.J.I.!.!.^.!.!.!.!.!.H.G.G.G.G.!.^..X!.!.I.H.t.t.G.p.t.t.t.u.u.t.u.A.G.G.P.",
"p.G.t.G.H.I.^.{..X!.!.I.I.G.t.G.t.t.t.t.t.t.t.t.t.t.u.G.G.I.!.!.^..X.X!.I.H.G.p.p.G.H.!.^..X^.I.I.G.G.t.p.t.t.t.u.u.u.p.p.t.A.G.",
"p.G.p.p.G.G.P.^..X^.^.~.!.H.G.G.t.u.t.t.t.t.t.t.t.u.u.G.G.G.I.!.!.!.!.!.I.I.G.t.A.p.G.G.E.!..X^.!.I.G.t.t.p.t.r.u.y.u.p.A.t.y.G.",
"u.a.G.G.u.G.G.P..X.XoX~.!.I.H.t.u.A.f.p.t.t.t.t.u.t.t.G.G.A.H.I.!.!.!.!.!.H.G.G.p.G.G.G.E.!.^.oX!.!.I.G.p.p.t.t.u.t.u.t.u.u.u.p.",
"p.p.G.G.u.G.G.G.!..XXX|.!.!.!.H.p.p.t.t.i.t.t.t.t.t.t.t.t.G.G.I.!.!.!.!.!.!.I.G.G.u.u.G.G.K.I.|.oX^.!.E.G.p.u.t.y.u.y.u.t.p.t.u.",
"p.p.p.p.u.G.G.I.I.^.|.|.^.!.!.I.H.p.p.p.t.t.t.t.t.t.t.t.t.G.G.A.!.!.!.^.!.!.I.I.G.G.u.u.u.u.G.E.^.^.!.E.E.K.G.p.t.u.r.u.p.t.t.t.",
"i.p.u.p.u.G.G.G.G.P.^..X|.^.!.!.K.G.p.p.t.t.t.t.t.t.t.t.u.G.p.A.H.I.!.!.!.!.!.I.H.G.G.p.G.u.G.G.!.^..X^.!.!.G.p.u.u.u.y.p.t.t.t.",
"u.u.u.u.u.u.u.G.G.G.!.^.XXoX!.!.I.K.G.p.t.t.p.p.i.t.t.t.t.p.t.G.A.H.!.!.!.^.!.!.H.G.u.u.G.u.p.p.G.!.^.oX.X!.U.G.G.p.u.t.t.t.t.t."
};
