/* XPM */
static char *_a6db69bc4ed47b7a524f40f245d9e9dJeylXHlIhnwRmKYw[] = {
/* columns rows colors chars-per-pixel */
"64 64 119 2 ",
"   c black",
".  c #090807",
"X  c #0D0C0B",
"o  c #171513",
"O  c #191715",
"+  c #191816",
"@  c #24221F",
"#  c #262320",
"$  c #2E2C27",
"%  c #2F2D28",
"&  c #302E29",
"*  c #34312C",
"=  c #393731",
"-  c #3D3A35",
";  c #413D37",
":  c #43413A",
">  c #4A463F",
",  c #4E4A42",
"<  c #504D45",
"1  c #56524A",
"2  c #5A564D",
"3  c #5C5A50",
"4  c #635E54",
"5  c #656157",
"6  c #656258",
"7  c #69645A",
"8  c #6C695E",
"9  c #6F6C60",
"0  c #7C766A",
"q  c #7E7A6E",
"w  c #837B6E",
"e  c #837E71",
"r  c #858174",
"t  c #8B8779",
"y  c #8E897C",
"u  c #928B7D",
"i  c #968D80",
"p  c #9B9283",
"a  c #9D9888",
"s  c #A09788",
"d  c #A59E8E",
"f  c #A5A08E",
"g  c #A7A291",
"h  c #ADA695",
"j  c #AFA897",
"k  c #AFA998",
"l  c #B1A997",
"z  c #B3AD9B",
"x  c #B9AF9D",
"c  c #B6B09E",
"v  c #BAB19F",
"b  c #B7B1A0",
"n  c #BCB3A1",
"m  c #BEB9A6",
"M  c #BFBAA8",
"N  c #C1B6A3",
"B  c #C2B8A5",
"V  c #C0B8A6",
"C  c #C2B8A6",
"Z  c #C2B9A6",
"A  c #C3B9A6",
"S  c #C3B9A7",
"D  c #C0BAA7",
"F  c #C4BAA7",
"G  c #C8BBA7",
"H  c #C0BBA8",
"J  c #C1BBA9",
"K  c #C4BAA8",
"L  c #C5BAA8",
"P  c #C1BCA9",
"I  c #C1BCAA",
"U  c #C2BDAA",
"Y  c #C3BEAA",
"T  c #C5BCA9",
"R  c #C6BCA9",
"E  c #C6BCAA",
"W  c #C4BEAA",
"Q  c #C4BFAB",
"!  c #C4BEAC",
"~  c #C4BFAC",
"^  c #C8BDAB",
"/  c #C9BEAB",
"(  c #CABEAB",
")  c #C9BFAC",
"_  c #CABFAC",
"`  c #C5C1AD",
"'  c #C7C0AD",
"]  c #C7C1AD",
"[  c #C7C2AE",
"{  c #C8C0AE",
"}  c #C9C1AF",
"|  c #CBC0AE",
" . c #C8C2AE",
".. c #C8C3AF",
"X. c #CAC2AE",
"o. c #CAC3AF",
"O. c #CCC1AE",
"+. c #CCC1AF",
"@. c #D1C3AF",
"#. c #CCC2B0",
"$. c #CEC3B1",
"%. c #CBC4B0",
"&. c #CFC4B0",
"*. c #CFC5B1",
"=. c #CCC5B3",
"-. c #CFC6B3",
";. c #CEC7B5",
":. c #CFC8B5",
">. c #D0C5B2",
",. c #D0C6B2",
"<. c #D0C6B3",
"1. c #D2C6B2",
"2. c #D2C7B4",
"3. c #D3C8B5",
"4. c #D2C8B6",
"5. c #D5C9B4",
"6. c #D4C9B6",
"7. c #D4CAB7",
"8. c #D8CCB7",
/* pixels */
"z b b M ~ ` ` M M M b b z z b z b b b b b M ` ` I H c c c c c c c c b 1 y q :... .` v B v v m v H m B o.$.5.2.=.$.T T T B V V C ",
"c c b b M M ` ` M M M b b z k z b b b b b b H ` ` ` H M c c c z c c c , y r ..:.%.` ` N m v v v c n n B T $.2.5.=.$.T K ( V C C ",
"b b c b b M M ..M M M M b b b k b k b k b b b b ` ` ` M c c c z c c c = 6 q M ..1.o.` ` M v v c n n n n n T ( =.7.2.$._ ( S V N ",
"k k k b b b M M =.` M M b b b k k k k b z b b b c H ` M m m c c j z a @ 6 : t M `  .O. .` m v m c v v n n B B T >.2.4.2._ ( S S ",
"z z b b k b b b I ` I I M M b b k k b b k b z b c c M ` M H m c z z 2 6 u 3 r c m ` `  .` ` m m n b n c n n n m K _ 2.2.>.( _ ~ ",
"k k k b k b z b m M ` I M M b b b k k k k b k k c c c M ` ` H c c z 6 6 c < g c v c ` ` ` ` ` m n n v c z b c n n V ( $.3.3.$._ ",
"b z k z k b k b b b M ` I M M b b z z k k z b b c z c c m M ` m c b 6 > r % c c c c v m ` ....U M v m c b b v n n n N K _ 2.2.2.",
"z k z k b k b k b b b M ~ I M M b b b z z k k k z c z z c m H ` U M q 6 3 > h c l c c v B ` ..` M M v c z n n z x n n N V _ =.2.",
"b k b k k k k z c c c b m ` ` M v v c c c z k b k z z z z c m I U M k 3 3 3 f k k z z c c b U ` ~ ` H n n n b b z c n n n N ( =.",
"k b k k k k b z k c c c b M I ` ` v v c z z k z z z j z z z z m ` M M q 9 u : f c j j z c c b ` ..o.T S n n z z z z z n n n V K ",
"b k k k b k k z c c k c c n m ` ` m H c z z j k k k j z z j z c c P ` r y c 0 r z z c k c c c b B ~ ..I n n n c n z z z z v n N ",
"b b b k b k k z k k c k c c c n ` ` H m c c z k k k z j z z l z c c P r y c c c k k k k j j c c n n I ` ` M n n z b n z c v x n ",
"m b b k k z z z k c z c c c c c H ` ` v m c c c z k k k k z z z c c k 6 8 f c c c k k k k k k c z c n I ` I m n n b z b z z v v ",
"M M M b c z k k z k z z c c c c c I ` H I m b b z k k k z k k k c k 8 X 8 1 M c c c k k c k k k z c c n I ` I B n b b z z z z z ",
"~ M M b c z k k k b z k l c c c c v m T I H b b z z k z z k z l h c 2 + . % M P m c b k k k k k j z x c n m ` ~ M n n z c z z z ",
"#.M M b b b c z k z z z l c c c c c c m I H m I b c k j k z j l k k 0 6 . % m M m c b c c k k k k k z z z v m T ~ I M n z z z z ",
"=.~ ! I b b b x x k x k k x b x x x b x M K I C v c c z z l l j k k 8 : . 6 c H ` ` m c c j j j k k j z j c c c ` ` m v v c c z ",
"=.=._ ! I n b x b k k b z k k x z z x b x M ~ C m m c c z j j j k k f     f c c l ` ` v c c c k k k k j j c z c v M ` ` v v c c ",
"=.2._ _ I V b b b k k x b z b b b x z x b v C ^ ` N m c c c j j k k k *   c z z c m ` ` c c c l j j j k k k j c c v ` ` ` m c z ",
"~ _ =._ ^ K V n b x x k x z b k x z z b b b M I ` ` v m c c z j l k l <   k j j c c z ` ` M c c c j z k j j j k z c c v I I m c ",
"^ _ 7.) _ _ ~ C n b b x z x x z z z z x b v N v T ` m V m c z z l k l 2 . j j j l c c c H ` v m c j j j j j j j l z z c m ` H m ",
"C _ _ 4._ 2.E E C n b x x z z x n z b x x x n b v T ` T m m c c z z z 2 . j j j j j c c c ` m c n c c z k j j j j l l l c c H H ",
"M C ) 4.7.) _ E K S n b b z z x z n x x x x b v c N T ` M B B v c c z 1 . j j j j j l j c c H ` M c c c j j j j j j l l z c c I ",
"n C E ) 4.7.) ) ^ S C b b x z z z z b z v b b v v c B T ..` I n c c z 2 . j j j j l l c l l c ` ` m c c c j c j j j j l l z c c ",
"n C n K _ 8._ 3._ _ G N n b n b x x b x x b z v b x n V K O...B c c c 2 o l j l j j j l k z l c m ` H v c c l l j j j z j j z c ",
"n C N V ^ _ 8._ _ _ ^ K N n n x x b x b x z x x n n v x V ` ..S ` H v 3 $ l l j j j j l z j l c c m H m v c c l j j j j j j j j ",
"n n n N K G 8._ 4._ _ ^ G N N x x b x z b x v x x n n n n B T _ ` ` v 3 $ z l k j j j j j j j l c c m m H H c c z j j j j j j j ",
"v n N n N G ^ _ 7.6._ _ K C N N x z z x c n v x x x v x n n B K `  .` 3 $ c z z l j j j j j j j l l c m H m m m c z j j j j j j ",
"v n n C N N C ^ 7.8._ _ _ _ K S n x x z z x x x n x x v v n n N G ' ' 4 $ c c c c l l j j j j l l l c c v M M m M c c l j j j j ",
"x x n C n n N C _ 3.8.8.8._ _ ^ M x x x z x x z n x v n v v n N B G ' 5 & H m c c l l l j j j l l c l l c v m m M c c c z j j j ",
"v b b n N N N C ^ _ 8.8._ _ _ _ V n x x x z x x z x x v n v n n v G ` 5 &  .` v c c c l l j l l l l l c c c c m m m c c c j j j ",
"v v b n n N n C K G _ _ 8._ _ _ S V C n x x z x z x z x v v v v v v A > &  .` ` m m c c l l l l l l l l l l c c m ` m m c z j j ",
"v n x x n n N N N G G _ 8.@._ _ ^ ^ N N n x x x x x x x x x N x v v N & & O. . .G m m c c z l l l l z z z l z z c m ` m v c z z ",
"x n x x x n v N N G G G 8.8.8.5.^ ^ ^ N n x x x x l x x x x x x v v v & & G O.O.` G m v v c z l z l l l l l l z l c v ` M m c c ",
"n n n x x x N N N N N N G 8.8._ _ _ ^ S N n n x l x x x x x x x v v v $ $ N G O.=.o.G S m c c z z l z l l z l z l z c m ` m v c ",
"n x x n x n x N N N N G G _ 5.8._ 6.^ ^ S w n v x x x x x x x x v v v & $ N B G o.@.O...B B v c z z z z l z l l c l l c v m ` M ",
"n x x n v v v N x N N v G G _ 8.8.3._ _ ( ; z N x x x x x x x x c v v % $ v N G G ..o...` G G v c c z z z l l l l c c l c v B m ",
"n n n x x x v v v N v N N N G _ 8.8.8._ _ 4 4 N x x x x l x x x v v c % X v v N B G ( o.@.G G N N c c z z z z l l l l c l c c v ",
"V V n x x x x x v v N N v N N G _ 8.8._ ( w O L N x x x l x x x c v v $   v v N N N G G O.>.@.G S v v c c l l l l l v l v l l c ",
"N n n x N x x N v x N N N N N G ^ 8.8.8.3.p   i L N G x x x x x z x v &   v v v N v B B G @.@.@.T H m v c v c l c l l l l l l c ",
"C C C x x b x n v N N N x N N N ( ( 8.8.3.s . 1 ( G N x x x x x x z x o   x x x v v N N N G G @.O.' G B B c c c l l l l c l l c ",
"K C V x n n n x x N x N N N N v N ( _ _ 5.w   O ( G G N N N x x x x h   $ x x x v x v v N N G G @. .` ` B v c c c l l l l c l l ",
"( K C V N x x n v v v x x x N N N N G ( 1.7 X   l ( G G N N x N v v 0   < x x x x v v N v N N G ' O.@. .A B B v c l c l l c l l ",
"_ G _ C n x x b x x N N N x x N N N G G _ 7 = + w ( ( ( N N N x v v =   w x x x x v v v N v v N G ' @.@.` G N B m c c l l l c v ",
"_ _ ^ K C N b x v v x v x N x N N N N G G 7 & u ; ( ( ( G G N N N d   o x x x x x x x v v v N v N N G O.@. .G A B v c c v c l v ",
"8._ ^ _ C N N x v v v x v x v N N N N N G 4 < w v w 5._ ( G G N B > & 6 x x x x x x x x v v v v v N N G O.@.O.G G B v c v l v l ",
"_ 6._ G S C n x v x x x x v x N x N N N G w ; > 5.5.8._ ( ( G G 0 = O N N x v x x x x x v v v v v N N N G o.@.@.G G v v v c v c ",
"_ 1._ ^ L C C N v v x x x x N x x x x N C v # O x ( 8.5.8.( G w > @ a T N n n x x x x x v x x x v v N v v G  .@.' ` G N N v v l ",
"( 1.1.( G G G N N x x x x x x x x N x L N L 1 # # N G 5.5.( 7 ; @ e ^ ^ S S N N x x N x x x x x v v v v v N G G @.@.G G G N v v ",
"( 1.3.1.1.G G N N L N x x x x N x N N x N N L # . X 2 7 2 # 7 O w ^ ^ ^ ( ( ^ K N x x x x x x x v v v v v N N N G @.@.G G G v v ",
"N G G 5.@.G G G N x N x N x x x x N x N N N N x < . * ; ; O ; x C C ^ ^ ( _ _ _ N x x x x x x x l v v v N v N v G G @.@.@.G N v ",
"N G G 1.@.@.G G L N x N x x x x x x x x x N N N G l w w p G 5.( ^ S G ^ _ _ _ 6.( C N N x N x x v v v l v v v v v G G @.@.G G G ",
"N N G @.@.@.@.G L N x n N x x x x x x x x N N N N G G ( ( _ ( 5.^ L L N C G _ _ _ _ _ N N N x N v v v v v v v v v N G G @.@.O.' ",
"N N N G @.@.@.@.L L L n x N x N x x x x x x N N N N G G ( _ _ 5.( ^ L C N C ^ _ 2._ _ G N N x x v v v v v v v v v v N N G @.@.O.",
"N N N G @.5.@.@.^ ^ L n N x N x x x x N x x x N N N G G G _ 5.( _ _ ^ N N N V ^ _ 8._ ^ G N N N v v v v z x x v v v v N B G @.@.",
"x N N N G @.@.@.( ^ C C N x V x x x x x x x N x N v N N G G ( _ _ G G L V N N K ^ _ _ _ _ K K K N v v l v x v v v v v v v G  .@.",
"N N N N G ( 5.@.>.G ( G N x N x x x x x x x x x x N N N G G G _ _ _ G ( G N N N N N ( ( _ _ _ ( N v n v x x x x v v v v v N N G ",
"x N N N G ( _ @.1.( ( ( G N N x x x x x x x x x x x x N G G G G _ _ 1.( G G N v N N N ( _ 8._ ( S N N n n x x x v v v v v v v G ",
"N N x N N N G _ 6.>._ G L N N x x x x x x x x x x N N N G N G G 1.( 1.( G L N N N x N N _ _ 5.O.( S N v v n x x x v v v v v v v ",
"x N N N x N N ( 6.6.1.1.( N N N N x x N N x x x x x x N N x N G ( ( G ( ( G N x N N N N ( ( _ 7.' ( S N v n v x x x v x v v v N ",
"N x N N N N N N _ 5.8.5._ _ G N N x x x x x x x x x x x N N N G ( ( ( 1.( ( L N x N x x N N ( _ 5._ _ _ N v v c x v x x v v v v ",
"x N N x x N N N ( _ _ _ 1.( L G N N N x x x x x x x x x x N x N G ( ( _ ( ( L L N N x N N N N G _ 8._ ( G B N n v x x v v v x v ",
"x x x x x N N N G G _ 5.8._ _ _ N N N x x x x x x x x x x N x N N G ( ( _ _ ( L N N x N x N N N ( _ _ 8.@.( N N v v x x v x v x ",
"x N N x N x x N N N ( _ 8.8._ _ G N N N x x x N x x x x x N x x N N ( _ _ ( ( G N N N x N x N N G ( _ 8.@.G G N N v v x v x x x "
};
