/* XPM */
static char *_022dc0cfea04463b511a7c43a74e5b1GWYFe3zqxE7GDgTl[] = {
/* columns rows colors chars-per-pixel */
"64 64 208 2 ",
"   c black",
".  c #0E0600",
"X  c #0E0802",
"o  c #1B0C00",
"O  c #1A1105",
"+  c #101010",
"@  c #1D1610",
"#  c #281304",
"$  c #361601",
"%  c #3B1602",
"&  c #3A2305",
"*  c #202020",
"=  c #431B02",
"-  c #481C06",
";  c #551F00",
":  c #492702",
">  c #542201",
",  c #5D2601",
"<  c #5D3B0E",
"1  c #672901",
"2  c #712D03",
"3  c #6C3404",
"4  c #7B3204",
"5  c #423A2D",
"6  c #5C4F00",
"7  c #744407",
"8  c #644C2F",
"9  c #7B613D",
"0  c #695A45",
"q  c #71685A",
"w  c #873603",
"e  c #83330B",
"r  c #8C3808",
"t  c #963C07",
"y  c #904C0F",
"u  c #88511A",
"i  c #A34304",
"p  c #AB4605",
"a  c #B14705",
"s  c #B64A05",
"d  c #AB5807",
"f  c #B54910",
"g  c #927D04",
"h  c #A4600A",
"j  c #B76F12",
"k  c #855C29",
"l  c #9C6A2D",
"z  c #B37539",
"x  c #DA4E08",
"c  c #C65307",
"v  c #CD5306",
"b  c #CB5409",
"n  c #DC5A07",
"m  c #D35608",
"M  c #DB5308",
"N  c #DF5B09",
"B  c #D35712",
"V  c #E05A0B",
"C  c #E45A14",
"Z  c #DE630A",
"A  c #DF6C0E",
"S  c #C7760E",
"D  c #DB6F17",
"F  c #D77118",
"G  c #E0650A",
"H  c #E06D0C",
"J  c #E1740D",
"K  c #E17B0F",
"L  c #E26C19",
"P  c #E27F10",
"I  c #D47D2D",
"U  c #E47A28",
"Y  c #897658",
"T  c #A97F47",
"R  c #B37E4C",
"E  c #807968",
"W  c #AD9204",
"Q  c #B8823C",
"!  c #DD850D",
"~  c #D98A0C",
"^  c #DA960C",
"/  c #DF8411",
"(  c #DB8519",
")  c #DD881B",
"_  c #E0840F",
"`  c #E28611",
"'  c #E48B12",
"]  c #E88E12",
"[  c #E99213",
"{  c #E8971A",
"}  c #D1A907",
"|  c #EDA21D",
" . c #F3A519",
".. c #F8AB1A",
"X. c #D78824",
"o. c #D58A29",
"O. c #D38D32",
"+. c #D38F32",
"@. c #D38837",
"#. c #D3923E",
"$. c #E48E20",
"%. c #E09C20",
"&. c #E6952F",
"*. c #E89D3E",
"=. c #B5874E",
"-. c #AC885E",
";. c #95836B",
":. c #9F9278",
">. c #BE9865",
",. c #A69071",
"<. c #B59976",
"1. c #BA9D72",
"2. c #BBA178",
"3. c #CA8C41",
"4. c #CF9344",
"5. c #C9924A",
"6. c #D79540",
"7. c #C69654",
"8. c #C79958",
"9. c #C59A5E",
"0. c #CC9A58",
"q. c #E78547",
"w. c #E88D48",
"e. c #EA9D51",
"r. c #CDA053",
"t. c #EAA54D",
"y. c #E1A252",
"u. c #EBAC5C",
"i. c #C59B66",
"p. c #C99D61",
"a. c #CBA56D",
"s. c #D2A468",
"d. c #C5A478",
"f. c #C4A77D",
"g. c #D4AC77",
"h. c #EDAC6D",
"j. c #EDB46B",
"k. c #EEBA79",
"l. c #8C8781",
"z. c #9B968A",
"x. c #AB9B83",
"c. c #BBA582",
"v. c #B3A48D",
"b. c #BDAA8C",
"n. c #ADA795",
"m. c #AFA997",
"M. c #AFA999",
"N. c #B5A691",
"B. c #B4AA95",
"V. c #BCAD95",
"C. c #B3AD9B",
"Z. c #B9AF9D",
"A. c #B6B09E",
"S. c #BBB19F",
"D. c #B6AEA2",
"F. c #B7B2A0",
"G. c #BCB3A1",
"H. c #BEB9A6",
"J. c #BFBAA8",
"K. c #BABABA",
"L. c #C7AB84",
"P. c #CBB596",
"I. c #C4B59D",
"U. c #D3B890",
"Y. c #E3B985",
"T. c #F0BF85",
"R. c #C1B6A3",
"E. c #C1B7A5",
"W. c #C1B9A6",
"Q. c #C4B9A6",
"!. c #C8BBA7",
"~. c #C5BAA8",
"^. c #C2BDAA",
"/. c #C5BCA9",
"(. c #C5BDAA",
"). c #C5BFAC",
"_. c #CABEAB",
"`. c #D1BDA1",
"'. c #F0C288",
"]. c #EBC490",
"[. c #F2CA97",
"{. c #C7C0AD",
"}. c #C6C1AD",
"|. c #C9C1AE",
" X c #CDC1AE",
".X c #D1C3AF",
"XX c #CDC4B0",
"oX c #CEC5B2",
"OX c #CFC8B5",
"+X c #D2C5B2",
"@X c #D0C6B2",
"#X c #D3C8B6",
"$X c #D5C8B4",
"%X c #E4C9A4",
"&X c #F4D2A6",
"*X c #F1D1AD",
"=X c #EAD4B6",
"-X c #F3D7B6",
";X c #F8DDC0",
":X c #F8E1C4",
">X c #EFE3D3",
",X c #F9E9D7",
"<X c #ECECEC",
"1X c #FBF0E2",
"2X c #F6F3F0",
"3X c #FCF7F0",
"4X c #FDF8F1",
"5X c #FFFEFE",
/* pixels */
"C.A.F.H.}.}.}.^.H.H.F.F.F.C.C.C.C.F.F.F.F.J.^.}.^.J.H.F.A.A.A.F.F.F.F.H.^.}.OXOX|./.S.S.G.S.G.W.H.W.Q.).oX#X#X XoX/._./.Q.Q.W.Q.",
"A.D.F.F.H.^.}.^.^.H.J.F.F.C.C.C.F.F.F.F.F.F.H.}.}.}.H.H.F.C.C.C.C.C.F.F.H.H.}.OXoX}.}.H.G.G.F.G.A.G.G.~._.oX#X#X#X_./.~./.Q.E.H.",
"M.F.A.A.F.F.^.}.^.K.J.F.F.F.C.M.C.C.C.F.F.F.F.F.^.}.J.H.H.C.A.A.A.C.F.A.A.A.H.}.oXoX}.}.H.H.S.F.A.G.G.G.G.W._.oX#X#XoX_./.~.E.E.",
"C.M.A.F.F.F.H.J.}.}.^.J.J.F.F.M.M.M.C.C.F.F.F.F.H.^.^.J.H.H.A.A.C.C.C.F.A.A.H.H.}.|.oX}.}.H.F.F.G.G.A.S.G.R.R.~.oX#X#XoX_._.~.E.",
"C.C.D.D.C.F.F.F.^.}.^.J.J.F.F.F.C.C.C.C.M.F.F.C.F.F.H.}.^.^.F.A.C.C.m.A.A.A.A.A.H.}.}.}.}.}.}.S.A.G.A.Z.G.G.H.H.)._.+X#X+X_._.}.",
"C.C.M.M.C.C.F.F.H.^.^.^.J.J.H.F.F.C.M.M.C.C.M.C.M.F.F.^.^.^.H.H.F.A.C.C.A.C.C.A.A.S.}.}.}.}.}.S.G.G.G.A.C.G.G.G.H.~._._.#X+XoX_.",
"M.D.M.D.C.M.F.F.F.F.J.^.^.J.J.F.F.C.C.M.M.C.C.F.F.C.C.F.H.^.^.H.H.F.A.m.C.C.B.C.A.A.A.}.}.|.}.}.W.G.G.A.F.C.G.Z.D.G.H.Q._.@X#XoX",
"D.M.M.M.M.F.M.C.F.F.H.J.^.J.J.H.F.F.C.C.C.M.M.C.M.F.C.C.A.H.^.^.H.H.A.A.m.C.C.C.C.C.A.S.S.}.|.}.~.H.G.A.A.G.A.A.Z.G.G.H./._.oX#X",
"M.D.M.M.M.C.M.M.C.F.F.F.H.}.^.^.H.A.A.A.C.C.M.C.M.C.C.C.A.A.H.J.^.H.H.F.C.C.M.C.M.C.C.A.A.S.}.}.).).J.H.G.A.A.A.C.Z.G.G.E.R._.oX",
"D.M.D.M.C.M.C.F.M.C.A.F.F.H.^.^.^.S.A.A.C.M.C.C.A.C.C.M.M.M.F.H.^.^.H.H.A.A.C.M.C.M.C.M.C.A.S.}.|.}./.J.G.G.C.A.C.A.C.G.Z.R.R.~.",
"F.C.C.M.M.D.C.C.C.C.C.C.A.A.H.^.H.}.H.A.A.C.C.M.M.M.C.C.C.M.M.F.H.H.^.H.G.F.C.C.M.C.C.C.C.A.A.S.W.}.}.~.H.G.F.A.Z.A.D.C.D.F.G.H.",
"F.F.D.M.C.M.M.C.C.C.C.C.A.A.H.H.}.}.^.S.A.A.C.M.M.M.M.M.C.C.M.C.C.F.H.^.J.F.A.A.C.C.M.M.M.M.C.A.A.H.}.}.~.H.H.F.A.A.C.C.C.B.Z.G.",
"K.H.F.A.C.C.M.C.C.C.C.C.A.A.A.A.S.}.}.S.H.G.A.C.M.M.M.M.M.C.C.C.C.A.S.^.}.S.F.A.C.M.M.M.M.M.M.C.C.A.G./.}.~.H.G.G.C.C.C.C.C.A.A.",
"F.F.F.F.A.C.M.M.C.C.C.M.C.A.A.A.A.}.}.}.H.G.A.A.A.M.M.M.M.C.M.M.C.M.B.A.H.}.H.H.F.C.m.m.C.M.M.C.C.C.A.G.~.}.~.H.G.G.G.C.Z.C.C.Z.",
").J.J.F.A.C.M.C.C.C.C.C.B.A.A.A.A.S.H.}.}.H.H.A.A.M.M.M.C.M.M.D.m.z.;.Y 9 q ;.x.A.M.C.m.C.M.M.M.M.C.A.A.F.^.}.}.~.H.F.G.Z.C.C.C.",
"}.).J.F.A.A.C.M.C.C.C.C.B.A.A.A.A.A.A.S.P.S.H.H.A.A.C.M.M.C.M.q O   O 3 $ r i = y 8 :.C.C.M.M.M.m.m.C.C.C.A.H.^.^.~.W.F.C.C.C.C.",
"|.}.^.E.S.A.A.C.C.C.C.C.C.B.C.A.C.G.N.O.` ` 6.I.H.A.C.C.B.B.5   o f C C C C C C C C r 9 C.C.M.M.m.M.M.M.C.C.A.S.}.}.S.H.A.A.A.C.",
"oXoX}.}.H.H.A.A.C.C.C.C.C.C.C.A.A.N.o.` ` ` / #.H.H.F.A.F.q   - b C C C C C C C C C C e ;.A.C.M.M.B.M.M.m.C.C.C.S.W.}.}.S.S.A.A.",
"oXoX|.}.~.W.G.A.G.C.C.C.D.Z.C.Z.C.O.` ` / ` D ` a.J.G.S.%X>X+ 4 C C C C C C C N N N n b y v.B.B.M.M.M.M.m.C.m.C.A.S.}.}.^.H.A.C.",
"}.oXoX|.}./.W.G.Z.Z.C.C.C.C.Z.C.9.` ` ` A V N Z ( a.-X3X5X5X:.  i N V G G N N N N N N N N Z @.N.C.M.C.M.m.m.m.C.C.C.C.H.}.^.H.A.",
"~.|.$X X X|./.H.G.G.D.C.C.C.C.N./ _ _ n V V n V J u.5X5X5X5X2X+ V N N N N N N N N N N N N N N Z @.M.C.m.m.m.M.M.C.C.C.A.H.^.^.H.",
"W./. X$XoX X).~.W.G.Z.D.Z.C.D.7.` _ V V V V V V H *.5X5X5X5X5Xl.i C N N N N V N N N N N N N V N N F 2.M.m.m.m.M.m.m.B.C.A.A.H.^.",
"G.~.).+X#XoX|.)./.W.G.G.Z.C.C.) ` G V V V G n V A ` 1X5X5X5X5X2X@ m N N V N N N N N N N N N N N N N Z @.v.M.M.M.m.m.m.m.A.A.A.H.",
"W.E.~.).g.g. X X/.~.H.G.Z.Z.1.` H V n V V n V V Z ` '.5X5X5X5X5Xx.$ N N N N N N V N N N N N N N N N v 3 & ,.M.M.m.m.B.n.m.B.A.S.",
"G.W.R.0._ ! a.oX_.}.W.H.G.G.8.` V V V V G V n V n J { 5X5X5X5X5X5X5 4 N N N N N N N N V N N N N v 3   O v.5X%XV.m.m.M.m.m.M.C.C.",
"G.G.I.X.j o & i.XX/.~.Q.Q.G.7.A V n n V V n V V V G ` -X5X5X5X5X5X=XX s N V N N N V N N N N N a o   0 <X5X5X5X].1.m.m.M.M.m.m.C.",
"G.G.L./ o o t 1 T _._._.Q.G.0.G V n V V V V V V N V A j.5X5X5X5X5X5X=.# m N N V N N N V N N a . X z.5X5X5X1Xt.` ^ O.1.m.m.m.m.m.",
"F.G.9.h   a N N r k `._.~.Q.0.G V V Z V V n V n N V Z &.5X5X5X5X5X5X4Xu > N N N N N N N N N =   D.5X5X5X,X$.] ' ! ' ! 3.n.m.m.m.",
"G.G.8.3 > N N N V > ,X*XY.g.3.A V n V n G V V V N V n ` 1X5X5X5X:Xj.'.:X6 i N N N N N N N N . q 5X5X5X1X{ ` ^ } ^ ` ` ` #.n.n.n.",
"G.C.7.: p N N N N w -X5X5X5XU N V V V V n V V G n V V J &X5X5X&X` ` ` $.h.= N N N N N N n 3 # 5X5X5X5Xj.] ^ W * g ^ ` ` / >.n.n.",
"Z.A.5.: N N N N N i g.5X5X4XL N V n V n V n V n V n V G '.5X3X{ ' ` / D A F u V N N N N 2 # l.5X5X5X4X$.[ ! } 6 W _ ` ` ' ' >.n.",
"G.C.j r N N N N N n -.5X4X5XC N Z V V V V V V V V V V G t.5X[./ ` K M x x x b n N N N N ;   K.5X5X5X&X` [ ' ~ ~ _ ] _ _ _ ! ! n.",
"A.i.: v V V V V C M R 5X3X5XH V V M N N N V N N N N V N t.5Xu.` ` Z x x x x x n N N N N p o K.5X5X5Xu.` ' [ [ [ [ ` ` ` ] | ..%.",
"A.o.= N n V n V n B R 4X5X5XH V G N N V N N N N N N N N t.5X&.` K x x x x x x x n n N N s o 0 5X5X5Xt.` ` ` ' ` ` ` _ { ....%.r.",
"L.d $ N G V V n V V z 5X5X3X_ C V N N N N N V N N V N N t.4X` ` Z x x x x x x x x M N N M 4 o 5X5X5Xt.` ` ` ` ` ` ` ] .. .%. .| ",
"8.h % n n V V V N M u 5X4X5Xe.M N N N V N N N N N N N N k.:X` ` N M x x x x x x x M N N V v , E 5X5Xt.' ` ` ` ` ` _  . . .{ [ r.",
"+.j   v N N N n N N u 5X4X5Xh.V V N V M N V N N N N V N [.:X` ' M x x x x x x x N N N N N N 1 . <X5Xt.` ` ` ` ` ` /  . .[ / 4.H.",
"+./ O w N V N V N N u 5X5X5X'.n N N N C N N N N N N N Z :X5X` ` Z x x x x x x M N N N N N N =   8 5Xt.` ` ` ` ' ` _ ' ' / ( c.H.",
"4._ y o v N V V V b l -Xk.y.*.N N V Z N N N N N N N N G 5X5Xu.` A x x x x x x N N N N N N N i     =.' ` ` ` ` ` ` ` ' ` o.2.C.S.",
"f.! ! < # w s i i d o.9.9._ K V N N N N N V N N N N N U 5X5X&X` F M x x x x x M N N N N N N a %   h ` ` ` ` ` ` ` ` ! 5.v.B.C.A.",
"/.f.#.` S h j o.p.b.Z.V.( ` G V N N V V Z V V V N N N q.5X5X5Xt.' N x x x x x M n N N N N N N d , 7 ` ` ` ` ! ' ` O.v.B.m.B.B.C.",
"!.Q.E.Z.Z.Z.Z.A.Z.G.G.d.` ` K V N N V n V n V n N N N q.5X5X5X1X&.K n x x M x x n N N N N N N N Z j ` ` ` ` ` O.1.m.B.B.C.C.B.C.",
"}.!.W.G.G.Z.Z.G.Z.G.G.8.` ` ` G N N n V V V V V N V V G 5X5X5X5X4Xj._ J N n n J A N N N N N N N N N Z K / +.f.S.Z.C.C.C.C.C.C.C.",
"_._.Q.Q.G.G.A.Z.G.G.Z.i.` ` ` ` L Z V V V n V Z N V V H [.5X5X'.q.w.U Z N N N N N N N N N N N N N N A @.U./.!.S.G.C.Z.Z.V.C.C.C.",
"_._._.~.R.G.Z.Z.Z.Z.G.Z.o.` ` ` ` _ J G Z N N V V G J ` U Y.-X&XN N b c c N N N N N V V V N Z D @.i.I. X+X X}.E.I.A.S.A.C.C.C.C.",
"$X+X_._.~.R.G.G.G.G.Z.Z.V.5.` ` ` ` ` ` ! ` ` ! ' 6.s.P.!.!.!._.=.        X i n N N V G I i.L.Z.S.I.W.!. X X X!.~.R.A.S.V.C.C.Z.",
"$X+X_._.~.E.R.G.Z.Z.Z.Z.G.Z.L.i.O.O.O.O.0.0.g.P.+X.X$X+X_._._._.Q             t N D p.C.Z.Z.Z.I.S.S.I.R.!.}. X X}.~.E.S.S.C.S.S.",
"_.+X_.!.~.~.R.R.Z.G.Z.Z.Z.Z.Z.G.Z.R.D.I.Q.I.!.)._.+X$X$X$X+X_._.i.&         O 8 x.Z.C.Z.Z.C.Z.Z.S.S.I.S.E.!. X.X X/.!.E.S.S.Z.C.",
"_.+X+X_._._._.~.R.R.Z.Z.Z.Z.D.R.Z.I.R.R.R.R.Q.!.!._..X$X$X_._._.!.<.0 <.L.L.Z.G.Z.Z.Z.Z.Z.Z.Z.Z.S.S.S.I.I.R.Q._.+X X).).~.I.Z.Z.",
"!.+X$X_._._._._.R.R.D.R.Z.Z.Z.Z.Z.Z.Z.R.R.Q.Q.Q.!._._..X$X$X_._._._._._._._.Q.E.Z.G.G.Z.D.Z.Z.Z.S.S.Z.S.Z.R.G.R./..X X_.).~.G.Z.",
"Q.!._.$X_._.!._.R.D.R.D.D.Z.Z.Z.Z.R.Z.R.Z.I.R.!.!._._.+X$X_._.$X!.!./._._._._._.R.R.G.Z.Z.Z.Z.Z.Z.Z.Z.S.I.Z.Z.G.E._.+X.X X).R.G.",
"R.Q.`..X_._._._.R.R.R.D.R.Z.Z.Z.Z.Z.Z.G.R.R.R.R.!._._.`._._.$X_.!.~.~._._._.+X+X_.R.R.R.Z.G.R.Z.Z.Z.Z.Z.Z.R.Z.I.I.Q._..X.X_.~.~.",
"R.R.!._._.$X_._.~.R.R.Z.Z.Z.Z.D.Z.Z.Z.Z.Z.R.R.R.~.!.!._._._._._._.~.~.Q.E._._.#X_._.R.R.R.D.R.Z.Z.Z.Z.Z.Z.S.I.Z.S.R.~._..X$X}.).",
"R.I.Q.!.`.$X$X_.!.R.R.R.R.Z.R.R.Z.Z.Z.Z.Z.Z.Z.R.R.Q.!.!._._.$X_._._.!.E.R.Q._._.$X+X~.~.~.D.Z.Z.S.S.Z.S.Z.S.Z.Z.Z.Z.I.R.!..X.X X",
"R.R.Q.Q._.$X$X`.!._.~.R.R.Z.Z.Z.Z.Z.D.Z.Z.Z.R.I.I.R.R.!._._._.$X_._.~.Q.R.R.W.~._.+X+X_.~.~.R.R.S.G.Z.Z.Z.Z.Z.I.R.Z.S.I.R._..X X",
"Z.I.R.R._.$X_.$X_.!.R.R.R.R.D.R.Z.Z.Z.Z.R.Z.Z.Z.R.R.I.R.`._._._._._.~.~.Q.R.R.Q.~._.oX+X_._.!._.S.S.Z.Z.Z.Z.Z.S.S.Z.Z.S.I.Q.}..X",
"D.R.R.R._._._.=X_._._._.!.R.Z.Z.R.Z.D.Z.Z.Z.R.Z.Z.R.I.R.!.!._._.+X_._._.!.R.R.R.R.R.!._.$X_._._.R.G.Z.Z.G.Z.Z.D.S.S.Z.R.Z.G.R._.",
"R.R.Z.R.R._._._.$X_._._.!.R.Z.R.Z.Z.Z.Z.Z.Z.Z.Z.Z.Z.R.R.R.!._._._.+X$X_.!.~.R.R.Z.R.R._._.$X_._.Q.R.R.R.Z.Z.Z.Z.Z.S.Z.S.S.I.I.R.",
"D.R.R.R.R.R.!._.$X_.$X_.!.R.R.Z.Z.Z.D.Z.Z.Z.Z.Z.Z.I.Z.R.R.R.!.!._._._._.!.R.R.Z.R.R.R.R._._.$X_._.~.R.Z.G.Z.Z.Z.Z.A.S.G.R.Z.Z.G.",
"D.R.R.R.R.R.R.!.$X$X$X_._.R.R.R.R.Z.G.G.Z.Z.Z.Z.D.N.R.I.R.R.R.R._._._._._.R.R.R.R.D.R.R._._._.$X_._.~.R.Z.R.Z.Z.Z.Z.G.Z.Z.Z.Z.I.",
"R.R.G.R.R.D.R.R._.$X$X$X_._._.~.D.R.D.Z.D.Z.Z.Z.Z.D.D.R.R.R.R.R._._._._._._.!.R.R.Z.Z.R.R.R._._.$X+X_.~.E.R.D.D.Z.Z.Z.Z.Z.G.Z.G.",
"R.D.R.Z.Z.R.R.R._._.$X_._._._.~.R.R.G.Z.Z.Z.B.Z.Z.N.Z.Z.Z.R.R.R._._._._._._.~.~.R.R.R.Z.D.R.R.!._.$X_._.Q.W.R.G.Z.Z.Z.Z.G.Z.Z.Z.",
"Z.G.G.G.Z.R.R.R.R.!._.#X;X_._._.Q.R.D.Z.D.R.Z.Z.Z.Z.Z.Z.Z.I.R.R.!.!._._._._._.~.R.R.D.R.R.R.R.R._._.$X#X_.).Q.G.G.Z.Z.G.Z.Z.Z.Z.",
"Z.Z.G.D.R.Z.R.R.R.!._._._.$X_._.~.Q.R.R.Z.Z.D.R.D.Z.Z.Z.Z.Z.Z.R.I.R._._._._._._.R.R.R.Z.R.Z.R.R.R.~.$X$X+X_.~.Q.R.G.Z.D.Z.Z.Z.Z."
};
