/* XPM */
static char *_b693d98128f4341b1c5686ca01966d4jYs6ZfM82Ei9OALJ[] = {
/* columns rows colors chars-per-pixel */
"64 64 82 1 ",
"  c #AEA796",
". c #AFA997",
"X c #AFA998",
"o c #B0AA97",
"O c #B3AD9B",
"+ c #B9AF9D",
"@ c #B6B09E",
"# c #BAB19F",
"$ c #B7B2A0",
"% c #BCB3A1",
"& c #BCB8A5",
"* c #BEB8A5",
"= c #BDB9A6",
"- c #BDB9A7",
"; c #BEB8A6",
": c #BEBAA6",
"> c #BFB9A8",
", c #BEBAA8",
"< c #BFBAA8",
"1 c #C1B6A3",
"2 c #C0B6A4",
"3 c #C0B7A4",
"4 c #C1B7A4",
"5 c #C2B7A4",
"6 c #C2B7A5",
"7 c #C0B7A6",
"8 c #C3B9A6",
"9 c #C0BAA7",
"0 c #C2BAA7",
"q c #C4BAA7",
"w c #C8BBA7",
"e c #C1BAA8",
"r c #C2BBA8",
"t c #C2BBA9",
"y c #C3BBA9",
"u c #C4BAA8",
"i c #C5BAA8",
"p c #C1BCAA",
"a c #C3BEAA",
"s c #C6BCA9",
"d c #C4BCAA",
"f c #C6BCAA",
"g c #C4BEAA",
"h c #C4BFAB",
"j c #C4BEAC",
"k c #C5BEAC",
"l c #C4BFAC",
"z c #C6BFAC",
"x c #C8BDAB",
"c c #C9BEAA",
"v c #CABEAB",
"b c #C9BEAC",
"n c #CABFAC",
"m c #C5C0AD",
"M c #C5C1AD",
"N c #C7C0AC",
"B c #C7C2AE",
"V c #C8C0AE",
"C c #C9C1AF",
"Z c #C8C2AE",
"A c #C8C3AF",
"S c #CAC2AE",
"D c #CCC1AE",
"F c #D1C3AF",
"G c #CAC3B0",
"H c #CEC3B1",
"J c #CAC4B0",
"K c #CBC4B0",
"L c #CFC5B1",
"P c #CCC5B2",
"I c #CCC5B3",
"U c #CEC7B5",
"Y c #CFC8B5",
"T c #D0C5B2",
"R c #D0C6B2",
"E c #D2C6B2",
"W c #D2C7B4",
"Q c #D2C8B6",
"! c #D5C9B4",
"~ c #D4C9B6",
"^ c #D4CAB7",
"/ c #D8CBB6",
/* pixels */
"O$$-mA,,,-$$OOO$$$$$$-aMm-&@@o@@@$$-aAYIAm&&#&%%%:9nT!!Innxi117i",
"@@$$-,Il,,-@$OXX$$$$$$-MMM-&@@@X@@$$&:IYPNq3%#$%%%$tvx!^WGltii18",
"O$@$$-,,l,,-$$X$XX$X$$$$mM--&@@@@@@$@%%ARPNS:&##%%%9%ixTWWIxni87",
"OXO$$$,,Ill,-$$X$XX$@@$$@:Nm&&@@.@.$@@%-NSSSq-%%#+%+%198IW^Wwnt6",
"XOX$$$$$tllp--$$XX$$O$$O@$-mm:&@$XX@O@@@&mNSmmm#%$$+%%;;tnT!Wnnd",
"$XX$$X$$%ppt--$$$XXXXOX$@@@-mmq@$@@XOOO@@#9NAMN@%%+$$++%%tbHWIIn",
"XXXXXO$$%%,l,,--X$XXXXOO@@@@&qm:-@@X@OOO@@#:mAAm-%%$$$%++%78bW^!",
"$X$XOOX$$$-,l--&&$$$XXXO@O.@@&m:,%@@XoOOO@@#3mAm9,%$O+$$+%%%7bTW",
"$X$XXOX$O@@$-mpg:@@@@.X$O.OOO@&m,,-@@..OXOOO$&mAllt-%OO%O%%%11nT",
"$$XXXXXXOO@@$tmpq&@@@.XOOOO.OO@#m,--@OOOXOXOO$@pnng1%%@+OOO%%%1i",
"$XXXX$OOOO@@%@-Nm:&@@@.X..OOOo@@#:m:-@@OOOOOOO$@tmAt--%O+O@O##$-",
"$$$X$XXOXXX@@O#&qNq&@@OXXO..OOoX@#&m:@@@XXXXOOX$$;Nmp1-$#@OOOO#%",
"--$XOOOOOOOO@O@@:mq:&&@OXXOXXOX@@@@,mq#@OOXXXOXOOO%xmg-#%$$OOO##",
",$-$OOXX..OOO@@##&mq--@@OXXXOXXOO.@@:::#@OXOOXXOOO#@gm99%%OOOOOO",
"pt-$OOXO@XOOO@@@@#&mm&-@$XXXOXooOOO@#:p:-@$OXXXXXX@@%-ll,%$$$OOO",
"A,,$$$OXO@OOO@@@@##&9m::@$XXXOoX...O@@:m&&@OOXXXXOoOO#9plgt%OOOO",
"Inl7%$+OOOOOXOO$O+%+7yy>&#@o..XX..ooO@@:M&:@OOOoXXXXoO@#mm#:#@@O",
"IGnl>>++$XX$OOO$O$+O%>jy3&@@@X..o..ooo@@@Mm&@OOoXOXXOoOO#mmm##@O",
"IHnny>$$+OOOO$O+$OO+O%>lm:&#@oX.o.o.oOOo@:m&:@@oXXXXXO.O@@mNm&@@",
"lIInbd>%%++O+O+OOO+$+%;tqm:%@@@XX....ooOO@#:m:@@oOXo.X..o@O-mm:@",
"nnQnbbd7%%OO+OOOO$OO#O%-8Nm-&##OX.......o@@@m#:@@o.XXXXOo@o@#q:&",
"7nnQnUbd7%%OOO+++O@@+%%$%8Nq%&@O@@O.....ooo@#N::-@@.X....oo@@&@M",
"77nQ^bbbd7%%+OOOO$+#@#+%@1qNg9-#@@.@O...o@@o@@::--#OX..X..ooo@@S",
"77db^^bbyy>%$++OOO@O#@#+@#-sNN9%@@OOo..ooooo.@@N9p#@OOX.o.oooo@@",
"7778n^WWnni7%%++++$O+O$$%+%%NNN9&@@@ ooo oOOO o@:::@@#oo......@@",
"%%77nn!nnnii7%%++$$++++$+%%%1mAN:-@@@.oo . oOoo@#:N:&@@o....... ",
"%%11wwn/TTnbi71+$++++$%++%%+1;xANm&#@ooo.     ooO#:::&##O.......",
"+#7#1wnnQWTni87%++O+++++++%%#%1iAA::#@@oo oo  .ooO@:::9@@Oo.....",
"%%%>%71n^!!nnb87%+++O++++++#%#11NNNNm##@O@oooooooO#@::::@@@o.  .",
"++%>+111nQ!!!nb8%+++O+O+O%%+%+#%3NNNm###Oooooooooooo@@:::&@@O. .",
"++%%1111nn!!Wnnb1%%%O+OOO+%%###131NNNNm#@@@oo ooooo@@@@mm&@@@o..",
"+%%+%1116wn!!nnnl6%%+++++OO+######3NNSNNm#@@oooooooo..@##q:&@Oo.",
"O%+++7111wvv//vvfi66++++++++++++##1wwFSNm:##@Oo@ooOooOOO#:N:#@@.",
"+%%+++%111ww///vxfi61+++++++++1+###13wSFNm:###ooOooooOoOo@#3:3@@",
"%%%++#11111wv///bbxi161+O+++++++####33wSLNw9:@o@OO@oooooOo@1N:9@",
"%+%++#+11111vvv/bQxi16+1++++++++######3wSLFD:9##OOoooOooo@@@#:::",
"%%+%11+1111#1wv///bbbbi1+++++ ++####5#1wwwFSww1##@o@ooooo@o#@333",
"%%%+++#+111111wv///bbbi6++++++++#++####155NSFwww3#@@OOOoooooo@@3",
"77%++++++11+111wn//bbbwi1+++++++ ##++##133wwFEFw:##@@Oooo@#o@oo@",
"7%%+++++++111111n///~bbw111+++++o#++####333:wFFFNw###@OO@oooooo@",
"667++#+111+1+111bb///nnnvvw1++++#####++###111wwFSNN###@@ooooooo#",
"b677+#++o1+111+1fvbv/E/Evv1111++#o#o++++####11wwKFNNw##@@ooo#ooo",
"d867%++#+11++11116wvn//nvvvw11++###oo+++####111wNFFFw&3##ooo@o#o",
"bbii7%++1+++++1111iwnE//!vvn111+####+++++######1wNFSNN:3###@o#o#",
"nbww77+++1+1+1+1111wnnn//nnnw11w11##+++++#+###1#35wFFSwq1#@##o#o",
"/vbv777++1++1+11+11wwnv////nvwwv111#++#++#++####@#5wSFSw11#@#o+#",
"n/vbi77+++++++1++111wvvn//n!vvvv33311+++++++#+###111wwFSNw1##+@+",
"nnvbi871+++++++1+++11vvvnn///nvvwwN511##+++++++###1#5wSFNww1###o",
"nEEvwvww1++++++++11616w6wvn/Fnvvbbbbw661++++++++####11wwFFwww##+",
"vE/Tvvww111++++1++1+16wwwvnE/FFvibibvbb6+7++++++#####1#1wFFFww##",
"wwvnFFww1+1+1++++1+i+116wnv!FFFv88bbnnnn71+++++++#####11wwFFDww#",
"1wvEnvwww11+#+++++++1116wwwnvFFvif8bbnn/i711+1+1+++++#+#1wwFNwww",
"11wwnE!w661++++++++++111wwwwnnFFvvi11vnvnnni11++++#++##+##wwFFSN",
"11wwE/nww6i+11+1+++++1+111wwvvvFvvi61ibvnnbb71++##+###++##11wFFD",
"+11ww/E!vvi1+7#1++1++++111wwvvFvnvi1711bn/nnw111###++++11##13wFF",
"1111wn/nvvi87+++++++++1+1+11vwFFnvvi7178bnnnnwi1##++++######5wNF",
"+111wv!/vvvw1+++++++++1+++11wwwvnnnvv11111nnnnnn1###+%++#####11w",
"1111wvvnnEvvw1+1++++++++++11wwwwnnnnww11+11nn/nn8111%+++#######1",
"11+111wn/nEvw111++++++++1+1111wwEnnnww+11111nn/nx81#%#+O#######1",
"+111+11w/!!nvw1+11+++++++++1+11wvvnnvw1+1+11nwn/nn11#%%+#+#+####",
"1+1++111nn/nbnii+1++++++++++1111vvvnvv111++111vn!nnn1###++++####",
"+1+11111vn!!n!w1111++++++++++111wvvnvvv1111+111wn!nv811%#++#1#+#",
"1++w+111wwn!/nbbw1+++++++++++1111wvvnnvw11+1+111vnn!SD11####++++",
"++1++1+11wnn//nbw111+1+1+++++++111vvnnnv111+1+116v!/Eww11##+++++"
};
