/* XPM */
static char *c52a01261eb14bd4d3f384a145bd7eacdCxn0aI23BF6x25u[] = {
/* columns rows colors chars-per-pixel */
"64 64 183 2 ",
"   c #05000A",
".  c #08040E",
"X  c #0A0710",
"o  c #0E0C14",
"O  c #100C13",
"+  c #0F1017",
"@  c #14151C",
"#  c #171A20",
"$  c #191E21",
"%  c #1C2225",
"&  c #1F252A",
"*  c #1F2828",
"=  c #21262B",
"-  c #29262A",
";  c #222A2C",
":  c #312C2E",
">  c #262E32",
",  c #2A3235",
"<  c #2A3A34",
"1  c #2D363B",
"2  c #2F393D",
"3  c #333234",
"4  c #323C3F",
"5  c #433C3B",
"6  c #2D4D3E",
"7  c #30413F",
"8  c #343D40",
"9  c #3F4748",
"0  c #335E47",
"q  c #3B5A4D",
"w  c #36654B",
"e  c #3E6D55",
"r  c #3E7C59",
"t  c #4A4342",
"y  c #4F4847",
"u  c #424748",
"i  c #4C4C4C",
"p  c #524A49",
"a  c #52524E",
"s  c #4B5150",
"d  c #5E5B56",
"f  c #585C58",
"g  c #675F5A",
"h  c #4A6152",
"j  c #5F625F",
"k  c #427A5A",
"l  c #6A625D",
"z  c #656662",
"x  c #6D6C65",
"c  c #736B63",
"v  c #73746D",
"b  c #797169",
"n  c #777A6E",
"m  c #488E66",
"M  c #51956E",
"N  c #4DA46E",
"B  c #4EA670",
"V  c #50AA73",
"C  c #52B276",
"Z  c #57B378",
"A  c #5CB37A",
"S  c #55B97B",
"D  c #5ABC7E",
"F  c #63B37D",
"G  c #68B47F",
"H  c #8A847A",
"J  c #93897E",
"K  c #6BB481",
"L  c #65BC83",
"P  c #74B384",
"I  c #7CB287",
"U  c #79B587",
"Y  c #7BB889",
"T  c #5CC584",
"R  c #5DCA86",
"E  c #5ECE88",
"W  c #5FD089",
"Q  c #65C687",
"!  c #6BCD8C",
"~  c #74C58D",
"^  c #61D38C",
"/  c #69D48F",
"(  c #7CC591",
")  c #7DCB93",
"_  c #6FD693",
"`  c #66DE93",
"'  c #6BDB93",
"]  c #74D394",
"[  c #79D295",
"{  c #72D995",
"}  c #78D897",
"|  c #7ED698",
" . c #928D82",
".. c #9E9285",
"X. c #9B968A",
"o. c #A29588",
"O. c #A89F91",
"+. c #8FAE8E",
"@. c #95AD8F",
"#. c #83B38A",
"$. c #8AB38D",
"%. c #85B98E",
"&. c #92B28F",
"*. c #97AD91",
"=. c #9EAF93",
"-. c #89BA91",
";. c #95B391",
":. c #9BB394",
">. c #93BC95",
",. c #99BB96",
"<. c #9EB798",
"1. c #9EBB99",
"2. c #ADA695",
"3. c #A2AC93",
"4. c #AEA997",
"5. c #AFAA98",
"6. c #B1A997",
"7. c #B1A798",
"8. c #B3AD9B",
"9. c #B9AF9E",
"0. c #A2B397",
"q. c #A8B297",
"w. c #A0B798",
"e. c #ADB39A",
"r. c #A4BB9B",
"t. c #AABA9D",
"y. c #B6B19E",
"u. c #BAB19F",
"i. c #ACBDA1",
"p. c #B7B2A0",
"a. c #BCB4A2",
"s. c #B5BAA2",
"d. c #BEB9A6",
"f. c #BFBAA8",
"g. c #C1B6A3",
"h. c #C1B7A5",
"j. c #C1B9A6",
"k. c #C2B9A6",
"l. c #C3B9A7",
"z. c #C8BBA7",
"x. c #C1BBA8",
"c. c #C5BAA8",
"v. c #C2BCA9",
"b. c #C2BDAA",
"n. c #C3BEAB",
"m. c #C5BCAA",
"M. c #C5BFAC",
"N. c #C8BDAB",
"B. c #CABEAB",
"V. c #C9BFAC",
"C. c #86C795",
"Z. c #8BC396",
"A. c #84CB96",
"S. c #8EC698",
"D. c #86CF99",
"F. c #8ACA98",
"G. c #92C297",
"H. c #95C498",
"J. c #9BC49B",
"K. c #95CC9D",
"L. c #9EC99F",
"P. c #86D199",
"I. c #A6C09E",
"U. c #9CCCA0",
"Y. c #9BD0A2",
"T. c #ADC1A2",
"R. c #B3C6A7",
"E. c #BFC4AA",
"W. c #B7CAA9",
"Q. c #C6C0AD",
"!. c #C6C1AD",
"~. c #C9C1AE",
"^. c #CAC2AF",
"/. c #CCC1AE",
"(. c #D1C3AF",
"). c #CDC3B0",
"_. c #CEC5B2",
"`. c #CFC8B5",
"'. c #D0C6B2",
"]. c #D2C6B2",
"[. c #D3C8B6",
"{. c #D5C9B4",
"}. c #D8CCB7",
/* pixels */
"8.p.p.f.f.^.f.f.f.f.p.p.8.8.8.8.8.p.p.p.p.f.b.f.M.f.f.p.p.y.y.y.p.p.p.f.c.^.`.`.Q.Q.s.a.a.a.a.a.a.j.b.N.].[.[.].V.V.m.V.j.l.l.l.",
"y.y.p.p.f.f.`.f.f.f.f.s.p.8.8.8.p.p.p.p.s.p.f.i.M.M.f.a.p.9.8.8.8.y.p.p.a.f.M.`.).Q.b.j.a.a.p.9.a.a.a.l.V.V.[.[.`.V.V.V.c.l.d.c.",
"y.p.8.p.p.f.M.f.M.f.f.f.p.p.5.p.8.8.8.p.p.p.p.<.M.M.f.f.s.p.8.p.y.8.p.p.p.a.f.V.`.).Q.m.f.f.a.p.a.a.a.a.h.j.V.V.[.[.[.V.V.c.h.h.",
"8.5.8.p.p.p.f.f.`.f.f.f.p.p.p.5.5.5.5.8.8.p.p.#.f.b.M.f.f.a.p.8.8.8.8.8.9.9.a.f.Q.).).Q.b.a.a.a.9.y.a.a.a.h.c.m.V.[.[.V.V.z.c.h.",
"5.8.5.p.p.p.p.p.M.M.M.f.f.f.p.8.8.8.8.p.5.p.p.;.:.p.f.b.b.b.a.y.8.8.8.y.y.y.y.9.a.m.^.).^.m.f.a.a.9.p.9.a.a.a.h.c.V.[.[.V.V.V.M.",
"8.5.5.8.5.8.p.p.f.f.M.f.f.f.f.p.8.8.5.5.5.8.8.8.K <.p.f.b.b.f.a.p.8.8.8.5.y.5.y.u.a.b.Q.^.Q.m.f.a.p.p.8.9.a.a.a.a.c.V.V.[.[.V.V.",
"8.8.5.8.p.5.p.p.p.a.f.f.f.f.f.p.p.8.8.5.8.5.8.8.8.L 3.p.f.M.b.f.s.p.8.5.5.y.y.8.y.p.u.d.Q.^.^.b.b.a.p.9.p.p.p.9.a.a.h.c.V.V.}.[.",
"8.8.8.5.5.p.5.8.p.p.f.f.f.f.f.f.s.p.8.8.8.8.5.8.8.:.K 3.9.a.M.b.f.f.y.y.y.5.5.8.6.y.8.u.d.Q.^.Q.b.h.a.a.8.9.p.9.9.a.a.h.c.z.[.[.",
"8.5.8.5.5.5.8.8.8.p.p.p.f.M.M.f.s.a.y.5.8.5.5.y.8.8.U A e.y.a.M.b.f.f.p.8.8.8.5.8.8.5.y.p.a.m.Q.M.M.b.a.a.p.9.9.8.9.p.a.h.h.V.).",
"p.p.8.5.5.5.8.8.8.8.8.p.p.f.b.M.f.f.a.y.8.8.8.5.8.8.6.K F 4.y.f.b.f.f.f.y.8.5.8.5.8.q.8.8.y.a.b.V.M.c.f.a.p.9.8.8.8.9.p.p.h.h.c.",
"p.5.8.5.5.8.8.8.8.8.8.p.p.a.f.b.,.b.f.y.y.8.5.5.5.5.9.2.C U 6.p.a.f.b.a.a.p.y.6.p.5.1.8.8.p.y.a.b.M.).b.f.a.p.9.p.9.8.8.9.9.a.h.",
"p.p.p.5.8.8.8.5.5.8.8.8.p.8.a.d.I.r.f.d.p.y.8.5.8.5.2.8.I Z 6.6.8.a.f.b.f.s.p.6.5.5.>.5.5.6.8.8.a.d.M.M.b.f.a.a.9.9.9.8.9.9.9.a.",
"f.f.p.7.8.8.8.8.8.8.8.8.8.8.a.a.d.P t.M.a.a.8.8.7.5.5.5.@.C *.9.8.9.a.b.m.f.a.y.y.Z.5.5.5.5.8.8.8.a.a.b.M.m.f.a.a.p.p.8.y.8.8.9.",
"f.p.p.p.8.8.7.7.5.8.8.8.8.y.8.y.a.s.P s.f.f.p.8.8.5.7.5.-.C U 6.8.5.6.a.f.b.f.a.H.G.5.5.8.5.5.5.8.6.8.a.b.M.b.f.a.p.8.8.8.8.8.y.",
"M.f.f.p.p.8.5.5.8.8.8.5.8.u.a.y.y.a.t.L f.f.d.9.p.5.5.8.-.C I 4.8.8.8.8.y.j.b.T.| p.8.8.5.8.5.5.5.8.6.p.a.b.M.b.b.a.p.9.8.8.8.8.",
"^.M.f.p.p.p.8.8.8.8.8.8.8.8.y.8.8.u.a.$.K R.f.f.p.9.5.7.~ V I 8.5.5.5.8.y.e.T.} s.f.a.8.8.5.5.5.5.6.8.8.8.9.f.M.M.c.f.p.p.8.8.8.",
"/.^.M.f.p.p.9.7.7.p.7.7.p.7.8.8.p.9.9.p.K U f.f.j.y.8.H.K C U 7.4.5.5.6.6.>.' R.b.f.f.y.y.6.8.6.5.8.5.5.4.8.8.a.b.Q.f.d.y.y.6.6.",
").).^.M.f.a.p.p.p.7.7.p.7.p.p.7.8.9.9.9.*.L f.f.j.d.t.A.Z C *.4.6.4.5.4.4.! G.u.d.b.j.c.y.y.6.6.0.5.5.5.8.8.6.u.a.m.Q.b.d.y.y.y.",
").`.M.M.c.j.f.9.p.9.p.7.p.p.p.p.9.p.9.9.p.C 1.M.b.T.] -.C C 6.4.8.4.4.4.Z.Q 6.6.y.d.b.j.a.u.y.q.,.2.5.8.5.6.4.8.y.a.c.Q.m.s.a.6.",
"M.`.).V.^.c.f.9.p.p.7.7.p.7.7.p.8.8.8.p.9.C %.c.R.{ I.S C P 8.6.5.4.4.4.] ) P 6.y.u.a.b.b.s.u.F.8.8.5.5.5.4.4.8.6.8.y.d.Q.f.d.a.",
"m.V.[.).).V.c.f.9.9.9.9.7.9.p.7.8.8.8.y.q.C %.p.{ L.P C C :.y.6.8.4.6.4.` Z.+.+.4.8.y.a.j.b.P.I.8.8.5.5.5.5.5.8.8.8.8.y.f.b.b.d.",
"c.c.).[.).).).c.c.p.9.p.p.p.7.9.p.p.8.9.;.C $.H.{ r.C C K j.y.y.8.8.6.4.` Z.4.G #.6.8.y.u.P.I.s.a.y.y.6.8.5.5.5.4.6.6.8.y.a.d.j.",
"h.h.V.).`.).M.M.c.c.f.9.p.9.7.9.8.p.9.p.K V 0.| F.K C C t.c.a.a.y.6.6.6.` A.4.4.F #.8.8.S.A.j.j.f.d.y.6.4.5.5.5.4.4.4.6.8.y.u.c.",
"h.h.c.).).).).).c.c.f.p.p.9.9.9.8.9.9.0.C L 9.` G.Z C Z Q.Q.d.a.a.y.y.y.` _ 2.6.3.Z 4.q.` e.u.d.j.d.u.y.6.6.6.6.4.4.4.4.6.6.y.y.",
"a.h.h.h.V.}.V.[.V.V.N.h.9.a.9.9.9.9.p.K Z #.9.` F.C C L m.^.Q.j.d.a.y.6.] ` ,.6.2.F $.C.A.4.8.u.E.Q.Q.u.y.8.8.4.4.6.4.6.4.8.6.8.",
"a.h.h.h.z.V.}.V.V.V.N.c.h.g.9.9.9.p.I V V 8.9.` ~ C C A j.m.^.Q.b.a.a.y.G.` ] 6.7.F P ) Z.4.6.8.y.u.d.j.u.y.y.8.4.4.4.4.4.6.4.6.",
"a.a.a.g.c.z.V.[.{.V.N.B.c.h.g.9.p.9.L V U a.9.] ` C C C <.j.m.^.Q.m.f.a.y.` ` Z.6.F F ) Z.4.4.6.6.u.d.j.E.r.u.y.y.4.4.4.4.4.4.4.",
"9.9.h.a.c.N.V.V.}.}.V.B.c.h.g.g.9.=.C C :.9.9.F.` A C C K a.g.m.Q.Q.c.a.u.S.` ` 3.A G ] ) 4.4.6.8.8.u.g.r.t.d.u.y.6.4.4.4.4.4.4.",
"a.a.f.a.g.g.h.N.{.[.{.V.V.V.c.g.p.:.C C *.9.9.p.` R C C C $.d.h.m.^.N.Q.d.y.` ` ( C #.A.' 3.6.6.6.8.8.0.$.b.d.d.a.y.y.4.6.2.4.4.",
"9.9.a.a.g.9.g.h.V.[.}.V.}.V.N.c.a.<.C C $.8.8.9.) ` C C C Z e.a.g.z.Q.Q.b.h.} ` D C :.>.` Z.4.6.4.6.q.G y.u.d.j.d.u.y.y.6.8.4.2.",
"9.9.a.f.g.h.h.h.V.V.}.{.V.{.V.V.c.p.C C A 8.9.9.t.` T C C C K a.g.g.z.Q.Q.m.} ^ C G 8.6.' ` 0.6.6.2.F q.8.y.u.d.b.d.u.y.y.6.4.4.",
"a.9.a.9.9.h.g.h.c.z.V.{.}.V.V.V.c.j.P C C #.8.9.8.] ` C C C C #.g.u.j.N.^.^.| S C w.y.8.G.` [ 6.6.#.#.6.8.6.y.y.d.j.f.d.a.6.5.4.",
"9.a.9.9.9.a.g.h.g.z.z.B.}.{.V.B.N.z.r.C C C 0.y.y.[ ` Q C C C C :.u.g.g./.!.W C S z.u.y.y.` ` e.4.F &.6.8.8.8.8.u.d.Q.u.u.y.q.8.",
"9.a.a.9.9.9.g.g.g.z.z.z.{.}.}.B./.N.l.G C C F 8.9.] ` [ F C C C F u.u.g.g.P.R C L z.E.u.y.[ ` H.6.F &.y.6.6.8.6.8.y.u.Q.Q.u.u.u.",
"a.a.a.9.9.a.g.g.g.g.g.z.B.{.}.{.(./.Q.t.C C C P w.` ` S.:.C C C C &.u.g.K.` R C L !.Q.z.g.{ ` S.6.F #.6.6.6.6.6.8.8.9.u.!.j.u.u.",
"a.9.a.9.9.a.9.a.g.g.g.z.z.B.{.}.(.]./.z.P C C Z ] ` ` r.y.F C C C U u.e.` ` R C C !./.z.I.` ` I.8.I F 6.6.6.6.8.8.6.8.9.u.d.f.!.",
"9.9.9.a.g.u.u.9.9.g.g.g.g.z.N.}.{.{.].^.d.Z C T ` ` ' 9.8.G Z C C G u.] ` ` ` C C G (.(.} ` ' I.u.q.C #.8.6.6.6.6.y.6.y.8.u.z.E.",
"h.a.9.9.u.u.u.u.9.g.g.9.g.g.z.N.{.{.]././.U S ` ` ` J.8.9.P Z V C G H.` ` ` A.G C C I.Y.` ` K.g.g.u.P Z e.8.6.6.8.6.6.6.8.8.y.u.",
"h.h.a.9.9.9.9.u.9.9.g.g.u.g.g.z.].}.{.]./.Z.^ ` ` ] 9.9.9.A C C C F ` ` ` ' y.w.Z Z Z ` ` ' E.(.g.u.&.C &.8.8.6.6.8.6.6.6.y.8.y.",
"h.h.a.9.9.u.u.9.g.9.g.g.g.g.g.g.z.].}.{.(._ ` ` ` H.u.u.#.C C C C L ` ` ` S.u.u.G C C D ` Y./.!.z.m.r.Z #.8.8.8.6.8.u.6.6.6.6.u.",
"h.h.h.9.9.9.a.9.a.a.g.g.a.g.g.g.c.N.].}.W.` ` ` W c.a.y.Z C C C C Q ` ` ` y.u.u.e.Z C C Q z.(.(././.Y C ,.u.u.q.6.u.6.6.6.6.6.8.",
"c.c.h.a.a.a.a.9.u.u.u.a.a.g.g.g.g.z./.].! ` ` ` L N.c.G C C C C Z ` ` ` ` u.9.9.9.T C C A g.z.z.(.I.C Z u.u.u.u.9.6.6.6.8.9.6.6.",
"V.c.h.g.a.9.9.a.g.u.u.u.u.g.g.g.g.g.z.>.^ ` ` ` ,.^.%.C C C C C #.` ` ` ` e.u.y.t.^ C C C g.g.z.!.A C %.!.g.u.u.9.9.6.6.y.6.y.6.",
"V.c.c.c.g.a.9.9.u.u.u.u.9.u.u.g.g.g.y.C ^ ` ` ` (.T.C C C C C C e.` ` ` ` H.9.y.r.^ C C Z u.u.g.G C Z !./.!.z.u.y.y.9.9.6.9.6.y.",
"V.B.B.c.h.a.9.9.a.9.u.a.g.u.u.g.g.u.A C E ` ` ` Y.A C C C C C $.z.P.` ` ` ` e.u.r.D C C C u.I.w.Z C >./.(.Q.!.g.g.u.y.y.9.y.6.9.",
"}.V.B.B.h.h.h.9.u.u.u.9.u.u.u.u.u.#.C C T ` ` ` R C C C C C L g.g.L.` ` ` ` [ u.:.C C C D t.W.J C Z g.z.(.(./.z.z.g.9.y.9.6.6.9.",
"V.V.B.B.h.c.h.9.u.9.9.9.u.u.u.g.u.F C C Z ` ` ` S C C C C C t.m.g.g.` ` ` ` ` G.F C C C E A.u.G C F g.g.z./.(.(.z.z.g.u.9.y.9.9.",
"V.}.V.B.c.c.h.h.9.u.y.u.u.y.u.u.e.S C C C Q ` ` C C C C C P V.N.Q.z.I.` ` ` ` Q C C C S ` ` H.G C C e.u.u.z.Q.(./.Q.z.g.g.u.9.9.",
"V.(.{.B.V.B.B.g.g.g.9.9.a.9.a.9.:.C C C C %.{ ^ C C C C C -.n l z  .M.} ` ` W C C C C E ` ` ` %.C C F u.u.g.l.z.(.(.z.z.!.g.u.u.",
"B.{.}.B.V.V.B.z.g.g.9.6.9.9.9.a.<.C C C C G K.^ C C C C C k = $ $ % s R.` ` S C C C L ' ` ` ` [ Z C S J 9.g.g.g.z.(.(./.!.g.u.9.",
"g.z.B.{.V.V.l.g.g.o. .v X.7.9.9.e.C C C C C w./ C C C C C N % % % % $ x P.` C C C C :.1.` ` ` ` #.C S S 3.g.u.u.z.z.(.(.!.z.z.u.",
"g.z.z.(.V.N.N.o.i 8 8 8 8 8 z 7.8.A C C C C G H.C C C C C C 0 % ; > , z *.R C C C S a.f.` ` ` ` I.S C C G g.u.g.g.g.z.(.(.!.z.z.",
"g.g.z.(.(.(.H 8 1 8 8 1 8 > 8 8 O.U C m w 0 0 h r N C C C C k 4 8 2 2 2 2 q B C C C g.s.` ` ` ` I.&.C C C u.u.u.u.g.g./.(.(.!./.",
"g.g.g.z.(.z.8 8 1 1 1 8 1 8 8 8 s n ; % % % % % % * 6 B C e 2 2 2 2 2 2 2 2 8 V C C >.U.` ` ` ` I.&.N N Z &.u.u.u.9.g.g././.(./.",
"g.g.g.g.(.g.: 8 8 1 8 > > 8 8 8 ; % % % % % % % % % % * r 4 2 2 2 2 2 2 2 2 1 2 2 2 q M ^ ` ` E g ; % % * d 2.u.u.g.u.g.g./.(./.",
"g.g.g.g.z.(.t 8 8 1 1 8 8 8 8 # % % % % % % % % % % % % % 7 2 2 2 2 2 2 2 2 2 2 2 2 2 2 8 m E < % % % % % % 3 e.u.9.u.u.u.g./.(.",
"g.g.g.g.z.g.. # > 1 8 8 8 1 & $ % % % % % % % % % % % % % , f 3 2 2 8 1 8 1 1 8 2 2 2 2 2 2 8 % % % % % @ = @ a u.u.9.u.u.g.g.z.",
"u.u.g.g.g.z.5 . X X X o     $ % % % % % % % % % % % % % % % J 9.H 8 1 8 1 8 8 1 2 2 2 2 2 2 8 , % % % % * % ; +   t 9.g.g.9.u.g.",
"g.g.u.g.g.g.z.B.X.X.X... . .u % % % % $ % % % % % % % % % % 5 o.j 8 1 1 8 1 1 8 2 2 2 2 2 2 2 2 = % % % * @ o     O 9.u.9.9.u.g.",
"u.g.g.9.g.g.g.z.`.[.V.V.z.m.8.% % % % = % % % % % % % % % +   O 9 1 8 1 1 8 1 1 2 2 2 2 2 2 2 2 z g p : : : : y c 6.u.9.u.g.u.u.",
"u.u.g.g.9.g.g.g.N.(.}.}.V.V.z.b @ $ % $ % % % % % % % @ X   O c v 4 2 2 8 8 1 1 2 2 2 2 2 2 2 4 . p 6.c.g.g.u.u.9.9.9.9.u.u.u.u.",
"g.u.9.g.g.g.g.g.z.N.{.V.].V.N.c.g.b p > @ @ @ @ @ X   : 5 b 6.g.g.z 2 2 1 1 1 8 2 1 2 2 2 2 , +     y V.z.z.g.g.9.9.9.9.u.u.9.u.",
"9.a.u.g.9.g.g.g.z.z.V.}.}.V.V.N.c.g.a.u.a.9.9.9.9.8.u.u.u.g.u.g.g.g.d = > 2 1 8 2 8 2 , - #       3 9.]./.z.g.g.g.9.9.9.u.9.u.9.",
"u.u.9.9.9.g.9.g.g.g.z.V.}.}.V.V.c.g.g.a.9.a.a.a.a.u.u.9.u.u.u.u.g.g.c.u.H z , > # +     - : t l O.z.].{.z.z.z.g.g.g.u.9.9.9.9.9."
};
